<svg width="789" height="834" viewBox="0 0 789 834" fill="none" xmlns="http://www.w3.org/2000/svg">
<path d="M327.751 428.342C244.274 480.884 156.222 709.901 156.222 709.901L570.92 707.565C570.92 707.565 665.443 467.707 630.411 429.176C595.379 390.645 363.098 405.991 327.751 428.342Z" fill="#FBBF24"/>
<path d="M258.476 703.896C258.318 703.896 258.003 703.896 257.845 703.729C257.372 703.396 257.056 702.728 257.372 702.061C259.265 698.392 271.731 670.202 287.354 634.507C337.376 520.916 361.677 466.706 364.518 465.038C365.149 464.705 365.78 465.038 366.096 465.539C366.411 466.039 366.096 466.873 365.622 467.207C361.993 470.876 318.44 569.956 289.563 635.341C273.783 671.036 261.474 699.226 259.423 703.062C259.265 703.729 258.95 703.896 258.476 703.896Z" fill="#231F20"/>
<path d="M429.374 431.845C429.374 431.845 405.388 501.901 427.007 520.082C448.625 538.264 520.424 457.866 529.261 403.99C538.098 350.113 429.374 431.845 429.374 431.845Z" fill="#231F20"/>
<path d="M434.739 523.919C431.741 524.086 428.743 522.918 426.218 521.083C404.126 502.568 427.165 434.347 428.111 431.345C428.111 431.178 428.269 430.844 428.585 430.678C431.741 428.342 505.749 373.132 525.79 386.476C530.208 389.478 531.786 395.483 530.366 404.156C523.265 448.192 474.347 509.574 444.365 521.75C441.367 523.085 438.053 523.752 434.739 523.919ZM430.321 432.512C428.585 438.017 407.755 502.235 427.796 518.915C431.425 521.917 436.633 522.084 443.576 519.248C472.927 507.406 520.898 446.857 527.999 403.656C529.261 395.983 527.999 390.979 524.527 388.477C516.953 383.306 498.175 389.311 470.56 405.658C450.677 417.5 432.845 430.678 430.321 432.512Z" fill="#231F20"/>
<path d="M426.849 372.298L429.216 431.678C429.216 431.678 450.045 466.039 485.077 452.362C520.109 438.684 529.261 403.823 529.261 403.823L517.11 296.57C517.11 296.57 488.706 284.728 489.969 222.678C489.969 222.678 452.255 248.532 398.129 247.865C398.129 247.865 388.977 316.253 396.551 345.109C404.126 373.966 426.849 372.298 426.849 372.298Z" fill="white"/>
<path d="M469.139 456.865C443.576 456.865 428.585 432.679 428.269 432.346C428.111 432.179 428.111 432.012 428.111 431.678L425.744 373.465C420.695 373.298 402.074 371.13 395.447 345.443C387.872 316.586 396.551 250.534 396.867 247.698C397.025 247.031 397.498 246.697 398.129 246.697C451.466 247.364 489.022 222.011 489.338 221.844C489.811 221.51 490.6 221.677 491.074 222.178C491.231 222.344 491.231 222.678 491.231 222.845C490.6 254.537 497.859 272.551 504.013 282.226C510.641 292.567 517.584 295.57 517.584 295.57C518.057 295.736 518.215 296.07 518.373 296.57L530.524 403.823C530.524 403.99 530.524 404.156 530.524 404.323C530.366 404.657 520.74 440.018 485.708 453.696C480.343 455.864 474.662 456.865 469.139 456.865ZM430.478 431.345C432.688 434.848 452.255 463.871 484.604 451.361C516.953 438.851 527.052 406.992 527.999 403.99L516.006 297.738C511.588 295.57 488.391 281.058 488.707 225.18C461.565 241.026 431.11 249.366 400.023 249.366H399.076C397.972 258.206 390.871 318.755 397.656 344.942C404.915 372.464 425.902 371.13 426.849 371.13C427.165 371.13 427.48 371.297 427.796 371.464C427.954 371.63 428.111 371.964 428.111 372.298L430.478 431.345Z" fill="#231F20"/>
<path d="M503.382 295.903C504.013 290.566 506.38 285.562 509.852 281.725C513.323 278.222 517.268 275.554 521.687 273.552C523.896 272.218 526.578 271.384 529.103 271.217C530.997 271.384 532.733 271.717 534.468 272.551C538.571 274.052 542.043 277.055 544.252 281.058C545.514 284.394 546.146 288.23 545.83 291.9C545.83 295.903 545.199 299.906 544.252 303.743C539.834 319.756 523.896 328.93 508.589 324.259C508.431 324.259 508.274 324.092 508.116 324.092" fill="white"/>
<path d="M516.953 326.594C513.955 326.594 510.956 326.094 508.116 325.093C507.485 324.926 507.169 324.092 507.327 323.425C507.485 322.758 508.274 322.424 508.905 322.591C523.423 327.428 538.729 318.755 543.305 303.576C543.305 303.409 543.305 303.242 543.463 303.242C544.41 299.406 544.883 295.57 544.883 291.733C545.199 288.23 544.568 284.728 543.305 281.558C541.412 277.388 537.309 274.886 534.153 273.552C532.575 272.718 530.997 272.384 529.261 272.218C526.894 272.384 524.527 273.218 522.318 274.386C518.057 276.388 514.112 279.056 510.799 282.392C507.485 286.062 505.276 290.899 504.644 295.903C504.644 296.57 504.013 297.071 503.382 297.071C502.751 296.904 502.277 296.404 502.277 295.736C502.909 290.065 505.433 284.894 509.063 280.724C512.692 277.222 516.795 274.386 521.213 272.218C523.58 270.716 526.263 269.882 529.103 269.716C531.155 269.882 533.048 270.216 534.942 271.217C539.36 272.885 542.99 276.054 545.199 280.391C546.619 284.06 547.25 287.897 546.935 291.733C546.935 295.903 546.461 299.906 545.357 303.91C541.727 317.42 530.05 326.594 516.953 326.594Z" fill="#231F20"/>
<path d="M434.739 317.587C431.899 317.754 429.058 316.92 426.849 315.085C421.642 310.081 434.423 284.894 438.368 277.388C438.684 276.888 439.315 276.554 439.946 276.888C440.578 277.222 440.735 277.889 440.42 278.556C432.688 293.234 425.902 310.748 428.427 313.25C432.056 316.753 441.209 314.418 444.365 313.25C444.996 313.084 445.627 313.417 445.943 314.084C446.258 314.752 445.785 315.419 445.154 315.752C441.84 316.92 438.211 317.587 434.739 317.587Z" fill="#231F20"/>
<path d="M669.703 651.187C649.505 651.521 629.938 642.68 616.209 627.001C615.736 626.501 615.736 625.667 616.051 625.166C616.525 624.666 617.314 624.666 617.787 625L617.945 625.166C632.305 641.68 653.292 650.186 675.857 648.185C698.423 646.183 719.095 633.84 730.772 614.825C740.555 598.979 745.447 578.462 745.447 551.941C745.605 527.088 741.502 491.726 721.462 464.038C716.096 456.698 708.837 450.026 701.894 443.521C687.692 430.344 673.017 416.666 670.966 395.816C670.65 391.813 670.65 387.643 670.966 383.473C671.439 378.97 671.281 374.299 670.808 369.796C668.599 355.618 656.921 342.941 639.248 336.102C631.831 333.433 624.414 331.098 616.682 329.43C608.634 327.595 600.587 325.26 592.855 322.258C574.55 314.752 562.557 301.074 560.663 285.728C560.505 285.061 560.979 284.394 561.768 284.227C562.557 284.06 563.03 284.561 563.188 285.395C565.24 302.242 580.388 314.251 593.801 319.922C601.533 322.925 609.424 325.26 617.314 327.095C625.046 328.93 632.62 331.098 640.195 333.934C658.499 341.273 670.966 354.617 673.175 369.629C673.806 374.299 673.806 379.136 673.333 383.974C673.017 387.977 673.017 391.98 673.333 395.816C675.226 415.666 689.586 429.01 703.315 441.853C710.416 448.358 717.674 455.197 723.197 462.703C743.711 490.892 747.814 526.921 747.814 552.275C747.656 579.296 742.764 600.313 732.665 616.493C720.515 636.008 699.369 649.019 675.857 650.854C673.964 651.187 671.912 651.187 669.703 651.187Z" fill="#FBBF24"/>
<path d="M500.384 639.511C483.184 600.814 329.802 451.694 317.494 432.346C305.185 412.997 308.341 402.155 288.458 388.477C268.576 374.8 237.805 350.614 233.228 353.449C228.652 356.285 227.863 367.127 231.65 373.632C235.438 380.137 248.062 388.144 251.533 394.649C255.005 401.154 255.005 403.156 255.005 403.156C255.005 403.156 199.775 389.478 192.043 381.472C184.31 373.465 173.422 344.776 165.69 340.772C160.798 338.437 155.433 337.436 150.068 338.437C150.068 338.437 142.02 327.595 136.655 331.932C133.183 334.934 133.657 339.938 135.866 343.608C129.712 339.104 131.763 349.78 132.236 352.782C141.704 410.161 187.624 452.862 242.696 455.197C252.164 455.531 265.735 453.362 272.521 461.369C278.359 468.374 280.253 478.883 284.356 487.056C290.036 498.732 295.875 510.241 301.871 521.75C316.705 550.273 332.169 578.629 348.738 605.984C366.885 636.008 386.768 669.702 414.067 691.553C470.875 736.756 517.584 678.376 500.384 639.511Z" fill="white"/>
<path d="M455.411 709.4C441.998 709.4 427.638 703.729 413.752 692.72C387.399 671.704 367.832 639.178 350.474 610.655L348.107 606.818C333.274 582.299 317.809 554.61 301.082 522.418C295.244 511.075 289.247 499.399 283.567 487.723C282.146 484.554 280.726 481.385 279.622 478.049C277.57 472.378 275.519 466.54 271.889 462.203C266.84 456.198 257.372 456.365 249.008 456.365C246.799 456.365 244.906 456.365 242.854 456.365C187.151 454.196 140.442 410.828 131.132 352.782V352.282C130.343 347.778 129.869 342.941 132.079 341.44C132.552 341.106 133.025 340.939 133.657 340.939C132.236 337.27 133.183 333.1 136.024 330.598C137.286 329.597 138.864 329.096 140.442 329.263C144.86 329.764 149.121 334.934 150.541 336.602C155.906 335.935 161.272 336.769 166.163 339.271C170.74 341.773 175.947 351.448 181.628 361.956C185.573 369.295 189.676 376.801 192.832 380.304C198.512 386.309 233.702 396.317 253.269 401.321C252.48 399.152 251.533 397.151 250.429 395.149C248.693 391.98 244.59 388.31 240.645 384.808C236.7 381.305 232.597 377.635 230.704 374.299C228.179 369.629 227.39 364.124 228.652 358.954C229.126 356.285 230.546 353.783 232.755 352.282C236.542 349.946 248.693 358.286 273.783 376.301C279.306 380.304 284.513 384.14 289.247 387.31C302.345 396.484 305.659 404.156 309.761 414.164C312.128 420.336 315.127 426.174 318.44 431.678C322.701 438.517 346.213 463.204 373.355 491.56C422.746 543.268 490.285 613.991 501.331 639.011C509.852 658.193 503.382 682.879 486.182 697.558C477.661 705.23 466.772 709.4 455.411 709.4ZM252.796 453.863C260.686 453.863 268.733 454.53 273.783 460.535C277.728 465.205 279.937 471.21 281.989 477.048C283.093 480.217 284.356 483.386 285.776 486.389C291.457 498.065 297.453 509.741 303.292 521.083C320.018 553.276 335.325 580.798 350.158 605.317L352.525 609.154C369.725 637.51 389.293 669.869 415.172 690.552C439.631 710.068 465.668 711.902 484.762 695.556C501.173 681.378 507.327 658.026 499.279 640.012C488.391 615.325 421.01 544.769 371.777 493.228C343.373 463.537 320.965 440.018 316.547 432.846C313.075 427.175 310.077 421.17 307.552 414.998C303.607 405.491 300.451 397.985 287.827 389.311C283.093 385.975 277.886 382.306 272.363 378.302C258.161 368.128 236.7 352.615 233.86 354.283C232.282 355.451 231.335 357.286 231.019 359.287C230.072 363.791 230.704 368.628 232.755 372.631C234.491 375.634 238.436 379.136 242.223 382.472C246.326 386.142 250.744 390.145 252.638 393.648C256.109 399.986 256.267 402.322 256.267 402.655C256.267 402.989 256.109 403.489 255.794 403.656C255.478 403.823 255.163 403.99 254.847 403.823C252.638 403.322 199.144 389.978 191.411 381.805C187.94 378.136 183.995 370.796 179.892 362.957C175 353.783 169.477 343.441 165.532 341.44C160.956 339.104 155.749 338.437 150.699 339.104C150.226 339.271 149.752 338.938 149.594 338.604C148.332 336.769 144.071 332.099 140.6 331.598C139.653 331.432 138.706 331.765 137.917 332.432C134.919 334.934 135.55 339.271 137.444 342.44C137.759 342.941 137.759 343.608 137.286 344.108C136.813 344.609 136.181 344.609 135.708 344.275C134.446 343.441 133.972 343.274 133.814 343.441C133.657 343.608 132.868 344.942 133.972 351.781V352.282C143.125 409.16 188.729 451.528 243.485 453.863C245.379 453.863 247.273 453.863 249.482 453.863H252.796Z" fill="#231F20"/>
<path d="M150.226 338.104C150.226 338.104 155.906 370.463 178.787 392.314L150.226 338.104Z" fill="white"/>
<path d="M178.787 393.481C178.472 393.481 178.156 393.314 177.998 393.148C154.96 371.297 149.121 338.604 149.121 338.27C148.963 337.603 149.437 336.936 150.068 336.769C150.699 336.602 151.33 337.103 151.488 337.77C151.488 338.104 157.327 369.962 179.734 391.313C180.208 391.813 180.208 392.647 179.734 393.148C179.419 393.314 179.103 393.481 178.787 393.481Z" fill="#231F20"/>
<path d="M136.023 343.274C136.023 343.274 154.013 389.811 170.108 398.318L136.023 343.274Z" fill="white"/>
<path d="M170.108 399.653C169.951 399.653 169.793 399.653 169.635 399.486C153.382 390.812 135.708 345.776 134.919 343.775C134.603 343.108 134.919 342.44 135.55 342.107C136.181 341.773 136.813 342.107 137.128 342.774C137.286 343.274 155.117 388.978 170.582 397.151C171.213 397.484 171.371 398.152 171.055 398.819C171.055 399.319 170.582 399.653 170.108 399.653Z" fill="#231F20"/>
<path d="M475.294 605.651C474.978 605.651 474.82 605.651 474.662 605.484C474.189 605.15 474.031 604.316 474.347 603.816C474.82 603.149 516.006 538.764 549.933 470.543C550.249 469.876 551.038 469.709 551.511 470.209C551.984 470.543 552.142 471.21 551.984 471.877C517.9 540.265 476.556 604.65 476.24 605.317C476.083 605.484 475.609 605.651 475.294 605.651Z" fill="#231F20"/>
<path d="M562.872 248.866C562.557 248.866 562.241 248.699 562.083 248.532C561.61 248.032 561.452 247.364 561.926 246.697C576.285 228.85 582.597 205.498 579.284 182.312C577.706 171.137 573.761 161.629 568.08 154.624C560.505 145.45 548.828 139.445 534.942 137.777C521.844 136.109 508.589 138.277 497.07 140.279L495.965 140.446C486.024 142.28 475.767 144.115 466.141 141.113C461.249 139.445 456.673 137.276 452.412 134.441C449.414 132.606 446.258 130.938 443.102 129.437C428.9 123.265 411.227 125.434 398.129 135.108C385.19 144.949 376.984 160.462 375.879 177.475C375.879 178.142 375.248 178.643 374.617 178.643C373.986 178.643 373.512 177.976 373.512 177.308C374.617 159.628 383.138 143.448 396.709 133.106C410.438 122.932 428.9 120.596 443.891 127.268C447.205 128.77 450.361 130.438 453.517 132.439C457.62 135.108 462.196 137.276 466.772 138.944C476.082 141.78 486.024 139.945 495.65 138.11L496.754 137.944C508.431 135.775 522.002 133.607 535.415 135.275C549.933 137.11 562.241 143.448 570.131 152.956C576.128 160.295 580.23 170.303 581.966 181.812C585.438 205.664 578.81 229.85 564.135 248.198C563.661 248.699 563.188 248.866 562.872 248.866Z" fill="#FBBF24"/>
<path d="M440.893 350.78C437.106 350.78 433.477 349.613 430.163 347.611C420.064 340.772 416.908 325.927 416.75 325.26C416.592 324.593 417.065 323.926 417.697 323.759C418.328 323.592 418.959 324.092 419.117 324.76C419.117 324.926 422.115 339.271 431.425 345.443C435.844 348.278 441.209 349.112 446.101 347.611C467.404 342.274 467.246 314.251 467.246 314.084C467.246 313.417 467.719 312.75 468.35 312.75C468.982 312.75 469.613 313.25 469.613 314.084C469.613 314.418 469.771 344.275 446.574 350.113C444.68 350.447 442.787 350.78 440.893 350.78Z" fill="#231F20"/>
<path d="M426.849 372.298C426.849 372.298 461.723 373.132 482.868 343.942C482.868 343.942 471.98 403.156 428.269 407.826L426.849 372.298Z" fill="#231F20"/>
<path d="M428.427 409.16C428.111 409.16 427.796 408.994 427.638 408.827C427.322 408.66 427.165 408.326 427.165 407.993L425.744 372.464C425.744 372.131 425.902 371.797 426.06 371.464C426.376 371.297 426.691 371.13 427.007 371.13C427.322 371.13 461.565 371.464 482.079 343.274C482.395 342.774 483.026 342.607 483.499 342.941C483.973 343.108 484.288 343.775 484.13 344.275C483.973 344.776 472.611 404.323 428.427 409.16ZM428.111 373.632L429.532 406.658C463.301 401.988 476.714 363.457 480.501 349.112C461.565 371.13 434.266 373.298 428.111 373.632Z" fill="#231F20"/>
<path d="M509.536 702.562C508.905 702.562 508.274 701.894 508.274 701.227C508.274 700.894 508.431 700.56 508.589 700.393C509.22 699.726 567.133 639.511 604.532 563.284C604.847 562.616 605.478 562.45 606.11 562.783C606.741 563.117 606.899 563.784 606.583 564.451C569.027 641.012 510.798 701.561 510.167 702.228C510.167 702.395 509.852 702.562 509.536 702.562Z" fill="#231F20"/>
<path d="M359.311 414.164C351.578 414.164 344.477 407.326 340.532 399.82C333.116 385.642 332.169 367.294 338.008 350.78C343.215 335.935 353.788 322.258 367.674 312.416C368.147 312.083 368.936 312.083 369.41 312.75C369.725 313.25 369.725 314.084 369.094 314.585C355.523 324.259 345.266 337.436 340.217 351.614C334.694 367.46 335.483 384.974 342.584 398.652C346.529 406.325 353.945 413.164 361.678 411.329C362.309 411.162 362.94 411.662 363.098 412.33C363.256 412.997 362.782 413.664 362.151 413.831C361.362 414.164 360.257 414.164 359.311 414.164Z" fill="#FBBF24"/>
<path d="M192.042 316.42C225.247 316.42 252.164 287.967 252.164 252.869C252.164 217.771 225.247 189.318 192.042 189.318C158.838 189.318 131.921 217.771 131.921 252.869C131.921 287.967 158.838 316.42 192.042 316.42Z" fill="white"/>
<path d="M192.043 317.587C158.116 317.587 130.658 288.564 130.658 252.869C130.658 217.007 158.116 187.984 191.885 187.984C225.812 187.984 253.269 217.007 253.269 252.702C253.269 288.564 225.97 317.587 192.043 317.587ZM192.043 190.652C159.536 190.652 133.183 218.508 133.183 252.869C133.183 287.23 159.536 315.085 192.043 315.085C224.549 315.085 250.902 287.23 250.902 252.869C250.902 218.508 224.549 190.652 192.043 190.652Z" fill="#D1D3D4"/>
<path d="M98.1516 303.91C91.3662 303.91 86.3166 302.575 85.0542 299.072C81.267 288.397 116.614 268.381 131.921 260.208C132.552 259.874 133.183 260.208 133.499 260.708C133.814 261.376 133.499 262.043 133.025 262.376C98.9406 280.391 85.5276 293.234 87.2634 298.072C88.9992 302.909 107.777 303.076 145.492 292.067C162.218 287.23 180.681 280.724 198.986 273.385C217.764 265.879 235.911 257.539 251.375 249.366C285.934 231.352 299.662 218.341 298.084 213.337C296.506 208.333 278.517 208.333 242.223 218.508C241.592 218.675 240.961 218.341 240.803 217.674C240.645 217.007 240.961 216.34 241.592 216.173C258.003 211.502 296.506 201.995 300.293 212.503C304.081 223.012 268.102 243.528 252.48 251.701C236.858 259.874 218.553 268.214 199.775 275.72C181.47 283.06 162.85 289.565 146.123 294.402C134.603 298.238 112.511 303.91 98.1516 303.91Z" fill="#D1D3D4"/>
<path d="M81.7404 376.468C90.3683 376.468 97.3626 369.074 97.3626 359.954C97.3626 350.834 90.3683 343.441 81.7404 343.441C73.1125 343.441 66.1182 350.834 66.1182 359.954C66.1182 369.074 73.1125 376.468 81.7404 376.468Z" fill="white"/>
<path d="M81.7405 377.635C72.4303 377.635 65.0137 369.629 65.0137 359.954C65.0137 350.113 72.5881 342.274 81.7405 342.274C90.8929 342.274 98.4673 350.28 98.4673 359.954C98.4673 369.796 91.0507 377.635 81.7405 377.635ZM81.7405 344.776C73.8505 344.776 67.3807 351.614 67.3807 359.954C67.3807 368.294 73.8505 375.133 81.7405 375.133C89.6305 375.133 96.1003 368.294 96.1003 359.954C96.1003 351.614 89.6305 344.776 81.7405 344.776Z" fill="#D1D3D4"/>
<path d="M68.9586 209.834L73.377 225.847L88.5258 230.518L73.377 235.188L68.9586 251.201L64.5402 235.188L49.3914 230.518L64.5402 225.847L68.9586 209.834Z" fill="#D1D3D4"/>
<path d="M293.035 300.574L296.191 311.916L306.921 315.252L296.191 318.588L293.035 330.097L289.879 318.588L279.148 315.252L289.879 311.916L293.035 300.574Z" fill="#D1D3D4"/>
<path d="M109.829 160.962L112.985 172.304L123.715 175.64L112.985 178.976L109.829 190.319L106.673 178.976L95.7847 175.64L106.673 172.304L109.829 160.962Z" fill="white"/>
<path d="M109.829 191.653C109.355 191.653 108.882 191.32 108.724 190.652L105.726 179.977L95.6268 176.808C94.9956 176.641 94.68 175.807 94.8378 175.14C94.9956 174.806 95.3112 174.473 95.6268 174.306L105.726 171.137L108.724 160.462C109.04 159.794 109.671 159.461 110.302 159.794C110.618 159.961 110.776 160.128 110.933 160.462L113.932 171.137L124.031 174.306C124.662 174.473 124.978 175.307 124.82 175.974C124.662 176.308 124.346 176.641 124.031 176.808L113.932 179.977L110.933 190.652C110.776 191.153 110.302 191.653 109.829 191.653ZM100.045 175.64L106.831 177.809C107.304 177.976 107.462 178.309 107.62 178.643L109.671 185.815L111.722 178.643C111.88 178.309 112.196 177.976 112.511 177.809L119.297 175.64L112.511 173.472C112.196 173.305 111.88 172.972 111.722 172.638L109.671 165.466L107.62 172.638C107.462 172.972 107.146 173.305 106.831 173.472L100.045 175.64Z" fill="#D1D3D4"/>
<path d="M259.108 156.458C262.071 156.458 264.473 153.919 264.473 150.787C264.473 147.655 262.071 145.116 259.108 145.116C256.145 145.116 253.742 147.655 253.742 150.787C253.742 153.919 256.145 156.458 259.108 156.458Z" fill="#D1D3D4"/>
<path d="M181.943 200.494C181.943 200.494 157.642 206.665 149.91 226.681L181.943 200.494Z" fill="white"/>
<path d="M149.91 227.849C149.752 227.849 149.594 227.849 149.437 227.682C148.805 227.348 148.49 226.681 148.805 226.014C156.695 205.664 180.681 199.326 181.628 198.992C182.259 198.826 182.89 199.326 183.048 199.993C183.206 200.66 182.89 201.328 182.101 201.494C181.786 201.494 158.273 207.833 150.857 227.015C150.857 227.682 150.383 227.849 149.91 227.849Z" fill="#D1D3D4"/>
<path d="M505.118 211.169C505.118 211.169 533.838 221.177 567.449 256.038L562.873 275.387C562.873 275.387 537.625 241.193 506.222 229.517L505.118 211.169Z" fill="#231F20"/>
<path d="M562.873 276.721C562.557 276.721 562.084 276.554 561.926 276.221C561.61 275.887 536.52 242.194 505.749 230.684C505.276 230.518 504.96 230.017 504.96 229.517L504.013 211.169C504.013 210.835 504.171 210.335 504.487 210.168C504.802 209.834 505.276 209.834 505.591 210.001C505.907 210.168 534.942 220.51 568.396 255.204C568.711 255.538 568.869 256.038 568.711 256.372L564.135 275.72C563.977 276.221 563.662 276.554 563.188 276.721H562.873ZM507.327 228.516C533.995 238.858 556.403 265.212 562.241 272.551L566.029 256.372C537.94 227.182 513.008 215.672 506.38 213.004L507.327 228.516Z" fill="#231F20"/>
<path d="M334.694 288.898C334.694 288.898 386.452 315.752 392.133 315.752C397.814 315.752 420.537 314.084 422.588 308.747C424.64 303.409 419.59 300.74 425.587 299.573C431.583 298.405 438.211 306.578 447.521 306.578C456.831 306.578 510.01 294.235 519.635 284.06C529.261 273.886 531.313 216.84 524.685 205.664C518.057 194.489 491.389 167.801 478.45 165.299C466.457 163.13 355.366 192.154 339.112 204.997C322.859 217.841 324.437 269.549 334.694 288.898Z" fill="#FBBF24"/>
<path d="M392.133 316.92C386.452 316.92 339.428 292.734 334.22 289.898C334.063 289.732 333.747 289.565 333.747 289.398C323.174 269.382 322.07 217.007 338.639 203.996C354.419 191.486 465.983 161.629 478.923 163.964C492.336 166.466 519.32 193.655 525.947 204.83C529.735 211.169 530.524 229.684 529.735 245.196C529.419 252.702 527.525 277.722 520.74 284.894C510.483 295.736 456.2 307.913 447.679 307.913C442.629 307.913 438.526 305.744 434.739 303.743C431.425 301.908 428.585 300.407 426.06 300.907C424.324 301.241 424.009 301.574 424.009 301.574C424.009 302.075 424.009 302.575 424.166 303.076C424.798 305.077 424.64 307.246 424.009 309.247C421.01 316.42 392.449 316.92 392.133 316.92ZM335.483 287.897C356.155 298.572 388.188 314.418 392.133 314.418C401.443 314.418 420.064 312.083 421.484 308.246C421.957 306.745 421.957 305.077 421.642 303.576C421.168 302.408 421.326 301.241 421.799 300.073C422.746 298.906 424.009 298.238 425.429 298.238C428.743 297.571 432.056 299.406 435.686 301.241C439.315 303.076 443.102 305.244 447.521 305.244C456.358 305.244 509.378 293.068 518.846 283.06C527.999 273.385 530.05 217.007 523.738 206.165C517.426 195.323 490.758 168.802 478.292 166.466C465.826 164.131 355.523 193.655 339.901 205.998C324.595 218.174 325.699 268.715 335.483 287.897Z" fill="#231F20"/>
<path d="M474.978 165.299C452.097 167.467 350 188.984 335.483 199.326C320.965 209.668 320.176 279.89 334.694 288.731C349.211 297.571 468.824 272.551 488.707 252.535C508.589 232.519 497.859 163.13 474.978 165.299Z" fill="white"/>
<path d="M346.844 292.067C340.848 292.067 336.43 291.4 334.063 290.065C327.908 286.229 323.806 272.051 323.017 252.202C322.228 230.184 326.015 204.831 334.694 198.492C349.211 187.984 450.835 166.467 474.82 164.131C482.079 163.464 488.707 169.302 493.441 180.478C505.118 207.499 500.857 242.027 489.496 253.703C478.765 264.545 441.367 276.054 409.964 283.06C386.926 287.897 361.993 292.067 346.844 292.067ZM474.978 165.299L475.136 166.633C453.202 168.802 350.474 190.319 336.272 200.661C329.329 205.665 324.752 227.849 325.699 252.202C326.33 271.05 330.118 284.728 335.483 287.897C341.795 291.733 373.039 288.731 409.649 280.558C448.783 271.884 479.554 260.542 488.075 251.868C501.015 238.691 500.542 202.662 491.547 181.479C489.022 175.641 483.499 165.799 475.294 166.633L474.978 165.299Z" fill="#231F20"/>
<path d="M517.111 279.89C516.795 279.89 516.479 279.724 516.322 279.557L494.387 257.539C493.914 257.039 493.914 256.205 494.387 255.704C494.861 255.204 495.65 255.204 496.123 255.704L518.057 277.722C518.531 278.222 518.531 279.056 518.057 279.557C517.742 279.724 517.426 279.89 517.111 279.89Z" fill="#231F20"/>
<path d="M340.69 211.002C333.589 218.508 333.589 256.205 340.217 270.716C346.844 285.228 466.299 256.205 480.501 241.693C494.703 227.182 486.024 189.652 475.451 180.478C464.879 171.304 347.791 203.496 340.69 211.002Z" fill="white"/>
<path d="M354.892 275.887C351.894 275.887 349.054 275.72 346.056 275.22C342.268 274.553 339.901 273.219 339.112 271.217C332.643 256.872 331.854 218.508 339.901 210.168C344.004 205.831 376.984 195.656 406.493 188.317C425.113 183.647 469.14 173.472 476.241 179.477C482.868 185.148 488.549 201.161 489.18 215.672C489.654 227.348 486.971 237.023 481.448 242.527C474.031 250.033 443.103 259.708 418.801 265.712C397.341 270.883 371.304 275.887 354.892 275.887ZM467.877 179.977C440.893 179.977 348.265 204.664 341.637 211.836C335.01 219.008 334.852 255.704 341.322 270.049C341.795 271.217 343.689 272.051 346.529 272.718C372.566 277.722 467.562 253.036 479.712 240.692C484.762 235.522 487.129 226.681 486.813 215.672C486.182 201.661 480.975 186.649 474.82 181.312C473.716 180.478 471.349 179.977 467.877 179.977Z" fill="#231F20"/>
<path d="M363.414 247.531C362.782 247.531 362.151 247.031 362.151 246.197C362.151 245.863 362.309 245.696 362.467 245.363C374.144 230.184 391.818 206.999 392.764 204.997C392.922 204.33 393.553 203.996 394.185 204.163H394.342C394.974 204.33 395.289 205.164 395.131 205.831C394.5 208 371.461 237.857 364.518 247.031C364.203 247.364 363.729 247.531 363.414 247.531Z" fill="#D1D3D4"/>
<path d="M406.019 251.868C405.388 251.868 404.757 251.368 404.757 250.534C404.757 250.2 404.915 249.866 405.073 249.533L455.253 198.659C455.726 198.158 456.515 198.158 456.989 198.659C457.462 199.159 457.462 199.993 456.989 200.494L406.966 251.368C406.651 251.701 406.335 251.868 406.019 251.868Z" fill="#D1D3D4"/>
</svg>
