<svg width="596" height="605" viewBox="0 0 596 605" fill="none" xmlns="http://www.w3.org/2000/svg">
<path d="M539.141 79.9814H209.077V270.798H539.141V79.9814Z" fill="#FFFFFE"/>
<path d="M539.142 271.04H209.196C208.958 271.04 208.838 270.919 208.838 270.677V79.8601C208.838 79.6181 208.958 79.4971 209.196 79.4971H539.261C539.499 79.4971 539.618 79.6181 539.618 79.8601V270.677C539.618 270.919 539.499 271.04 539.261 271.04H539.142ZM209.554 270.314H538.903V80.2231H209.554V270.314Z" fill="#3F51B5"/>
<path d="M516.494 96.0742H368.686V183.92H516.494V96.0742Z" fill="#FFFFFE"/>
<path d="M516.493 184.283H368.685C368.447 184.283 368.328 184.162 368.328 183.92V96.0739C368.328 95.8319 368.447 95.7109 368.685 95.7109H516.493C516.732 95.7109 516.851 95.8319 516.851 96.0739V183.92C516.851 184.162 516.732 184.283 516.493 184.283ZM369.043 183.557H516.136V96.4369H369.043V183.557Z" fill="#101720"/>
<path d="M457.966 114.103H384.778C384.539 114.103 384.42 113.982 384.42 113.74C384.42 113.498 384.539 113.377 384.778 113.377H457.966C458.205 113.377 458.324 113.498 458.324 113.74C458.324 113.982 458.205 114.103 457.966 114.103Z" fill="#101720"/>
<path d="M504.216 127.655H384.778C384.539 127.655 384.42 127.534 384.42 127.292C384.42 127.05 384.539 126.929 384.778 126.929H504.216C504.454 126.929 504.574 127.05 504.574 127.292C504.574 127.534 504.454 127.655 504.216 127.655Z" fill="#101720"/>
<path d="M504.216 141.207H384.778C384.539 141.207 384.42 141.086 384.42 140.844C384.42 140.602 384.539 140.481 384.778 140.481H504.216C504.454 140.481 504.574 140.602 504.574 140.844C504.574 141.086 504.454 141.207 504.216 141.207Z" fill="#101720"/>
<path d="M504.216 154.88H384.778C384.539 154.88 384.42 154.759 384.42 154.517C384.42 154.275 384.539 154.154 384.778 154.154H504.216C504.454 154.154 504.574 154.275 504.574 154.517C504.574 154.759 504.454 154.88 504.216 154.88Z" fill="#101720"/>
<path d="M504.216 168.432H384.778C384.539 168.432 384.42 168.311 384.42 168.069C384.42 167.827 384.539 167.706 384.778 167.706H504.216C504.454 167.706 504.574 167.827 504.574 168.069C504.574 168.311 504.454 168.432 504.216 168.432Z" fill="#101720"/>
<path d="M539.141 270.678H209.077V309.519H539.141V270.678Z" fill="#FBBF24"/>
<path d="M539.142 309.881H209.196C208.958 309.881 208.838 309.76 208.838 309.518V270.677C208.838 270.435 208.958 270.314 209.196 270.314H539.261C539.499 270.314 539.618 270.435 539.618 270.677V309.518C539.618 309.76 539.499 309.881 539.261 309.881H539.142ZM209.554 309.155H538.903V271.04H209.554V309.155Z" fill="#101720"/>
<path d="M248.77 285.197H519.831C522.454 285.197 524.599 287.375 524.599 290.037C524.599 292.699 522.454 294.877 519.831 294.877H248.77C246.148 294.877 243.883 292.699 243.883 290.037C243.883 287.375 246.029 285.197 248.77 285.197Z" fill="#3F51B5"/>
<path d="M519.831 295.361H248.77C245.91 295.361 243.526 293.062 243.526 290.158C243.526 287.254 245.91 284.955 248.77 284.955H519.831C522.692 284.955 524.957 287.254 524.957 290.158C524.957 293.062 522.573 295.361 519.831 295.361ZM248.77 285.56C246.267 285.56 244.241 287.617 244.241 290.037C244.241 292.457 246.267 294.514 248.77 294.514H519.831C522.334 294.514 524.361 292.457 524.361 290.037C524.361 287.617 522.334 285.56 519.831 285.56H248.77Z" fill="#101720"/>
<path d="M248.77 285.197H374.288C376.91 285.197 379.056 287.375 379.056 290.037C379.056 292.699 376.91 294.877 374.288 294.877H248.77C246.148 294.877 243.883 292.699 243.883 290.037C243.883 287.375 246.029 285.197 248.77 285.197Z" fill="#1976D2"/>
<path d="M374.169 295.361H248.651C245.791 295.361 243.406 293.062 243.406 290.158C243.406 287.254 245.791 284.955 248.651 284.955H374.169C377.03 284.955 379.295 287.254 379.295 290.158C379.295 293.062 376.91 295.361 374.169 295.361ZM248.77 285.56C246.267 285.56 244.241 287.617 244.241 290.037C244.241 292.457 246.267 294.514 248.77 294.514H374.288C376.791 294.514 378.818 292.457 378.818 290.037C378.818 287.617 376.791 285.56 374.288 285.56H248.77Z" fill="#101720"/>
<path d="M424.233 194.931C424.233 194.931 421.134 219.736 412.313 246.114C403.492 272.492 382.632 270.798 382.632 270.798H220.52C220.52 270.798 240.188 204.127 262.478 183.92C284.769 163.592 314.688 164.802 330.542 179.322C346.395 193.842 374.407 224.697 374.407 224.697L390.38 181.742L393.598 182.952L424.352 194.931H424.233Z" fill="#1976D2"/>
<path d="M383.228 271.04C382.751 271.04 382.513 271.04 382.513 271.04H220.401C220.401 271.04 220.162 271.04 220.162 270.919C220.162 270.798 220.162 270.677 220.162 270.556C220.401 269.83 240.188 203.643 262.24 183.436C285.365 162.382 315.284 164.56 330.78 178.838C345.442 192.269 370.831 220.099 374.288 223.85L390.022 181.5C390.022 181.5 390.022 181.379 390.261 181.258H390.499L424.471 194.447C424.59 194.447 424.71 194.81 424.59 194.931C424.352 196.988 421.014 220.946 412.67 245.993C404.803 269.588 387.042 270.919 383.347 270.919L383.228 271.04ZM220.997 270.314H382.632C382.87 270.314 403.373 271.645 411.955 245.993C420.18 221.43 423.398 197.956 423.875 195.173L390.499 182.226L374.646 224.818C374.646 224.818 374.526 225.06 374.407 225.06C374.288 225.06 374.169 225.06 374.05 225.06C373.811 224.697 345.918 194.084 330.184 179.685C322.317 172.425 310.874 168.553 298.834 169.037C285.722 169.521 272.968 174.845 262.598 184.283C241.618 203.401 222.666 264.627 220.878 270.556L220.997 270.314Z" fill="#101720"/>
<path d="M220.878 270.314C222.546 264.627 241.618 203.159 262.598 183.92C273.445 174.119 286.914 168.674 300.622 168.674C314.33 168.674 322.674 172.425 330.184 179.443C345.799 193.842 373.692 224.455 374.049 224.818L374.407 225.181L390.38 182.105L393.002 183.194C392.406 185.493 388.115 200.981 383.585 215.138C379.89 226.633 377.626 230.747 375.003 230.747C372.381 230.747 372.977 230.263 371.665 229.174C369.997 227.843 366.302 223.729 361.653 218.526C352.951 208.725 339.72 193.963 326.489 182.952C319.217 176.902 310.039 173.635 299.788 173.635C289.537 173.635 269.869 180.29 261.286 190.333C248.413 205.337 227.195 266.442 225.765 270.556H220.758L220.878 270.314Z" fill="#FBBF24"/>
<path d="M270.703 172.304C272.61 172.062 277.14 170.126 282.146 167.101C288.106 163.471 294.662 158.268 298 152.339C298.715 151.129 299.311 149.798 299.669 148.467C303.364 136.004 296.57 116.039 296.57 116.039C288.583 111.441 277.021 113.014 271.418 125.235C265.816 137.456 269.392 153.307 267.127 161.293C264.862 169.4 256.042 173.03 255.684 176.539C255.326 179.927 266.293 172.909 270.703 172.304Z" fill="#FBBF24"/>
<path d="M256.518 177.87C256.161 177.87 255.803 177.87 255.565 177.628C255.326 177.507 255.088 177.144 255.207 176.539C255.326 174.966 256.995 173.514 259.141 171.578C261.882 169.037 265.339 165.891 266.65 161.293C267.485 158.147 267.485 154.033 267.604 149.072C267.604 141.328 267.604 132.616 271.061 125.114C273.564 119.548 277.498 115.797 282.385 114.224C287.034 112.651 292.278 113.256 296.689 115.797C296.689 115.797 296.808 115.797 296.808 116.039C296.808 116.281 303.602 136.125 299.907 148.709C299.55 150.04 298.954 151.25 298.238 152.581C294.424 159.357 286.557 164.802 282.266 167.464C277.14 170.61 272.491 172.546 270.703 172.788C268.915 173.03 266.174 174.24 263.551 175.45C260.214 176.902 257.949 177.991 256.638 177.991L256.518 177.87ZM287.749 114.103C286.08 114.103 284.292 114.345 282.623 114.95C277.855 116.523 274.16 120.153 271.657 125.477C268.319 132.858 268.319 141.449 268.2 149.072C268.2 154.033 268.2 158.268 267.246 161.414C265.935 166.254 262.359 169.4 259.498 172.062C257.591 173.756 255.922 175.329 255.803 176.539C255.803 176.902 255.803 176.902 255.803 177.023C256.518 177.628 260.094 175.934 262.955 174.724C265.697 173.514 268.558 172.183 270.346 171.941C272.134 171.699 276.544 169.763 281.55 166.738C285.842 164.197 293.47 158.752 297.285 152.097C298 150.766 298.596 149.556 298.954 148.346C302.41 136.609 296.45 117.975 295.854 116.281C293.232 114.829 290.252 113.982 287.391 113.982L287.749 114.103Z" fill="#101720"/>
<path d="M280.597 146.531C285.007 161.656 282.027 166.98 282.027 166.98C287.987 163.35 294.543 158.147 297.881 152.218L288.702 119.911C288.702 119.911 276.186 131.285 280.597 146.41V146.531Z" fill="#101720"/>
<path d="M282.146 167.464H281.908C281.908 167.464 281.789 167.222 281.908 166.98C281.908 166.98 284.65 161.535 280.358 146.773C275.948 131.648 288.464 120.032 288.583 119.911C288.583 119.911 288.822 119.911 288.941 119.911C288.941 119.911 289.179 120.032 289.179 120.153L298.358 152.46V152.702C294.543 159.478 286.676 164.923 282.385 167.585C282.385 167.585 282.266 167.585 282.146 167.585V167.464ZM280.954 146.531C284.292 158.147 283.458 164.076 282.742 166.254C287.034 163.471 293.947 158.51 297.523 152.339L288.583 120.758C286.438 122.936 277.14 133.342 280.954 146.531Z" fill="#101720"/>
<path d="M290.013 152.218C292.636 153.791 295.973 155.243 300.265 156.453C300.265 156.453 300.265 156.453 300.384 156.453L326.846 136.367C331.376 132.979 334.117 127.655 334.475 122.21C334.594 119.79 334.356 117.37 333.521 114.95C333.521 114.708 333.402 114.466 333.283 114.224C329.707 104.907 322.197 104.302 318.383 107.811C318.383 107.811 301.695 105.028 292.636 115.071C284.888 123.662 273.206 141.933 289.894 152.218H290.013Z" fill="#FBBF24"/>
<path d="M300.384 156.816H300.265C296.212 155.606 292.755 154.275 289.894 152.581C285.007 149.556 282.146 145.563 281.431 140.723C279.881 129.954 289.537 118.217 292.636 114.95C301.218 105.512 316.714 107.327 318.502 107.569C320.529 105.875 323.151 105.27 325.773 105.875C329.23 106.722 332.091 109.747 333.879 114.224V114.587C333.998 114.708 334.117 114.829 334.117 115.071C334.952 117.491 335.309 119.911 335.071 122.452C334.713 128.139 331.853 133.463 327.204 136.972L300.741 156.937H300.503L300.384 156.816ZM290.252 151.976C292.993 153.67 296.331 155.001 300.265 156.09L326.727 136.125C331.137 132.737 333.879 127.655 334.237 122.21C334.356 119.79 334.117 117.37 333.283 115.071C333.283 114.95 333.283 114.829 333.164 114.587V114.224C331.376 109.989 328.753 107.085 325.416 106.359C323.032 105.754 320.409 106.359 318.621 108.053H318.383C318.264 108.053 301.695 105.512 292.993 115.192C290.013 118.459 280.477 129.954 282.027 140.36C282.623 144.958 285.484 148.83 290.252 151.734V151.976Z" fill="#101720"/>
<path d="M283.219 135.279C283.219 137.457 283.458 146.532 290.014 152.219C291.682 153.671 293.59 154.76 296.093 155.607C297.404 156.091 298.834 156.333 300.265 156.454H300.503L326.966 136.489C331.495 133.101 334.237 127.777 334.594 122.332C331.853 123.179 327.919 121.727 327.919 121.727C327.919 121.727 325.774 127.051 323.509 129.108C321.244 131.165 303.126 138.304 303.126 138.304L299.073 136.61L292.517 136.973C292.517 136.973 287.51 137.578 285.007 136.489C283.934 136.005 283.458 135.642 283.219 135.4V135.279Z" fill="#101720"/>
<path d="M300.384 156.816H300.146C298.596 156.816 297.166 156.453 295.854 155.969C293.47 155.122 291.444 154.033 289.656 152.46C282.981 146.652 282.623 137.456 282.742 135.399C282.742 135.278 282.742 135.157 282.742 135.036C282.742 135.036 282.981 134.915 283.219 135.036C283.219 135.036 283.338 135.036 283.458 135.278C283.577 135.399 283.934 135.762 285.007 136.246C287.391 137.214 292.278 136.609 292.398 136.609L298.954 136.125C298.954 136.125 298.954 136.125 299.073 136.125L303.006 137.819C304.675 137.214 321.125 130.68 323.151 128.744C325.297 126.687 327.442 121.605 327.442 121.484C327.442 121.363 327.681 121.242 327.919 121.242C327.919 121.242 331.853 122.573 334.475 121.847C334.475 121.847 334.714 121.847 334.833 121.847C334.833 121.847 334.952 122.089 334.952 122.21C334.594 127.897 331.734 133.221 327.085 136.73L300.622 156.695C300.622 156.695 300.503 156.695 300.384 156.695V156.816ZM283.577 136.125C283.577 139.029 284.411 146.894 290.252 151.976C291.921 153.428 293.947 154.517 296.212 155.364C297.404 155.727 298.834 156.09 300.265 156.09L326.727 136.125C331.018 132.858 333.76 128.018 334.237 122.694C331.853 123.178 328.992 122.331 328.158 122.089C327.681 123.299 325.774 127.413 323.747 129.349C321.482 131.406 303.96 138.303 303.245 138.545H303.006L298.954 136.851L292.517 137.214C292.278 137.214 287.391 137.819 284.888 136.73C284.411 136.488 283.934 136.367 283.696 136.125H283.577Z" fill="#101720"/>
<path d="M295.258 148.467L295.02 148.104C295.616 147.741 295.974 147.378 295.974 147.378L296.212 147.62C296.212 147.62 295.854 147.983 295.258 148.346V148.467Z" fill="#5C2F00"/>
<path d="M299.788 187.55C302.41 188.881 305.033 189.123 306.94 188.034C312.781 184.646 311.112 177.749 311.112 177.749V163.471L298.715 152.944L296.808 151.371L290.252 171.578C289.06 178.354 294.424 185.009 299.788 187.55Z" fill="#FF7E6D"/>
<path d="M299.788 187.55C302.41 188.881 305.033 189.123 306.94 188.034C312.781 184.646 311.112 177.749 311.112 177.749V163.471L298.715 152.944L297.046 154.033C297.046 154.033 300.146 163.35 304.079 169.521C307.178 174.24 303.006 182.952 299.788 187.55Z" fill="#FF7E6D"/>
<path d="M294.901 157.543C294.901 157.543 302.291 166.981 311.231 168.07V163.472L296.45 152.582L294.781 157.543H294.901Z" fill="#101720"/>
<path d="M311.589 168.433H311.231C302.172 167.344 294.901 158.148 294.662 157.785H294.543C294.543 157.664 296.45 151.977 296.45 151.977L311.708 163.23V168.433H311.589ZM295.258 157.422C296.212 158.632 302.887 166.376 310.874 167.586V163.593L296.689 153.066L295.258 157.422Z" fill="#101720"/>
<path d="M304.318 189.002C302.887 189.002 301.338 188.639 299.669 187.792C293.947 185.009 288.822 178.112 290.014 171.457L296.57 151.25C296.57 151.25 296.689 151.008 296.808 151.008C296.808 151.008 297.046 151.008 297.166 151.008L311.47 163.229C311.47 163.229 311.589 163.35 311.589 163.471V177.749C311.589 177.749 313.138 184.888 307.178 188.276C306.344 188.76 305.39 189.002 304.318 189.002ZM300.026 187.187C302.649 188.518 305.152 188.639 306.821 187.671C312.304 184.525 310.874 178.112 310.874 177.87V163.592L297.046 151.855L290.61 171.578C289.537 177.87 294.424 184.525 299.907 187.187H300.026Z" fill="#101720"/>
<path d="M329.945 158.39C329.349 159.963 328.753 161.294 328.038 162.504C322.793 170.974 313.377 169.885 304.556 163.23C299.669 159.479 296.569 154.155 295.139 148.347C293.232 149.678 288.941 151.856 287.629 145.564C286.199 138.667 290.967 133.222 294.543 137.094C294.662 137.215 294.781 137.336 294.901 137.457C295.616 138.909 296.212 140.482 296.569 142.055C296.569 142.539 296.689 142.902 296.927 143.386C297.285 144.112 298.238 144.475 298.953 144.354C298.953 143.265 298.953 142.176 298.953 140.966C298.953 139.393 298.953 137.941 299.073 136.368C301.814 136.126 304.556 135.279 306.94 133.948C310.158 132.254 312.9 129.834 315.403 127.172H315.641C324.224 129.592 326.489 124.268 326.489 124.268L327.8 127.172C330.303 132.617 331.733 138.425 331.972 144.475C332.091 148.71 331.733 153.55 330.065 158.148L329.945 158.39Z" fill="#FF7E6D"/>
<path d="M315.165 143.507C315.165 143.507 313.377 140.361 309.443 140.845C305.39 141.45 304.914 144.112 304.914 144.112C304.914 144.112 306.702 147.379 310.397 146.895C314.092 146.411 315.284 143.507 315.284 143.507H315.165Z" fill="#FFFFFE"/>
<mask id="mask0_212_390" style="mask-type:luminance" maskUnits="userSpaceOnUse" x="304" y="140" width="12" height="7">
<path d="M315.165 143.507C315.165 143.507 313.377 140.361 309.443 140.845C305.39 141.45 304.914 144.112 304.914 144.112C304.914 144.112 306.702 147.379 310.397 146.895C314.092 146.411 315.284 143.507 315.284 143.507H315.165Z" fill="white"/>
</mask>
<g mask="url(#mask0_212_390)">
<path d="M311.589 147.137C313.037 147.137 314.211 145.945 314.211 144.475C314.211 143.004 313.037 141.812 311.589 141.812C310.14 141.812 308.966 143.004 308.966 144.475C308.966 145.945 310.14 147.137 311.589 147.137Z" fill="#101720"/>
</g>
<path d="M321.363 153.066C321.244 153.066 321.005 153.066 321.005 152.824C321.005 152.582 321.005 152.461 321.244 152.34C322.317 152.098 322.674 151.372 322.913 150.888C323.151 150.162 322.913 149.315 322.555 148.71C321.601 147.621 319.933 144.717 319.813 141.208C319.813 140.966 319.933 140.845 320.171 140.845C320.409 140.845 320.529 140.966 320.529 141.208C320.529 144.475 322.317 147.258 323.151 148.226C323.747 148.952 323.985 150.041 323.628 151.009C323.27 151.977 322.555 152.703 321.482 152.945L321.363 153.066Z" fill="#101720"/>
<path d="M313.853 156.091C313.377 156.091 312.9 155.97 312.423 155.728C311.469 155.123 310.993 153.913 310.993 152.582C310.993 152.34 311.112 152.219 311.35 152.219C311.589 152.219 311.708 152.461 311.708 152.582C311.708 153.671 312.065 154.639 312.781 155.123C313.377 155.486 314.211 155.486 315.045 155.123C315.165 155.123 315.403 155.123 315.522 155.244C315.522 155.365 315.522 155.607 315.403 155.728C314.926 155.97 314.33 156.212 313.853 156.212V156.091Z" fill="#101720"/>
<path d="M305.033 140.239C305.033 140.239 304.914 140.239 304.794 140.239C304.675 140.239 304.556 139.876 304.794 139.755C305.629 138.545 307.298 137.698 309.324 137.456C311.47 137.214 313.496 137.819 314.688 139.029C314.807 139.15 314.807 139.392 314.688 139.513C314.569 139.634 314.33 139.634 314.211 139.513C313.138 138.424 311.35 137.94 309.324 138.061C307.536 138.182 306.106 139.029 305.39 140.118L305.152 140.239H305.033Z" fill="#101720"/>
<path d="M320.767 138.545H320.529C320.41 138.424 320.41 138.182 320.529 138.061C320.529 138.061 323.747 134.794 326.966 136.972C327.085 136.972 327.204 137.335 326.966 137.456C326.966 137.577 326.608 137.698 326.489 137.456C323.628 135.641 321.006 138.303 320.886 138.424C320.886 138.424 320.767 138.424 320.648 138.424L320.767 138.545Z" fill="#101720"/>
<path d="M309.443 140.845C309.443 140.845 307.536 140.966 306.225 142.176C304.914 143.386 304.437 144.354 303.96 144.596L304.556 145.201C304.556 145.201 306.821 141.571 309.562 140.845H309.443Z" fill="#101720"/>
<path d="M320.767 142.781C320.767 142.781 321.721 139.877 325.178 139.635C328.634 139.514 329.469 141.692 329.469 141.692C329.469 141.692 328.515 144.717 325.297 144.838C322.198 145.08 320.648 142.66 320.648 142.66L320.767 142.781Z" fill="#FFFFFE"/>
<mask id="mask1_212_390" style="mask-type:luminance" maskUnits="userSpaceOnUse" x="320" y="139" width="10" height="6">
<path d="M320.767 142.78C320.767 142.78 321.721 139.876 325.178 139.755C328.634 139.634 329.469 141.812 329.469 141.812C329.469 141.812 328.515 144.837 325.297 144.958C322.198 145.2 320.648 142.78 320.648 142.78H320.767Z" fill="white"/>
</mask>
<g mask="url(#mask1_212_390)">
<path d="M325.178 144.958C326.428 144.958 327.442 143.929 327.442 142.659C327.442 141.39 326.428 140.36 325.178 140.36C323.927 140.36 322.913 141.39 322.913 142.659C322.913 143.929 323.927 144.958 325.178 144.958Z" fill="#101720"/>
</g>
<path d="M325.297 139.635C325.297 139.635 326.966 139.393 328.277 140.24C329.588 141.087 330.184 141.813 330.542 141.813L330.184 142.418C330.184 142.418 327.8 139.635 325.416 139.514L325.297 139.635Z" fill="#101720"/>
<path d="M294.305 144.474C294.066 144.474 293.828 144.353 293.828 144.111C293.113 141.812 292.398 140.602 291.682 140.239C291.563 140.239 291.206 140.118 290.729 140.239C290.49 140.239 290.133 140.239 290.014 139.876C290.014 139.634 290.014 139.271 290.371 139.15C291.086 138.908 291.682 138.908 292.278 139.15C293.351 139.634 294.066 140.965 295.02 143.748C295.02 143.99 295.02 144.353 294.662 144.474C294.662 144.474 294.662 144.474 294.543 144.474H294.305Z" fill="#101720"/>
<path d="M328.038 162.503C322.793 170.973 313.377 169.884 304.556 163.229C299.669 159.478 296.569 154.154 295.139 148.346C293.232 149.677 288.941 151.855 287.629 145.563C286.199 138.666 290.967 133.221 294.543 137.093C294.662 137.214 294.781 137.335 294.901 137.456C295.616 138.908 296.212 140.481 296.569 142.054C296.569 142.538 296.689 142.901 296.927 143.385C297.285 144.111 298.238 144.474 298.953 144.353C298.953 143.264 298.953 142.175 298.953 140.965C298.953 139.392 298.953 137.94 299.073 136.367C301.814 136.125 304.556 135.278 306.94 133.947C310.158 132.253 312.9 129.833 315.403 127.171H315.641C311.589 134.189 300.265 137.94 304.198 150.282C309.562 167.343 321.84 163.229 328.157 162.261L328.038 162.503Z" fill="#FF7E6D"/>
<path d="M294.305 143.143C294.186 143.143 294.066 143.143 293.947 142.901C293.947 142.901 292.636 138.787 290.49 139.15C290.252 139.15 290.133 139.15 290.133 138.908C290.133 138.666 290.133 138.545 290.371 138.545C293.113 138.061 294.543 142.659 294.543 142.78C294.543 143.022 294.543 143.143 294.305 143.264V143.143Z" fill="#101720"/>
<path d="M291.444 146.289C291.444 146.289 291.325 146.289 291.206 146.289C289.775 145.079 289.656 142.78 290.133 141.086C290.49 139.876 291.206 139.029 292.04 138.908C292.278 138.908 292.398 138.908 292.398 139.271C292.398 139.513 292.398 139.634 292.04 139.634C291.563 139.634 291.086 140.36 290.729 141.328C290.252 142.78 290.371 144.837 291.563 145.805C291.682 145.926 291.682 146.168 291.563 146.289C291.563 146.289 291.444 146.41 291.325 146.41L291.444 146.289Z" fill="#101720"/>
<path d="M326.37 124.872C326.37 124.872 326.25 124.872 326.131 124.872C326.012 124.751 326.012 124.509 326.131 124.388C327.8 122.331 327.681 120.395 327.681 120.274C327.681 120.032 327.681 119.911 328.038 119.911C328.277 119.911 328.396 119.911 328.396 120.274C328.396 120.274 328.634 122.573 326.727 124.872C326.727 124.872 326.608 124.993 326.489 124.993L326.37 124.872Z" fill="#101720"/>
<path d="M317.787 168.916C313.734 168.916 308.966 167.101 304.318 163.471C299.669 159.962 296.45 155.001 294.901 148.83C293.47 149.677 291.682 150.524 290.014 149.798C288.702 149.193 287.749 147.741 287.272 145.442C286.318 140.602 288.226 136.851 290.371 135.641C291.802 134.915 293.47 135.278 294.782 136.609C294.901 136.73 295.02 136.851 295.139 137.093C295.854 138.666 296.45 140.239 296.808 141.812C296.808 142.296 296.927 142.659 297.166 143.022C297.404 143.506 298 143.869 298.596 143.869C298.596 142.901 298.596 141.933 298.596 140.844C298.596 139.392 298.596 137.819 298.715 136.246C298.715 136.125 298.834 136.004 299.073 135.883C301.576 135.641 304.318 134.915 306.821 133.584C309.562 132.132 312.304 129.954 315.165 126.929C315.165 126.929 315.403 126.808 315.522 126.929C315.522 126.929 315.522 126.929 315.642 126.929H315.761C323.986 129.228 326.25 124.388 326.25 124.267C326.25 124.146 326.489 124.025 326.608 124.025C326.727 124.025 326.846 124.025 326.966 124.267L328.277 127.171C330.78 132.737 332.21 138.666 332.449 144.595C332.687 149.677 331.972 154.275 330.542 158.389C329.946 159.962 329.35 161.414 328.515 162.624C326.489 166.012 323.628 167.948 320.29 168.674C319.575 168.795 318.741 168.916 318.026 168.916H317.787ZM295.139 147.983C295.139 147.983 295.139 147.983 295.258 147.983C295.258 147.983 295.497 148.104 295.497 148.225C296.927 154.396 300.146 159.478 304.794 162.866C310.278 166.98 315.642 168.795 320.052 167.948C323.151 167.343 325.774 165.407 327.8 162.261C328.515 161.172 329.111 159.841 329.707 158.268C331.138 154.275 331.734 149.677 331.614 144.716C331.376 138.908 329.946 133.1 327.562 127.534L326.489 125.235C325.535 126.566 322.436 129.591 315.522 127.655C312.662 130.68 309.92 132.858 307.178 134.31C304.675 135.641 302.053 136.488 299.43 136.73C299.311 138.182 299.311 139.634 299.43 140.965C299.43 142.054 299.43 143.143 299.43 144.353C299.43 144.474 299.311 144.716 299.073 144.716C298.119 144.837 297.166 144.353 296.689 143.506C296.45 143.143 296.331 142.659 296.212 142.296C295.854 140.602 295.378 139.029 294.662 137.698C294.662 137.698 294.424 137.456 294.424 137.335C293.351 136.125 292.159 135.883 290.967 136.488C288.941 137.577 287.391 141.207 288.226 145.442C288.583 147.499 289.418 148.83 290.49 149.193C292.04 149.798 294.066 148.709 295.139 147.983C295.139 147.983 295.258 147.983 295.378 147.983H295.139Z" fill="#101720"/>
<path d="M390.261 181.742C393.121 176.055 391.929 170.247 395.029 166.133C398.128 162.019 403.969 161.777 403.969 161.777C403.969 161.777 411.597 144.716 414.935 140.965C418.273 137.214 422.445 139.634 419.703 147.741C416.961 155.848 415.054 160.204 415.054 160.204C415.054 160.204 417.915 158.994 420.299 160.083C422.683 161.172 422.325 164.318 422.325 164.318C422.325 164.318 425.901 163.35 427.57 165.891C429.239 168.311 429.12 169.763 429.12 169.763C429.12 169.763 432.457 170.973 431.385 175.692C430.312 180.411 424.113 194.931 424.113 194.931L390.141 181.742H390.261Z" fill="#FBBF24"/>
<path d="M424.233 195.294C424.233 195.294 424.233 195.294 424.113 195.294L390.141 182.105C390.022 182.105 389.903 181.863 389.903 181.742V181.621C391.214 179.08 391.572 176.418 392.049 173.877C392.525 170.973 393.002 168.311 394.671 166.012C397.532 162.14 402.538 161.535 403.73 161.535C404.684 159.478 411.478 144.474 414.697 140.844C416.246 139.15 418.034 138.545 419.345 139.392C420.776 140.239 421.729 143.022 420.061 147.983C417.915 154.154 416.365 158.147 415.65 159.72C416.723 159.478 418.63 159.115 420.418 159.841C422.445 160.688 422.683 162.987 422.683 163.955C423.756 163.834 426.378 163.592 427.809 165.77C429.12 167.706 429.358 169.037 429.358 169.642C430.193 170.005 432.577 171.699 431.623 175.934C430.55 180.653 424.59 194.689 424.352 195.294C424.352 195.415 424.113 195.536 423.994 195.536L424.233 195.294ZM390.737 181.5L423.994 194.447C424.948 192.269 430.193 179.806 431.027 175.571C431.981 171.215 429.12 170.005 429.001 170.005C428.881 170.005 428.762 169.763 428.762 169.642C428.762 169.642 428.881 168.311 427.332 166.012C425.782 163.834 422.445 164.56 422.445 164.56C422.445 164.56 422.206 164.56 422.087 164.56C422.087 164.56 421.968 164.318 422.087 164.197C422.087 164.197 422.445 161.293 420.299 160.325C418.034 159.357 415.293 160.325 415.293 160.446C415.173 160.446 415.054 160.446 414.935 160.446C414.935 160.446 414.816 160.204 414.935 160.083C414.935 160.083 416.842 155.727 419.584 147.741C421.133 143.143 420.299 140.723 419.226 139.997C418.153 139.392 416.723 139.997 415.412 141.328C412.074 144.958 404.565 161.898 404.445 162.019C404.445 162.14 404.326 162.261 404.088 162.261C404.088 162.261 398.247 162.503 395.386 166.496C393.837 168.674 393.36 171.215 392.883 174.119C392.525 176.66 392.049 179.201 390.857 181.742L390.737 181.5Z" fill="#101720"/>
<mask id="mask2_212_390" style="mask-type:luminance" maskUnits="userSpaceOnUse" x="390" y="139" width="42" height="57">
<path d="M390.261 181.742C393.122 176.055 391.93 170.247 395.029 166.133C398.128 162.019 403.969 161.777 403.969 161.777C403.969 161.777 411.598 144.716 414.935 140.965C418.273 137.214 422.445 139.634 419.703 147.741C416.962 155.848 415.054 160.204 415.054 160.204C415.054 160.204 417.915 158.994 420.299 160.204C422.683 161.414 422.326 164.439 422.326 164.439C422.326 164.439 425.902 163.471 427.57 166.012C429.239 168.432 429.12 169.884 429.12 169.884C429.12 169.884 432.458 171.094 431.385 175.934C430.312 180.653 424.114 195.173 424.114 195.173L390.142 181.984L390.261 181.742Z" fill="white"/>
</mask>
<g mask="url(#mask2_212_390)">
<path d="M418.392 138.182C419.465 140.844 416.485 148.346 413.624 154.275C410.883 160.325 409.929 162.261 409.929 162.261L411.479 162.624C411.479 162.624 411.836 162.624 412.313 162.503C412.79 162.382 415.174 159.841 415.889 159.478C416.604 159.115 422.445 143.627 422.445 143.627L421.968 138.545L418.392 138.182Z" fill="#1976D2"/>
<path d="M419.226 158.993C420.657 160.566 418.869 163.833 415.77 165.89C412.67 168.068 411.24 169.883 409.69 169.399C409.69 169.399 410.882 170.488 413.147 170.488C415.531 170.488 416.008 169.278 416.008 169.278C416.008 169.278 418.392 166.253 419.942 165.285C421.491 164.317 423.637 163.349 423.637 163.349H425.544C425.544 163.47 427.332 164.801 426.021 167.221C424.71 169.641 422.206 169.762 420.061 171.093C417.915 172.424 417.081 173.997 415.531 173.029C415.531 173.029 416.485 174.36 417.796 174.36C419.107 174.36 419.703 174.36 420.895 173.15C422.087 171.94 424.352 170.004 426.14 169.641C427.928 169.278 430.193 169.399 430.193 169.399V166.737L426.974 161.534L421.491 158.146L419.107 158.993H419.226Z" fill="#1976D2"/>
<path d="M420.061 175.449C420.895 177.143 422.803 177.022 425.067 175.691C427.332 174.36 429.239 177.143 428.763 178.353C428.286 179.563 424.352 184.161 417.2 181.015C410.048 177.869 399.916 172.545 399.797 171.214C399.678 169.883 402.419 170.367 402.419 170.367C402.419 170.367 404.803 170.367 405.995 170.004C407.187 169.641 408.379 169.157 408.379 169.157C408.379 169.157 408.975 168.794 409.214 169.157C409.452 169.52 410.763 170.488 411.479 170.609C412.194 170.73 414.22 170.367 414.22 170.367C414.22 170.367 415.293 170.004 415.293 170.367C415.293 170.73 414.697 172.303 415.889 173.634C417.081 174.965 418.631 174.36 418.631 174.36C418.631 174.36 420.18 173.755 420.18 174.36C420.18 174.965 419.823 175.449 419.823 175.449" fill="#1976D2"/>
<path d="M391.453 174.845C394.195 180.532 418.392 193.358 418.392 193.358L385.493 181.621L391.572 174.845H391.453Z" fill="#1976D2"/>
</g>
<path d="M390.261 181.742C393.121 176.055 391.929 170.247 395.029 166.133C398.128 162.019 403.969 161.777 403.969 161.777C403.969 161.777 411.597 144.716 414.935 140.965C418.273 137.214 422.445 139.634 419.703 147.741C416.961 155.848 415.054 160.204 415.054 160.204C415.054 160.204 417.915 158.994 420.299 160.083C422.683 161.172 422.325 164.318 422.325 164.318C422.325 164.318 425.901 163.35 427.57 165.891C429.239 168.311 429.12 169.763 429.12 169.763C429.12 169.763 432.457 170.973 431.385 175.692C430.312 180.411 424.113 194.931 424.113 194.931L390.141 181.742H390.261Z" fill="#FF7E6D"/>
<path d="M424.233 195.294C424.233 195.294 424.233 195.294 424.113 195.294L390.141 182.105C390.022 182.105 389.903 181.863 389.903 181.742V181.621C391.214 179.08 391.572 176.418 392.049 173.877C392.525 170.973 393.002 168.311 394.671 166.012C397.532 162.14 402.538 161.535 403.73 161.535C404.684 159.478 411.478 144.474 414.697 140.844C416.246 139.15 418.034 138.545 419.345 139.392C420.776 140.239 421.729 143.022 420.061 147.983C417.915 154.154 416.365 158.147 415.65 159.72C416.723 159.478 418.63 159.115 420.418 159.841C422.445 160.688 422.683 162.987 422.683 163.955C423.756 163.834 426.378 163.592 427.809 165.77C429.12 167.706 429.358 169.037 429.358 169.642C430.193 170.005 432.577 171.699 431.623 175.934C430.55 180.653 424.59 194.689 424.352 195.294C424.352 195.415 424.113 195.536 423.994 195.536L424.233 195.294ZM390.737 181.5L423.994 194.447C424.948 192.269 430.193 179.806 431.027 175.571C431.981 171.215 429.12 170.005 429.001 170.005C428.881 170.005 428.762 169.763 428.762 169.642C428.762 169.642 428.881 168.311 427.332 166.012C425.782 163.834 422.445 164.56 422.445 164.56C422.445 164.56 422.206 164.56 422.087 164.56C422.087 164.56 421.968 164.318 422.087 164.197C422.087 164.197 422.445 161.293 420.299 160.325C418.034 159.357 415.293 160.325 415.293 160.446C415.173 160.446 415.054 160.446 414.935 160.446C414.935 160.446 414.816 160.204 414.935 160.083C414.935 160.083 416.842 155.727 419.584 147.741C421.133 143.143 420.299 140.723 419.226 139.997C418.153 139.392 416.723 139.997 415.412 141.328C412.074 144.958 404.565 161.898 404.445 162.019C404.445 162.14 404.326 162.261 404.088 162.261C404.088 162.261 398.247 162.503 395.386 166.496C393.837 168.674 393.36 171.215 392.883 174.119C392.525 176.66 392.049 179.201 390.857 181.742L390.737 181.5Z" fill="#101720"/>
<path d="M412.551 170.973C411.478 170.973 410.286 170.731 409.333 169.763C408.856 169.279 408.737 168.674 408.737 167.948C408.975 165.286 412.551 161.535 414.816 159.841C414.935 159.841 415.174 159.841 415.293 159.841C415.293 159.962 415.293 160.204 415.293 160.325C412.551 162.382 409.69 165.77 409.452 167.948C409.452 168.432 409.452 168.916 409.81 169.279C411.598 171.215 415.174 169.763 415.174 169.763C415.412 169.763 415.531 169.763 415.65 170.005C415.65 170.247 415.65 170.368 415.412 170.489C415.412 170.489 413.982 171.094 412.432 171.094L412.551 170.973Z" fill="#101720"/>
<path d="M418.273 174.724C417.081 174.724 415.889 174.24 415.173 172.909C414.816 172.062 414.816 171.094 415.173 170.005C416.246 167.343 419.703 164.681 422.206 163.834C422.445 163.834 422.564 163.834 422.683 164.076C422.683 164.318 422.683 164.439 422.445 164.56C419.703 165.528 416.723 168.069 415.889 170.368C415.531 171.215 415.531 172.062 415.889 172.667C417.081 175.208 420.418 173.635 420.537 173.635C420.776 173.635 420.895 173.635 421.014 173.756C421.134 173.877 421.014 174.119 420.895 174.24C420.299 174.482 419.345 174.845 418.392 174.845L418.273 174.724Z" fill="#101720"/>
<path d="M424.352 179.564C423.398 179.564 422.445 179.322 421.61 178.838C420.18 177.991 419.465 176.781 419.703 175.208C419.942 173.514 421.372 171.82 423.398 170.489C425.544 169.158 427.69 168.674 429.239 169.158C429.478 169.158 429.478 169.4 429.478 169.642C429.478 169.884 429.239 169.884 429.001 169.884C427.69 169.521 425.663 169.884 423.756 171.215C421.849 172.425 420.657 173.998 420.418 175.45C420.18 176.66 420.776 177.628 421.968 178.233C423.398 179.08 425.663 179.08 426.974 177.87C427.094 177.749 427.332 177.749 427.451 177.87C427.57 177.991 427.57 178.233 427.451 178.354C426.617 179.201 425.425 179.443 424.352 179.443V179.564Z" fill="#101720"/>
<path d="M412.074 163.35C412.074 163.35 408.022 162.019 404.207 162.14C403.969 162.14 403.85 162.019 403.85 161.777C403.85 161.535 403.969 161.414 404.207 161.414C408.141 161.414 412.194 162.624 412.432 162.745C412.67 162.745 412.67 162.987 412.67 163.229C412.67 163.35 412.432 163.471 412.313 163.471L412.074 163.35Z" fill="#101720"/>
<path d="M401.942 170.611C401.585 170.611 401.346 170.611 401.227 170.611C400.989 170.611 400.87 170.49 400.87 170.248C400.87 170.006 400.989 169.885 401.227 169.885C401.227 169.885 406.591 170.127 408.975 168.312C409.094 168.312 409.333 168.312 409.452 168.312C409.452 168.433 409.452 168.675 409.452 168.796C407.426 170.369 403.492 170.49 401.942 170.49V170.611Z" fill="#101720"/>
<path d="M353.786 270.678H349.614C349.614 270.678 349.494 257.731 348.779 241.759L353.786 270.678Z" fill="#101720"/>
<path d="M349.614 271.04C349.375 271.04 349.256 270.919 349.256 270.677C349.256 270.556 349.137 257.609 348.422 241.637C348.422 241.395 348.541 241.274 348.779 241.274C349.018 241.274 349.137 241.274 349.137 241.516L354.143 270.435C354.143 270.677 354.024 270.798 353.786 270.798H349.614V271.04ZM349.375 247.203C349.852 259.061 349.971 268.499 349.971 270.435H353.309L349.375 247.203Z" fill="#101720"/>
<path d="M348.779 242.122C348.541 242.122 348.422 242.001 348.422 241.759C348.064 233.652 347.468 221.794 346.514 210.541C346.514 210.299 346.634 210.178 346.872 210.178C347.11 210.178 347.23 210.299 347.23 210.541C348.183 221.794 348.779 233.773 349.137 241.759C349.137 242.001 349.018 242.122 348.779 242.122Z" fill="#101720"/>
<path d="M265.697 270.677H261.763C261.763 270.677 264.266 255.431 264.862 239.822C265.697 254.705 265.697 270.677 265.697 270.677Z" fill="#101720"/>
<path d="M261.644 271.04C261.644 271.04 261.406 271.04 261.406 270.919V270.677C261.406 270.556 263.909 255.189 264.505 239.822C264.505 239.58 264.624 239.459 264.862 239.459C265.101 239.459 265.22 239.58 265.22 239.822C266.054 254.342 266.054 270.193 266.054 270.677C266.054 270.919 265.816 271.04 265.578 271.04H261.644ZM264.743 246.477C263.909 257.972 262.359 268.136 262.121 270.314H265.339C265.339 268.257 265.339 257.73 264.862 246.477H264.743Z" fill="#101720"/>
<path d="M264.862 240.186C264.624 240.186 264.505 240.065 264.505 239.823C265.101 225.424 264.028 215.623 261.406 210.662C261.406 210.541 261.406 210.299 261.525 210.178C261.644 210.178 261.882 210.178 262.002 210.299C264.743 215.381 265.816 225.303 265.22 239.823C265.22 240.065 265.101 240.186 264.862 240.186Z" fill="#101720"/>
<path d="M236.374 288.101L223.739 280.72C222.189 279.873 220.282 280.962 220.282 282.777V297.539C220.282 299.354 222.189 300.443 223.739 299.596L236.374 292.215C237.923 291.368 237.923 289.069 236.374 288.222V288.101Z" fill="#FFFFFE"/>
<path d="M222.546 300.201C222.07 300.201 221.593 300.08 221.235 299.838C220.401 299.354 219.924 298.507 219.924 297.539V282.777C219.924 281.809 220.401 280.962 221.235 280.478C222.07 279.994 223.023 279.994 223.858 280.478L236.374 287.859C237.208 288.343 237.685 289.19 237.685 290.158C237.685 291.126 237.208 291.973 236.374 292.457L223.738 299.838C223.381 300.08 222.904 300.201 222.427 300.201H222.546ZM222.546 280.72C222.189 280.72 221.831 280.72 221.593 280.962C220.997 281.325 220.639 281.93 220.639 282.656V297.418C220.639 298.144 220.997 298.749 221.593 299.112C222.189 299.475 222.904 299.475 223.5 299.112L236.135 291.731C236.731 291.368 237.089 290.763 237.089 290.037C237.089 289.311 236.731 288.706 236.254 288.343L223.619 280.962C223.262 280.841 223.023 280.72 222.666 280.72H222.546Z" fill="#101720"/>
<path d="M556.187 431.486H28.4887C28.2503 431.486 28.1311 431.365 28.1311 431.123C28.1311 430.881 28.2503 430.76 28.4887 430.76H556.187C556.426 430.76 556.545 430.881 556.545 431.123C556.545 431.365 556.426 431.486 556.187 431.486Z" fill="#3F51B5"/>
<path d="M342.819 388.894C342.819 391.314 342.104 393.492 340.912 395.186C329.469 411.763 236.85 427.13 236.85 427.13C236.85 427.13 199.898 465.366 162.827 479.402C135.292 489.808 94.2872 492.228 75.692 471.658C69.2552 464.64 65.56 454.839 65.9176 441.65C66.156 433.059 67.2288 423.863 69.0168 414.425C77.8376 367.477 103.704 313.995 126.71 294.393C154.364 270.798 208.6 244.057 260.571 289.795C300.861 325.369 333.998 359.249 341.389 380.303C342.462 383.449 343.058 386.232 342.938 388.773L342.819 388.894Z" fill="#3F51B5"/>
<path d="M120.034 487.63C118.604 487.63 117.174 487.63 115.862 487.63C103.346 487.146 86.3007 484 75.4535 472.021C68.5399 464.398 65.2023 454.234 65.5599 441.771C65.7983 433.422 66.8711 424.226 68.6591 414.425C77.3607 367.84 103.346 313.874 126.471 294.151C143.159 279.994 201.925 237.765 260.69 289.674C307.894 331.177 335.071 361.79 341.627 380.424C342.819 383.57 343.296 386.474 343.177 389.015C343.177 391.435 342.462 393.613 341.15 395.428C336.382 402.325 317.31 409.827 284.65 417.692C261.167 423.379 238.877 427.13 236.97 427.372C234.943 429.429 198.825 466.092 162.946 479.644C149.596 484.726 134.219 487.509 120.154 487.509L120.034 487.63ZM197.157 265.232C176.654 265.232 152.695 272.613 126.829 294.635C103.823 314.237 77.9567 367.961 69.2551 414.425C67.4671 424.226 66.3943 433.301 66.1559 441.65C65.7983 453.871 69.1359 463.914 75.9303 471.416C86.5391 483.153 103.466 486.299 115.862 486.783C130.882 487.388 147.927 484.605 162.589 479.039C199.183 465.245 236.135 427.251 236.493 426.888C236.493 426.888 236.612 426.888 236.731 426.888C237.685 426.767 329.23 411.4 340.554 395.065C341.746 393.371 342.342 391.193 342.462 388.894C342.462 386.474 341.985 383.691 340.912 380.666C334.356 362.153 307.298 331.782 260.214 290.279C251.274 282.414 228.387 265.474 197.276 265.474L197.157 265.232Z" fill="#101720"/>
<path d="M74.7382 470.085C68.7782 462.825 65.9174 453.266 66.1558 441.65C66.3942 433.301 67.3478 424.226 69.255 414.425C77.9566 367.961 103.823 314.116 126.829 294.514C137.199 285.681 165.092 265.111 199.064 265.111C233.036 265.111 241.499 273.46 260.213 290.037C305.986 330.33 332.925 360.096 340.316 378.851C330.661 368.808 317.549 354.53 301.218 336.38C276.663 309.155 257.949 293.909 246.505 285.923C233.036 276.485 217.659 271.403 201.925 271.161H200.494C166.641 271.161 138.391 289.432 123.372 306.614C106.684 325.611 84.6318 373.89 75.3342 411.884C67.8246 442.618 72.9502 464.035 74.7382 470.085Z" fill="#FFFFFE"/>
<path d="M181.78 480.128L260.214 406.56L339.005 387.321L280.001 445.038L181.78 480.128Z" fill="#FFFFFE"/>
<path d="M181.78 480.37C181.661 480.37 181.542 480.37 181.422 480.249C181.422 480.128 181.422 479.886 181.422 479.765L259.856 406.318C259.856 406.318 259.856 406.318 259.975 406.318L338.766 387.079C338.886 387.079 339.124 387.079 339.124 387.2C339.124 387.321 339.124 387.563 339.124 387.684L280.12 445.401C280.12 445.401 280.12 445.401 280.001 445.401L181.78 480.491V480.37ZM260.452 406.923L183.33 479.16L279.882 444.675L337.932 388.047L260.452 407.044V406.923Z" fill="#101720"/>
<path d="M256.399 369.292C265.935 371.107 274.875 374.495 275.948 378.609C277.021 382.723 266.174 388.289 266.174 388.289L256.399 369.171V369.292Z" fill="#FBBF24"/>
<path d="M256.399 369.292C265.935 371.107 274.875 374.495 275.948 378.609C277.021 382.723 266.174 388.289 266.174 388.289L256.399 369.171V369.292Z" fill="#FBBF24"/>
<path d="M266.174 388.773C266.054 388.773 265.935 388.773 265.816 388.531L256.042 369.534C256.042 369.534 256.042 369.413 256.042 369.292C256.042 369.05 256.161 368.929 256.399 368.929C260.81 369.776 274.756 372.922 276.186 378.488C277.259 382.844 266.65 388.41 266.174 388.652C266.174 388.652 266.173 388.652 266.054 388.652L266.174 388.773ZM257.114 369.776L266.412 387.805C269.511 386.111 276.425 381.755 275.71 378.609C274.875 375.221 267.723 371.833 257.114 369.655V369.776Z" fill="#101720"/>
<path d="M227.672 349.932L226.122 351.263L269.154 401.478V398.211L227.672 349.932Z" fill="#101720"/>
<path d="M269.153 401.841C269.153 401.841 268.915 401.841 268.915 401.72L225.765 351.626C225.765 351.626 225.765 351.505 225.765 351.384C225.765 351.263 225.765 351.142 225.884 351.142L227.433 349.69C227.553 349.569 227.791 349.69 227.91 349.69L269.392 397.969C269.392 397.969 269.392 398.09 269.392 398.211V401.478C269.392 401.599 269.392 401.72 269.153 401.841C269.153 401.841 269.153 401.841 269.034 401.841H269.153ZM226.599 351.384L268.796 400.51V398.332L227.553 350.416L226.48 351.384H226.599Z" fill="#101720"/>
<path d="M235.658 342.914L227.672 349.932L269.153 398.211V401.478L278.689 393.008L235.658 342.914Z" fill="#FBBF24"/>
<path d="M269.153 401.841C269.153 401.841 269.153 401.841 269.034 401.841C268.915 401.841 268.796 401.599 268.796 401.478V398.332L227.314 350.174C227.314 350.174 227.314 350.053 227.314 349.932C227.314 349.811 227.314 349.69 227.433 349.69L235.42 342.672C235.539 342.551 235.777 342.672 235.897 342.672L279.047 392.766C279.047 392.766 279.047 392.887 279.047 393.008C279.047 393.129 279.047 393.25 278.928 393.25L269.392 401.72C269.392 401.72 269.273 401.72 269.153 401.72V401.841ZM228.149 349.932L269.392 397.969C269.392 397.969 269.392 398.09 269.392 398.211V400.752L278.093 393.008L235.42 343.398L228.029 349.932H228.149Z" fill="#101720"/>
<path d="M221.95 336.622C220.639 337.832 219.924 339.405 219.805 340.978C219.805 342.672 220.162 344.366 221.354 345.697L226.122 351.263L235.658 342.793L230.89 337.227C228.625 334.565 224.573 334.323 221.95 336.622Z" fill="#1976D2"/>
<path d="M226.122 351.626C226.122 351.626 225.884 351.626 225.884 351.505L221.116 345.939C219.924 344.608 219.328 342.793 219.447 340.978C219.566 339.163 220.401 337.469 221.712 336.38C223.023 335.17 224.811 334.565 226.599 334.686C228.387 334.807 230.056 335.654 231.129 336.985L235.897 342.551C236.016 342.672 235.897 342.914 235.897 343.035L226.361 351.505C226.361 351.505 226.241 351.505 226.122 351.505V351.626ZM226.003 335.412C224.573 335.412 223.142 335.896 222.069 336.864C220.877 337.953 220.162 339.405 220.043 340.978C220.043 342.551 220.401 344.124 221.473 345.334L226.003 350.658L234.943 342.672L230.413 337.348C229.341 336.138 227.91 335.412 226.361 335.291C226.241 335.291 226.122 335.291 226.003 335.291V335.412Z" fill="#101720"/>
<path d="M272.372 395.307V398.695L269.154 398.211V401.478L281.431 405.955L278.69 393.008L275.59 392.524V395.791L272.372 395.307Z" fill="#FBBF24"/>
<path d="M281.431 406.318C281.431 406.318 281.431 406.318 281.312 406.318L269.034 401.841C268.915 401.841 268.796 401.599 268.796 401.478V398.211V397.969H269.034L271.776 398.332V395.428V395.186H272.014L274.756 395.549V392.645V392.403H274.994L278.213 392.887C278.332 392.887 278.451 393.008 278.57 393.129L281.312 406.076C281.312 406.197 281.312 406.318 281.312 406.439C281.312 406.439 281.193 406.439 281.074 406.439L281.431 406.318ZM269.511 401.236L280.954 405.471L278.451 393.371L275.948 393.008V395.912V396.154H275.71L272.968 395.791V398.695V398.937H272.73L269.988 398.574V401.236H269.511Z" fill="#101720"/>
<path d="M280.597 401.962L277.617 404.503L281.431 405.955L280.597 401.962Z" fill="#101720"/>
<path d="M281.431 406.318C281.431 406.318 281.431 406.318 281.312 406.318L277.497 404.866C277.378 404.866 277.259 404.745 277.259 404.624C277.259 404.503 277.259 404.382 277.259 404.261L280.239 401.599C280.239 401.599 280.477 401.599 280.597 401.599C280.716 401.599 280.835 401.72 280.835 401.841L281.669 405.834C281.669 405.955 281.669 406.076 281.669 406.197C281.669 406.197 281.55 406.197 281.431 406.197V406.318ZM278.332 404.382L280.954 405.35L280.358 402.567L278.332 404.382Z" fill="#101720"/>
<path d="M275.59 392.887C275.59 392.887 275.352 392.887 275.352 392.766L233.87 344.487C233.751 344.366 233.87 344.124 233.87 344.003C233.99 343.882 234.228 344.003 234.347 344.003L275.829 392.282C275.948 392.403 275.829 392.645 275.829 392.766C275.829 392.766 275.71 392.766 275.59 392.766V392.887Z" fill="#101720"/>
<path d="M272.372 395.67C272.372 395.67 272.133 395.67 272.133 395.549L230.652 347.27C230.533 347.149 230.652 346.907 230.652 346.786C230.771 346.665 231.009 346.786 231.129 346.786L272.61 395.065C272.729 395.186 272.61 395.428 272.61 395.549C272.61 395.549 272.491 395.549 272.372 395.549V395.67Z" fill="#101720"/>
<path d="M221.95 336.622C220.639 337.832 219.924 339.405 219.805 340.978C219.805 342.672 220.162 344.366 221.354 345.697L226.122 351.263L227.672 349.811L222.308 343.519C221.473 342.551 220.997 341.341 220.997 340.131C220.997 339.042 221.116 337.711 221.95 336.501V336.622Z" fill="#101720"/>
<path d="M226.122 351.626C226.122 351.626 225.884 351.626 225.884 351.505L221.116 345.939C219.924 344.608 219.328 342.793 219.447 340.978C219.566 339.163 220.401 337.469 221.712 336.38C221.712 336.38 221.95 336.38 222.069 336.38C222.189 336.38 222.308 336.622 222.308 336.743C222.308 336.743 222.308 336.864 222.308 336.985C221.593 338.195 221.473 339.526 221.473 340.373C221.473 341.462 221.95 342.672 222.665 343.519L228.029 349.811C228.029 349.811 228.029 349.932 228.029 350.053C228.029 350.053 228.029 350.295 227.91 350.295L226.361 351.747C226.361 351.747 226.241 351.747 226.122 351.747V351.626ZM220.758 338.679C220.401 339.405 220.162 340.252 220.043 341.099C220.043 342.672 220.401 344.245 221.473 345.455L226.003 350.779L227.076 349.811L221.95 343.882C220.997 342.793 220.52 341.583 220.52 340.252C220.52 339.768 220.52 339.163 220.639 338.679H220.758Z" fill="#101720"/>
<path d="M202.282 367.235C227.791 355.498 244.002 354.288 252.942 361.548C261.882 368.808 267.127 382.844 268.677 387.442C270.226 392.04 265.101 391.919 265.101 391.919C265.101 391.919 270.465 401.357 264.266 403.293C264.266 403.293 269.869 413.215 264.147 414.667C264.147 414.667 264.266 423.863 259.379 423.984C254.492 424.105 254.015 422.411 250.201 423.984C246.386 425.557 236.731 427.372 236.731 427.372L202.282 367.356V367.235Z" fill="#FF7E6D"/>
<mask id="mask3_212_390" style="mask-type:luminance" maskUnits="userSpaceOnUse" x="202" y="357" width="67" height="71">
<path d="M202.282 367.235C227.791 355.498 244.002 354.288 252.942 361.548C261.763 368.808 267.127 382.844 268.677 387.442C270.226 392.04 265.101 391.919 265.101 391.919C265.101 391.919 270.465 401.357 264.266 403.293C264.266 403.293 269.869 413.215 264.147 414.546C264.147 414.546 264.266 423.742 259.379 423.863C254.492 423.984 254.015 422.29 250.201 423.863C246.386 425.436 236.731 427.251 236.731 427.251L202.282 367.235Z" fill="white"/>
</mask>
<g mask="url(#mask3_212_390)">
<path d="M267.008 379.335C267.485 385.385 264.981 385.627 260.333 380.908C255.684 376.068 251.989 369.776 249.962 369.413C247.936 369.05 248.055 370.26 250.677 373.648C253.3 377.036 267.008 394.581 267.008 394.581L268.915 399.663C268.915 399.663 267.246 401.357 262.24 397.969C257.233 394.581 253.896 387.079 250.439 385.99C246.982 384.78 249.009 387.684 251.035 389.741C253.061 391.798 266.412 405.35 266.412 405.35L267.842 407.649C267.842 407.649 267.485 409.827 262.597 408.617C257.71 407.407 253.181 399.058 250.439 398.816C247.697 398.574 247.697 399.784 250.677 402.446C253.657 405.108 264.862 414.546 265.697 416.119C266.531 417.692 263.074 423.379 256.399 419.991C249.724 416.603 239.949 417.087 233.632 414.062C227.314 411.037 213.487 389.862 213.487 389.862L233.751 431.607L266.889 428.945L282.385 416.845L280.716 389.741L266.889 379.456L267.008 379.335Z" fill="#1976D2"/>
<path d="M250.201 418.417C247.697 416.965 244.956 416.239 242.333 415.513C241.022 415.15 239.592 414.787 238.4 413.94C237.327 413.214 236.254 412.246 235.539 411.157C234.943 410.31 233.513 411.157 234.228 412.004C235.062 413.093 236.016 414.182 237.089 414.908C238.281 415.755 239.592 416.36 241.022 416.723C243.883 417.57 246.863 418.175 249.605 419.748C250.439 420.232 251.273 418.901 250.439 418.417H250.201Z" fill="#1976D2"/>
<path d="M233.751 408.496C233.751 408.375 233.751 408.254 233.513 408.133C233.513 408.133 233.513 408.133 233.393 408.012C233.274 408.012 233.155 408.012 233.036 408.012H232.917C232.917 408.012 232.678 408.012 232.559 408.012C232.559 408.012 232.44 408.012 232.321 408.133C232.201 408.254 232.201 408.254 232.201 408.375C232.201 408.375 232.201 408.617 232.201 408.738C232.201 408.859 232.201 408.859 232.201 408.98C232.201 409.101 232.201 409.222 232.44 409.343C232.44 409.343 232.44 409.343 232.559 409.464C232.678 409.464 232.797 409.464 232.917 409.464H233.036C233.036 409.464 233.274 409.464 233.393 409.464C233.393 409.464 233.513 409.464 233.632 409.343C233.632 409.343 233.751 409.222 233.751 409.101C233.751 409.101 233.751 408.859 233.751 408.738C233.751 408.617 233.751 408.617 233.751 408.496Z" fill="#1976D2"/>
</g>
<path d="M236.85 427.493C236.731 427.493 236.612 427.493 236.493 427.372L202.044 367.356V367.114C202.044 367.114 202.044 366.993 202.282 366.872C226.838 355.619 244.002 353.683 253.3 361.185C262.717 368.808 268.081 384.175 269.154 387.2C269.63 388.652 269.511 389.741 268.915 390.588C268.081 391.677 266.65 392.04 265.816 392.161C266.531 393.613 268.558 398.09 267.366 400.994C266.889 402.083 266.174 402.93 264.982 403.293C265.697 404.745 268.2 409.706 266.889 412.731C266.531 413.699 265.697 414.304 264.624 414.667C264.624 416.24 264.266 423.863 259.498 423.984C257.472 423.984 256.161 423.742 255.088 423.621C253.538 423.379 252.585 423.137 250.439 423.984C246.625 425.557 237.327 427.372 236.97 427.372L236.85 427.493ZM202.759 367.356L236.97 426.767C238.519 426.404 246.744 424.831 250.082 423.379C252.466 422.411 253.658 422.653 255.088 423.016C256.161 423.258 257.353 423.5 259.379 423.379C263.909 423.258 263.79 414.546 263.79 414.425C263.79 414.304 263.79 414.062 264.028 414.062C265.101 413.82 265.697 413.336 266.054 412.489C267.366 409.464 263.909 403.414 263.909 403.293C263.909 403.293 263.909 403.051 263.909 402.93C263.909 402.93 264.028 402.688 264.147 402.688C265.339 402.325 266.174 401.599 266.531 400.631C267.842 397.364 264.743 391.919 264.743 391.919C264.743 391.919 264.743 391.677 264.743 391.556C264.743 391.556 264.982 391.435 265.101 391.435C265.22 391.435 267.246 391.435 268.2 390.104C268.677 389.378 268.677 388.531 268.319 387.321C267.366 384.296 262.002 369.171 252.704 361.669C243.645 354.288 226.957 356.224 202.759 367.235V367.356Z" fill="#101720"/>
<path d="M280.001 445.038L181.78 480.128L184.283 487.025L282.504 450.483L280.001 445.038Z" fill="#FBBF24"/>
<path d="M184.283 487.388C184.164 487.388 184.045 487.388 183.926 487.146L181.422 480.249V480.007C181.422 480.007 181.422 479.886 181.661 479.765L279.882 444.675C280.001 444.675 280.239 444.675 280.358 444.917L282.862 450.362V450.604C282.862 450.604 282.862 450.725 282.623 450.846L184.402 487.388C184.402 487.388 184.402 487.388 184.283 487.388ZM182.257 480.249L184.522 486.541L282.027 450.241L279.762 445.401L182.138 480.249H182.257Z" fill="#101720"/>
<path d="M280 445.038L339.004 387.321L340.912 395.186L282.504 450.483L280 445.038Z" fill="#101720"/>
<path d="M282.504 450.846C282.504 450.846 282.265 450.846 282.265 450.604L279.762 445.159C279.762 445.038 279.762 444.796 279.762 444.796L338.766 387.079C338.766 387.079 339.005 386.958 339.124 387.079C339.243 387.079 339.362 387.2 339.362 387.321L341.15 395.186C341.15 395.307 341.15 395.428 341.15 395.549L282.861 450.725C282.861 450.725 282.742 450.725 282.623 450.725L282.504 450.846ZM280.477 445.038L282.623 449.878L340.435 395.186L338.766 388.047L280.358 445.038H280.477Z" fill="#101720"/>
<path d="M272.73 454.113C272.73 454.113 264.624 472.747 248.77 468.754C248.77 468.754 241.738 474.562 235.658 472.384C235.658 472.384 231.248 480.612 225.169 477.345C225.169 477.345 222.546 480.007 216.706 479.281C210.865 478.555 207.289 470.448 208.123 466.818C208.958 463.188 214.441 462.462 217.54 466.092C217.54 466.092 217.898 457.864 225.169 460.889C225.169 460.889 227.434 450.362 237.208 455.444C237.208 455.444 235.778 450.483 241.618 449.273C250.797 447.337 252.942 457.622 257.83 459.679L272.73 454.113Z" fill="#FF7E6D"/>
<mask id="mask4_212_390" style="mask-type:luminance" maskUnits="userSpaceOnUse" x="208" y="449" width="65" height="31">
<path d="M272.73 454.113C272.73 454.113 264.624 472.747 248.77 468.754C248.77 468.754 241.738 474.562 235.658 472.384C235.658 472.384 231.248 480.612 225.169 477.345C225.169 477.345 222.546 480.007 216.706 479.281C210.865 478.555 207.289 470.448 208.123 466.818C208.958 463.188 214.441 462.462 217.54 466.092C217.54 466.092 217.898 457.864 225.169 460.889C225.169 460.889 227.434 450.362 237.208 455.565C237.208 455.565 235.778 450.604 241.618 449.394C250.797 447.458 252.942 457.743 257.83 459.8L272.73 454.234V454.113Z" fill="white"/>
</mask>
<g mask="url(#mask4_212_390)">
<path d="M274.041 455.444C266.531 460.284 258.664 465.85 252.585 460.889C246.506 455.928 245.314 449.878 241.499 449.273C237.685 448.668 249.962 443.465 249.962 443.465L267.962 445.401L274.041 455.444Z" fill="#FF7E6D"/>
<path d="M227.434 454.718C230.89 454.113 233.632 458.832 237.089 463.914C240.546 468.996 243.883 469.48 242.93 472.868C241.976 476.256 251.035 470.327 251.035 470.327C251.035 470.327 246.744 467.786 244.36 465.245C241.976 462.704 237.685 456.775 236.254 452.903C234.824 449.031 228.626 452.298 228.626 452.298L227.553 454.839L227.434 454.718Z" fill="#FF7E6D"/>
<path d="M224.692 458.469C225.407 461.736 225.884 464.761 229.579 467.907C233.394 471.174 237.446 474.078 237.446 474.078L229.46 479.039C229.46 479.039 231.129 476.498 229.579 473.473C228.03 470.448 224.215 469.964 222.904 465.971C221.593 461.978 220.043 459.679 218.732 459.921C217.421 460.163 224.692 458.469 224.692 458.469Z" fill="#FF7E6D"/>
<path d="M209.911 462.946C212.891 464.64 213.487 470.206 216.11 473.231C218.732 476.256 220.162 477.95 219.09 481.096C217.898 484.363 226.718 478.797 226.718 478.797C226.718 478.797 224.454 477.345 222.308 474.441C220.162 471.537 217.421 466.939 216.229 462.946C215.037 458.953 209.792 462.946 209.792 462.946H209.911Z" fill="#FF7E6D"/>
</g>
<path d="M218.732 479.765C218.136 479.765 217.421 479.765 216.586 479.644C214.202 479.281 211.937 477.829 210.149 475.288C208.242 472.505 207.169 468.996 207.646 466.697C208.004 465.124 209.196 463.914 210.865 463.43C212.653 462.946 215.156 463.43 217.063 465.124C217.301 463.914 217.897 461.615 219.685 460.405C220.997 459.558 222.785 459.437 224.811 460.284C225.169 459.074 226.361 455.686 229.341 454.234C231.367 453.266 233.751 453.387 236.493 454.718C236.493 453.992 236.493 452.661 237.089 451.451C237.923 450.12 239.353 449.273 241.38 448.789C247.459 447.458 250.558 451.451 253.3 454.96C254.73 456.775 256.041 458.469 257.71 459.195L272.491 453.75C272.491 453.75 272.61 453.75 272.729 453.75C272.849 453.75 272.968 453.992 272.968 454.113C272.968 454.113 272.968 454.234 272.968 454.355C272.372 455.686 264.147 472.989 248.77 469.238C247.697 470.085 241.499 474.804 235.777 472.868C234.943 474.199 230.771 480.612 225.169 477.829C224.573 478.313 222.427 479.765 218.732 479.765ZM212.414 464.035C211.937 464.035 211.461 464.035 211.103 464.156C209.673 464.519 208.6 465.487 208.361 466.818C207.885 468.875 208.957 472.263 210.745 474.804C212.414 477.103 214.441 478.555 216.705 478.918C222.189 479.644 224.811 477.103 224.811 477.103C224.811 477.103 225.049 476.982 225.288 477.103C231.009 480.128 235.181 472.626 235.301 472.263C235.301 472.142 235.539 472.021 235.777 472.142C241.618 474.199 248.532 468.633 248.532 468.633C248.532 468.633 248.77 468.633 248.889 468.633C262.478 472.021 270.345 458.469 272.133 454.96L258.068 460.163C258.068 460.163 257.949 460.163 257.829 460.163C255.922 459.437 254.492 457.501 253.061 455.565C250.32 452.056 247.578 448.547 241.857 449.757C240.069 450.12 238.757 450.967 238.042 452.056C237.089 453.629 237.685 455.444 237.685 455.444C237.685 455.565 237.685 455.686 237.685 455.807C237.685 455.928 237.446 455.807 237.327 455.807C234.466 454.355 232.082 453.992 230.056 454.96C226.837 456.533 225.765 460.889 225.765 460.889C225.765 460.889 225.765 461.131 225.526 461.131C225.526 461.131 225.288 461.131 225.169 461.131C223.142 460.284 221.473 460.284 220.281 461.131C218.136 462.583 217.897 465.971 217.897 466.092C217.897 466.213 217.897 466.334 217.659 466.455C217.54 466.455 217.421 466.455 217.301 466.455C215.99 464.882 214.202 464.277 212.533 464.277L212.414 464.035Z" fill="#101720"/>
<path d="M265.101 391.798C254.73 378.125 249.366 371.47 249.366 371.47Z" fill="#FBBF24"/>
<path d="M265.101 392.161C265.101 392.161 264.862 392.161 264.862 392.04C254.611 378.609 249.128 371.833 249.128 371.712C249.009 371.591 249.128 371.349 249.128 371.228C249.247 371.107 249.486 371.228 249.605 371.228C249.605 371.228 255.088 378.004 265.339 391.556C265.458 391.677 265.339 391.919 265.339 392.04C265.339 392.04 265.22 392.04 265.101 392.04V392.161Z" fill="#101720"/>
<path d="M264.266 403.172C258.068 397.364 249.009 387.321 249.009 387.321Z" fill="#FBBF24"/>
<path d="M264.266 403.535C264.266 403.535 264.147 403.535 264.028 403.535C257.949 397.848 248.89 387.805 248.77 387.684C248.651 387.563 248.651 387.321 248.77 387.2C248.89 387.079 249.128 387.079 249.247 387.2C249.247 387.2 258.426 397.243 264.505 402.93C264.624 403.051 264.624 403.293 264.505 403.414C264.505 403.414 264.386 403.414 264.266 403.414V403.535Z" fill="#101720"/>
<path d="M264.147 414.425C257.71 408.375 250.558 402.204 250.558 402.204Z" fill="#FBBF24"/>
<path d="M264.147 414.788C264.147 414.788 264.028 414.788 263.909 414.788C257.472 408.738 250.439 402.567 250.439 402.567C250.32 402.446 250.32 402.204 250.439 402.083C250.558 401.962 250.797 401.962 250.916 402.083C250.916 402.083 258.068 408.254 264.505 414.304C264.624 414.425 264.624 414.667 264.505 414.788C264.505 414.788 264.385 414.788 264.266 414.788H264.147Z" fill="#101720"/>
<path d="M121.822 414.788C121.703 414.788 121.584 414.788 121.465 414.667C121.465 414.546 121.465 414.304 121.465 414.183C121.941 413.82 169.979 383.328 201.925 366.872C202.044 366.872 202.282 366.872 202.401 366.993C202.401 367.114 202.401 367.356 202.282 367.477C170.337 383.812 122.299 414.425 121.822 414.788C121.822 414.788 121.703 414.788 121.584 414.788H121.822Z" fill="#101720"/>
<path d="M154.841 394.46C154.602 394.46 154.483 394.339 154.483 394.097C154.483 393.008 154.483 391.556 154.483 389.741C154.483 374.616 154.483 339.284 143.517 323.796C143.517 323.675 143.517 323.433 143.517 323.312C143.636 323.312 143.874 323.312 143.993 323.312C154.96 338.921 155.079 374.495 155.079 389.741C155.079 391.556 155.079 393.008 155.079 394.097C155.079 394.339 154.96 394.46 154.721 394.46H154.841Z" fill="#101720"/>
<path d="M159.966 228.206C161.039 236.918 168.191 235.829 168.191 235.829C168.191 235.829 164.734 243.089 166.88 246.961C169.026 250.712 171.41 249.502 171.41 249.502C171.41 249.502 173.555 253.253 178.204 254.221C180.826 254.826 184.402 253.616 186.906 252.527C188.813 251.68 190.243 250.833 190.243 250.833L220.639 240.548L224.692 239.217C224.692 239.217 224.692 239.096 224.811 238.854C225.526 237.16 227.91 230.505 224.93 225.06C224.93 225.06 226.003 222.519 226.242 219.01C226.599 214.775 225.765 209.088 220.52 204.611C210.984 196.383 199.183 195.657 195.25 203.522C195.25 203.522 186.906 198.682 177.727 202.191C168.549 205.7 168.549 217.074 168.549 217.074C168.549 217.074 166.999 216.711 165.211 217.074C162.708 217.558 159.609 219.615 159.728 226.028C159.728 226.754 159.728 227.48 159.847 228.085L159.966 228.206Z" fill="#FBBF24"/>
<path d="M179.634 254.705C179.038 254.705 178.561 254.705 178.085 254.584C174.032 253.737 171.767 250.833 171.171 249.986C170.456 250.228 168.31 250.47 166.522 247.203C164.615 243.815 166.761 238.128 167.595 236.313C166.642 236.313 164.615 236.192 162.827 234.74C161.039 233.409 159.966 231.231 159.609 228.206C159.609 228.206 159.609 228.206 159.609 228.085C159.609 227.359 159.49 226.754 159.49 226.149C159.49 219.494 162.589 217.437 165.33 216.832C166.641 216.59 167.834 216.59 168.43 216.832C168.43 214.654 169.502 205.216 177.846 201.949C186.071 198.803 193.7 202.191 195.369 203.038C196.918 200.376 199.302 198.561 202.521 197.956C208.123 196.867 215.156 199.287 220.997 204.369C226.361 208.967 227.076 214.896 226.838 219.131C226.599 222.156 225.765 224.455 225.526 225.06C228.387 230.384 226.122 237.039 225.288 238.975V239.338C225.05 239.338 225.049 239.459 224.93 239.58L220.878 240.911L190.482 251.196C190.482 251.196 189.17 252.043 187.144 252.89C184.998 253.858 182.257 254.826 179.754 254.826L179.634 254.705ZM171.29 249.139C171.409 249.139 171.529 249.139 171.648 249.26C171.648 249.26 173.793 252.769 178.204 253.737C180.826 254.342 184.283 253.132 186.786 252.043C188.693 251.196 190.005 250.349 190.124 250.349L224.573 238.733V238.491C225.407 236.676 227.672 230.142 224.811 225.06C224.811 225.06 224.811 224.818 224.811 224.697C224.811 224.697 225.884 222.156 226.122 218.768C226.48 214.775 225.765 209.088 220.52 204.611C214.798 199.65 208.004 197.351 202.64 198.319C199.541 198.924 197.157 200.739 195.726 203.401C195.726 203.401 195.607 203.522 195.488 203.643H195.25C195.25 203.643 187.025 198.924 178.085 202.433C169.264 205.821 169.145 216.953 169.145 217.074C169.145 217.074 169.145 217.316 169.026 217.316C169.026 217.316 168.787 217.316 168.668 217.316C168.668 217.316 167.118 216.953 165.45 217.316C162.946 217.8 160.085 219.736 160.205 225.907C160.205 226.633 160.205 227.238 160.324 227.964C160.324 227.964 160.324 227.964 160.324 228.085C160.681 230.747 161.635 232.683 163.304 233.893C165.449 235.587 168.072 235.224 168.191 235.224C168.31 235.224 168.429 235.224 168.549 235.345C168.549 235.345 168.549 235.587 168.549 235.708C168.549 235.708 165.211 242.847 167.238 246.477C169.145 249.865 171.171 248.897 171.29 248.897C171.29 248.897 171.29 248.897 171.41 248.897L171.29 249.139Z" fill="#101720"/>
<path d="M168.191 235.95C168.191 235.95 164.734 243.21 166.88 247.082C169.026 250.833 171.41 249.623 171.41 249.623C171.41 249.623 173.555 253.374 178.204 254.342C180.826 254.947 184.402 253.737 186.906 252.648C188.813 251.801 190.243 250.954 190.243 250.954L220.639 240.669C222.308 239.943 223.738 239.459 224.811 238.975C225.526 237.281 227.91 230.626 224.93 225.181C224.93 225.181 226.003 222.64 226.242 219.131C226.242 219.131 223.023 222.519 217.898 221.188L195.25 234.014L185.833 232.078C178.681 232.925 164.258 233.167 159.847 228.448C160.92 237.16 168.072 236.071 168.072 236.071L168.191 235.95Z" fill="#101720"/>
<path d="M179.634 254.705C179.038 254.705 178.561 254.705 178.085 254.584C174.032 253.737 171.767 250.833 171.171 249.986C170.456 250.228 168.31 250.47 166.522 247.203C164.615 243.815 166.88 238.128 167.595 236.313C166.641 236.313 164.615 236.192 162.827 234.74C161.039 233.409 159.966 231.231 159.609 228.206C159.609 228.085 159.609 227.843 159.847 227.843C159.966 227.843 160.205 227.843 160.205 227.843C164.257 232.199 177.727 232.32 185.833 231.352L195.13 233.288L217.659 220.583C217.659 220.583 217.778 220.583 217.897 220.583C222.785 221.793 225.884 218.647 225.884 218.647C225.884 218.647 226.122 218.526 226.241 218.647C226.361 218.647 226.48 218.889 226.48 219.01C226.241 222.035 225.407 224.334 225.169 224.939C228.029 230.263 225.765 236.918 224.93 238.854C224.93 238.854 224.93 238.975 224.692 239.096C223.857 239.459 222.785 239.822 221.712 240.306L220.52 240.79L190.124 251.075C190.124 251.075 188.813 251.922 186.786 252.769C184.641 253.737 181.899 254.705 179.396 254.705H179.634ZM171.29 249.139C171.409 249.139 171.529 249.139 171.648 249.26C171.648 249.26 173.793 252.769 178.204 253.737C180.826 254.342 184.283 253.132 186.786 252.043C188.693 251.196 190.005 250.349 190.124 250.349L220.639 240.064L221.831 239.58C222.904 239.096 223.857 238.733 224.692 238.37C225.526 236.313 227.553 230.021 224.692 225.06C224.692 225.06 224.692 224.818 224.692 224.697C224.692 224.697 225.526 222.64 225.884 219.615C224.692 220.583 221.95 222.156 218.017 221.188L195.488 233.893C195.488 233.893 195.369 233.893 195.249 233.893L185.833 231.957C179.038 232.804 165.688 233.046 160.443 228.932C160.92 231.11 161.873 232.804 163.185 233.893C165.33 235.587 167.953 235.224 168.072 235.224C168.191 235.224 168.429 235.224 168.429 235.466C168.429 235.587 168.429 235.708 168.429 235.829C168.191 236.434 165.211 243.089 167.118 246.598C169.025 249.986 171.052 249.018 171.171 249.018C171.171 249.018 171.171 249.018 171.29 249.018V249.139Z" fill="#101720"/>
<path d="M182.257 246.719L182.018 246.356C182.614 245.872 183.091 245.388 183.091 245.388L183.33 245.63C183.33 245.63 182.853 246.114 182.257 246.598V246.719Z" fill="#5C2F00"/>
<path d="M190.72 293.546C194.058 294.877 197.276 295.119 199.422 293.546C206.216 289.069 203.713 280.841 203.713 280.841L202.64 263.538L186.786 251.68L184.402 249.865L177.966 274.791C177.012 283.019 183.926 290.642 190.601 293.425L190.72 293.546Z" fill="#FF7E6D"/>
<path d="M190.72 293.546C194.058 294.877 197.276 295.119 199.422 293.546C206.216 289.069 203.713 280.841 203.713 280.841L202.64 263.538L186.786 251.68L184.879 253.132C184.879 253.132 189.29 264.143 194.534 271.282C198.587 276.727 194.177 287.617 190.72 293.425V293.546Z" fill="#FF7E6D"/>
<path d="M182.495 257.731C182.495 257.731 192.031 268.621 202.998 269.226L202.64 263.66L184.045 251.56L182.495 257.731Z" fill="#101720"/>
<path d="M203.474 269.588H203.117C192.15 268.983 182.376 258.093 182.257 257.972H182.137C182.137 257.851 183.925 250.954 183.925 250.954L203.117 263.417L203.474 269.588ZM182.972 257.609C184.164 258.819 192.865 268.015 202.759 268.741L202.401 263.78L184.402 252.043L182.972 257.488V257.609Z" fill="#101720"/>
<path d="M195.726 294.998C194.177 294.998 192.389 294.635 190.601 293.909C183.568 291.005 176.773 283.019 177.727 274.912L184.164 249.986C184.164 249.986 184.164 249.744 184.402 249.744C184.402 249.744 184.641 249.744 184.76 249.744L202.997 263.417C202.997 263.417 203.117 263.538 203.117 263.659L204.189 280.962C204.189 280.962 206.693 289.432 199.66 294.03C198.587 294.756 197.276 295.119 195.726 295.119V294.998ZM190.958 293.304C194.296 294.635 197.276 294.635 199.302 293.304C205.739 289.069 203.593 281.325 203.474 280.962L202.401 263.78L184.76 250.591L178.442 275.033C177.489 282.777 184.045 290.4 190.958 293.304Z" fill="#101720"/>
<path d="M225.05 256.036C224.454 257.972 223.738 259.666 223.023 261.118C217.182 271.766 205.858 271.161 194.654 263.78C188.455 259.666 184.283 253.374 182.257 246.477C179.992 248.171 174.986 251.196 172.959 243.694C170.814 235.466 176.178 228.448 180.707 232.925C180.826 233.046 180.946 233.167 181.184 233.409C182.138 235.103 182.972 236.918 183.449 238.854C183.568 239.338 183.687 239.943 184.045 240.427C184.522 241.274 185.714 241.758 186.548 241.516C186.429 240.185 186.31 238.854 186.19 237.523C186.071 235.708 185.833 233.772 185.952 231.957C189.29 231.473 192.389 230.263 195.25 228.448C198.945 226.149 202.163 223.003 204.905 219.615C205.024 219.615 205.143 219.615 205.262 219.615C215.752 221.793 218.255 215.259 218.255 215.259L220.043 218.647C223.381 225.06 225.526 231.957 226.361 239.217C226.838 244.299 226.718 250.228 225.05 255.915V256.036Z" fill="#FF7E6D"/>
<path d="M206.097 239.217C206.097 239.217 203.832 235.466 198.945 236.555C194.058 237.644 193.7 240.79 193.7 240.79C193.7 240.79 196.084 244.541 200.494 243.815C204.905 242.968 206.216 239.338 206.216 239.338L206.097 239.217Z" fill="#FFFFFE"/>
<mask id="mask5_212_390" style="mask-type:luminance" maskUnits="userSpaceOnUse" x="193" y="236" width="14" height="8">
<path d="M206.097 239.217C206.097 239.217 203.832 235.466 198.945 236.555C194.058 237.644 193.7 240.79 193.7 240.79C193.7 240.79 196.084 244.541 200.494 243.815C204.905 242.968 206.216 239.338 206.216 239.338L206.097 239.217Z" fill="white"/>
</mask>
<g mask="url(#mask5_212_390)">
<path d="M201.806 243.693C203.517 243.693 204.905 242.285 204.905 240.547C204.905 238.81 203.517 237.401 201.806 237.401C200.094 237.401 198.706 238.81 198.706 240.547C198.706 242.285 200.094 243.693 201.806 243.693Z" fill="#101720"/>
</g>
<path d="M214.322 250.107C214.202 250.107 213.964 250.107 213.964 249.865C213.964 249.623 213.964 249.502 214.202 249.381C215.514 249.018 215.99 248.05 216.11 247.445C216.348 246.477 216.11 245.509 215.514 244.783C214.202 243.452 212.057 240.185 211.699 236.071C211.699 235.829 211.818 235.708 212.057 235.708C212.295 235.708 212.414 235.829 212.414 236.071C212.772 240.064 214.918 243.21 216.11 244.42C216.944 245.267 217.182 246.477 216.944 247.687C216.586 248.897 215.752 249.744 214.56 250.107H214.322Z" fill="#101720"/>
<path d="M205.262 254.342C204.786 254.342 204.309 254.221 203.832 253.979C202.64 253.374 201.925 252.043 201.925 250.349C201.925 248.655 202.044 249.986 202.282 249.986C202.521 249.986 202.64 250.107 202.64 250.349C202.64 251.801 203.236 252.89 204.07 253.374C204.905 253.858 205.978 253.737 206.812 253.132C206.931 253.132 207.17 253.132 207.289 253.132C207.289 253.253 207.289 253.495 207.289 253.616C206.693 254.1 205.978 254.221 205.262 254.221V254.342Z" fill="#101720"/>
<path d="M193.581 235.95C193.581 235.95 193.462 235.95 193.342 235.95C193.223 235.95 193.104 235.587 193.223 235.466C194.177 233.893 196.084 232.804 198.468 232.32C200.971 231.957 203.474 232.441 205.024 233.893C205.143 234.014 205.143 234.256 205.024 234.377C204.905 234.498 204.666 234.498 204.547 234.377C203.117 233.167 200.852 232.683 198.587 233.046C196.442 233.409 194.654 234.377 193.819 235.829C193.819 235.829 193.581 235.95 193.462 235.95H193.581Z" fill="#101720"/>
<path d="M212.414 232.683C212.414 232.683 212.295 232.683 212.176 232.683C212.057 232.562 212.057 232.32 212.176 232.199C212.176 232.199 215.752 228.085 219.805 230.384C219.924 230.384 220.043 230.747 219.924 230.868C219.924 230.989 219.566 231.11 219.447 230.989C215.871 228.932 212.653 232.683 212.653 232.683C212.653 232.683 212.533 232.804 212.414 232.804V232.683Z" fill="#101720"/>
<path d="M198.945 236.434C198.945 236.434 196.68 236.797 195.13 238.249C193.581 239.701 193.104 241.032 192.508 241.274L193.223 242C193.223 242 195.607 237.402 198.945 236.434Z" fill="#101720"/>
<path d="M212.891 237.886C212.891 237.886 213.845 234.256 218.017 233.772C222.189 233.288 223.381 235.829 223.381 235.829C223.381 235.829 222.427 239.58 218.613 240.064C214.798 240.548 212.891 237.886 212.891 237.886Z" fill="#FFFFFE"/>
<mask id="mask6_212_390" style="mask-type:luminance" maskUnits="userSpaceOnUse" x="212" y="233" width="12" height="8">
<path d="M212.891 237.886C212.891 237.886 213.845 234.256 218.017 233.772C222.189 233.288 223.381 235.829 223.381 235.829C223.381 235.829 222.427 239.58 218.613 240.064C214.798 240.548 212.891 237.886 212.891 237.886Z" fill="white"/>
</mask>
<g mask="url(#mask6_212_390)">
<path d="M218.136 240.064C219.584 240.064 220.758 238.872 220.758 237.402C220.758 235.932 219.584 234.74 218.136 234.74C216.688 234.74 215.513 235.932 215.513 237.402C215.513 238.872 216.688 240.064 218.136 240.064Z" fill="#101720"/>
</g>
<path d="M218.017 233.772C218.017 233.772 219.924 233.409 221.593 234.256C223.261 235.103 223.977 236.071 224.453 236.071L223.977 236.918C223.977 236.918 220.877 233.772 217.897 233.772H218.017Z" fill="#101720"/>
<path d="M180.946 241.758C180.707 241.758 180.469 241.637 180.469 241.395C179.396 238.612 178.442 237.16 177.608 236.797C177.25 236.676 176.893 236.797 176.416 236.918C176.178 237.039 175.82 236.918 175.701 236.676C175.582 236.434 175.701 236.071 175.939 235.95C176.654 235.587 177.37 235.466 178.085 235.829C179.277 236.313 180.35 237.886 181.661 241.032C181.661 241.274 181.661 241.637 181.303 241.758C181.303 241.758 181.184 241.758 181.065 241.758H180.946Z" fill="#101720"/>
<path d="M223.023 261.239C217.182 271.887 205.858 271.282 194.654 263.901C188.455 259.787 184.283 253.495 182.257 246.598C179.992 248.292 174.986 251.317 172.959 243.815C170.814 235.587 176.178 228.569 180.707 233.046C180.826 233.167 180.946 233.288 181.184 233.53C182.138 235.224 182.972 237.039 183.449 238.975C183.568 239.459 183.687 240.064 184.045 240.548C184.522 241.395 185.714 241.879 186.548 241.637C186.429 240.306 186.31 238.975 186.19 237.644C186.071 235.829 185.833 233.893 185.952 232.078C189.29 231.594 192.389 230.384 195.25 228.569C198.945 226.27 202.163 223.124 204.905 219.736C205.024 219.736 205.143 219.736 205.262 219.736C200.852 228.569 187.502 233.893 193.104 248.534C200.971 268.862 215.394 262.812 222.904 261.239H223.023Z" fill="#FF7E6D"/>
<path d="M180.826 240.306C180.707 240.306 180.588 240.306 180.469 240.064C180.469 240.064 178.562 235.103 175.939 235.708C175.701 235.708 175.582 235.708 175.462 235.466C175.462 235.224 175.462 235.103 175.701 234.982C178.919 234.256 180.946 239.58 181.065 239.822C181.065 240.064 181.065 240.185 180.826 240.306C180.826 240.306 180.826 240.306 180.707 240.306H180.826Z" fill="#101720"/>
<path d="M177.608 244.299C177.608 244.299 177.489 244.299 177.369 244.299C175.701 243.089 175.343 240.306 175.82 238.128C176.177 236.676 176.893 235.587 177.846 235.466C178.085 235.466 178.204 235.466 178.204 235.708C178.204 235.95 178.204 236.071 177.965 236.071C177.369 236.071 176.773 237.039 176.535 238.249C176.058 240.064 176.535 242.605 177.846 243.573C177.965 243.573 178.085 243.936 177.846 244.057C177.846 244.057 177.727 244.178 177.608 244.178V244.299Z" fill="#101720"/>
<path d="M218.255 215.743C218.255 215.743 218.136 215.743 218.017 215.743C217.898 215.743 217.778 215.38 218.017 215.259C219.924 212.597 219.566 210.177 219.566 210.177C219.566 209.935 219.566 209.814 219.805 209.693C220.043 209.693 220.162 209.693 220.282 209.935C220.282 209.935 220.758 212.597 218.613 215.622L218.374 215.743H218.255Z" fill="#101720"/>
<path d="M210.03 269.709C205.381 269.709 199.898 267.773 194.415 264.143C188.574 260.271 184.283 254.463 182.018 247.082C180.588 248.171 178.204 249.381 176.177 248.655C174.509 248.05 173.317 246.477 172.601 243.694C171.052 238.007 173.078 233.288 175.701 231.715C177.369 230.747 179.277 230.989 180.945 232.683C181.065 232.804 181.303 233.046 181.422 233.167C182.495 234.982 183.21 236.918 183.806 238.733V238.975C184.045 239.459 184.164 239.822 184.402 240.185C184.76 240.79 185.594 241.153 186.309 241.153L185.952 237.523C185.713 235.587 185.594 233.772 185.713 231.957C185.713 231.836 185.833 231.594 186.071 231.594C189.051 231.231 192.269 230.021 195.249 228.206C198.468 226.149 201.686 223.366 204.905 219.494C204.905 219.494 205.143 219.373 205.262 219.494H205.381C205.381 219.494 205.501 219.494 205.62 219.494C215.752 221.672 218.136 215.622 218.255 215.38C218.255 215.259 218.374 215.138 218.613 215.138C218.732 215.138 218.851 215.138 218.97 215.38L220.758 218.768C224.215 225.302 226.361 232.32 227.076 239.459C227.672 245.509 227.314 251.075 225.765 256.157C225.765 256.157 225.765 256.157 225.765 256.278C225.169 258.214 224.453 260.029 223.619 261.481C221.354 265.716 218.136 268.257 214.202 269.346C213.01 269.709 211.699 269.83 210.388 269.83L210.03 269.709ZM182.137 246.114C182.137 246.114 182.376 246.235 182.376 246.356C184.641 253.737 188.932 259.666 194.653 263.417C201.567 268.015 208.242 269.709 213.487 268.378C217.301 267.41 220.281 264.869 222.427 260.876C223.142 259.424 223.857 257.851 224.453 255.915C224.453 255.915 224.453 255.915 224.453 255.794C225.884 250.833 226.361 245.267 225.765 239.217C225.049 232.078 222.904 225.302 219.566 218.768L218.136 215.985C217.778 216.59 217.063 217.558 215.752 218.526C213.964 219.857 210.626 221.067 205.024 219.857C205.024 219.857 205.024 219.857 204.905 219.857C201.686 223.729 198.468 226.512 195.249 228.569C192.269 230.384 189.17 231.594 186.071 232.078C186.071 233.772 186.071 235.345 186.309 237.281L186.667 241.274C186.667 241.395 186.667 241.637 186.429 241.637C185.356 241.879 184.045 241.395 183.449 240.427C183.21 239.943 182.972 239.459 182.853 238.975V238.733C182.257 236.918 181.541 235.103 180.588 233.409C180.588 233.409 180.349 233.167 180.23 233.046C178.8 231.715 177.25 231.352 175.82 232.199C173.436 233.651 171.767 238.249 173.078 243.452C173.674 245.872 174.747 247.445 176.177 247.929C178.204 248.655 180.588 247.082 181.78 246.114C181.78 246.114 181.899 246.114 182.018 246.114H182.137Z" fill="#FF7E6D"/>
<path d="M248.651 469.238C248.413 469.238 243.526 467.302 236.85 455.686C236.85 455.565 236.85 455.323 236.97 455.202C237.089 455.202 237.327 455.202 237.446 455.323C244.002 466.697 248.77 468.512 248.89 468.512C249.128 468.512 249.128 468.754 249.128 468.996C249.128 469.117 248.89 469.238 248.77 469.238H248.651Z" fill="#101720"/>
<path d="M235.539 472.747C235.539 472.747 235.42 472.747 235.301 472.747C228.03 468.391 225.884 464.519 224.573 461.01C224.573 460.768 224.573 460.647 224.811 460.526C225.05 460.526 225.169 460.526 225.288 460.768C226.122 463.067 227.553 467.423 235.658 472.142C235.778 472.142 235.897 472.505 235.778 472.626C235.778 472.626 235.539 472.747 235.42 472.747H235.539Z" fill="#101720"/>
<path d="M225.049 477.708C225.049 477.708 224.93 477.708 224.811 477.708C219.924 472.989 217.063 466.334 217.063 466.213C217.063 465.971 217.063 465.85 217.301 465.729C217.54 465.729 217.659 465.729 217.778 465.971C217.778 465.971 220.52 472.626 225.407 477.224C225.526 477.345 225.526 477.587 225.407 477.708C225.407 477.708 225.288 477.708 225.169 477.708H225.049Z" fill="#101720"/>
<path d="M287.391 399.905L282.981 400.994C282.981 400.994 279.286 371.833 273.326 343.156C273.326 343.156 285.365 387.442 287.391 399.905Z" fill="#101720"/>
<path d="M282.981 401.357C282.981 401.357 282.862 401.357 282.742 401.357C282.742 401.357 282.623 401.236 282.623 401.115C282.623 400.873 278.809 371.591 272.968 343.277C272.968 343.035 272.968 342.914 273.206 342.793C273.445 342.793 273.564 342.793 273.683 343.035C273.802 343.519 285.722 387.442 287.749 399.784C287.749 400.026 287.749 400.147 287.51 400.147L283.1 401.236L282.981 401.357ZM275.829 353.683C280.12 376.552 282.981 397.485 283.338 400.631L287.034 399.784C285.603 390.951 279.524 367.477 275.829 353.683Z" fill="#101720"/>
<path d="M273.325 343.519C273.206 343.519 272.968 343.519 272.968 343.277C271.537 336.138 269.988 329.604 268.438 323.675C268.438 323.433 268.438 323.312 268.677 323.191C268.915 323.191 269.034 323.191 269.153 323.433C270.703 329.362 272.133 335.896 273.683 343.035C273.683 343.277 273.683 343.398 273.445 343.519H273.325Z" fill="#101720"/>
<path d="M365.467 472.747H254.85V484H365.467V472.747Z" fill="#FBBF24"/>
<path d="M365.348 484.242H254.73C254.492 484.242 254.373 484.121 254.373 483.879V472.626C254.373 472.384 254.492 472.263 254.73 472.263H365.348C365.586 472.263 365.706 472.384 365.706 472.626V483.879C365.706 484.121 365.586 484.242 365.348 484.242ZM255.088 483.516H364.99V472.989H255.088V483.516Z" fill="#101720"/>
<path d="M365.348 472.747L484.191 445.28V456.533L365.348 483.879V472.747Z" fill="#1976D2"/>
<path d="M365.348 484.242C365.348 484.242 365.229 484.242 365.11 484.242C365.11 484.242 364.99 484.121 364.99 484V472.747C364.99 472.626 364.99 472.384 365.229 472.384L484.071 445.038C484.071 445.038 484.31 445.038 484.429 445.038C484.548 445.038 484.548 445.159 484.548 445.28V456.533C484.548 456.654 484.548 456.896 484.31 456.896L365.467 484.242H365.348ZM365.706 472.989V483.516L483.833 456.291V445.764L365.706 472.989Z" fill="#101720"/>
<path d="M373.692 445.28L254.85 472.747H365.348L484.19 445.28H373.692Z" fill="#FFFFFE"/>
<path d="M254.85 473.11C254.611 473.11 254.492 472.989 254.492 472.747C254.492 472.505 254.492 472.384 254.73 472.384L373.573 445.038H484.19C484.429 445.038 484.548 445.159 484.548 445.401C484.548 445.643 484.548 445.764 484.31 445.764L365.467 473.11H254.85ZM257.949 472.384H365.348L480.972 445.764H373.573L257.83 472.384H257.949Z" fill="#101720"/>
<path d="M365.348 472.747L484.191 445.28L527.699 333.96L408.856 361.427L365.348 472.747Z" fill="#3F51B5"/>
<path d="M365.348 473.11C365.348 473.11 365.11 473.11 365.11 472.989C365.11 472.989 365.11 472.747 365.11 472.626L408.498 361.306C408.498 361.306 408.618 361.064 408.737 361.064L527.579 333.718C527.698 333.718 527.818 333.718 527.937 333.718C527.937 333.718 527.937 333.96 527.937 334.081L484.548 445.401C484.548 445.401 484.429 445.643 484.31 445.643L365.467 472.989L365.348 473.11ZM409.094 361.669L365.944 472.142L483.952 444.917L527.102 334.444L409.094 361.669Z" fill="#101720"/>
</svg>
