<svg width="370" height="262" viewBox="0 0 370 262" fill="none" xmlns="http://www.w3.org/2000/svg">
<path d="M233.174 190.775V193.829C233.174 201.968 236.526 209.753 236.526 209.753H239.087V212.599H103.726C103.193 212.599 102.719 212.317 102.549 211.895C101.646 209.594 98.9307 201.98 98.9307 194.079V190.53C98.9307 182.629 101.646 175.016 102.549 172.715C102.712 172.292 103.186 172.011 103.726 172.011H239.087V174.857H236.526C236.526 174.857 233.174 182.647 233.174 190.781V190.775Z" fill="white"/>
<path d="M239.087 213.058H103.726C102.949 213.058 102.261 212.648 102.024 212.036C101.165 209.845 98.3831 202.079 98.3831 194.08V190.53C98.3831 182.525 101.173 174.759 102.024 172.568C102.261 171.956 102.949 171.546 103.726 171.546H239.087C239.39 171.546 239.642 171.754 239.642 172.005V174.851C239.642 175.102 239.39 175.31 239.087 175.31H236.926C236.319 176.821 233.729 183.712 233.729 190.775V193.829C233.729 200.897 236.319 207.782 236.926 209.294H239.087C239.39 209.294 239.642 209.502 239.642 209.753V212.599C239.642 212.85 239.39 213.058 239.087 213.058ZM103.726 172.464C103.43 172.464 103.171 172.617 103.082 172.849C102.238 175.004 99.4931 182.654 99.4931 190.524V194.074C99.4931 201.938 102.238 209.588 103.082 211.748C103.171 211.981 103.43 212.134 103.726 212.134H238.532V210.206H236.526C236.289 210.206 236.082 210.084 236.001 209.9C235.971 209.82 232.619 201.944 232.619 193.823V190.769C232.619 182.648 235.971 174.765 236.001 174.692C236.082 174.508 236.289 174.386 236.526 174.386H238.532V172.458H103.726V172.464Z" fill="#221F20"/>
<path d="M311.584 190.775V193.829C311.584 201.968 314.937 209.753 314.937 209.753H317.497V212.599H220.794C220.513 212.599 220.268 212.452 220.18 212.238C219.462 210.463 216.428 202.433 216.428 194.079V190.53C216.428 182.176 219.462 174.147 220.18 172.372C220.268 172.151 220.513 172.011 220.794 172.011H317.497V174.857H314.937C314.937 174.857 311.584 182.647 311.584 190.781V190.775Z" fill="white"/>
<path d="M317.497 213.058H220.794C220.276 213.058 219.817 212.789 219.654 212.379C219.025 210.812 215.873 202.562 215.873 194.08V190.53C215.873 182.042 219.025 173.792 219.654 172.225C219.817 171.821 220.276 171.546 220.794 171.546H317.497C317.8 171.546 318.052 171.754 318.052 172.005V174.851C318.052 175.102 317.8 175.31 317.497 175.31H315.336C314.729 176.821 312.139 183.712 312.139 190.775V193.829C312.139 200.897 314.729 207.782 315.336 209.294H317.497C317.8 209.294 318.052 209.502 318.052 209.753V212.599C318.052 212.85 317.8 213.058 317.497 213.058ZM220.786 172.464C220.749 172.464 220.712 172.482 220.698 172.513C220.076 174.055 216.975 182.176 216.975 190.53V194.08C216.975 202.421 220.076 210.549 220.698 212.091C220.712 212.121 220.742 212.14 220.786 212.14H316.935V210.212H314.929C314.692 210.212 314.485 210.09 314.404 209.906C314.374 209.826 311.022 201.95 311.022 193.829V190.775C311.022 182.654 314.374 174.771 314.404 174.698C314.485 174.514 314.692 174.392 314.929 174.392H316.935V172.464H220.786Z" fill="#221F20"/>
<path d="M311.585 193.829C311.585 201.968 314.937 209.753 314.937 209.753H225.301C225.301 209.753 221.948 201.962 221.948 193.829V190.775C221.948 182.635 225.301 174.851 225.301 174.851H314.937C314.937 174.851 311.585 182.641 311.585 190.775V193.829Z" fill="white"/>
<path d="M314.937 210.212H225.301C225.064 210.212 224.857 210.09 224.775 209.906C224.746 209.826 221.393 201.95 221.393 193.829V190.775C221.393 182.654 224.746 174.771 224.775 174.698C224.857 174.514 225.064 174.392 225.301 174.392H314.937C315.114 174.392 315.285 174.465 315.388 174.587C315.492 174.71 315.521 174.863 315.455 175.004C315.425 175.083 312.14 182.813 312.14 190.775V193.829C312.14 201.791 315.425 209.527 315.455 209.6C315.514 209.741 315.492 209.894 315.388 210.016C315.285 210.139 315.114 210.212 314.937 210.212ZM225.693 209.294H314.16C313.383 207.287 311.022 200.64 311.022 193.829V190.775C311.022 183.957 313.383 177.317 314.16 175.31H225.693C225.086 176.821 222.496 183.712 222.496 190.775V193.829C222.496 200.897 225.086 207.782 225.693 209.294Z" fill="#221F20"/>
<path d="M200.533 212.593H125.275C125.001 212.593 124.749 212.452 124.66 212.232C123.95 210.457 120.909 202.427 120.909 194.08V190.524C120.909 182.17 123.943 174.141 124.66 172.366C124.749 172.146 125.001 172.005 125.275 172.005H200.533C200.259 172.005 200.007 172.146 199.918 172.366C199.208 174.141 196.167 182.17 196.167 190.524V194.08C196.167 202.427 199.201 210.457 199.918 212.232C200.007 212.452 200.259 212.593 200.533 212.593Z" fill="#FBBF24"/>
<path d="M200.533 213.052H125.275C124.757 213.052 124.298 212.783 124.135 212.379C123.247 210.169 120.354 202.33 120.354 194.074V190.518C120.354 182.262 123.247 174.423 124.128 172.213C124.298 171.809 124.757 171.54 125.275 171.54H200.533C200.836 171.54 201.088 171.748 201.088 171.999C201.088 172.25 200.836 172.458 200.533 172.458C200.488 172.458 200.451 172.476 200.444 172.507C199.822 174.049 196.722 182.183 196.722 190.518V194.074C196.722 202.403 199.822 210.537 200.444 212.085C200.451 212.11 200.496 212.134 200.533 212.134C200.836 212.134 201.088 212.342 201.088 212.593C201.088 212.844 200.836 213.052 200.533 213.052ZM125.267 172.464C125.223 172.464 125.186 172.483 125.178 172.513C124.305 174.68 121.464 182.403 121.464 190.524V194.08C121.464 202.403 124.564 210.543 125.186 212.091C125.193 212.116 125.23 212.14 125.275 212.14H199.297C198.313 209.643 195.619 202.06 195.619 194.086V190.53C195.619 182.544 198.32 174.961 199.297 172.47H125.275L125.267 172.464Z" fill="#221F20"/>
<path d="M306.101 180.163H234.476C234.173 180.163 233.921 179.955 233.921 179.704C233.921 179.453 234.173 179.245 234.476 179.245H306.101C306.404 179.245 306.656 179.453 306.656 179.704C306.656 179.955 306.404 180.163 306.101 180.163Z" fill="#221F20"/>
<path d="M312.213 184.729H239.094C238.791 184.729 238.539 184.52 238.539 184.27C238.539 184.019 238.791 183.811 239.094 183.811H312.213C312.517 183.811 312.768 184.019 312.768 184.27C312.768 184.52 312.517 184.729 312.213 184.729Z" fill="#221F20"/>
<path d="M302.771 190.126H231.146C230.843 190.126 230.591 189.918 230.591 189.667C230.591 189.416 230.843 189.208 231.146 189.208H302.771C303.074 189.208 303.326 189.416 303.326 189.667C303.326 189.918 303.074 190.126 302.771 190.126Z" fill="#221F20"/>
<path d="M310.711 196.356H239.087C238.783 196.356 238.532 196.148 238.532 195.897C238.532 195.647 238.783 195.438 239.087 195.438H310.711C311.015 195.438 311.266 195.647 311.266 195.897C311.266 196.148 311.015 196.356 310.711 196.356Z" fill="#221F20"/>
<path d="M228.564 150.181V153.235C228.564 161.374 231.916 169.159 231.916 169.159H234.476V172.005H99.1156C98.5828 172.005 98.1092 171.723 97.939 171.301C97.0362 169 94.3204 161.387 94.3204 153.486V149.936C94.3204 142.035 97.0362 134.422 97.939 132.121C98.1018 131.699 98.5754 131.417 99.1156 131.417H234.476V134.263H231.916C231.916 134.263 228.564 142.054 228.564 150.187V150.181Z" fill="white"/>
<path d="M234.476 172.464H99.1156C98.3386 172.464 97.6504 172.054 97.4136 171.442C96.5552 169.251 93.7728 161.491 93.7728 153.486V149.936C93.7728 141.931 96.5626 134.165 97.4136 131.974C97.6504 131.362 98.3386 130.952 99.1156 130.952H234.476C234.78 130.952 235.031 131.16 235.031 131.411V134.257C235.031 134.508 234.78 134.716 234.476 134.716H232.316C231.709 136.228 229.119 143.119 229.119 150.181V153.235C229.119 160.304 231.709 167.189 232.316 168.7H234.476C234.78 168.7 235.031 168.908 235.031 169.159V172.005C235.031 172.256 234.78 172.464 234.476 172.464ZM99.1082 131.87C98.8122 131.87 98.5532 132.023 98.4644 132.256C97.6208 134.416 94.8754 142.066 94.8754 149.93V153.48C94.8754 161.344 97.6208 168.994 98.4644 171.154C98.5532 171.387 98.8122 171.54 99.1082 171.54H233.914V169.612H231.909C231.672 169.612 231.465 169.49 231.383 169.306C231.354 169.227 228.001 161.35 228.001 153.229V150.175C228.001 142.054 231.354 134.171 231.383 134.098C231.465 133.914 231.672 133.792 231.909 133.792H233.914V131.864H99.1082V131.87Z" fill="#221F20"/>
<path d="M306.967 150.181V153.235C306.967 161.374 310.319 169.159 310.319 169.159H312.879V172.005H216.176C215.895 172.005 215.651 171.858 215.562 171.644C214.844 169.869 211.81 161.84 211.81 153.486V149.936C211.81 141.582 214.844 133.553 215.562 131.778C215.651 131.558 215.895 131.417 216.176 131.417H312.879V134.263H310.319C310.319 134.263 306.967 142.054 306.967 150.187V150.181Z" fill="white"/>
<path d="M312.879 172.464H216.176C215.658 172.464 215.199 172.195 215.037 171.785C214.408 170.218 211.255 161.968 211.255 153.486V149.936C211.255 141.448 214.408 133.198 215.037 131.631C215.199 131.228 215.658 130.952 216.176 130.952H312.879C313.183 130.952 313.434 131.16 313.434 131.411V134.257C313.434 134.508 313.183 134.716 312.879 134.716H310.719C310.112 136.228 307.522 143.119 307.522 150.181V153.235C307.522 160.304 310.112 167.189 310.719 168.7H312.879C313.183 168.7 313.434 168.908 313.434 169.159V172.005C313.434 172.256 313.183 172.464 312.879 172.464ZM216.176 131.87C216.139 131.87 216.102 131.889 216.095 131.919C215.473 133.461 212.373 141.589 212.373 149.936V153.486C212.373 161.828 215.473 169.955 216.095 171.497C216.11 171.528 216.139 171.546 216.176 171.546H312.324V169.618H310.319C310.082 169.618 309.875 169.496 309.794 169.312C309.764 169.233 306.412 161.356 306.412 153.235V150.181C306.412 142.06 309.764 134.177 309.794 134.104C309.875 133.92 310.082 133.798 310.319 133.798H312.324V131.87H216.176Z" fill="#221F20"/>
<path d="M201.702 172.005H185.533C185.259 172.005 185.007 171.864 184.919 171.644C184.208 169.869 181.167 161.84 181.167 153.492V149.936C181.167 141.582 184.201 133.553 184.919 131.778C185.007 131.558 185.259 131.417 185.533 131.417H201.702C201.428 131.417 201.176 131.558 201.088 131.778C200.377 133.553 197.336 141.582 197.336 149.936V153.492C197.336 161.84 200.37 169.869 201.088 171.644C201.176 171.864 201.428 172.005 201.702 172.005Z" fill="#FBBF24"/>
<path d="M201.702 172.464H185.533C185.015 172.464 184.556 172.195 184.393 171.791C183.505 169.582 180.612 161.748 180.612 153.486V149.93C180.612 141.668 183.505 133.829 184.386 131.625C184.556 131.221 185.015 130.952 185.525 130.952H201.694C201.998 130.952 202.249 131.16 202.249 131.411C202.249 131.662 201.998 131.87 201.694 131.87C201.65 131.87 201.613 131.889 201.606 131.919C200.732 134.086 197.891 141.809 197.891 149.93V153.486C197.891 161.601 200.74 169.325 201.613 171.497C201.62 171.522 201.657 171.546 201.702 171.546C202.005 171.546 202.257 171.754 202.257 172.005C202.257 172.256 202.005 172.464 201.702 172.464ZM185.525 131.876C185.481 131.876 185.444 131.895 185.437 131.925C184.815 133.467 181.722 141.601 181.722 149.936V153.492C181.722 161.821 184.822 169.955 185.444 171.503C185.451 171.528 185.488 171.552 185.533 171.552H200.466C199.482 169.049 196.788 161.466 196.788 153.498V149.943C196.788 141.968 199.489 134.373 200.466 131.882H185.533L185.525 131.876Z" fill="#221F20"/>
<path d="M133.355 172.005H117.186C116.913 172.005 116.661 171.864 116.572 171.644C115.862 169.869 112.82 161.84 112.82 153.492V149.936C112.82 141.582 115.854 133.553 116.572 131.778C116.661 131.558 116.913 131.417 117.186 131.417H133.355C133.082 131.417 132.83 131.558 132.741 131.778C132.031 133.553 128.989 141.582 128.989 149.936V153.492C128.989 161.84 132.023 169.869 132.741 171.644C132.83 171.864 133.082 172.005 133.355 172.005Z" fill="#FBBF24"/>
<path d="M133.355 172.464H117.186C116.668 172.464 116.21 172.195 116.047 171.791C115.159 169.582 112.265 161.736 112.265 153.486V149.93C112.265 141.674 115.159 133.835 116.039 131.625C116.21 131.221 116.668 130.952 117.179 130.952H133.348C133.651 130.952 133.903 131.16 133.903 131.411C133.903 131.662 133.651 131.87 133.348 131.87C133.304 131.87 133.267 131.889 133.259 131.919C132.638 133.461 129.537 141.595 129.537 149.93V153.486C129.537 161.815 132.638 169.949 133.259 171.497C133.267 171.522 133.304 171.546 133.348 171.546C133.651 171.546 133.903 171.754 133.903 172.005C133.903 172.256 133.651 172.464 133.348 172.464H133.355ZM117.186 131.876C117.142 131.876 117.105 131.895 117.098 131.925C116.224 134.092 113.383 141.815 113.383 149.936V153.492C113.383 161.607 116.232 169.331 117.105 171.503C117.112 171.528 117.149 171.552 117.194 171.552H132.127C131.143 169.055 128.449 161.473 128.449 153.498V149.943C128.449 141.956 131.15 134.373 132.127 131.882H117.194L117.186 131.876Z" fill="#221F20"/>
<path d="M306.967 153.235C306.967 161.375 310.319 169.159 310.319 169.159H220.683C220.683 169.159 217.331 161.368 217.331 153.235V150.181C217.331 142.041 220.683 134.257 220.683 134.257H310.319C310.319 134.257 306.967 142.048 306.967 150.181V153.235Z" fill="white"/>
<path d="M310.319 169.618H220.683C220.446 169.618 220.239 169.496 220.157 169.312C220.128 169.233 216.776 161.356 216.776 153.235V150.181C216.776 142.06 220.128 134.177 220.157 134.104C220.239 133.92 220.446 133.798 220.683 133.798H310.319C310.497 133.798 310.667 133.871 310.77 133.994C310.874 134.116 310.904 134.269 310.837 134.41C310.807 134.489 307.522 142.219 307.522 150.181V153.235C307.522 161.197 310.807 168.933 310.837 169.006C310.896 169.147 310.874 169.3 310.77 169.422C310.667 169.545 310.497 169.618 310.319 169.618ZM221.082 168.7H309.549C308.772 166.693 306.412 160.047 306.412 153.235V150.181C306.412 143.363 308.772 136.723 309.549 134.716H221.082C220.476 136.227 217.886 143.119 217.886 150.181V153.235C217.886 160.31 220.476 167.189 221.082 168.7Z" fill="#221F20"/>
<path d="M284.996 142.941H232.131C231.827 142.941 231.576 142.733 231.576 142.482C231.576 142.232 231.827 142.023 232.131 142.023H284.996C285.3 142.023 285.551 142.232 285.551 142.482C285.551 142.733 285.3 142.941 284.996 142.941Z" fill="#221F20"/>
<path d="M307.078 148.069H255.278C254.974 148.069 254.723 147.861 254.723 147.61C254.723 147.359 254.974 147.151 255.278 147.151H307.078C307.381 147.151 307.633 147.359 307.633 147.61C307.633 147.861 307.381 148.069 307.078 148.069Z" fill="#221F20"/>
<path d="M298.59 153.878H222.673C222.37 153.878 222.118 153.67 222.118 153.419C222.118 153.168 222.37 152.96 222.673 152.96H298.59C298.893 152.96 299.145 153.168 299.145 153.419C299.145 153.67 298.893 153.878 298.59 153.878Z" fill="#221F20"/>
<path d="M304.31 160.199H236.06C235.757 160.199 235.505 159.991 235.505 159.74C235.505 159.489 235.757 159.281 236.06 159.281H304.31C304.614 159.281 304.865 159.489 304.865 159.74C304.865 159.991 304.614 160.199 304.31 160.199Z" fill="#221F20"/>
<path d="M151.767 108.395C151.767 108.395 115.751 106.975 105.487 113.616C95.2232 120.256 100.159 131.082 100.159 131.082L158.131 130.954L163.244 106.657L151.767 108.395Z" fill="#221F20"/>
<path d="M157.724 124.834C157.664 124.822 157.524 124.797 157.294 124.767L155.829 124.577C154.009 124.344 152.24 124.094 150.427 123.824C146.372 123.218 140.038 122.129 132.845 120.385C132.127 120.207 131.417 120.036 130.721 119.859C128.109 119.21 125.645 118.604 123.314 118.139C120.206 117.527 117.534 117.196 115.388 117.153C112.68 117.08 110.889 117.331 110.06 117.484C109.624 117.545 109.283 117.625 109.009 117.692C108.861 117.729 108.736 117.759 108.625 117.778C108.351 117.827 108.062 117.692 108.003 117.459C107.936 117.227 108.114 116.994 108.388 116.945C108.484 116.927 108.595 116.903 108.721 116.872C109.024 116.799 109.402 116.707 109.868 116.646C111.348 116.37 113.331 116.242 115.425 116.297C117.638 116.346 120.376 116.682 123.558 117.306C125.918 117.778 128.397 118.39 131.017 119.038C131.713 119.21 132.423 119.387 133.141 119.559C140.282 121.297 146.587 122.374 150.612 122.98C152.418 123.249 154.172 123.494 155.985 123.732L157.457 123.922C158.034 124.002 158.175 124.02 158.308 124.185L157.879 124.43L157.716 124.834H157.724Z" fill="white"/>
<path d="M124.409 118.249C124.268 118.249 124.128 118.2 124.024 118.108C123.972 118.059 123.935 118.004 123.913 117.943C123.832 117.839 123.573 117.582 123.143 117.245C122.722 116.915 121.819 116.266 120.502 115.691C119.177 115.121 118.023 114.871 117.453 114.779C117.172 114.73 116.987 114.503 117.046 114.271C117.105 114.038 117.386 113.891 117.66 113.934C118.282 114.038 119.547 114.307 120.983 114.932C122.418 115.556 123.402 116.26 123.861 116.627C124.942 117.478 124.934 117.716 124.934 117.82C124.934 117.937 124.868 118.059 124.764 118.139C124.668 118.212 124.542 118.249 124.416 118.249H124.409Z" fill="white"/>
<path d="M153.543 174.656L153.779 187.239L146.838 199.981C145.824 205.018 150.745 204.497 151.848 204.663C152.462 204.754 153.091 204.601 153.543 204.24C156.399 201.933 166.937 191.603 166.818 190.464C166.678 189.142 167.403 175.795 167.403 175.795L153.543 174.662V174.656Z" fill="#221F20"/>
<path d="M163.244 106.657C163.244 106.657 147.667 131.008 147.452 135.243C147.238 139.478 147.452 178.652 147.452 178.652H171.562C172.205 178.652 175.802 161.008 175.069 156.945C174.337 152.887 171.739 131.051 171.739 131.051H185.607C185.607 131.051 189.41 127.691 189.27 123.419C189.196 121.063 187.331 116.247 185.481 113.695C184.297 112.061 176.682 103.48 176.682 103.48L163.237 106.657H163.244Z" fill="#221F20"/>
<path d="M157.161 116.602C157.073 116.62 156.547 115.249 155.911 113.56C155.267 111.871 154.749 110.494 154.838 110.47" fill="white"/>
<path d="M157.095 116.902C156.813 116.902 156.658 116.492 155.578 113.646C154.739 111.426 154.453 110.278 154.719 110.2L154.838 110.469L155.178 110.494C155.193 110.708 155.755 112.177 156.244 113.474C156.739 114.772 157.294 116.241 157.428 116.424L157.154 116.559L157.257 116.877C157.198 116.889 157.146 116.902 157.102 116.902H157.095Z" fill="#221F20"/>
<path d="M166.315 44.2018C173.7 51.6499 166.9 58.9327 176.956 65.1017C176.956 65.1017 174.559 68.7369 171.458 69.4285L169.231 67.923L169.386 69.5631C169.386 69.5631 150.109 76.7541 142.124 72.1886L141.118 70.2118L139.616 71.595L134.909 68.1004C134.909 68.1004 138.291 66.4481 138.128 63.0637C137.958 59.7222 133.703 46.7661 145.158 41.1541C152.477 37.5678 157.82 41.8089 157.82 41.8089C157.82 41.8089 162.497 40.3524 166.315 44.2018Z" fill="white"/>
<path d="M142.539 71.9068C149.702 75.8236 166.27 70.1994 168.838 69.2936L168.712 67.9594C168.698 67.7881 168.809 67.6228 168.986 67.5433C169.171 67.4637 169.393 67.4821 169.556 67.5922L171.569 68.9509C173.796 68.3266 175.646 66.0561 176.268 65.2177C170.955 61.7966 170.466 57.9471 169.993 54.2139C169.593 51.0438 169.171 47.7634 165.915 44.477C162.371 40.909 158.049 42.2004 158.005 42.2126C157.82 42.2677 157.605 42.2371 157.464 42.1208C157.257 41.9556 152.307 38.155 145.425 41.5272C135.967 46.16 137.581 56.1478 138.365 60.9459C138.506 61.8333 138.624 62.5371 138.646 63.0512C138.787 65.8113 136.767 67.4821 135.745 68.1492L139.586 70.9949L140.74 69.9301C140.859 69.8199 141.036 69.771 141.214 69.7954C141.392 69.8199 141.54 69.9178 141.606 70.0525L142.546 71.913L142.539 71.9068Z" fill="#221F20"/>
<path d="M140.223 68.7617C140.223 68.7617 131.269 73.4925 115.129 93.2662C122.07 95.1328 127.798 98.8476 127.798 98.8476C131.964 94.5942 144.648 86.3139 144.648 86.3139L140.223 68.7678V68.7617Z" fill="#FBBF24"/>
<path d="M159.196 65.6094C159.196 65.6094 174.152 64.5996 182.528 69.9791C186.931 76.6071 184.341 84.6548 183.424 88.6512C182.506 92.6476 173.907 106.656 173.907 106.656C173.907 106.656 162.178 108.633 154.66 108.786C147.142 108.939 140.4 108.284 140.4 108.284C140.4 108.284 141.177 105.75 141.177 96.6684C141.177 90.0894 134.14 89.0368 137.803 82.2803C141.584 76.0746 140.622 70.8481 140.208 68.7612C145.188 65.7746 152.181 65.3585 159.189 65.6094H159.196Z" fill="#FBBF24"/>
<path d="M164.976 71.1968C160.861 74.8444 152.373 76.6375 147.519 78.602L146.727 70.2054C146.587 69.1956 146.675 68.2531 147.785 67.8125C151.3 66.411 159.248 65.903 163.821 67.2433C165.819 67.8308 166.426 69.9239 164.976 71.2091V71.1968Z" fill="#221F20"/>
<path d="M149.68 66.1415L150.042 73.0816C150.042 73.0816 150.938 74.4158 156.547 73.3754C161.801 72.4023 162.356 69.6789 162.348 69.6667C162.097 68.5345 161.793 65.3459 161.564 62.6654C161.298 59.5442 160.639 54.4707 159.351 54.5503C156.443 57.2737 156.465 50.713 156.014 49.3911C150.819 50.3703 149.287 50.4193 147.238 50.3458C147.053 49.8746 146.757 47.3837 146.771 46.7656C146.675 47.4755 145.98 49.8073 145.824 50.3703C145.092 50.6518 143.745 50.7314 142.494 50.6947C142.28 52.3471 142.798 61.2088 143.752 64.4279C144.485 66.8943 149.665 66.1415 149.665 66.1415H149.68Z" fill="white"/>
<path d="M152.832 74.2019C150.368 74.2019 149.717 73.4797 149.584 73.29C149.547 73.2288 149.524 73.1676 149.517 73.1003L149.177 66.6315C147.704 66.76 143.937 66.8457 143.249 64.5384C142.25 61.1786 141.769 52.2862 141.976 50.6522C142.006 50.4318 142.228 50.2666 142.494 50.2666H142.509C143.715 50.2972 144.759 50.2237 145.38 50.0524L145.44 49.8443C145.676 49.012 146.172 47.28 146.254 46.717C146.283 46.4905 146.535 46.3253 146.801 46.3376C147.075 46.3498 147.29 46.5456 147.29 46.7721C147.275 47.2862 147.489 49.1589 147.652 49.93C149.376 49.9789 150.967 49.8994 155.896 48.9692C156.17 48.9202 156.436 49.0487 156.51 49.269C156.621 49.5934 156.695 50.1381 156.791 50.8296C156.947 51.9496 157.317 54.5751 158.049 54.7648C158.19 54.8015 158.501 54.6852 158.959 54.2629C159.048 54.1773 159.174 54.1283 159.315 54.1161C159.492 54.1038 159.766 54.1344 160.04 54.3303C161.216 55.1748 161.801 59.3119 162.082 62.629C162.393 66.3561 162.659 68.6939 162.859 69.5813C162.955 69.8261 162.519 70.5544 162.356 70.7869C161.646 71.809 160.077 73.1554 156.658 73.7858C155.052 74.0856 153.802 74.1958 152.832 74.1958V74.2019ZM150.553 72.9167C150.819 73.1003 152.122 73.7552 156.436 72.9534C160.898 72.1272 161.72 69.9975 161.823 69.6486C161.609 68.596 161.357 66.3255 161.054 62.6902C160.617 57.531 159.892 55.5359 159.477 55.0708C158.871 55.5543 158.293 55.7256 157.753 55.5849C156.473 55.2544 156.11 53.3633 155.77 50.9276C155.718 50.5481 155.666 50.1809 155.615 49.8994C150.886 50.7745 149.332 50.8419 147.223 50.7684C147.008 50.7623 146.816 50.646 146.749 50.4747C146.69 50.3278 146.624 50.034 146.564 49.673C146.527 49.8015 146.49 49.93 146.461 50.0402L146.342 50.4624C146.305 50.591 146.202 50.7011 146.054 50.7562C145.218 51.0744 143.849 51.1234 142.99 51.1295C142.887 53.4184 143.375 61.3254 144.27 64.3242C144.877 66.3744 149.547 65.7196 149.591 65.7135C149.739 65.689 149.887 65.7257 150.005 65.7992C150.124 65.8787 150.19 65.995 150.198 66.1174L150.553 72.9106V72.9167Z" fill="#221F20"/>
<path d="M153.52 67.7331C154.024 67.115 154.394 66.3806 154.638 65.793C154.786 65.4442 154.364 65.1198 153.957 65.2667C153.113 65.5666 151.73 65.9093 149.709 65.9828L149.887 69.716C149.887 69.716 152.122 69.4467 153.52 67.7331Z" fill="#221F20"/>
<path d="M149.554 70.0408L149.354 65.7078L149.695 65.6956C151.693 65.6221 153.039 65.2794 153.816 65.004C154.135 64.8938 154.482 64.9428 154.734 65.1386C154.986 65.3345 155.074 65.6221 154.963 65.8914C154.734 66.4422 154.342 67.2317 153.809 67.8926C152.344 69.6919 150.035 69.9857 149.939 69.9979L149.561 70.0408H149.554ZM150.072 66.2525L150.22 69.3553C150.886 69.1962 152.277 68.7433 153.239 67.5683C153.735 66.9563 154.098 66.2158 154.32 65.6956C154.349 65.6221 154.297 65.567 154.275 65.5487C154.246 65.5242 154.186 65.4936 154.098 65.5242C153.313 65.7996 151.996 66.1423 150.079 66.2464L150.072 66.2525Z" fill="#221F20"/>
<path d="M158.353 55.1868C159.359 55.0155 159.359 52.5124 160.032 52.2982C161.35 51.8698 162.955 52.5308 163.57 53.5895C163.947 54.2444 164.014 56.3557 162.97 57.7756C162.326 58.6569 161.276 59.2077 160.092 59.2444" fill="white"/>
<path d="M160.084 59.673C159.803 59.673 159.574 59.4894 159.566 59.2568C159.559 59.0181 159.781 58.8223 160.069 58.8101C161.061 58.7795 161.949 58.3204 162.519 57.5493C163.481 56.2458 163.392 54.2813 163.096 53.7672C162.578 52.8675 161.231 52.3657 160.217 52.6962C160.151 52.7757 159.988 53.2959 159.884 53.6387C159.611 54.5322 159.329 55.4563 158.456 55.6093C158.175 55.6583 157.901 55.5114 157.842 55.2788C157.783 55.0463 157.96 54.8198 158.242 54.7709C158.486 54.728 158.767 53.7855 158.878 53.4306C159.107 52.6717 159.292 52.0781 159.84 51.9006C161.35 51.411 163.274 52.0964 164.028 53.4061C164.509 54.2445 164.502 56.5028 163.399 58.0022C162.645 59.0304 161.438 59.6363 160.099 59.6791H160.084V59.673Z" fill="#221F20"/>
<path d="M158.234 110.897H121.649V113.964H158.234V110.897Z" fill="white"/>
<path d="M158.234 114.399H121.649C121.36 114.399 121.131 114.209 121.131 113.97V110.904C121.131 110.665 121.36 110.476 121.649 110.476H158.234C158.523 110.476 158.752 110.665 158.752 110.904V113.97C158.752 114.209 158.523 114.399 158.234 114.399ZM122.167 113.536H157.716V111.326H122.167V113.536Z" fill="#221F20"/>
<path d="M138.78 110.848L129.063 84.8564H78.366L90.4872 113.969H138.121L138.78 110.848Z" fill="white"/>
<path d="M138.128 114.398H90.4946C90.2726 114.398 90.0728 114.282 90.0062 114.11L77.885 85.0037C77.8332 84.8752 77.8554 84.7283 77.9516 84.612C78.0478 84.4958 78.2032 84.4346 78.3734 84.4346H129.071C129.3 84.4346 129.5 84.557 129.567 84.7345L139.283 110.72C139.305 110.787 139.312 110.855 139.298 110.922L138.646 114.043C138.602 114.251 138.387 114.398 138.136 114.398H138.128ZM90.8572 113.535H137.684L138.239 110.873L128.679 85.2852H79.0912L90.8572 113.535Z" fill="#221F20"/>
<path d="M138.247 113.969L127.369 84.8564H76.6714L88.8 113.969H138.247Z" fill="white"/>
<path d="M138.247 114.398H88.7926C88.5706 114.398 88.3708 114.282 88.3042 114.11L76.183 85.0037C76.1312 84.8752 76.1534 84.7283 76.2496 84.612C76.3458 84.4958 76.5012 84.4346 76.6714 84.4346H127.369C127.598 84.4346 127.798 84.557 127.865 84.7345L138.743 113.841C138.794 113.97 138.765 114.117 138.661 114.221C138.558 114.325 138.41 114.398 138.239 114.398H138.247ZM89.17 113.535H137.544L126.984 85.2852H77.3966L89.1626 113.535H89.17Z" fill="#221F20"/>
<path d="M159.87 102.091C159.87 102.091 154.778 100.512 152.544 100.066C150.901 99.7351 144.182 101.669 139.941 103.272C138.054 103.988 136.597 104.594 136.826 105.335C137.248 106.73 138.883 109.044 141.932 110.023C144.981 111.002 155.215 108.566 156.739 108.566C158.264 108.566 163.599 109.668 163.599 109.668L159.87 102.085V102.091Z" fill="white"/>
<path d="M144.011 110.696C143.094 110.696 142.324 110.617 141.747 110.433C138.328 109.337 136.73 106.785 136.323 105.445C135.975 104.307 137.884 103.585 139.727 102.887C143.234 101.559 150.634 99.2394 152.662 99.6495C154.904 100.102 159.84 101.626 160.047 101.694C160.18 101.736 160.291 101.822 160.343 101.932L164.073 109.515C164.147 109.662 164.11 109.833 163.984 109.956C163.858 110.078 163.651 110.133 163.466 110.09C162.001 109.784 157.931 109.001 156.732 109.001C156.332 109.001 155.074 109.221 153.609 109.478C149.939 110.121 146.446 110.69 144.004 110.69L144.011 110.696ZM152.048 100.451C150.116 100.451 144.256 102.11 140.156 103.664C139.12 104.056 137.196 104.79 137.329 105.231C137.662 106.326 139.09 108.652 142.117 109.625C144.115 110.268 149.924 109.246 153.395 108.64C155.2 108.322 156.251 108.144 156.732 108.144C157.901 108.144 161.091 108.738 162.726 109.062L159.463 102.428C158.478 102.128 154.334 100.867 152.41 100.482C152.314 100.463 152.188 100.451 152.04 100.451H152.048Z" fill="#221F20"/>
<path d="M182.617 70.0898C182.617 70.0898 205.809 99.1048 198.438 106.657C191.075 114.209 162.667 113.193 162.667 113.193L159.122 101.014C159.122 101.014 172.316 100.873 182.817 98.9762C182.817 98.9762 172.479 90.9223 170.4 84.276C168.32 77.6358 174.1 68.7924 182.617 70.0898Z" fill="#FBBF24"/>
<path d="M147.364 144.264C147.075 144.264 146.846 144.068 146.846 143.836C146.86 139.093 146.89 136.198 146.934 135.231C147.09 132.067 151.841 124.196 156.695 116.406C156.828 116.198 157.139 116.112 157.398 116.222C157.65 116.332 157.753 116.589 157.62 116.803C154.075 122.495 148.133 132.03 147.97 135.268C147.926 136.222 147.889 139.111 147.882 143.842C147.882 144.08 147.645 144.27 147.364 144.27V144.264Z" fill="white"/>
<path d="M171.739 131.485C171.658 131.485 171.576 131.473 171.502 131.436C171.251 131.326 171.147 131.069 171.28 130.855L174.144 126.277C174.277 126.069 174.588 125.983 174.847 126.093C175.099 126.203 175.202 126.46 175.069 126.675L172.205 131.252C172.117 131.399 171.932 131.485 171.747 131.485H171.739Z" fill="white"/>
<path d="M141.185 97.1034C140.896 97.1034 140.667 96.9136 140.667 96.675C140.667 93.9883 139.453 92.2747 138.276 90.6223C136.656 88.3456 135.131 86.1914 137.344 82.1094C138.217 80.6773 138.883 79.2146 139.342 77.7397C139.416 77.5071 139.697 77.3725 139.978 77.4337C140.26 77.4949 140.422 77.7274 140.348 77.96C139.867 79.4961 139.172 81.0139 138.276 82.4827C136.293 86.1363 137.625 88.0152 139.172 90.1878C140.363 91.8585 141.71 93.7557 141.71 96.6811C141.71 96.9198 141.481 97.1095 141.192 97.1095L141.185 97.1034Z" fill="#221F20"/>
<path d="M165.901 113.664C163.917 113.664 162.689 113.621 162.645 113.621C162.415 113.615 162.215 113.48 162.164 113.291L158.619 101.112C158.582 100.983 158.619 100.849 158.715 100.745C158.811 100.641 158.959 100.579 159.115 100.579C159.241 100.579 171.71 100.426 181.907 98.6883C180.456 97.091 176.068 92.195 171.991 86.9318C171.835 86.7298 171.909 86.4666 172.146 86.3381C172.383 86.2096 172.709 86.2708 172.864 86.4666C177.785 92.8314 183.165 98.6516 183.224 98.7066C183.335 98.8229 183.357 98.9759 183.298 99.1167C183.239 99.2574 183.098 99.3554 182.921 99.386C173.811 101.032 162.571 101.363 159.773 101.424L163.074 112.764C165.59 112.825 179.657 113.04 189.581 110.445C189.854 110.371 190.143 110.5 190.232 110.726C190.321 110.953 190.165 111.191 189.891 111.265C181.855 113.364 171.184 113.658 165.893 113.658L165.901 113.664Z" fill="#221F20"/>
<path d="M147.238 55.2793C147.238 55.2793 145.743 59.0003 146.246 59.6979C146.757 60.3956 148.444 60.2549 148.444 60.2549" fill="white"/>
<path d="M148.089 60.7016C147.46 60.7016 146.298 60.6037 145.802 59.9182C145.232 59.1349 146.268 56.3197 146.742 55.1385C146.831 54.9121 147.127 54.7897 147.401 54.8631C147.674 54.9365 147.822 55.1813 147.734 55.4078C146.986 57.2744 146.513 59.1349 146.698 59.4776C146.949 59.8203 147.948 59.857 148.4 59.8264C148.681 59.8019 148.94 59.9794 148.969 60.212C148.999 60.4507 148.792 60.6587 148.503 60.6832C148.451 60.6832 148.303 60.6955 148.089 60.6955V60.7016Z" fill="#221F20"/>
<path d="M151.663 55.4876C152.072 55.4876 152.403 55.0601 152.403 54.5328C152.403 54.0056 152.072 53.5781 151.663 53.5781C151.254 53.5781 150.923 54.0056 150.923 54.5328C150.923 55.0601 151.254 55.4876 151.663 55.4876Z" fill="#221F20"/>
<path d="M144.581 55.9094C144.99 55.9094 145.321 55.482 145.321 54.9547C145.321 54.4274 144.99 54 144.581 54C144.172 54 143.841 54.4274 143.841 54.9547C143.841 55.482 144.172 55.9094 144.581 55.9094Z" fill="#221F20"/>
<path d="M146.505 62.7819C146.505 62.7819 150.442 63.3755 153.106 61.2764L146.505 62.7819Z" fill="white"/>
<path d="M147.815 63.2898C147.008 63.2898 146.468 63.2102 146.409 63.2041C146.128 63.1613 145.943 62.941 145.995 62.7023C146.046 62.4697 146.313 62.3167 146.601 62.3534C146.638 62.3596 150.316 62.8798 152.751 60.9581C152.958 60.7928 153.291 60.799 153.483 60.9703C153.683 61.1417 153.676 61.4171 153.469 61.5762C151.641 63.0144 149.295 63.2776 147.822 63.2776L147.815 63.2898Z" fill="#221F20"/>
<path d="M137.818 106.84C137.61 106.84 137.418 106.742 137.337 106.577C137.226 106.356 137.351 106.105 137.618 106.013L146.083 103.119C146.35 103.033 146.653 103.131 146.764 103.351C146.875 103.572 146.749 103.823 146.483 103.914L138.017 106.809C137.951 106.834 137.884 106.84 137.818 106.84Z" fill="#221F20"/>
<path d="M139.172 108.706C138.972 108.706 138.78 108.609 138.691 108.443C138.58 108.223 138.698 107.972 138.965 107.88L147.43 104.894C147.689 104.802 148 104.9 148.111 105.12C148.222 105.34 148.104 105.591 147.837 105.683L139.372 108.67C139.305 108.694 139.238 108.706 139.164 108.706H139.172Z" fill="#221F20"/>
<path d="M141.31 110.292C141.103 110.292 140.903 110.188 140.822 110.016C140.718 109.796 140.852 109.545 141.125 109.459L148.237 107.219C148.503 107.134 148.807 107.244 148.91 107.47C149.014 107.691 148.881 107.942 148.607 108.027L141.495 110.267C141.436 110.286 141.37 110.298 141.31 110.298V110.292Z" fill="#221F20"/>
<path d="M162.519 189.246C162.386 189.246 162.238 189.228 162.082 189.185C161.283 188.965 160.861 188.181 160.425 187.361C159.662 185.941 159.056 185.011 157.561 185.146C154.786 185.385 154.312 187.239 154.29 187.318C154.238 187.551 153.964 187.698 153.683 187.661C153.402 187.618 153.217 187.392 153.269 187.159C153.469 186.278 154.601 184.54 157.45 184.289C159.81 184.087 160.713 185.776 161.372 187.012C161.705 187.631 162.045 188.267 162.408 188.371C162.622 188.432 162.83 188.212 163.296 187.551C163.925 186.645 164.798 185.409 166.811 185.409C167.099 185.409 167.329 185.599 167.329 185.837C167.329 186.076 167.099 186.266 166.811 186.266C165.39 186.266 164.783 187.135 164.191 187.979C163.769 188.579 163.303 189.246 162.511 189.246H162.519Z" fill="white"/>
</svg>
