<svg width="384" height="446" viewBox="0 0 384 446" fill="none" xmlns="http://www.w3.org/2000/svg">
<path d="M343.142 234.15V297.393C343.142 307.294 336.23 315.322 327.706 315.322H53.2991C44.7743 315.322 37.8623 307.294 37.8623 297.393V234.15H70.1951V277.68H310.733V234.15H343.066H343.142Z" fill="#FBBF24"/>
<path d="M327.705 315.59H53.299C44.6974 315.59 37.6318 307.473 37.6318 297.393V234.15C37.6318 233.972 37.7086 233.883 37.8622 233.883H70.195C70.3486 233.883 70.4254 233.972 70.4254 234.15V277.412H310.502V234.15C310.502 233.972 310.579 233.883 310.733 233.883H343.065C343.219 233.883 343.296 233.972 343.296 234.15V297.304C343.296 307.294 336.307 315.501 327.629 315.501L327.705 315.59ZM38.0926 234.418V297.393C38.0926 307.116 44.9278 315.055 53.299 315.055H327.705C336.077 315.055 342.912 307.116 342.912 297.393V234.418H311.04V277.68C311.04 277.858 310.963 277.948 310.809 277.948H70.2718C70.1182 277.948 70.0414 277.858 70.0414 277.68V234.418H38.1694H38.0926Z" fill="#101720"/>
<path d="M276.787 119.796C285.926 127.824 264.806 175.279 264.806 175.279L238.617 155.744C238.617 155.744 252.211 131.035 249.062 119.707C245.913 108.289 268.416 111.055 276.864 119.796H276.787Z" fill="#1976D2"/>
<mask id="mask0_173_17" style="mask-type:luminance" maskUnits="userSpaceOnUse" x="238" y="112" width="42" height="64">
<path d="M276.787 119.796C285.926 127.824 264.806 175.279 264.806 175.279L238.617 155.744C238.617 155.744 252.211 131.035 249.062 119.707C245.913 108.289 268.416 111.055 276.864 119.796H276.787Z" fill="white"/>
</mask>
<g mask="url(#mask0_173_17)">
<path d="M268.415 115.336C277.478 117.12 282.163 118.101 280.396 123.186C278.63 128.27 262.041 123.186 254.284 138.439C250.675 145.486 268.031 154.673 276.019 151.819C284.006 148.964 269.875 174.119 269.875 174.119L228.479 141.65L246.451 114.533L268.339 115.425" fill="#101720"/>
</g>
<path d="M264.806 175.546C264.806 175.546 264.729 175.546 264.652 175.546L238.464 156.012C238.387 156.012 238.31 155.744 238.464 155.655C238.617 155.387 251.98 130.946 248.832 119.796C248.064 117.12 248.678 115.069 250.444 113.642C255.82 109.538 270.412 112.839 276.94 119.618C280.78 123.008 279.936 133.444 274.406 150.66C270.336 163.415 265.036 175.279 264.96 175.457C264.96 175.457 264.883 175.546 264.806 175.636V175.546ZM238.924 155.655L264.729 174.922C266.419 171.087 285.235 127.557 276.71 120.064C270.489 113.553 255.897 110.252 250.752 114.088C249.139 115.336 248.601 117.21 249.292 119.618C250.598 124.435 249.292 131.928 245.299 142.096C242.611 148.786 239.616 154.495 239.001 155.655H238.924Z" fill="#101720"/>
<path d="M214.962 326.383L211.506 314.52C211.506 314.52 202.06 321.566 189.004 325.313L194.226 343.956L206.975 339.317L214.885 326.472L214.962 326.383Z" fill="#FF7E6E"/>
<path d="M194.303 344.223C194.227 344.223 194.15 344.223 194.073 344.045L188.851 325.402V325.224C188.851 325.224 188.927 325.135 189.004 325.135C201.907 321.567 211.353 314.52 211.43 314.431C211.43 314.431 211.583 314.431 211.66 314.431C211.66 314.431 211.814 314.431 211.814 314.609L215.27 326.473C215.27 326.562 215.27 326.74 215.193 326.74L207.283 339.585C207.283 339.585 207.283 339.585 207.129 339.674L194.38 344.313L194.303 344.223ZM189.388 325.491L194.457 343.599L206.899 339.05L214.732 326.383L211.43 314.966C209.817 316.125 201.062 322.191 189.388 325.491Z" fill="#101720"/>
<path d="M162.201 378.476C165.043 383.114 168.422 385.701 192.153 372.945C215.885 360.19 225.408 355.997 226.099 350.645C226.329 349.04 225.638 345.65 224.563 341.814C223.104 336.552 221.03 330.397 219.494 326.204C218.419 323.261 217.651 321.209 217.651 321.209C210.585 315.857 209.971 330.843 206.054 333.519C203.981 334.946 200.064 333.34 196.531 331.824C193.459 330.486 190.617 329.326 189.312 330.218C187.008 331.735 177.408 343.955 170.342 353.232C169.805 353.856 169.344 354.481 168.883 355.105C167.577 356.8 166.349 358.406 165.427 359.744C159.129 368.218 159.513 373.926 162.278 378.476H162.201Z" fill="#FFFFFE"/>
<path d="M162.201 378.476C165.043 383.114 168.422 385.701 192.153 372.945C215.884 360.19 225.408 355.997 226.099 350.645C226.329 349.04 225.638 345.65 224.563 341.814C211.814 353.5 169.651 377.316 162.278 378.476H162.201Z" fill="#1976D2"/>
<path d="M170.266 353.233C170.266 353.233 174.874 356.265 183.552 347.256C192.23 338.247 196.454 331.825 196.454 331.825C193.382 330.487 190.541 329.327 189.235 330.219C186.931 331.735 177.331 343.956 170.266 353.233Z" fill="#1976D2"/>
<path d="M194.841 353.59C191.462 353.59 187.699 351.538 183.475 347.435C183.398 347.346 183.398 347.167 183.475 347.078C183.551 346.989 183.705 346.989 183.782 347.078C189.465 352.608 194.15 354.303 198.22 352.341C203.212 349.932 222.182 335.66 222.412 335.571C222.489 335.571 222.643 335.571 222.719 335.571C222.719 335.66 222.719 335.839 222.719 335.928C222.566 336.106 203.519 350.378 198.451 352.787C197.299 353.322 196.147 353.59 194.918 353.59H194.841Z" fill="#101720"/>
<path d="M168.345 382.579C164.889 382.579 163.43 380.884 162.048 378.654C158.668 373.035 159.744 367.058 165.273 359.655L166.118 358.495C166.886 357.425 167.808 356.265 168.729 355.016C169.19 354.392 169.651 353.767 170.188 353.143C176.256 345.204 186.7 331.646 189.158 330.04C190.617 329.148 193.382 330.308 196.531 331.646C199.987 333.073 203.904 334.768 205.9 333.341C207.283 332.449 208.204 329.951 209.203 327.364C210.432 324.153 211.737 320.853 213.888 320.05C215.04 319.693 216.268 320.05 217.728 321.12C217.728 321.12 217.728 321.12 217.804 321.209C217.804 321.209 218.572 323.261 219.648 326.205C220.876 329.683 223.18 336.284 224.716 341.904C225.945 346.364 226.483 349.397 226.329 350.913C225.715 355.641 218.572 359.476 201.139 368.664C198.451 370.091 195.456 371.697 192.23 373.391C179.404 380.26 172.416 382.757 168.268 382.757L168.345 382.579ZM162.508 378.476C165.35 383.114 169.036 385.166 192.153 372.767C195.379 371.072 198.374 369.467 201.062 368.039C218.265 358.941 225.408 355.105 225.945 350.735C226.099 349.307 225.561 346.364 224.409 341.993C222.873 336.463 220.569 329.862 219.34 326.383C218.419 323.796 217.728 321.834 217.574 321.477C216.268 320.496 215.193 320.228 214.195 320.585C212.198 321.299 210.969 324.51 209.817 327.543C208.742 330.219 207.82 332.805 206.284 333.787C204.057 335.303 200.064 333.608 196.531 332.092C193.536 330.843 190.694 329.594 189.465 330.486C187.084 332.003 176.64 345.561 170.572 353.5C170.035 354.124 169.574 354.749 169.113 355.373C168.192 356.622 167.27 357.781 166.502 358.852L165.657 360.011C158.592 369.467 160.512 375.086 162.508 378.476Z" fill="#101720"/>
<path d="M90.2399 331.556L98.3807 323.35C98.3807 323.35 89.1647 315.946 81.2543 303.369L68.4287 316.125L77.0303 327.988L90.3167 331.556H90.2399Z" fill="#FF7E6E"/>
<path d="M90.2398 331.824L76.9534 328.256C76.9534 328.256 76.8766 328.256 76.7998 328.256L68.1982 316.393C68.1214 316.303 68.1982 316.125 68.1982 316.036L81.0238 303.28C81.0238 303.28 81.1006 303.28 81.1774 303.28C81.1774 303.28 81.331 303.28 81.331 303.369C89.0878 315.768 98.3038 323.261 98.4574 323.35C98.4574 323.35 98.5342 323.439 98.5342 323.529C98.5342 323.529 98.5342 323.707 98.4574 323.707L90.3934 331.913C90.3934 331.913 90.3166 332.003 90.2398 332.003V331.824ZM77.107 327.721L90.163 331.289L97.9966 323.35C96.4606 322.101 88.3198 314.965 81.1774 303.726L68.7358 316.125L77.107 327.721Z" fill="#101720"/>
<path d="M28.6459 294.896C26.0347 299.713 25.2667 304.351 44.4667 324.956C63.6667 345.562 70.7323 354.125 75.1867 352.876C76.5691 352.519 78.9499 350.468 81.638 347.792C85.2476 344.224 89.3947 339.585 92.1595 336.374C94.1563 334.144 95.3851 332.538 95.3851 332.538C96.9211 322.905 84.7867 327.989 81.1771 324.778C79.2571 323.083 79.0267 318.266 78.8731 313.896C78.7195 310.06 78.5659 306.581 77.4139 305.422C75.3403 303.548 61.9003 297.929 51.8395 293.915C51.1483 293.647 50.4571 293.38 49.7659 293.112C47.9227 292.398 46.1563 291.685 44.7739 291.15C35.6347 287.582 31.2571 290.168 28.6459 294.985V294.896Z" fill="#FFFFFE"/>
<path d="M28.6459 294.896C26.0347 299.712 25.2667 304.351 44.4667 324.956C63.6667 345.561 70.7323 354.124 75.1867 352.876C76.5691 352.519 78.9499 350.467 81.6379 347.791C67.5067 338.603 32.4091 302.388 28.6459 294.896Z" fill="#1976D2"/>
<path d="M51.8398 293.914C51.8398 293.914 51.2254 299.98 61.6702 305.956C72.115 311.843 78.8734 313.895 78.8734 313.895C78.7198 310.059 78.5662 306.58 77.4142 305.421C75.3406 303.548 61.9006 297.928 51.8398 293.914Z" fill="#1976D2"/>
<path d="M85.709 343.509C85.709 343.509 85.6322 343.509 85.5554 343.509C85.4018 343.331 66.7394 328.345 62.8994 323.885C59.6738 320.139 59.213 314.162 61.4402 305.867C61.4402 305.688 61.5938 305.688 61.7474 305.688C61.901 305.688 61.901 305.867 61.901 306.045C59.6738 314.162 60.1346 319.96 63.2066 323.528C67.0466 327.988 85.6322 342.885 85.7858 343.063C85.8626 343.063 85.9394 343.331 85.7858 343.42L85.6322 343.509H85.709Z" fill="#101720"/>
<path d="M74.2653 353.232C70.2717 353.232 64.3581 346.81 51.4557 332.805C49.3053 330.486 46.9245 327.899 44.3133 325.134C25.3437 304.707 25.6509 299.89 28.4157 294.806C31.5645 289.008 36.7869 287.759 44.8509 290.881C45.8493 291.238 47.0781 291.773 48.3069 292.219L50.6109 293.111C51.0717 293.29 51.4557 293.468 51.9165 293.646C62.4381 297.839 75.4941 303.28 77.5677 305.242C78.8733 306.402 78.9501 309.792 79.1037 313.716V313.895C79.2573 318.176 79.4877 322.993 81.3309 324.599C82.5597 325.669 84.9405 325.758 87.3981 325.848C90.3933 325.937 93.5421 326.026 95.0013 328.078C95.7693 329.148 95.9997 330.664 95.6157 332.627C95.6157 332.627 95.6157 332.716 95.6157 332.805C95.6157 332.805 94.3101 334.411 92.3133 336.641C89.4717 339.941 85.4013 344.49 81.7917 348.058C78.7197 351.091 76.4925 352.786 75.2637 353.232C74.9565 353.321 74.6493 353.41 74.2653 353.41V353.232ZM28.8765 294.984C26.1885 299.801 25.8813 304.529 44.6205 324.688C47.2317 327.453 49.5357 330.04 51.7629 332.359C65.6637 347.345 71.4237 353.589 75.1101 352.518C76.2621 352.162 78.4893 350.467 81.4845 347.523C85.0941 344.044 89.1645 339.406 92.0061 336.106C93.7725 334.143 94.9245 332.627 95.2317 332.359C95.5389 330.575 95.3085 329.326 94.6941 328.345C93.3885 326.472 90.3933 326.383 87.4749 326.294C84.9405 326.294 82.4829 326.115 81.1773 324.956C79.1805 323.172 78.9501 318.444 78.7965 313.895V313.716C78.6429 310.059 78.4893 306.67 77.4141 305.688C75.8013 304.261 66.7389 300.158 51.9165 294.182C51.4557 294.003 51.0717 293.825 50.6109 293.646L48.3069 292.754C47.0013 292.219 45.8493 291.773 44.8509 291.416C34.6365 287.402 30.9501 291.595 29.0301 295.074L28.8765 294.984Z" fill="#101720"/>
<path d="M150.911 197.132C150.911 197.132 141.695 222.822 130.021 218.362C129.791 218.273 129.56 218.183 129.33 218.005C117.272 212.118 119.884 193.475 125.72 184.198H128.101L140.927 184.733L150.911 197.132Z" fill="#FF7E6E"/>
<path d="M132.71 219.076C131.788 219.076 130.867 218.897 129.945 218.541C129.715 218.451 129.484 218.362 129.177 218.184C125.107 216.221 122.342 212.564 121.19 207.569C119.193 199.184 122.035 189.372 125.567 183.931C125.567 183.931 125.644 183.842 125.798 183.842L141.004 184.377H141.158L151.142 196.776C151.142 196.776 151.219 196.865 151.219 196.954C151.219 196.954 151.219 197.043 151.219 197.133C150.988 197.757 148.684 203.912 145.151 209.442C141.081 215.775 136.934 218.987 132.863 218.987L132.71 219.076ZM125.798 184.466C122.265 190.086 119.731 199.719 121.574 207.569C122.726 212.386 125.337 215.865 129.331 217.827C129.561 217.916 129.791 218.005 130.022 218.095C140.927 222.287 149.759 199.363 150.604 197.222L140.774 185.001L125.798 184.466Z" fill="#101720"/>
<path d="M129.946 217.916C129.792 217.916 129.562 217.737 129.408 217.648C125.415 215.686 122.803 212.296 121.651 207.479C119.808 199.719 122.343 189.996 125.875 184.466H128.026C122.88 195.794 123.418 206.855 129.331 212.207C130.253 213.01 130.791 213.902 130.867 214.883C130.944 215.864 130.637 216.845 129.869 218.005L129.946 217.916Z" fill="#1976D2"/>
<path d="M266.573 157.082L264.576 159.491L263.117 163.059L247.373 202.039L249.523 232.367L239.769 243.606L147.84 217.382L145.382 197.847L131.174 187.946L123.725 182.772C123.725 182.772 154.598 141.651 167.961 131.839C181.401 122.027 202.752 117.656 221.568 127.914C240.384 138.172 266.573 157.082 266.573 157.082Z" fill="#FFFFFE"/>
<path d="M239.77 243.874L147.84 217.649C147.763 217.649 147.686 217.56 147.686 217.471L145.229 198.114L123.648 183.039C123.648 183.039 123.571 182.95 123.571 182.861V182.683C123.878 182.237 154.598 141.383 167.885 131.749C180.864 122.294 202.598 117.388 221.722 127.825C240.307 137.993 266.496 156.815 266.726 156.993C266.803 156.993 266.88 157.171 266.803 157.261C266.803 157.261 266.803 157.35 266.726 157.439L264.806 159.758L247.68 202.217L249.83 232.456V232.635L240.077 243.874C240.077 243.874 240 243.874 239.923 243.874H239.77ZM148.07 217.203L239.693 243.339L249.293 232.367L247.142 202.217C247.142 202.217 247.142 202.128 247.142 202.039L264.346 159.491L266.112 157.261C263.424 155.298 239.002 137.904 221.414 128.271C202.445 117.923 180.941 122.829 168.038 132.195C155.366 141.472 126.566 179.382 124.032 182.772L145.459 197.757C145.459 197.757 145.536 197.847 145.536 197.936L147.994 217.292L148.07 217.203Z" fill="#101720"/>
<path d="M124.108 182.682C126.796 179.114 155.443 141.293 168.115 132.105C174.259 127.645 182.016 124.434 189.849 123.096C200.985 121.223 211.891 123.007 221.491 128.181C239.078 137.725 263.347 155.119 266.188 157.081L264.422 159.222L263.04 162.612C253.44 155.654 230.323 139.063 216.652 131.481C208.051 126.664 199.296 124.969 190.617 126.486C185.625 127.378 180.556 129.251 175.564 132.195C166.118 137.814 135.244 173.227 131.558 179.203C130.406 181.076 130.176 183.752 130.79 187.32L124.108 182.682Z" fill="#FBBF24"/>
<path d="M215.884 93.1256C214.962 99.3696 210.508 98.3884 210.508 98.3884C210.508 98.3884 212.505 103.74 211.045 106.416C209.586 109.092 208.127 108.111 208.127 108.111C208.127 108.111 206.668 110.698 203.749 111.322C202.06 111.679 199.833 110.698 198.297 109.806C197.068 109.182 196.223 108.468 196.223 108.468L177.253 100.172L174.719 99.102C174.719 99.102 174.719 99.0128 174.642 98.8344C174.258 97.6748 172.876 92.6796 174.873 88.9332C174.873 88.9332 174.258 87.06 174.181 84.5624C174.105 81.5296 174.719 77.4264 178.098 74.3044C184.319 68.5956 191.769 68.5064 194.073 74.3044C194.073 74.3044 199.449 71.004 205.132 73.8584C210.815 76.7128 210.508 84.9192 210.508 84.9192C210.508 84.9192 211.506 84.7408 212.581 85.0084C214.194 85.4544 216.114 86.9708 215.884 91.6092C215.884 92.1444 215.884 92.6796 215.73 93.1256H215.884Z" fill="#FBBF24"/>
<path d="M203.136 111.768C201.523 111.768 199.68 110.965 198.297 110.162C197.068 109.538 196.224 108.824 196.224 108.824L174.796 99.4585C174.796 99.4585 174.72 99.4585 174.643 99.2801V99.0125C174.105 97.5853 172.8 92.7685 174.72 88.9329C174.566 88.4869 174.105 86.7921 174.028 84.5621C173.952 81.5293 174.566 77.3369 178.022 74.1257C181.862 70.6469 186.393 69.0413 189.849 70.0225C191.846 70.5577 193.382 71.8957 194.227 73.9473C195.302 73.4121 200.14 71.0929 205.286 73.5905C210.432 76.1773 210.816 83.0457 210.816 84.5621C211.2 84.5621 211.891 84.5621 212.736 84.7405C214.425 85.1865 216.422 86.7921 216.192 91.6089C216.192 92.1441 216.192 92.6793 216.038 93.1253C215.731 95.2661 214.963 96.7825 213.811 97.7637C212.659 98.7449 211.43 98.7449 210.816 98.7449C211.276 100.083 212.505 104.275 211.2 106.594C209.971 108.914 208.665 108.646 208.204 108.468C207.82 109.092 206.361 111.054 203.75 111.59C203.52 111.59 203.289 111.59 202.982 111.59L203.136 111.768ZM175.027 98.9233L196.377 108.289C196.377 108.289 197.299 108.914 198.451 109.627C199.987 110.519 202.137 111.411 203.827 111.144C206.592 110.608 208.051 108.111 208.051 108.111C208.051 108.022 208.281 107.932 208.358 108.111C208.358 108.111 209.664 108.914 210.892 106.505C212.198 103.918 210.355 98.7449 210.278 98.6557C210.278 98.5665 210.278 98.4773 210.278 98.3881C210.278 98.3881 210.432 98.2989 210.508 98.2989C210.508 98.2989 212.198 98.6557 213.58 97.4961C214.656 96.6041 215.27 95.1769 215.577 93.2145C215.577 92.7685 215.731 92.2333 215.731 91.6981C215.961 87.2381 214.195 85.8109 212.659 85.3649C211.584 85.0973 210.662 85.2757 210.662 85.2757H210.508C210.508 85.2757 210.432 85.1865 210.432 85.0973C210.432 85.0973 210.662 77.0693 205.132 74.3041C199.603 71.5389 194.304 74.6609 194.227 74.7501H194.073C194.073 74.7501 193.996 74.7501 193.92 74.5717C193.152 72.6093 191.692 71.2713 189.696 70.7361C186.393 69.8441 182.016 71.3605 178.252 74.7501C174.873 77.7829 174.336 81.8861 174.412 84.7405C174.489 87.2381 175.104 89.0221 175.104 89.0221C175.104 89.0221 175.104 89.2005 175.104 89.2897C173.184 92.8577 174.412 97.5853 174.873 99.0125V99.1909L175.027 98.9233Z" fill="#101720"/>
<path d="M210.508 98.4774C210.508 98.4774 212.505 103.829 211.045 106.505C209.586 109.181 208.127 108.2 208.127 108.2C208.127 108.2 206.668 110.787 203.749 111.411C202.06 111.768 199.833 110.787 198.297 109.895C197.068 109.271 196.223 108.557 196.223 108.557L177.253 100.261C176.255 99.7262 175.41 99.2802 174.642 98.9234C174.258 97.7638 172.876 92.7686 174.873 89.0222C174.873 89.0222 174.258 87.149 174.181 84.6514C174.181 84.6514 176.101 87.149 179.404 86.3462L193.381 96.2474L199.372 95.0878C203.826 95.8906 212.965 96.4258 215.807 93.2146C214.885 99.4586 210.431 98.4774 210.431 98.4774H210.508Z" fill="#101720"/>
<path d="M203.136 111.768C201.523 111.768 199.68 110.965 198.297 110.163C197.068 109.538 196.224 108.825 196.224 108.825L177.331 100.529C176.332 99.9937 175.411 99.5477 174.72 99.1909C174.72 99.1909 174.643 99.1909 174.566 99.0125C174.105 97.5853 172.8 92.7685 174.796 88.9329C174.643 88.4869 174.182 86.7921 174.105 84.5621C174.105 84.4729 174.105 84.3837 174.259 84.2945C174.412 84.2053 174.489 84.2945 174.489 84.2945C174.489 84.2945 176.409 86.7029 179.481 85.9001H179.635L193.536 95.7121L199.449 94.6417C204.518 95.5337 213.043 95.8013 215.731 92.7685C215.731 92.7685 215.884 92.6793 215.961 92.7685C216.038 92.7685 216.115 92.9469 216.115 93.0361C215.808 95.1769 215.04 96.6933 213.888 97.6745C212.736 98.6557 211.507 98.6557 210.816 98.6557C211.276 99.9937 212.505 104.186 211.2 106.595C209.971 108.914 208.665 108.646 208.204 108.468C207.82 109.092 206.361 111.055 203.75 111.59C203.519 111.59 203.289 111.59 202.982 111.59L203.136 111.768ZM174.95 98.6557C175.641 99.0125 176.563 99.4585 177.484 99.9937L196.377 108.289C196.377 108.289 197.299 108.914 198.451 109.627C199.987 110.519 202.137 111.411 203.827 111.144C206.592 110.609 208.051 108.111 208.051 108.111C208.051 108.022 208.281 107.933 208.358 108.111C208.358 108.111 209.664 108.914 210.892 106.505C212.198 104.008 210.355 98.7449 210.278 98.6557C210.278 98.6557 210.278 98.6557 210.278 98.5665C210.278 98.4773 210.278 98.3881 210.355 98.2989H210.508C210.508 98.2989 212.198 98.6557 213.58 97.4961C214.502 96.7825 215.116 95.5337 215.424 94.0173C212.044 96.8717 203.596 96.2473 199.296 95.5337L193.305 96.6041C193.305 96.6041 193.228 96.6041 193.152 96.6041L179.251 86.7921C176.793 87.3273 175.104 86.1677 174.336 85.4541C174.489 87.5949 174.95 89.1113 174.95 89.1113C174.95 89.1113 174.95 89.2897 174.95 89.3789C173.03 92.8577 174.259 97.4961 174.72 98.9233L174.95 98.6557Z" fill="#101720"/>
<path d="M201.369 105.791C200.985 105.435 200.755 105.078 200.678 105.078L200.831 104.899C200.831 104.899 201.062 105.256 201.446 105.613L201.292 105.791H201.369Z" fill="#5C2F00"/>
<path d="M194.918 139.421C192.844 140.313 190.771 140.313 189.388 139.242C185.241 135.853 187.008 129.965 187.008 129.965L188.083 117.477L198.374 109.36L199.91 108.111L203.366 126.308C203.75 132.285 199.219 137.637 194.918 139.421Z" fill="#FF7E6D"/>
<path d="M194.918 139.42C192.844 140.312 190.771 140.312 189.388 139.241C185.241 135.852 187.008 129.965 187.008 129.965L188.083 117.477L198.374 109.359L199.603 110.43C199.603 110.43 196.608 118.279 193.075 123.275C190.387 127.11 192.921 135.049 194.995 139.42H194.918Z" fill="#1976D2"/>
<path d="M200.986 113.82C200.986 113.82 194.688 121.402 187.776 121.491L188.16 117.477L200.218 109.271L201.063 113.731L200.986 113.82Z" fill="#101720"/>
<path d="M187.469 121.759L187.853 117.299L200.294 108.914L201.293 114.088H201.062C200.371 114.89 194.304 121.67 187.699 121.759H187.469ZM188.314 117.656L188.006 121.224C194.227 120.956 199.987 114.623 200.755 113.731L199.987 109.717L188.314 117.656Z" fill="#101720"/>
<path d="M192 140.312C190.925 140.312 190.003 140.045 189.312 139.42C185.011 135.941 186.777 129.876 186.854 129.787L187.929 117.388C187.929 117.388 187.929 117.209 188.006 117.209L199.833 107.933C199.833 107.933 199.987 107.933 200.064 107.933C200.064 107.933 200.217 108.022 200.217 108.111L203.673 126.308C204.057 132.284 199.603 137.815 195.072 139.688C193.997 140.134 192.998 140.401 192.077 140.401L192 140.312ZM188.313 117.566L187.238 129.876C187.161 130.143 185.549 135.674 189.542 138.974C190.771 139.955 192.691 140.045 194.841 139.153C199.219 137.279 203.52 132.017 203.136 126.308L199.757 108.557L188.313 117.566Z" fill="#101720"/>
<path d="M174.182 111.412C174.489 112.839 174.873 114.088 175.334 115.158C178.713 123.008 185.932 122.918 193.151 117.834C197.222 115.069 199.91 110.609 201.446 105.703C202.828 107.041 205.9 109.36 207.359 103.919C208.972 98.0316 205.747 92.858 202.751 95.98C202.675 96.0692 202.521 96.1584 202.444 96.3368C201.753 97.5856 201.292 98.8344 200.908 100.172C200.831 100.529 200.678 100.975 200.524 101.243C200.14 101.867 199.449 102.135 198.911 101.956C198.988 100.975 199.142 99.994 199.219 99.102C199.372 97.764 199.526 96.426 199.449 95.088C197.375 94.642 195.379 93.6608 193.689 92.3228C191.385 90.5388 189.465 88.2196 187.775 85.722C187.775 85.722 187.622 85.722 187.545 85.722C180.863 87.06 179.481 82.2432 179.481 82.2432L178.252 84.6516C175.948 89.1116 174.412 94.1068 173.798 99.2804C173.337 102.938 173.26 107.219 174.182 111.322V111.412Z" fill="#FF7E6D"/>
<path d="M186.547 99.7256C186.547 99.7256 188.083 97.1388 191.155 97.9416C194.227 98.7444 194.38 101.153 194.38 101.153C194.38 101.153 192.768 103.829 190.003 103.115C187.238 102.402 186.547 99.7256 186.547 99.7256Z" fill="#FFFFFE"/>
<mask id="mask1_173_17" style="mask-type:luminance" maskUnits="userSpaceOnUse" x="186" y="97" width="9" height="7">
<path d="M186.547 99.7256C186.547 99.7256 188.083 97.1388 191.155 97.9416C194.227 98.7444 194.38 101.153 194.38 101.153C194.38 101.153 192.768 103.829 190.003 103.115C187.238 102.402 186.547 99.7256 186.547 99.7256Z" fill="white"/>
</mask>
<g mask="url(#mask1_173_17)">
<path d="M189.235 103.205C190.338 103.205 191.232 102.166 191.232 100.886C191.232 99.6047 190.338 98.5664 189.235 98.5664C188.132 98.5664 187.238 99.6047 187.238 100.886C187.238 102.166 188.132 103.205 189.235 103.205Z" fill="#101720"/>
</g>
<path d="M181.171 107.397C180.403 107.129 179.865 106.505 179.712 105.613C179.558 104.721 179.712 103.829 180.249 103.205C180.941 102.402 182.4 100.172 182.784 97.3174C182.784 97.139 182.937 97.0498 183.014 97.0498C183.168 97.0498 183.245 97.2282 183.245 97.3174C182.937 100.35 181.401 102.669 180.557 103.561C180.173 104.007 179.942 104.721 180.096 105.435C180.173 105.791 180.403 106.505 181.248 106.862C181.401 106.862 181.401 107.04 181.401 107.219C181.401 107.308 181.248 107.397 181.171 107.397Z" fill="#101720"/>
<path d="M186.778 110.698C186.317 110.698 185.856 110.519 185.395 110.163C185.319 110.163 185.242 109.895 185.395 109.806C185.395 109.717 185.626 109.627 185.703 109.806C186.24 110.252 186.931 110.341 187.469 110.073C188.083 109.717 188.467 108.914 188.467 107.933C188.467 107.754 188.544 107.665 188.698 107.665C188.851 107.665 188.928 107.754 188.928 107.933C188.928 109.181 188.391 110.073 187.623 110.519C187.315 110.698 187.085 110.787 186.778 110.787V110.698Z" fill="#101720"/>
<path d="M194.534 97.7636C194.457 97.7636 194.381 97.7636 194.304 97.5852C193.843 96.604 192.768 95.8012 191.385 95.4444C189.926 95.0876 188.467 95.4444 187.545 96.2472C187.469 96.3364 187.315 96.2472 187.238 96.2472C187.161 96.158 187.238 95.9796 187.238 95.8904C188.237 94.9092 189.849 94.5524 191.462 94.9984C192.921 95.3552 194.15 96.2472 194.688 97.4068C194.688 97.496 194.688 97.6744 194.611 97.7636C194.611 97.7636 194.611 97.7636 194.534 97.7636Z" fill="#101720"/>
<path d="M182.783 94.9095C182.783 94.9095 182.63 94.9095 182.63 94.8203C182.553 94.7311 180.71 92.0551 178.406 93.3931C178.329 93.3931 178.175 93.3931 178.099 93.3039C178.099 93.2147 178.099 93.0363 178.175 92.9471C180.787 91.4307 182.937 94.4635 182.937 94.4635C183.014 94.5527 182.937 94.7311 182.937 94.8203C182.937 94.8203 182.86 94.8203 182.783 94.8203V94.9095Z" fill="#101720"/>
<path d="M191.155 97.9424C191.155 97.9424 192.614 98.21 193.536 99.3696C194.458 100.529 194.765 101.51 195.149 101.6L194.611 102.135C194.611 102.135 193.229 98.7452 191.155 97.9424Z" fill="#101720"/>
<path d="M182.323 98.5666C182.323 98.5666 181.785 95.8906 179.174 95.4446C176.563 94.9986 175.718 96.7826 175.718 96.7826C175.718 96.7826 176.255 99.4586 178.636 99.9046C181.017 100.351 182.323 98.4774 182.323 98.4774V98.5666Z" fill="#FFFFFE"/>
<mask id="mask2_173_17" style="mask-type:luminance" maskUnits="userSpaceOnUse" x="175" y="95" width="8" height="5">
<path d="M182.323 98.5666C182.323 98.5666 181.785 95.8906 179.174 95.4446C176.563 94.9986 175.718 96.7826 175.718 96.7826C175.718 96.7826 176.255 99.4586 178.636 99.9046C181.017 100.351 182.323 98.4774 182.323 98.4774V98.5666Z" fill="white"/>
</mask>
<g mask="url(#mask2_173_17)">
<path d="M179.021 100.083C179.954 100.083 180.71 99.2044 180.71 98.1206C180.71 97.0368 179.954 96.1582 179.021 96.1582C178.088 96.1582 177.331 97.0368 177.331 98.1206C177.331 99.2044 178.088 100.083 179.021 100.083Z" fill="#101720"/>
</g>
<path d="M179.175 95.5337C179.175 95.5337 177.946 95.2661 176.871 95.8013C175.795 96.3365 175.335 97.0501 175.027 97.0501L175.258 97.6745C175.258 97.6745 177.331 95.5337 179.175 95.6229V95.5337Z" fill="#101720"/>
<path d="M202.368 102.313C202.368 102.313 202.291 102.313 202.214 102.313C202.06 102.223 201.984 101.956 202.06 101.777C202.905 99.5474 203.673 98.3878 204.441 98.1202C204.902 97.9418 205.286 98.031 205.824 98.2986C205.977 98.3878 206.054 98.6554 205.977 98.8338C205.9 99.0122 205.67 99.1014 205.516 99.0122C205.209 98.8338 204.979 98.8338 204.748 98.923C204.211 99.1906 203.596 100.172 202.828 102.134C202.828 102.313 202.675 102.402 202.521 102.402L202.368 102.313Z" fill="#101720"/>
<path d="M175.334 115.158C178.713 123.007 185.932 122.918 193.152 117.834C197.222 115.068 199.91 110.608 201.446 105.702C202.828 107.04 205.9 109.36 207.36 103.918C208.972 98.0313 205.747 92.8577 202.752 95.9797C202.675 96.0689 202.521 96.1581 202.444 96.3365C201.753 97.5853 201.292 98.8341 200.908 100.172C200.832 100.529 200.678 100.975 200.524 101.242C200.14 101.867 199.449 102.134 198.912 101.956C198.988 100.975 199.142 99.9937 199.219 99.1017C199.372 97.7637 199.526 96.4257 199.449 95.0877C197.376 94.6417 195.379 93.6605 193.689 92.3225C191.385 90.5385 189.465 88.2193 187.776 85.7217C187.776 85.7217 187.622 85.7217 187.545 85.7217C190.08 92.2333 198.451 96.4257 194.457 106.862C189.004 121.312 180.019 116.496 175.334 115.158Z" fill="#1976D2"/>
<path d="M202.444 101.332C202.444 101.332 202.444 101.332 202.367 101.332C202.214 101.332 202.214 101.153 202.214 100.975C202.214 100.797 203.673 97.0502 205.67 97.6746C205.823 97.6746 205.9 97.853 205.823 98.0314C205.823 98.2098 205.67 98.299 205.516 98.2098C203.903 97.6746 202.598 101.153 202.598 101.243C202.598 101.332 202.444 101.421 202.367 101.421L202.444 101.332Z" fill="#101720"/>
<path d="M204.365 104.275C204.365 104.275 204.211 104.275 204.211 104.186C204.211 104.097 204.211 103.919 204.211 103.829C205.133 103.116 205.363 101.332 205.133 99.9938C204.979 99.1018 204.672 98.5666 204.288 98.4774C204.135 98.4774 204.058 98.299 204.135 98.1206C204.135 97.9422 204.288 97.853 204.442 97.9422C205.056 98.1206 205.44 98.8342 205.671 99.9046C205.901 101.421 205.671 103.473 204.519 104.275C204.519 104.275 204.442 104.275 204.365 104.275Z" fill="#101720"/>
<path d="M179.481 82.5103C179.481 82.5103 179.328 82.5103 179.328 82.4211C178.022 80.1911 178.406 78.4071 178.406 78.3179C178.406 78.1395 178.56 78.0503 178.713 78.1395C178.867 78.1395 178.944 78.3179 178.867 78.4963C178.867 78.4963 178.56 80.1911 179.712 82.2427C179.712 82.3319 179.712 82.5103 179.712 82.5995C179.712 82.6887 179.635 82.5995 179.558 82.5995L179.481 82.5103Z" fill="#101720"/>
<path d="M183.782 121.669C182.783 121.669 181.862 121.491 180.94 121.223C178.406 120.331 176.486 118.369 175.18 115.336C174.719 114.265 174.258 112.927 173.951 111.5C173.951 111.5 173.951 111.5 173.951 111.411C173.183 107.754 173.03 103.651 173.567 99.2799C174.182 94.1063 175.718 89.1111 178.022 84.5619L179.25 82.1535C179.25 82.0643 179.404 81.9751 179.481 82.0643C179.558 82.0643 179.634 82.0643 179.711 82.2427C179.711 82.4211 181.094 86.7919 187.545 85.5431C187.545 85.5431 187.545 85.5431 187.698 85.5431H187.775C187.852 85.5431 187.929 85.5431 188.006 85.5431C189.926 88.3975 191.846 90.5383 193.842 92.1439C195.686 93.5711 197.606 94.4631 199.526 94.9091C199.602 94.9091 199.679 94.9983 199.679 95.1767C199.679 96.5147 199.603 97.8527 199.449 99.1907L199.142 101.867C199.602 101.867 200.063 101.688 200.37 101.242C200.524 100.975 200.601 100.707 200.678 100.35C201.062 98.8339 201.599 97.4959 202.29 96.3363C202.444 96.1579 202.521 96.0687 202.598 95.9795C203.673 94.8199 204.902 94.6415 205.977 95.4443C207.59 96.6039 208.665 100.083 207.59 104.186C207.052 106.148 206.284 107.308 205.209 107.665C203.827 108.111 202.444 107.129 201.522 106.327C199.833 111.5 196.991 115.603 193.228 118.279C189.849 120.599 186.546 121.847 183.705 121.847L183.782 121.669ZM174.412 111.411C174.719 112.749 175.103 113.998 175.564 115.068C176.793 118.012 178.636 119.885 181.017 120.688C184.319 121.847 188.543 120.688 192.998 117.655C196.761 115.068 199.602 110.876 201.138 105.702C201.138 105.702 201.215 105.524 201.292 105.524C201.292 105.524 201.446 105.524 201.522 105.524C202.29 106.237 203.75 107.397 204.978 107.04C205.9 106.773 206.591 105.702 207.052 103.918C208.05 100.261 207.052 96.8715 205.593 95.8011C204.748 95.1767 203.75 95.2659 202.828 96.2471C202.751 96.3363 202.675 96.4255 202.521 96.6039C201.907 97.7635 201.369 99.0123 200.985 100.35C200.908 100.796 200.755 101.153 200.601 101.51C200.217 102.223 199.372 102.491 198.681 102.313C198.604 102.313 198.527 102.134 198.527 102.045L198.834 99.1907C198.988 97.9419 199.142 96.6931 199.065 95.4443C197.145 94.9983 195.148 94.0171 193.382 92.6791C191.385 91.1627 189.465 88.9327 187.545 86.0783C184.012 86.7919 181.938 85.7215 180.786 84.7403C180.018 84.1159 179.558 83.3131 179.404 82.8671L178.406 84.8295C176.102 89.3787 174.642 94.2847 173.951 99.3691C173.414 103.74 173.567 107.754 174.335 111.322C174.335 111.322 174.335 111.322 174.335 111.411H174.412Z" fill="#101720"/>
<path d="M255.974 170.015C255.974 170.015 228.48 161.987 214.963 161.274C201.446 160.56 192.46 170.818 191.001 177.33C189.542 183.841 194.688 182.771 196.531 180.006C198.374 177.24 200.14 173.94 203.059 172.424C203.059 172.424 198.835 178.222 199.833 185.625C200.832 193.029 205.977 189.996 207.052 184.376C207.052 184.376 207.513 194.367 213.273 189.639C213.273 189.639 216.345 195.259 221.26 190.353C221.26 190.353 244.147 210.958 269.952 210.69C295.756 210.423 295.91 180.987 264.576 159.4L255.974 169.926V170.015Z" fill="#FF7E6D"/>
<mask id="mask3_173_17" style="mask-type:luminance" maskUnits="userSpaceOnUse" x="190" y="159" width="99" height="52">
<path d="M255.974 170.015C255.974 170.015 228.48 161.987 214.963 161.274C201.446 160.56 192.46 170.818 191.001 177.33C189.542 183.841 194.688 182.771 196.531 180.006C198.374 177.24 200.14 173.94 203.059 172.424C203.059 172.424 198.835 178.222 199.833 185.625C200.755 192.94 205.977 189.996 207.052 184.376C207.052 184.376 207.513 194.367 213.273 189.639C213.273 189.639 216.345 195.259 221.26 190.353C221.26 190.353 244.147 210.958 269.952 210.69C295.756 210.423 295.91 180.987 264.576 159.4L255.974 169.926V170.015Z" fill="white"/>
</mask>
<g mask="url(#mask3_173_17)">
<path d="M258.278 170.639C265.881 172.691 276.864 175.188 280.473 182.057C286.233 192.939 276.633 200.7 263.885 204.178C251.059 207.657 242.534 208.817 242.534 208.817L274.099 220.145L294.758 206.408V172.602L280.704 153.334L261.811 152.175L258.355 170.728" fill="#1976D2"/>
<path d="M281.395 193.296C277.939 196.775 273.869 199.361 269.415 200.699C268.877 200.878 269.031 201.859 269.568 201.681C274.176 200.343 278.4 197.756 282.01 194.099C282.394 193.653 281.933 192.939 281.472 193.296H281.395Z" fill="#1976D2"/>
<path d="M266.88 201.413V201.324C266.88 201.324 266.88 201.146 266.88 201.235C266.88 201.235 266.88 201.235 266.804 201.146C266.804 201.146 266.803 201.146 266.727 201.146C266.727 201.146 266.727 201.146 266.65 201.146H266.573C266.573 201.146 266.419 201.146 266.343 201.146H266.266C266.266 201.235 266.189 201.324 266.112 201.413C266.112 201.413 266.112 201.502 266.112 201.592V201.77V201.859V201.948C266.112 201.948 266.112 201.948 266.189 202.038C266.189 202.038 266.189 202.038 266.266 202.038C266.266 202.038 266.343 202.038 266.42 202.038H266.573H266.65V201.948V201.859C266.65 201.859 266.65 201.859 266.65 201.77V201.592L266.88 201.413Z" fill="#1976D2"/>
<path d="M207.36 169.39C207.36 169.39 203.673 168.409 200.371 170.55C197.069 172.691 195.302 178.221 193.459 180.273C191.616 182.324 189.389 182.057 189.389 182.057L193.229 184.822L198.067 180.451L201.139 173.85L203.597 171.799C203.597 171.799 205.286 169.658 207.36 169.301" fill="#1976D2"/>
<path d="M199.142 187.855C200.755 189.906 203.75 187.23 204.288 184.465C204.826 181.7 205.824 176.259 207.898 173.94C209.894 171.62 212.045 171.353 212.813 171.62C213.581 171.888 213.35 172.512 213.35 172.512C213.35 172.512 210.816 173.761 209.203 177.24C207.59 180.63 206.515 188.033 206.515 188.033L205.67 191.066L202.214 191.69L198.682 190.442L199.296 187.944L199.142 187.855Z" fill="#1976D2"/>
<path d="M207.283 189.015C208.666 190.531 210.125 189.996 210.739 187.052C211.354 184.109 211.738 180.898 213.504 178.311C215.27 175.724 216.653 174.564 217.498 174.564C218.342 174.564 218.726 175.546 217.958 176.259C217.19 176.973 214.886 179.114 213.811 182.771C212.736 186.428 213.043 190.71 213.197 191.869C213.35 193.029 210.509 193.475 210.509 193.475L207.514 192.048L207.283 189.015Z" fill="#1976D2"/>
<path d="M214.118 191.868C215.961 192.76 218.649 190.887 219.955 188.568C221.337 186.249 222.336 184.465 223.104 184.643C223.872 184.822 223.565 187.052 223.104 188.033C223.104 188.033 245.529 204.892 256.742 205.962C267.955 207.032 255.129 215.506 255.129 215.506L241.92 214.525L214.118 191.868Z" fill="#1976D2"/>
</g>
<path d="M269.414 211.048C245.068 211.048 223.257 192.584 221.26 190.8C219.724 192.316 218.111 192.94 216.652 192.673C214.809 192.316 213.58 190.71 213.196 190.086C211.737 191.246 210.431 191.513 209.356 190.978C207.743 190.086 207.129 187.41 206.898 185.804C206.054 188.391 204.287 190.354 202.598 190.354C200.908 190.354 202.598 190.354 202.521 190.354C201.599 190.354 200.063 189.64 199.602 185.715C198.911 180.096 201.215 175.279 202.29 173.316C200.37 174.654 198.988 176.795 197.606 178.936C197.298 179.382 196.991 179.828 196.684 180.274C195.532 181.969 193.151 183.128 191.692 182.236C191.001 181.88 190.002 180.72 190.77 177.33C192.153 171.265 200.678 160.293 214.962 161.096C227.865 161.81 253.823 169.213 255.897 169.748L264.345 159.312C264.345 159.223 264.575 159.223 264.652 159.312C273.484 165.378 280.319 172.424 284.466 179.739C288.306 186.429 289.689 193.119 288.46 198.649C286.694 206.41 279.935 210.87 269.874 211.048C269.721 211.048 269.491 211.048 269.337 211.048H269.414ZM221.183 190.175C221.183 190.175 221.26 190.175 221.337 190.175C221.567 190.354 244.147 210.424 269.337 210.424C294.527 210.424 269.721 210.424 269.874 210.424C279.628 210.334 286.233 205.964 287.999 198.471C291.071 185.091 278.476 169.481 264.575 159.847L256.127 170.194C256.127 170.194 255.974 170.284 255.897 170.194C255.59 170.194 228.249 162.166 214.886 161.453C200.831 160.739 192.46 171.443 191.154 177.33C190.617 179.56 190.924 181.077 191.846 181.612C192.998 182.326 195.148 181.434 196.3 179.739C196.607 179.293 196.914 178.847 197.222 178.401C198.834 175.992 200.447 173.406 202.982 172.068C203.058 172.068 203.212 172.068 203.289 172.068C203.289 172.157 203.289 172.335 203.289 172.424C203.289 172.424 199.142 178.222 200.063 185.358C200.37 187.945 201.292 189.462 202.598 189.462C204.364 189.462 206.207 187.142 206.822 184.11C206.822 184.02 206.975 183.931 207.052 183.931C207.129 183.931 207.282 184.02 207.282 184.199C207.282 184.199 207.513 189.105 209.586 190.264C210.508 190.8 211.737 190.443 213.119 189.283H213.273C213.273 189.283 213.426 189.283 213.426 189.372C213.426 189.372 214.655 191.602 216.729 191.959C218.111 192.227 219.57 191.602 221.106 190.086C221.106 190.086 221.183 190.086 221.26 190.086L221.183 190.175Z" fill="#101720"/>
<path d="M202.983 172.959C202.983 172.959 202.906 172.959 202.829 172.959C202.675 172.781 202.752 172.602 202.829 172.424C202.829 172.424 202.906 172.335 202.983 172.246C205.056 169.48 207.13 169.034 208.435 169.124C208.589 169.124 208.666 169.302 208.666 169.391C208.666 169.57 208.589 169.659 208.435 169.659C206.592 169.57 204.826 170.551 203.29 172.692C203.213 172.781 203.136 172.959 202.983 172.959Z" fill="#101720"/>
<path d="M206.976 184.733C206.822 184.733 206.745 184.555 206.822 184.466C207.821 177.597 210.432 173.048 213.888 172.156C214.041 172.156 214.118 172.156 214.195 172.335C214.195 172.513 214.195 172.602 214.041 172.691C210.739 173.494 208.281 177.954 207.283 184.555C207.283 184.644 207.129 184.823 207.053 184.823L206.976 184.733Z" fill="#101720"/>
<path d="M213.197 189.997C213.12 189.997 212.967 189.997 212.967 189.818C211.968 183.663 215.501 177.33 218.419 175.725C218.496 175.725 218.65 175.725 218.727 175.814C218.803 175.903 218.727 176.081 218.65 176.171C215.885 177.776 212.429 183.753 213.427 189.729C213.427 189.907 213.427 189.997 213.274 190.086L213.197 189.997Z" fill="#101720"/>
<path d="M126.873 196.151L154.367 174.118L172.646 196.597L141.772 217.915" fill="#FF7E6E"/>
<path d="M141.772 218.183C141.695 218.183 141.619 218.183 141.542 218.094C141.542 218.005 141.542 217.826 141.619 217.737L172.262 196.508L154.291 174.475L126.95 196.418C126.873 196.418 126.719 196.418 126.643 196.418C126.643 196.329 126.643 196.151 126.643 196.062L154.137 174.029C154.214 174.029 154.367 174.029 154.444 174.029L172.799 196.508V196.686C172.799 196.686 172.799 196.864 172.723 196.864L141.849 218.272C141.849 218.272 141.772 218.272 141.695 218.272L141.772 218.183Z" fill="#101720"/>
<path d="M170.649 173.672C181.171 167.428 189.081 180.63 187.776 190.799C186.47 200.968 171.878 190.085 171.878 190.085L170.649 173.672Z" fill="#FF7E6E"/>
<path d="M183.398 195.437C178.637 195.437 172.109 190.621 171.725 190.353C171.725 190.353 171.648 190.264 171.648 190.175L170.419 173.762C170.419 173.673 170.419 173.583 170.573 173.494C174.566 171.086 178.713 171.353 182.093 174.208C186.317 177.776 188.851 184.733 188.006 190.888C187.776 192.851 186.931 194.278 185.702 194.902C185.011 195.259 184.243 195.437 183.398 195.437ZM172.032 189.907C173.03 190.621 181.401 196.508 185.472 194.367C186.624 193.743 187.315 192.583 187.545 190.71C188.313 184.733 185.856 177.954 181.785 174.565C178.56 171.889 174.72 171.621 170.88 173.762L172.032 189.907Z" fill="#101720"/>
<path d="M188.467 203.823L143.309 203.912L142.233 195.349L187.469 195.26L188.467 203.823Z" fill="#FBBF24"/>
<path d="M143.309 204.179C143.232 204.179 143.078 204.09 143.078 203.912L142.003 195.438V195.259C142.003 195.259 142.08 195.17 142.157 195.17H187.315C187.315 195.081 187.315 195.081 187.315 195.081C187.392 195.081 187.545 195.17 187.545 195.349L188.621 203.823V204.001C188.621 204.001 188.544 204.09 188.467 204.09H143.309C143.309 204.179 143.309 204.179 143.309 204.179ZM142.541 195.616L143.539 203.555H188.237C188.237 203.466 187.238 195.527 187.238 195.527H142.541V195.616Z" fill="#101720"/>
<path d="M213.427 191.424L150.758 191.691L142.233 195.349L187.469 195.259L213.427 191.424Z" fill="#101720"/>
<path d="M142.233 195.616C142.157 195.616 142.003 195.527 142.003 195.438C142.003 195.348 142.003 195.17 142.157 195.17L150.681 191.424C150.681 191.424 150.681 191.424 150.758 191.424L213.427 191.245C213.581 191.245 213.657 191.334 213.657 191.513C213.657 191.691 213.581 191.78 213.427 191.78L187.392 195.616H142.157C142.157 195.705 142.157 195.705 142.157 195.705L142.233 195.616ZM150.758 191.959L143.462 195.17H187.392C187.392 195.081 209.664 191.78 209.664 191.78L150.758 191.959Z" fill="#101720"/>
<path d="M171.571 158.954L126.413 159.043L142.234 195.348L187.469 195.258L171.571 158.954Z" fill="#FFFFFE"/>
<path d="M142.234 195.616C142.157 195.616 142.08 195.616 142.003 195.437L126.183 159.044C126.183 159.044 126.183 158.865 126.183 158.776C126.183 158.776 126.336 158.687 126.413 158.687H171.571C171.571 158.598 171.571 158.598 171.571 158.598C171.648 158.598 171.725 158.598 171.802 158.776L187.623 195.17C187.623 195.17 187.623 195.348 187.623 195.437C187.623 195.437 187.469 195.526 187.392 195.526H142.234C142.234 195.616 142.234 195.616 142.234 195.616ZM126.797 159.311L142.387 195.17H187.085C187.085 195.08 171.495 159.222 171.495 159.222H126.797V159.311Z" fill="#101720"/>
<path d="M188.467 203.823L214.502 199.987L213.427 191.424L187.469 195.259L188.467 203.823Z" fill="#1976D2"/>
<path d="M188.467 204.09C188.39 204.09 188.236 204.001 188.236 203.822L187.161 195.348V195.17C187.161 195.17 187.238 195.081 187.315 195.081L213.35 191.245C213.504 191.245 213.58 191.245 213.58 191.513L214.656 199.987V200.165C214.656 200.165 214.579 200.254 214.502 200.254L188.467 204.09ZM187.699 195.527L188.697 203.466L214.272 199.719L213.273 191.78L187.699 195.527Z" fill="#101720"/>
<path d="M166.656 213.189L163.43 237.63L160.435 260.197L102.221 332.895L85.4013 310.328L68.8125 288.028C68.8125 288.028 123.341 214.705 135.245 206.41C143.078 200.969 154.291 205.607 160.973 209.443C164.352 211.405 166.656 213.1 166.656 213.1V213.189Z" fill="#FBBF24"/>
<path d="M102.221 333.252C102.221 333.252 102.067 333.252 102.067 333.163L68.6592 288.384C68.6592 288.295 68.6592 288.117 68.6592 288.027C69.1968 287.314 123.418 214.527 135.168 206.32C138.624 203.912 146.611 201.057 161.05 209.353C164.275 211.137 166.502 212.832 166.733 213.01V213.189L160.512 260.197C160.512 260.197 160.512 260.286 160.512 260.375L102.298 333.073C102.298 333.073 102.221 333.073 102.144 333.073L102.221 333.252ZM69.12 288.206L102.221 332.627L160.205 260.197L166.349 213.456C165.811 213.099 163.738 211.583 160.819 209.888C146.534 201.771 138.778 204.536 135.322 206.855C123.878 214.794 72.0384 284.192 69.0432 288.206H69.12Z" fill="#101720"/>
<path d="M86.4762 311.397C87.705 312.022 89.8554 312.646 93.0042 312.111C95.9226 311.576 99.1482 310.148 102.451 307.829C108.364 303.637 128.409 287.848 136.473 261.267C141.388 245.122 150.988 217.202 160.742 210.155L163.123 237.807L160.127 260.196L102.143 332.627L86.3994 311.486L86.4762 311.397Z" fill="#1976D2"/>
<path d="M160.665 218.897L155.903 217.648C155.903 217.648 149.913 228.352 149.683 246.817C149.452 265.281 149.913 273.398 149.913 273.398L155.827 265.995L160.665 218.897Z" fill="#101720"/>
<path d="M149.913 273.666C149.913 273.666 149.913 273.666 149.836 273.666C149.759 273.666 149.683 273.577 149.683 273.398C149.683 273.398 149.222 265.103 149.452 246.817C149.683 228.531 155.673 217.559 155.673 217.47C155.673 217.381 155.827 217.291 155.903 217.381L160.665 218.63C160.742 218.63 160.819 218.808 160.819 218.897L155.98 265.995C155.98 265.995 155.98 266.084 155.98 266.173L150.067 273.577C150.067 273.577 149.99 273.577 149.913 273.577V273.666ZM155.98 218.005C155.289 219.432 150.067 229.958 149.913 246.906C149.759 262.337 149.99 270.544 150.067 272.774L155.596 265.906L160.358 219.165L155.98 218.005Z" fill="#101720"/>
<path d="M249.6 232.366C255.821 286.243 210.355 276.699 210.355 276.699L220.877 315.144L192.077 325.848L174.95 332.181C174.95 332.181 162.969 298.107 155.52 264.657C147.993 231.118 154.445 199.095 180.096 199.541C200.371 199.898 232.166 220.324 244.531 228.888C247.757 231.118 249.677 232.545 249.677 232.545L249.6 232.366Z" fill="#FBBF24"/>
<path d="M174.95 332.449C174.873 332.449 174.797 332.449 174.72 332.271C174.566 331.914 162.662 297.839 155.289 264.657C150.144 241.822 151.833 221.306 159.59 209.71C164.429 202.574 171.341 199.006 180.019 199.184C200.371 199.541 231.936 219.789 244.531 228.531C247.757 230.761 249.677 232.188 249.677 232.188C249.677 232.188 249.753 232.277 249.753 232.367C251.597 248.423 249.062 260.465 242.15 268.136C231.398 279.999 213.427 277.502 210.662 276.967L221.107 314.966C221.107 315.144 221.107 315.233 220.953 315.323L175.027 332.36L174.95 332.449ZM179.481 199.719C171.187 199.719 164.582 203.198 159.974 210.067C152.217 221.484 150.681 241.822 155.75 264.568C162.816 296.234 174.029 328.792 175.104 331.914L220.569 315.055L210.125 276.877C210.125 276.877 210.125 276.699 210.125 276.61C210.125 276.521 210.278 276.521 210.355 276.61C210.585 276.61 230.4 280.624 241.843 267.957C248.601 260.465 251.136 248.601 249.369 232.723C248.985 232.456 247.142 231.118 244.301 229.155C231.705 220.503 200.217 200.255 180.019 199.898C179.865 199.898 179.635 199.898 179.481 199.898V199.719Z" fill="#101720"/>
<path d="M194.227 324.689C199.219 321.121 211.199 311.13 208.665 297.572C205.977 283.211 203.135 253.507 202.367 245.301C203.98 249.315 208.511 257.789 218.495 256.094C218.649 256.094 218.879 256.094 219.033 256.005C230.707 253.686 243.071 244.498 244.684 229.334C247.295 231.118 248.985 232.367 249.369 232.634C253.055 264.925 238.156 274.291 225.023 276.521C217.19 277.859 210.431 276.521 210.355 276.521H209.971L220.569 315.055L194.227 324.778V324.689Z" fill="#1976D2"/>
<path d="M236.39 164.932L234.163 164.486L232.319 153.604L236.39 164.932Z" fill="#101720"/>
<path d="M236.39 165.199L234.163 164.664C234.086 164.664 234.009 164.575 234.009 164.486L232.166 153.692C232.166 153.514 232.166 153.425 232.32 153.425C232.396 153.425 232.55 153.425 232.627 153.603L236.697 164.932C236.697 165.021 236.697 165.11 236.697 165.199C236.697 165.199 236.62 165.288 236.544 165.288L236.39 165.199ZM234.393 164.218L236.006 164.575L233.011 156.19L234.393 164.218Z" fill="#101720"/>
<path d="M232.319 153.87C232.243 153.87 232.166 153.87 232.089 153.692L229.555 146.645C229.555 146.466 229.555 146.377 229.708 146.288C229.862 146.288 229.939 146.288 230.015 146.466L232.55 153.513C232.55 153.692 232.55 153.781 232.396 153.87C232.396 153.87 232.396 153.87 232.319 153.87Z" fill="#101720"/>
<path d="M255.974 170.016L265.881 172.603C265.881 172.603 260.889 169.124 260.889 167.964C260.889 166.805 265.267 160.025 265.267 160.025L264.499 159.49L255.897 170.016H255.974Z" fill="#101720"/>
<path d="M265.881 172.87L255.974 170.284C255.897 170.284 255.82 170.194 255.82 170.105C255.82 170.016 255.82 169.927 255.82 169.838L264.422 159.312C264.422 159.223 264.652 159.223 264.729 159.312L265.497 159.847C265.497 159.847 265.574 159.936 265.574 160.026V160.204C263.884 162.791 261.196 167.162 261.196 167.964C261.196 168.589 263.654 170.73 266.035 172.335C266.112 172.335 266.188 172.514 266.112 172.692C266.112 172.781 265.958 172.87 265.881 172.87ZM256.435 169.838L264.576 171.978C263.04 170.819 260.659 168.946 260.659 167.964C260.659 166.805 263.961 161.631 264.96 160.115L264.576 159.847L256.435 169.838Z" fill="#101720"/>
<path d="M221.184 190.71C221.184 190.71 221.03 190.71 221.03 190.621C221.03 190.531 221.03 190.353 221.03 190.264C222.797 188.837 223.181 186.963 223.181 186.963C223.181 186.785 223.334 186.696 223.488 186.785C223.641 186.785 223.718 186.963 223.641 187.142C223.641 187.142 223.257 189.283 221.337 190.799C221.337 190.799 221.261 190.799 221.184 190.799V190.71Z" fill="#101720"/>
<path d="M163.2 159.223C163.047 159.223 162.97 159.134 162.97 158.955V149.768C163.047 149.589 163.2 149.5 163.277 149.5C163.431 149.5 163.507 149.589 163.507 149.768V158.955C163.431 159.134 163.277 159.223 163.2 159.223Z" fill="#101720"/>
<path d="M125.184 185.002C125.184 185.002 130.252 189.908 130.636 190.621C131.02 191.335 129.868 193.832 129.868 193.832L134.323 190.264L125.721 184.288L125.184 185.091V185.002Z" fill="#101720"/>
<path d="M214.655 277.234L210.354 276.699L205.132 256.005L214.655 277.234Z" fill="#101720"/>
<path d="M214.655 277.502L210.355 276.967C210.278 276.967 210.201 276.967 210.124 276.788L204.979 256.094C204.979 256.005 204.979 255.827 205.132 255.737C205.209 255.737 205.363 255.737 205.439 255.826L214.963 277.056C214.963 277.056 214.963 277.234 214.963 277.324C214.963 277.324 214.886 277.413 214.809 277.413L214.655 277.502ZM210.508 276.432L214.195 276.878L205.977 258.502L210.431 276.342L210.508 276.432Z" fill="#101720"/>
<path d="M205.133 256.272C205.056 256.272 204.979 256.272 204.902 256.094L200.985 240.395C200.985 240.216 200.985 240.127 201.139 240.038C201.293 240.038 201.369 240.038 201.446 240.216L205.363 255.916C205.363 256.094 205.363 256.183 205.209 256.272H205.133Z" fill="#101720"/>
<path d="M205.133 256.272C204.979 256.272 204.902 256.183 204.902 256.005C204.902 255.826 204.979 255.737 205.133 255.737C205.286 255.737 205.363 255.826 205.363 256.005C205.363 256.183 205.286 256.272 205.133 256.272Z" fill="#101720"/>
<path d="M241.843 239.859C237.542 246.816 230.553 250.206 223.718 252.614C223.18 252.793 223.565 253.685 224.025 253.506C230.937 251.009 238.08 247.53 242.457 240.394C242.765 239.859 242.073 239.324 241.766 239.77L241.843 239.859Z" fill="#1976D2"/>
<path d="M171.034 207.123C167.194 208.461 163.968 211.583 162.202 215.686C161.971 216.221 162.739 216.578 162.97 216.043C164.659 212.118 167.731 209.175 171.341 208.015C171.879 207.837 171.495 206.945 171.034 207.123Z" fill="#1976D2"/>
<path d="M141.235 208.907C138.393 210.513 135.475 212.118 133.094 214.527C132.71 214.973 133.171 215.686 133.632 215.329C136.013 212.921 138.777 211.405 141.619 209.799C142.08 209.531 141.773 208.639 141.312 208.907H141.235Z" fill="#1976D2"/>
<path d="M140.774 251.455C139.162 255.112 137.472 258.77 135.782 262.427C134.246 265.727 132.557 268.938 130.176 271.525C129.792 271.971 130.33 272.685 130.714 272.328C133.094 269.741 134.861 266.53 136.397 263.14C138.163 259.394 139.853 255.558 141.542 251.812C141.773 251.277 141.005 250.92 140.774 251.455Z" fill="#1976D2"/>
<path d="M128.486 273.309C128.486 273.309 128.486 273.309 128.409 273.22C128.409 273.22 128.332 273.22 128.256 273.22C128.256 273.22 128.102 273.22 128.025 273.22C127.872 273.22 127.641 273.22 127.564 273.398C127.411 273.487 127.334 273.666 127.334 273.933C127.334 274.023 127.334 274.112 127.334 274.201C127.334 274.201 127.334 274.201 127.334 274.29C127.334 274.29 127.334 274.29 127.334 274.379C127.334 274.379 127.334 274.558 127.411 274.558C127.411 274.647 127.564 274.825 127.718 274.825C127.872 274.825 127.948 274.915 128.102 274.825C128.256 274.825 128.409 274.736 128.486 274.469C128.486 274.469 128.486 274.29 128.486 274.201C128.486 274.201 128.486 274.112 128.486 274.023C128.486 273.933 128.486 273.844 128.486 273.755C128.486 273.577 128.409 273.398 128.332 273.309H128.486Z" fill="#1976D2"/>
<path d="M276.787 119.797C272.871 116.764 265.191 114.712 248.909 129.876C244.071 134.336 238.464 140.402 231.936 148.341L241.459 156.28C243.533 157.974 242.919 161.632 240.461 162.345L204.749 172.336C202.983 172.782 201.293 171.444 201.139 169.392L197.76 126.844C197.53 123.989 200.371 122.116 202.368 123.722L208.819 129.074C238.387 92.8584 249.447 96.8724 254.208 101.065L276.787 119.797Z" fill="#FBBF24"/>
<path d="M204.058 172.603C203.366 172.603 202.752 172.335 202.214 171.889C201.446 171.265 200.986 170.284 200.909 169.302L197.53 126.754C197.453 125.327 197.99 123.989 199.066 123.275C200.141 122.562 201.446 122.651 202.445 123.454L208.742 128.627C221.645 112.839 232.397 103.116 240.691 99.548C246.298 97.2288 250.675 97.5856 254.285 100.797L276.71 119.35C276.71 119.35 276.787 119.35 276.864 119.44C276.864 119.44 276.941 119.529 276.941 119.618C276.941 119.707 276.941 119.796 276.787 119.886C276.71 119.886 276.634 119.886 276.557 119.886H276.403C270.259 115.158 261.274 118.458 248.909 129.965C243.84 134.693 238.234 140.758 232.166 148.162L241.459 155.922C242.458 156.725 242.995 158.152 242.688 159.58C242.458 161.007 241.536 162.077 240.307 162.434L204.595 172.424C204.365 172.424 204.134 172.514 203.827 172.514L204.058 172.603ZM200.678 123.364C200.218 123.364 199.757 123.543 199.296 123.81C198.374 124.435 197.837 125.594 197.99 126.843L201.37 169.392C201.37 170.284 201.83 171.086 202.522 171.622C203.136 172.157 203.981 172.335 204.749 172.157L240.461 162.166C241.536 161.899 242.304 160.918 242.458 159.758C242.688 158.509 242.227 157.35 241.382 156.636L231.859 148.697C231.859 148.697 231.782 148.608 231.782 148.519V148.34C237.926 140.848 243.61 134.604 248.755 129.876C259.738 119.707 268.109 115.872 274.253 118.28L253.978 101.51C250.522 98.4776 246.221 98.0316 240.768 100.351C232.474 103.83 221.722 113.642 208.819 129.43C208.742 129.519 208.589 129.519 208.512 129.43L202.061 124.078C201.6 123.721 201.062 123.454 200.525 123.454L200.678 123.364Z" fill="#101720"/>
</svg>
