<svg width="370" height="278" viewBox="0 0 370 278" fill="none" xmlns="http://www.w3.org/2000/svg">
<path d="M342.916 60.2363H143.338V183.31H342.916V60.2363Z" fill="white"/>
<path d="M342.916 183.738H143.338C143.042 183.738 142.82 183.554 142.82 183.309V60.236C142.82 59.9912 143.042 59.8076 143.338 59.8076H342.916C343.212 59.8076 343.434 59.9912 343.434 60.236V183.309C343.434 183.554 343.138 183.738 342.916 183.738ZM143.856 182.881H342.398V60.6644H143.856V182.881Z" fill="#231F20"/>
<path d="M235.986 131.473H171.976C171.68 131.473 171.458 131.289 171.458 131.045C171.458 130.8 171.68 130.616 171.976 130.616H235.986C236.282 130.616 236.504 130.8 236.504 131.045C236.504 131.289 236.282 131.473 235.986 131.473Z" fill="#D1D3D4"/>
<path d="M235.986 139H171.976C171.68 139 171.458 138.817 171.458 138.572C171.458 138.327 171.68 138.144 171.976 138.144H235.986C236.282 138.144 236.504 138.327 236.504 138.572C236.504 138.817 236.282 139 235.986 139Z" fill="#D1D3D4"/>
<path d="M235.986 146.467H171.976C171.68 146.467 171.458 146.284 171.458 146.039C171.458 145.794 171.68 145.61 171.976 145.61H235.986C236.282 145.61 236.504 145.794 236.504 146.039C236.504 146.284 236.282 146.467 235.986 146.467Z" fill="#D1D3D4"/>
<path d="M331.076 176.455H155.104C154.808 176.455 154.586 176.272 154.586 176.027V67.5192C154.586 67.2744 154.808 67.0908 155.104 67.0908H331.076C331.372 67.0908 331.594 67.2744 331.594 67.5192V176.027C331.594 176.272 331.372 176.455 331.076 176.455ZM155.622 175.598H330.558V67.9476H155.622V175.598Z" fill="#D1D3D4"/>
<path d="M319.606 139.001H254.708C254.412 139.001 254.19 138.817 254.19 138.572C254.19 138.45 254.264 138.389 254.338 138.327C255.004 136.063 254.634 102.219 254.264 79.759C254.264 79.5754 254.412 79.3919 254.56 79.3307C254.782 79.2695 255.004 79.3306 255.152 79.453L320.05 138.327C320.198 138.45 320.198 138.633 320.124 138.817C319.976 138.878 319.754 139.001 319.606 139.001ZM255.3 138.144H318.422L255.226 80.8607C255.596 101.057 256.04 132.881 255.3 138.144Z" fill="#D1D3D4"/>
<path d="M305.916 142.917C305.62 142.917 305.398 142.734 305.398 142.489C305.398 142.367 304.954 130.922 316.868 128.719C317.164 128.658 317.46 128.841 317.46 129.025C317.534 129.27 317.312 129.515 317.09 129.515C305.99 131.534 306.434 142.305 306.434 142.428C306.434 142.734 306.286 142.917 305.916 142.917Z" fill="#D1D3D4"/>
<path d="M265.29 139C264.994 139 264.772 138.816 264.772 138.572V132.084H254.708C254.412 132.084 254.19 131.901 254.19 131.656C254.19 131.411 254.412 131.228 254.708 131.228H265.364C265.66 131.228 265.882 131.411 265.882 131.656V138.51C265.808 138.816 265.586 139 265.29 139Z" fill="#D1D3D4"/>
<path d="M245.828 104.851V104.3C245.828 104.055 245.828 103.871 245.902 103.627C245.976 103.259 246.198 102.892 246.494 102.586C246.642 102.403 246.864 102.219 247.086 102.097L247.9 101.423C248.122 101.24 248.344 101.056 248.492 100.873C248.862 100.322 248.788 99.5873 248.27 99.0977C247.974 98.7917 247.456 98.6693 247.012 98.7305C246.79 98.7305 246.494 98.7917 246.272 98.8529C246.05 98.9141 245.828 99.0365 245.68 99.2201C245.532 99.3425 245.384 99.5261 245.31 99.7097C245.236 99.8933 245.162 100.138 245.162 100.322L242.942 100.138C243.016 99.7097 243.164 99.2813 243.386 98.8529C243.608 98.4857 243.904 98.1797 244.274 97.8737C244.644 97.6289 245.088 97.3841 245.532 97.2617C246.494 97.0169 247.604 97.0169 248.566 97.2617C249.01 97.3841 249.454 97.5677 249.824 97.8125C250.194 98.0573 250.49 98.3633 250.638 98.7305C250.86 99.0977 250.934 99.5261 250.934 99.9545C250.934 100.261 250.86 100.505 250.786 100.811C250.712 101.056 250.564 101.301 250.416 101.485C250.268 101.668 250.046 101.913 249.824 102.035C249.602 102.219 249.38 102.403 249.084 102.647C248.788 102.892 248.64 102.953 248.492 103.076C248.344 103.198 248.196 103.321 248.122 103.443C248.048 103.565 247.974 103.688 247.974 103.871C247.9 104.055 247.9 104.239 247.9 104.422V104.789L245.828 104.851ZM245.458 106.931C245.458 106.625 245.606 106.319 245.902 106.075C246.198 105.83 246.568 105.707 246.938 105.707C247.308 105.707 247.678 105.83 247.974 106.013C248.27 106.197 248.418 106.503 248.418 106.809C248.418 107.115 248.27 107.421 247.974 107.666C247.678 107.911 247.308 108.033 246.938 108.033C246.716 108.033 246.568 108.033 246.346 107.972C246.198 107.911 246.05 107.849 245.902 107.727C245.754 107.605 245.68 107.482 245.606 107.36C245.458 107.237 245.458 107.115 245.458 106.931Z" fill="#D1D3D4"/>
<path d="M304.584 102.77C304.436 102.587 304.214 102.403 303.918 102.342C303.622 102.219 303.326 102.158 303.03 102.158C302.734 102.158 302.438 102.219 302.142 102.342C301.92 102.464 301.698 102.587 301.476 102.831C301.328 103.015 301.18 103.199 301.106 103.443C301.032 103.688 300.958 103.933 300.958 104.178C300.958 104.423 301.032 104.667 301.106 104.912C301.18 105.157 301.328 105.341 301.476 105.524C301.624 105.708 301.846 105.891 302.142 106.014C302.438 106.136 302.734 106.197 303.03 106.197C303.326 106.197 303.622 106.136 303.918 106.075C304.214 106.014 304.436 105.83 304.584 105.647L305.768 106.626C305.472 106.932 305.028 107.115 304.584 107.238C304.066 107.421 303.548 107.483 303.03 107.483C302.512 107.483 301.994 107.421 301.476 107.238C301.032 107.115 300.588 106.871 300.144 106.565C299.774 106.259 299.478 105.891 299.256 105.524C299.034 105.096 298.96 104.606 298.96 104.178C298.96 103.688 299.034 103.26 299.256 102.831C299.626 102.036 300.44 101.424 301.402 101.118C301.92 100.934 302.438 100.873 302.956 100.873C303.474 100.873 304.066 100.934 304.584 101.118C305.028 101.24 305.472 101.485 305.842 101.852L304.584 102.77Z" fill="#D1D3D4"/>
<path d="M198.764 104.484H195.286V103.566L198.542 99.5264H200.096V103.566H201.132V104.484H200.096V105.769H198.838V104.484H198.764ZM198.764 100.75L196.618 103.566H198.764V100.75Z" fill="#D1D3D4"/>
<path d="M207.052 100.444H203.944L203.87 101.79C204.018 101.729 204.166 101.729 204.314 101.729H204.758C205.128 101.729 205.424 101.79 205.794 101.852C206.09 101.913 206.386 102.096 206.608 102.219C206.83 102.402 207.052 102.586 207.2 102.831C207.348 103.076 207.422 103.382 207.422 103.688C207.422 103.994 207.348 104.3 207.2 104.606C207.052 104.85 206.83 105.095 206.608 105.279C206.386 105.462 206.016 105.646 205.72 105.707C205.35 105.83 204.98 105.83 204.61 105.83C204.018 105.83 203.5 105.707 202.982 105.462C202.538 105.218 202.242 104.85 202.02 104.483L203.204 104.116C203.426 104.606 204.018 104.973 204.61 104.973C204.832 104.973 204.98 104.973 205.128 104.912C205.498 104.789 205.72 104.606 205.868 104.3C205.942 104.116 206.016 103.994 205.942 103.81C205.942 103.626 205.868 103.382 205.794 103.198C205.72 103.076 205.572 102.892 205.424 102.831C205.276 102.708 205.054 102.647 204.906 102.647C204.684 102.586 204.462 102.586 204.314 102.586C204.166 102.586 204.018 102.586 203.87 102.586C203.722 102.586 203.574 102.647 203.426 102.647C203.278 102.647 203.13 102.708 202.982 102.77C202.834 102.831 202.686 102.831 202.612 102.892L202.76 99.4648H207.126L207.052 100.444Z" fill="#D1D3D4"/>
<path d="M208.606 101.057C208.606 100.812 208.68 100.628 208.754 100.383C208.976 100.016 209.346 99.6491 209.79 99.5267C210.308 99.3431 210.826 99.3431 211.344 99.5267C211.566 99.5879 211.788 99.7103 212.01 99.8939C212.158 100.016 212.306 100.2 212.454 100.445C212.676 100.873 212.676 101.302 212.454 101.73C212.38 101.914 212.232 102.097 212.01 102.281C211.862 102.403 211.64 102.526 211.344 102.648C210.826 102.832 210.308 102.832 209.79 102.648C209.346 102.464 208.902 102.158 208.754 101.791C208.606 101.485 208.606 101.302 208.606 101.057ZM211.566 101.057C211.566 100.873 211.492 100.628 211.27 100.506C211.122 100.322 210.826 100.261 210.604 100.261C210.086 100.261 209.642 100.628 209.642 101.057C209.642 101.24 209.716 101.485 209.938 101.607C210.086 101.73 210.382 101.852 210.604 101.852C211.122 101.852 211.566 101.485 211.566 101.057ZM214.896 99.2207L215.784 99.5879L211.344 106.075L210.456 105.708L214.896 99.2207ZM213.712 104.239C213.712 104.056 213.786 103.811 213.86 103.627C214.082 103.26 214.452 102.893 214.896 102.77C215.414 102.587 215.932 102.587 216.45 102.77C216.672 102.832 216.894 102.954 217.116 103.137C217.264 103.26 217.412 103.444 217.56 103.688C217.782 104.117 217.782 104.545 217.56 104.973C217.338 105.341 216.968 105.708 216.524 105.83C216.006 106.014 215.488 106.014 214.97 105.83C214.748 105.769 214.526 105.647 214.304 105.463C214.156 105.341 214.008 105.157 213.86 104.912C213.786 104.729 213.712 104.484 213.712 104.239ZM216.672 104.239C216.672 103.811 216.228 103.505 215.71 103.505C215.192 103.505 214.822 103.872 214.822 104.3C214.822 104.729 215.266 105.035 215.784 105.035C216.006 105.035 216.228 104.974 216.45 104.79C216.598 104.668 216.672 104.484 216.672 104.239Z" fill="#D1D3D4"/>
<path d="M282.902 141.938V146.283H282.976C283.05 146.161 283.198 146.039 283.346 145.977C283.494 145.855 283.716 145.733 283.864 145.671C284.086 145.549 284.382 145.488 284.604 145.427C284.9 145.365 285.196 145.304 285.492 145.304C286.01 145.304 286.528 145.365 286.972 145.549C287.416 145.733 287.786 145.977 288.082 146.222C288.378 146.528 288.674 146.895 288.822 147.263C288.97 147.691 289.118 148.119 289.118 148.548C289.118 148.976 289.044 149.405 288.822 149.833C288.674 150.2 288.378 150.567 288.082 150.873C287.786 151.179 287.342 151.424 286.972 151.608C286.454 151.791 285.936 151.853 285.418 151.853C284.9 151.853 284.382 151.73 283.938 151.547C283.494 151.363 283.124 151.057 282.828 150.69V151.608H281.052V141.877H282.902V141.938ZM287.194 148.548C287.194 148.303 287.12 148.058 287.046 147.813C286.972 147.569 286.824 147.385 286.676 147.201C286.528 147.018 286.232 146.834 286.01 146.712C285.714 146.589 285.418 146.528 285.048 146.528C284.752 146.528 284.382 146.589 284.16 146.712C283.864 146.834 283.642 147.018 283.494 147.201C283.272 147.385 283.124 147.63 283.05 147.813C282.976 148.058 282.902 148.303 282.902 148.548C282.902 148.793 282.976 149.037 283.05 149.282C283.124 149.527 283.272 149.711 283.494 149.894C283.716 150.078 283.938 150.261 284.16 150.384C284.456 150.506 284.752 150.567 285.048 150.567C285.344 150.567 285.714 150.506 286.01 150.384C286.306 150.261 286.528 150.139 286.676 149.894C286.824 149.711 286.972 149.466 287.046 149.282C287.194 149.037 287.194 148.793 287.194 148.548Z" fill="#D1D3D4"/>
<path d="M282.902 141.938V146.283H282.976C283.05 146.161 283.198 146.039 283.346 145.977C283.494 145.855 283.716 145.733 283.864 145.671C284.086 145.549 284.382 145.488 284.604 145.427C284.9 145.365 285.196 145.304 285.492 145.304C286.01 145.304 286.528 145.365 286.972 145.549C287.416 145.733 287.786 145.977 288.082 146.222C288.378 146.528 288.674 146.895 288.822 147.263C288.97 147.691 289.118 148.119 289.118 148.548C289.118 148.976 289.044 149.405 288.822 149.833C288.674 150.2 288.378 150.567 288.082 150.873C287.786 151.179 287.342 151.424 286.972 151.608C286.454 151.791 285.936 151.853 285.418 151.853C284.9 151.853 284.382 151.73 283.938 151.547C283.494 151.363 283.124 151.057 282.828 150.69V151.608H281.052V141.877H282.902V141.938ZM287.194 148.548C287.194 148.303 287.12 148.058 287.046 147.813C286.972 147.569 286.824 147.385 286.676 147.201C286.528 147.018 286.232 146.834 286.01 146.712C285.714 146.589 285.418 146.528 285.048 146.528C284.752 146.528 284.382 146.589 284.16 146.712C283.864 146.834 283.642 147.018 283.494 147.201C283.272 147.385 283.124 147.63 283.05 147.813C282.976 148.058 282.902 148.303 282.902 148.548C282.902 148.793 282.976 149.037 283.05 149.282C283.124 149.527 283.272 149.711 283.494 149.894C283.716 150.078 283.938 150.261 284.16 150.384C284.456 150.506 284.752 150.567 285.048 150.567C285.344 150.567 285.714 150.506 286.01 150.384C286.306 150.261 286.528 150.139 286.676 149.894C286.824 149.711 286.972 149.466 287.046 149.282C287.194 149.037 287.194 148.793 287.194 148.548Z" fill="#D1D3D4"/>
<path d="M222.074 113.725H168.054C167.758 113.725 167.536 113.541 167.536 113.296C167.536 113.174 167.61 113.051 167.758 112.99L221.778 77.9837C222 77.8613 222.37 77.8613 222.518 78.0449C222.666 78.2285 222.666 78.4733 222.444 78.6569L169.608 112.868H222.148C222.444 112.868 222.666 113.051 222.666 113.296C222.592 113.541 222.37 113.725 222.074 113.725Z" fill="#D1D3D4"/>
<path d="M188.034 117.152C187.96 117.152 187.812 117.152 187.738 117.091C187.516 116.968 187.442 116.662 187.59 116.479C187.664 116.417 194.25 107.299 180.486 95.1198C180.264 94.9362 180.264 94.6914 180.486 94.5078C180.708 94.3242 181.004 94.3242 181.226 94.5078C188.7 101.117 190.254 106.87 190.254 110.481C190.328 112.745 189.736 115.01 188.404 116.968C188.33 117.091 188.182 117.152 188.034 117.152Z" fill="#D1D3D4"/>
<path d="M323.528 176.454H294.002C293.706 176.454 293.484 176.271 293.484 176.026V165.867C293.484 165.622 293.706 165.438 294.002 165.438H323.528C323.824 165.438 324.046 165.622 324.046 165.867V176.026C324.046 176.271 323.824 176.454 323.528 176.454ZM294.446 175.598H322.936V166.295H294.446V175.598Z" fill="#D1D3D4"/>
<path d="M323.454 170.947H293.928V176.027H323.454V170.947Z" fill="#D1D3D4"/>
<path d="M323.528 176.455H294.002C293.706 176.455 293.484 176.271 293.484 176.027V170.947C293.484 170.702 293.706 170.519 294.002 170.519H323.528C323.824 170.519 324.046 170.702 324.046 170.947V176.027C324.046 176.271 323.824 176.455 323.528 176.455ZM294.446 175.598H322.936V171.375H294.446V175.598Z" fill="#D1D3D4"/>
<path d="M211.788 132.574C209.05 132.88 198.616 139.184 195.878 139.612C195.878 139.612 191.216 143.468 185.666 147.507C188.626 151.73 191.068 156.198 192.992 160.849C197.802 156.442 202.094 152.036 203.352 150.751C204.388 149.527 205.572 148.425 206.756 147.324C208.68 145.855 211.196 144.814 213.268 143.59C215.562 142.244 217.708 140.653 219.04 138.633C219.632 137.838 219.854 136.92 219.78 136.002C219.41 133.737 214.23 132.33 211.788 132.574Z" fill="white"/>
<path d="M193.066 161.277H192.992C192.844 161.277 192.622 161.155 192.622 160.971C190.698 156.381 188.256 151.914 185.296 147.691C185.148 147.507 185.222 147.263 185.37 147.14C190.846 143.101 195.508 139.245 195.582 139.245C195.656 139.184 195.73 139.123 195.878 139.123C197.136 138.939 200.318 137.348 203.352 135.757C206.904 133.921 210.308 132.207 211.788 132.085C214.378 131.84 219.854 133.248 220.372 135.879C220.52 136.92 220.224 137.899 219.632 138.756C218.152 141.081 215.562 142.795 213.712 143.897C212.972 144.325 212.158 144.753 211.344 145.182C209.864 145.916 208.532 146.712 207.274 147.63C206.46 148.303 205.646 149.099 204.98 149.894C204.61 150.261 204.24 150.69 203.87 151.057L203.056 151.914C201.28 153.689 197.58 157.483 193.584 161.155C193.288 161.277 193.214 161.277 193.066 161.277ZM186.406 147.63C189.144 151.608 191.438 155.769 193.288 160.053C197.062 156.565 200.466 153.077 202.168 151.363L202.982 150.506C203.352 150.139 203.722 149.772 204.018 149.405C204.758 148.548 205.572 147.813 206.46 147.079C207.792 146.1 209.198 145.243 210.752 144.57C211.492 144.141 212.306 143.774 213.046 143.346C214.822 142.305 217.264 140.714 218.67 138.511C219.188 137.777 219.41 136.981 219.336 136.124C218.966 134.105 214.082 132.819 211.936 133.003C210.678 133.125 207.052 134.961 203.87 136.614C200.688 138.266 197.654 139.735 196.174 140.041C195.434 140.592 191.29 144.019 186.406 147.63Z" fill="#231F20"/>
<path d="M200.614 146.834L239.39 104.3L240.204 104.667L202.76 147.752L200.614 146.834Z" fill="#231F20"/>
<path d="M202.76 148.181C202.686 148.181 202.612 148.181 202.538 148.12L200.392 147.14C200.244 147.079 200.17 146.957 200.096 146.834C200.096 146.712 200.096 146.59 200.17 146.467L238.946 103.933C239.094 103.75 239.39 103.688 239.612 103.811L240.426 104.178C240.648 104.3 240.796 104.545 240.648 104.79L203.204 147.936C203.056 148.12 202.908 148.181 202.76 148.181ZM201.354 146.651L202.538 147.202L236.43 108.156L201.354 146.651Z" fill="#231F20"/>
<path d="M195.064 140.286C197.95 137.715 200.91 133.799 202.39 132.269C202.686 131.963 202.982 131.657 203.426 131.412C203.944 131.228 204.462 131.106 205.054 131.106C208.532 130.922 211.936 131.167 215.34 131.84C216.376 131.963 217.412 132.391 218.152 133.003C218.374 133.187 218.522 133.431 218.522 133.676C218.522 134.166 218.004 134.472 217.486 134.717C215.858 135.329 214.082 135.696 212.306 135.757C209.79 136.002 208.902 135.512 206.312 135.512C206.608 135.512 207.274 137.715 206.682 139.123C206.09 140.531 204.832 141.571 203.574 142.673" fill="white"/>
<path d="M203.5 143.101C203.352 143.101 203.278 143.04 203.13 142.979C202.908 142.795 202.908 142.55 203.13 142.367L203.204 142.306C204.462 141.387 205.424 140.225 206.09 139.001C206.46 137.96 206.386 136.859 205.942 135.879C205.794 135.818 205.72 135.635 205.72 135.512C205.72 135.268 205.942 135.084 206.238 135.084C207.126 135.084 208.014 135.145 208.902 135.267C210.012 135.39 211.122 135.451 212.232 135.329C213.934 135.268 215.636 134.9 217.19 134.349C217.412 134.227 217.93 133.982 217.93 133.737C217.93 133.554 217.782 133.432 217.708 133.309C216.968 132.758 216.08 132.391 215.118 132.33C211.788 131.657 208.384 131.412 204.98 131.595C204.462 131.595 204.018 131.657 203.574 131.84C203.204 132.024 202.982 132.269 202.686 132.575C202.242 133.064 201.65 133.738 200.984 134.594C199.282 136.736 197.432 138.756 195.36 140.653C195.212 140.837 194.916 140.898 194.62 140.775C194.324 140.653 194.324 140.408 194.472 140.163C194.472 140.102 194.546 140.102 194.62 140.041C196.618 138.144 198.468 136.185 200.096 134.043C200.762 133.187 201.428 132.514 201.872 132.024C202.168 131.657 202.538 131.351 202.982 131.106C203.574 130.861 204.166 130.739 204.832 130.739C208.31 130.555 211.862 130.8 215.266 131.473C216.45 131.596 217.56 132.085 218.374 132.758C218.67 133.003 218.892 133.37 218.892 133.737C218.892 134.105 218.67 134.656 217.56 135.145C215.858 135.818 214.082 136.186 212.158 136.247C210.974 136.369 209.79 136.308 208.606 136.185C208.088 136.124 207.57 136.063 206.904 136.063C207.274 137.165 207.274 138.328 206.904 139.368C206.164 140.714 205.128 142 203.796 142.979L203.722 143.04C203.796 143.04 203.648 143.101 203.5 143.101Z" fill="#231F20"/>
<path d="M140.6 123.578C140.6 123.578 155.326 164.827 159.84 162.869C164.354 160.91 191.068 141.571 191.068 141.571L202.76 154.423C202.76 154.423 167.092 201.363 155.696 196.345C144.3 191.327 132.46 164.827 132.46 164.827L140.6 123.578Z" fill="#FBBF24"/>
<path d="M67.044 158.951L49.95 155.341C50.616 154.3 60.976 128.535 70.522 123.517C78.662 117.886 95.1639 117.335 113.738 116.723C119.658 116.417 125.652 116.907 131.424 118.131C153.106 123.088 143.708 159.686 143.708 159.686C143.708 159.686 146.076 177.189 149.776 211.828C149.776 211.828 119.288 216.724 66.0079 214.215C66.0819 214.337 67.562 163.541 67.044 158.951Z" fill="#FBBF24"/>
<path d="M123.432 170.273L117.956 179.086L106.782 171.681L109.372 137.837L106.782 135.206L110.112 131.044L114.626 134.9L111.592 137.776L123.432 170.273Z" fill="white"/>
<path d="M115.884 113.969L118.696 125.475C118.696 125.475 114.33 133.125 105.006 131.84C95.6819 130.555 93.9059 124.802 93.9059 124.802L90.0579 102.77C90.0579 102.77 82.1399 94.5078 86.1359 85.5726C90.1319 76.6374 115.292 76.2702 117.512 88.6326C117.512 88.6326 122.84 101.607 122.248 107.543C121.656 113.48 115.884 113.969 115.884 113.969Z" fill="white"/>
<path d="M107.004 132.391C106.264 132.391 105.598 132.33 104.858 132.268C95.312 130.983 93.388 125.169 93.314 124.924L89.54 102.954C88.652 101.974 81.77 93.9571 85.618 85.4503C87.394 81.5335 94.128 77.9839 103.6 78.7795C109.816 79.3303 116.92 82.1455 118.03 88.5715C118.252 89.0611 123.358 101.607 122.766 107.544C122.248 112.623 118.03 113.97 116.476 114.276L119.14 125.414C119.14 125.475 119.14 125.598 119.066 125.659C119.066 125.72 115.144 132.391 107.004 132.391ZM101.158 79.5139C95.09 79.5139 88.43 81.5335 86.506 85.6951C82.658 94.2631 90.28 102.403 90.354 102.464C90.428 102.525 90.428 102.586 90.428 102.648L94.276 124.68C94.35 124.863 96.126 130.126 104.932 131.35C113.22 132.513 117.364 126.332 117.956 125.353L115.218 113.97C115.218 113.847 115.218 113.725 115.292 113.602C115.366 113.48 115.514 113.419 115.662 113.419C115.884 113.419 120.99 112.868 121.582 107.36C122.174 101.607 116.92 88.7551 116.846 88.6327C115.884 83.4919 110.852 80.1259 103.304 79.5139C102.712 79.5139 101.898 79.5139 101.158 79.5139Z" fill="#231F20"/>
<path d="M122.396 105.707C122.396 105.707 121.434 103.382 111.074 104.85C100.714 106.319 101.084 115.744 94.9419 111.582C88.7999 107.421 92.0559 100.016 91.4639 93.1613C90.6499 84.3485 88.3559 84.6545 86.0619 85.5725C78.0699 88.8161 80.5859 102.647 91.5379 115.01C95.3859 119.355 119.51 127.494 122.692 115.622C124.468 109.012 122.396 105.707 122.396 105.707Z" fill="#D1D3D4"/>
<path d="M112.036 122.231C103.674 122.231 93.61 118.009 91.168 115.255C83.472 106.503 79.476 96.4662 81.4 90.2238C82.14 87.837 83.694 86.1234 85.914 85.2054C86.876 84.8382 87.986 84.471 89.022 84.9606C90.65 85.695 91.538 88.2654 91.982 93.1614C92.13 95.2422 92.056 97.323 91.834 99.3426C91.464 103.994 91.168 108.461 95.312 111.215C96.348 111.95 97.236 112.256 97.976 112.195C99.086 112.072 100.122 111.093 101.306 109.869C103.23 107.911 105.894 105.218 111.074 104.422C121.212 102.953 122.766 105.095 122.914 105.524C123.062 105.952 124.986 109.257 123.21 115.683C122.47 118.927 119.362 121.375 115.514 121.925C114.33 122.109 113.146 122.231 112.036 122.231ZM87.838 85.5726C87.32 85.6338 86.802 85.7562 86.284 85.9398C84.286 86.7354 82.954 88.2654 82.288 90.4074C80.512 96.405 84.36 106.197 91.908 114.765C94.572 117.764 107.004 122.537 115.218 121.13C118.992 120.457 121.286 118.621 122.174 115.561C123.876 109.196 121.952 105.952 121.878 105.952V105.891C121.804 105.83 120.546 103.994 111.148 105.34C106.338 106.013 103.97 108.461 102.046 110.481C100.714 111.827 99.604 112.99 98.05 113.113C97.014 113.174 95.904 112.868 94.646 111.95C90.132 108.89 90.428 104.239 90.798 99.3426C91.02 97.323 91.094 95.2422 90.946 93.2226C90.502 88.8162 89.688 86.307 88.504 85.695C88.282 85.5726 88.06 85.5726 87.838 85.5726Z" fill="#231F20"/>
<path d="M92.9439 101.913C92.2779 100.444 90.8719 99.2811 89.0959 98.6079C87.6899 98.0571 86.1359 97.9347 84.6559 98.3631C82.2879 99.0975 81.6959 100.933 82.1399 102.769C82.2879 103.565 82.6579 104.299 83.0279 105.034C84.8779 107.971 89.2439 109.134 92.7959 107.604C92.7959 107.604 92.8699 107.604 92.8699 107.543" fill="white"/>
<path d="M89.54 108.706C86.654 108.706 83.99 107.36 82.658 105.218C82.214 104.484 81.918 103.688 81.696 102.831C81.104 100.506 82.214 98.6697 84.508 97.9353C86.062 97.5069 87.838 97.6293 89.318 98.2413C91.242 98.9145 92.722 100.2 93.462 101.791C93.536 102.036 93.388 102.28 93.166 102.342C92.87 102.403 92.574 102.28 92.5 102.097C91.834 100.75 90.576 99.6489 88.948 99.0981C87.69 98.5473 86.284 98.4861 84.952 98.8533C83.102 99.4041 82.288 100.873 82.732 102.77C82.88 103.504 83.176 104.239 83.62 104.912C85.322 107.666 89.392 108.706 92.722 107.299C92.722 107.299 92.796 107.299 92.796 107.238C93.018 107.115 93.388 107.176 93.536 107.36C93.684 107.544 93.61 107.85 93.388 107.972C93.388 107.972 93.314 107.972 93.314 108.033C92.056 108.4 90.798 108.706 89.54 108.706Z" fill="#231F20"/>
<path d="M117.216 102.342C116.92 102.342 116.698 102.342 116.402 102.281C111.592 101.913 108.04 98.4249 108.41 94.4469C108.854 90.4689 113.072 87.5313 117.882 87.8373C122.692 88.2045 126.244 91.6929 125.874 95.6709C125.504 99.4653 121.73 102.281 117.216 102.342ZM109.52 94.5081C109.15 97.9965 112.258 101.118 116.55 101.424C120.842 101.73 124.542 99.1593 124.912 95.6097C125.282 92.1213 122.174 89.0001 117.882 88.6941C113.664 88.3881 109.89 90.9585 109.52 94.5081Z" fill="#231F20"/>
<path d="M99.9 102.953C99.604 102.953 99.382 102.953 99.086 102.892C94.276 102.525 90.724 99.0362 91.094 95.0582C91.538 91.0802 95.756 88.1426 100.566 88.4486C105.376 88.8158 108.928 92.3042 108.558 96.2822C108.188 100.077 104.414 102.953 99.9 102.953ZM99.9 89.3055C95.682 89.4891 92.352 92.4266 92.574 95.9762C92.796 99.5258 96.348 102.219 100.64 102.035C104.858 101.851 108.188 98.9138 107.966 95.3642C107.818 92.0594 104.636 89.4279 100.64 89.3055C100.344 89.3667 100.122 89.3055 99.9 89.3055Z" fill="#231F20"/>
<path d="M146.298 183.738C146.002 183.738 145.78 183.554 145.78 183.371L140.082 131.106C140.082 130.861 140.23 130.678 140.526 130.616C140.822 130.555 141.044 130.739 141.118 130.984L146.816 183.248C146.816 183.493 146.668 183.738 146.298 183.738C146.372 183.738 146.372 183.738 146.298 183.738Z" fill="#231F20"/>
<path d="M109.224 104.484C108.78 104.484 108.336 104.484 107.892 104.423C107.596 104.423 107.374 104.178 107.374 103.994C107.374 103.749 107.67 103.566 107.892 103.566H107.966C108.706 103.627 111.074 103.749 111.74 103.015C112.184 102.525 110.482 100.016 108.188 97.507C108.04 97.3234 108.04 97.0786 108.262 96.895C108.484 96.7114 108.78 96.7726 109.002 96.9562C110.482 98.4862 113.664 102.219 112.554 103.443C111.962 104.3 110.408 104.484 109.224 104.484Z" fill="#231F20"/>
<path d="M101.934 98.1754C102.588 98.1629 103.1 97.5227 103.079 96.7455C103.057 95.9683 102.509 95.3485 101.855 95.3611C101.202 95.3736 100.689 96.0138 100.711 96.791C100.733 97.5681 101.281 98.188 101.934 98.1754Z" fill="#231F20"/>
<path d="M113.611 97.1305C114.231 96.9592 114.492 96.2225 114.194 95.4852C113.897 94.7478 113.152 94.289 112.532 94.4603C111.912 94.6316 111.651 95.3682 111.948 96.1056C112.246 96.843 112.99 97.3018 113.611 97.1305Z" fill="#231F20"/>
<path d="M112.406 113.541C110.038 113.48 107.744 112.807 105.82 111.522C105.598 111.338 105.598 111.093 105.82 110.91C106.042 110.726 106.338 110.726 106.56 110.849C106.782 111.032 112.628 115.255 119.066 110.114C119.288 109.931 119.584 109.931 119.806 110.114C120.028 110.298 120.028 110.543 119.806 110.726C117.142 112.868 114.626 113.541 112.406 113.541Z" fill="#231F20"/>
<path d="M118.77 185.635C118.77 185.635 134.088 184.043 138.158 184.839C144.152 185.941 150.516 189.551 154.068 193.591C154.882 194.386 155.4 195.304 155.696 196.345C155.918 197.385 155.326 198.425 154.29 198.976C152.884 199.527 151.33 198.854 149.924 198.487C146.668 197.569 143.116 198.119 139.638 198.487C138.306 198.67 136.974 198.731 135.568 198.609C132.534 198.303 129.796 196.773 126.984 195.794C121.804 193.958 115.81 194.141 110.408 194.876" fill="white"/>
<path d="M153.106 199.589C152.144 199.527 151.256 199.344 150.442 199.038C150.22 198.977 149.998 198.915 149.702 198.854C146.89 198.059 143.708 198.426 140.674 198.732L139.638 198.854C138.232 199.038 136.826 199.099 135.494 198.977C133.348 198.671 131.202 198.059 129.278 197.141C128.464 196.773 127.576 196.467 126.762 196.161C122.47 194.693 117.142 194.387 110.482 195.243C110.186 195.305 109.89 195.182 109.89 194.937C109.816 194.693 109.964 194.448 110.26 194.448H110.334C117.216 193.53 122.766 193.836 127.206 195.427C128.094 195.733 128.982 196.1 129.796 196.467C131.72 197.263 133.57 198.059 135.642 198.242C136.974 198.303 138.232 198.303 139.564 198.12L140.6 197.997C143.782 197.63 147.038 197.263 150.072 198.12L150.812 198.365C151.996 198.732 153.106 199.038 154.068 198.671C154.956 198.181 155.4 197.324 155.252 196.467C155.03 195.549 154.512 194.631 153.772 193.897C150.072 189.797 143.782 186.369 138.158 185.329C134.236 184.595 119.066 186.125 118.918 186.186C118.622 186.186 118.4 186.063 118.326 185.819C118.252 185.574 118.474 185.39 118.77 185.329C119.436 185.268 134.236 183.738 138.38 184.533C144.3 185.635 150.812 189.185 154.586 193.469C155.474 194.325 156.066 195.305 156.288 196.406C156.584 197.63 155.844 198.854 154.586 199.466C154.068 199.527 153.624 199.589 153.106 199.589Z" fill="#231F20"/>
<path d="M49.95 155.401C49.95 155.401 33.152 196.773 41.366 201.424C49.58 206.075 115.44 203.872 115.44 203.872L119.584 184.349C119.584 184.349 74.2959 189.184 75.4059 186.369C76.5159 183.553 82.0659 152.097 82.0659 152.097L49.95 155.401Z" fill="#FBBF24"/>
<path d="M119.584 184.778L71.188 181.84C70.892 181.84 70.67 181.595 70.744 181.412V181.35L81.548 145.61C81.622 145.365 81.918 145.242 82.14 145.304C82.436 145.365 82.584 145.61 82.51 145.854L71.854 181.044L119.584 183.921C119.88 183.921 120.102 184.166 120.028 184.41C120.028 184.594 119.88 184.716 119.584 184.778Z" fill="#231F20"/>
<path d="M97.014 204.301C96.718 204.301 96.496 204.118 96.496 203.873C96.496 203.689 96.644 203.506 96.866 203.506C97.014 203.506 110.556 200.323 116.402 197.998C116.624 197.875 116.994 197.998 117.068 198.181C117.216 198.365 117.068 198.671 116.846 198.732C110.926 201.119 97.68 204.118 97.162 204.24C97.088 204.24 97.014 204.24 97.014 204.301Z" fill="#231F20"/>
<path d="M30.71 203.872H298.812C300.81 203.872 302.438 205.218 302.438 206.871V214.827C302.438 216.479 300.81 217.826 298.812 217.826H30.71C28.712 217.826 27.084 216.479 27.084 214.827V206.871C27.158 205.157 28.712 203.872 30.71 203.872Z" fill="white"/>
<path d="M297.406 218.193H32.19C29.156 218.193 26.64 216.112 26.64 213.603V208.033C26.64 205.524 29.156 203.443 32.19 203.443H297.406C300.44 203.443 302.956 205.524 302.956 208.033V213.603C302.956 216.112 300.44 218.193 297.406 218.193ZM32.19 204.3C29.674 204.3 27.676 205.953 27.676 208.033V213.603C27.676 215.683 29.674 217.336 32.19 217.336H297.406C299.922 217.336 301.92 215.683 301.92 213.603V208.033C301.92 205.953 299.922 204.3 297.406 204.3H32.19Z" fill="#231F20"/>
<path d="M134.384 200.444H241.684C242.498 200.444 243.164 200.995 243.164 201.668V202.709C243.164 203.382 242.498 203.933 241.684 203.933H134.384C133.57 203.933 132.978 203.382 132.978 202.709V201.668C132.904 200.995 133.57 200.444 134.384 200.444Z" fill="#231F20"/>
<path d="M241.092 204.301H134.902C133.496 204.301 132.312 203.321 132.312 202.159C132.312 200.996 133.496 200.017 134.902 200.017H241.018C242.424 200.017 243.608 200.996 243.608 202.159C243.608 203.321 242.498 204.301 241.092 204.301ZM134.902 200.873C134.014 200.873 133.348 201.424 133.348 202.159C133.348 202.893 134.014 203.444 134.902 203.444H241.018C241.832 203.444 242.498 202.893 242.498 202.22C242.498 201.547 241.906 200.935 241.018 200.935L134.902 200.873Z" fill="#231F20"/>
<path d="M202.242 157.911H267.14L241.166 202.159H176.194L202.242 157.911Z" fill="#231F20"/>
<path d="M241.166 202.587H176.268C176.12 202.587 175.898 202.526 175.824 202.403C175.75 202.281 175.75 202.097 175.824 201.975L201.798 157.727C201.872 157.605 202.094 157.482 202.242 157.482H267.14C267.288 157.482 267.51 157.544 267.584 157.666C267.658 157.788 267.658 157.972 267.584 158.094L241.61 202.342C241.536 202.464 241.314 202.587 241.166 202.587ZM177.082 201.73H240.87L266.326 158.339H202.538L177.082 201.73Z" fill="#231F20"/>
</svg>
