<svg width="394" height="376" viewBox="0 0 394 376" fill="none" xmlns="http://www.w3.org/2000/svg">
<path d="M292.695 300.935C292.695 300.935 295.965 306.793 296.138 309.959C295.335 317.006 293.837 329.489 302.009 315.562C304.988 321.457 303.845 341.588 315.673 334.7C326.87 327.774 311.252 299.191 307.588 289.746" fill="white"/>
<path d="M311.331 336.678C310.622 336.678 309.952 336.543 309.337 336.279C305.523 334.647 304.341 328.383 303.293 322.856C302.868 320.593 302.458 318.427 301.907 316.855C298.652 322.187 297.257 322.653 296.312 322.367C294.342 321.766 294.744 316.923 295.516 310.147L295.539 309.944C295.35 306.936 292.198 301.259 292.167 301.206C292.017 300.928 292.12 300.589 292.411 300.447C292.703 300.296 293.057 300.409 293.207 300.68C293.341 300.92 296.54 306.688 296.721 309.937C296.721 309.967 296.721 309.997 296.721 310.027L296.69 310.275C296.359 313.193 295.476 320.931 296.674 321.3C296.721 321.3 297.809 321.555 301.489 315.291C301.599 315.103 301.796 314.99 302.025 315.005C302.245 315.005 302.442 315.133 302.537 315.321C303.388 317.006 303.908 319.75 304.452 322.661C305.445 327.917 306.571 333.865 309.81 335.257C311.276 335.881 313.088 335.542 315.358 334.219C324.27 328.707 315.129 308.26 309.66 296.047C308.573 293.618 307.635 291.52 307.021 289.941C306.91 289.648 307.06 289.324 307.367 289.219C307.675 289.114 308.013 289.257 308.124 289.55C308.723 291.099 309.66 293.19 310.74 295.604C316.351 308.147 325.743 329.135 315.98 335.174C314.254 336.174 312.694 336.678 311.315 336.678H311.331Z" fill="#201D1D"/>
<path d="M188.569 177.758C174.03 161.65 169.507 139.03 177.757 119.245C178.096 118.44 178.443 117.643 178.813 116.846C180.413 112.86 183.013 109.551 186.441 106.964C189.617 104.927 194.605 104.114 197.875 106.634C198.072 106.769 198.45 106.882 198.789 106.822C199.128 106.761 199.451 106.543 199.561 106.19C202.012 101.046 210.325 102.069 212.878 102.505C231.05 105.325 243.484 115.688 256.541 126.622C266.273 134.706 276.233 143.098 288.794 148.182C295.618 150.806 302.387 153.1 309.471 155.175C318.392 157.627 327.249 160.77 335.538 164.68C348.336 171.08 363.032 184.3 361.889 200.934C361.274 210.53 355.136 219.832 345.467 226.149C337.508 231.172 327.461 234.323 314.735 235.368C255.848 242.212 209.766 201.265 188.553 177.765L188.569 177.758Z" fill="#201D1D"/>
<path d="M301.623 236.692C280.071 236.692 258.464 230.571 237.227 218.426C215.463 205.973 198.513 189.639 188.119 178.126C173.124 161.507 168.939 138.864 177.206 119.034C177.544 118.229 177.899 117.41 178.277 116.613C179.877 112.619 182.501 109.213 186.078 106.513C189.506 104.302 194.762 103.505 198.253 106.19C198.308 106.227 198.521 106.288 198.702 106.265C198.757 106.258 198.946 106.212 199.009 106.024C201.578 100.625 209.647 101.377 212.996 101.949C231.396 104.799 243.807 115.191 256.951 126.201L257.526 126.682C267.014 134.563 276.817 142.715 289.046 147.663C295.91 150.302 302.655 152.581 309.668 154.634C319.124 157.236 327.926 160.447 335.822 164.177C348.856 170.696 363.646 184.24 362.504 200.972C361.889 210.605 355.656 220.193 345.822 226.615C337.516 231.857 327.375 234.902 314.806 235.932C310.417 236.444 306.02 236.699 301.623 236.699V236.692ZM189.018 177.397C240.206 234.105 289.716 237.707 314.68 234.812C327.067 233.789 337.028 230.804 345.152 225.675C354.679 219.456 360.723 210.191 361.314 200.897C362.425 184.706 347.981 171.539 335.278 165.177C327.454 161.484 318.715 158.296 309.322 155.717C302.269 153.656 295.492 151.363 288.589 148.708C276.178 143.685 266.305 135.473 256.746 127.532L256.163 127.05C243.153 116.154 230.868 105.867 212.792 103.062C210.38 102.655 202.366 101.685 200.105 106.423C199.963 106.889 199.482 107.28 198.891 107.378C198.332 107.468 197.812 107.28 197.528 107.092C194.463 104.731 189.798 105.483 186.764 107.431C183.391 109.98 180.885 113.221 179.357 117.049C178.979 117.861 178.624 118.658 178.293 119.455C170.184 138.894 174.29 161.093 189.002 177.389L189.018 177.397Z" fill="#201D1D"/>
<path d="M176.591 282.602L178.718 175.848L230.813 174.652L236.4 281.474L176.591 282.602Z" fill="#201D1D"/>
<path d="M176.591 283.166C176.433 283.166 176.284 283.105 176.173 283C176.063 282.895 176 282.744 176 282.594L178.127 175.84C178.127 175.539 178.388 175.291 178.703 175.284L230.797 174.088C231.105 174.065 231.388 174.321 231.404 174.622L236.991 281.443C236.991 281.594 236.944 281.744 236.833 281.857C236.723 281.97 236.573 282.03 236.416 282.038L176.599 283.166H176.591ZM179.302 176.397L177.198 282.022L235.793 280.917L230.262 175.231L179.309 176.397H179.302Z" fill="#201D1D"/>
<path d="M248.157 224.096L254.232 283.692C254.232 283.692 247.337 286.083 239.812 287.58C232.287 289.076 222.886 288.181 222.886 288.181L216.81 175.848L187.804 179.578C187.914 180.57 185.535 263.471 184.975 287.106C184.975 287.106 178.072 287.881 168.979 286.978C159.885 286.083 155.189 283.684 155.189 283.684L161.343 228.247C161.343 228.247 169.452 169.568 168.758 169.636C169.452 169.568 242.034 168.17 257.077 183.887C272.12 199.611 248.165 224.081 248.165 224.081L248.157 224.096Z" fill="#FBBF24"/>
<path d="M190.034 161.484L187.662 179.164C187.662 179.164 188.025 189.278 199.632 187.902C206.708 186.925 212.918 183.037 216.519 177.367C216.519 177.367 221.617 133.984 222.129 130.848C220.128 131.51 214.509 132.758 212.563 131.72C210.617 130.683 211.145 124.659 211.342 122.764C209.285 125.133 207.63 127.772 206.716 130.637L198.978 129.855C198.316 127.08 198.34 124.193 198.931 121.553C197.016 123.727 195.503 126.178 194.762 129.013C192.587 128.69 184.755 126.396 183.1 128.02C180.838 130.254 176.922 147.166 181.122 153.942C185.322 160.725 190.05 161.477 190.05 161.477L190.034 161.484Z" fill="white"/>
<path d="M197.544 188.602C194.739 188.602 192.422 187.872 190.641 186.421C187.268 183.668 187.071 179.367 187.063 179.187C187.063 179.156 187.063 179.126 187.063 179.096L189.364 161.913C187.946 161.492 184.077 159.89 180.578 154.243C176.378 147.467 179.987 130.261 182.643 127.637C184.053 126.253 188.222 127.035 192.745 128.035C193.336 128.163 193.88 128.284 194.305 128.374C195.046 125.877 196.409 123.523 198.45 121.2C198.623 121.004 198.923 120.944 199.159 121.057C199.404 121.17 199.537 121.433 199.474 121.681C198.907 124.2 198.891 126.84 199.427 129.344L206.259 130.036C207.157 127.449 208.702 124.885 210.845 122.411C211.011 122.223 211.287 122.155 211.531 122.253C211.767 122.35 211.917 122.583 211.893 122.832C211.318 128.366 211.996 130.803 212.815 131.239C214.407 132.089 219.576 131.096 221.901 130.322C222.098 130.254 222.311 130.291 222.476 130.419C222.642 130.547 222.713 130.743 222.681 130.938C222.177 134.029 217.126 176.998 217.078 177.434C217.07 177.517 217.039 177.592 217 177.66C213.28 183.518 206.968 187.459 199.695 188.466C198.946 188.556 198.222 188.602 197.528 188.602H197.544ZM188.253 179.187C188.285 179.615 188.6 183.277 191.421 185.563C193.375 187.15 196.118 187.752 199.553 187.346C206.425 186.398 212.398 182.691 215.936 177.179C216.275 174.306 220.498 138.345 221.404 131.645C219.143 132.262 214.289 133.292 212.256 132.209C210.869 131.472 210.309 128.915 210.577 124.599C209.041 126.629 207.93 128.705 207.26 130.795C207.181 131.051 206.921 131.224 206.629 131.194L198.891 130.412C198.639 130.389 198.434 130.209 198.379 129.976C197.891 127.923 197.749 125.772 197.969 123.651C196.685 125.434 195.81 127.246 195.314 129.141C195.243 129.427 194.951 129.607 194.652 129.562C194.155 129.487 193.415 129.321 192.485 129.118C189.916 128.554 184.565 127.366 183.502 128.404C181.382 130.502 177.529 147.069 181.603 153.649C185.59 160.086 190.074 160.913 190.121 160.92C190.428 160.973 190.649 161.251 190.609 161.545L188.245 179.171L188.253 179.187Z" fill="#201D1D"/>
<path d="M217.661 151.754C224.391 156.258 234.044 144.279 227.433 138.977C226.999 138.729 226.527 138.563 226.038 138.473C224.951 138.225 223.753 138.353 222.61 138.706C220.396 139.406 218.347 141.023 217.693 142.925" fill="white"/>
<path d="M220.884 153.318C219.687 153.318 218.473 152.987 217.323 152.212C217.055 152.032 216.992 151.678 217.181 151.43C217.37 151.175 217.74 151.114 218 151.295C221.121 153.385 224.848 151.475 226.991 148.813C229.214 146.061 230.183 141.955 227.086 139.436C226.739 139.24 226.353 139.105 225.928 139.03C224.998 138.819 223.926 138.894 222.799 139.248C220.648 139.925 218.828 141.481 218.26 143.113C218.158 143.406 217.827 143.572 217.512 143.474C217.204 143.376 217.031 143.06 217.134 142.76C217.819 140.774 219.892 138.977 222.421 138.18C223.753 137.766 225.053 137.676 226.164 137.932C226.723 138.03 227.259 138.225 227.732 138.503C227.756 138.518 227.779 138.533 227.803 138.556C231.53 141.549 230.474 146.332 227.913 149.513C226.196 151.641 223.571 153.333 220.869 153.333L220.884 153.318Z" fill="#201D1D"/>
<path d="M189.301 168.388C189.301 168.388 196.559 171.448 202.193 167.312C205.369 165.274 207.425 161.883 207.851 158.258C207.851 158.258 197.378 164.026 190.066 161.65L189.309 168.388H189.301Z" fill="#201D1D"/>
<path d="M195.18 170.065C191.862 170.065 189.246 168.982 189.065 168.907C188.829 168.809 188.687 168.576 188.718 168.328L189.475 161.59C189.49 161.417 189.593 161.266 189.743 161.176C189.892 161.086 190.081 161.063 190.247 161.116C197.221 163.379 207.449 157.822 207.551 157.77C207.748 157.664 207.985 157.672 208.174 157.785C208.363 157.905 208.466 158.108 208.434 158.319C207.993 162.146 205.778 165.688 202.524 167.779C200.136 169.531 197.489 170.057 195.18 170.057V170.065ZM189.94 168.019C191.492 168.553 197.284 170.208 201.838 166.869C204.526 165.139 206.425 162.372 207.086 159.296C204.305 160.657 196.653 163.936 190.578 162.394L189.94 168.027V168.019Z" fill="#201D1D"/>
<path d="M197.772 135.142C197.772 135.142 190.452 142.775 191.634 144.444C192.816 146.121 196.968 145.617 196.968 145.617" fill="white"/>
<path d="M195.558 146.256C194.108 146.256 192.028 146.016 191.137 144.76C189.837 142.918 195.038 137.15 197.331 134.758C197.552 134.533 197.922 134.51 198.166 134.721C198.403 134.931 198.426 135.285 198.206 135.518C194.471 139.406 191.626 143.429 192.122 144.128C192.918 145.256 195.905 145.174 196.89 145.053C197.221 145.016 197.512 145.234 197.552 145.542C197.591 145.85 197.362 146.136 197.039 146.174C196.882 146.196 196.307 146.256 195.558 146.256Z" fill="#201D1D"/>
<path d="M189.262 149.069C189.262 149.069 193.375 157.386 203.997 151.43L189.262 149.069Z" fill="white"/>
<path d="M196.913 154.145C195.984 154.145 195.085 154.017 194.226 153.769C190.412 152.648 188.797 149.445 188.726 149.31C188.584 149.031 188.71 148.693 189.01 148.558C189.301 148.422 189.656 148.542 189.798 148.828C189.813 148.858 191.279 151.723 194.589 152.694C197.205 153.461 200.262 152.866 203.698 150.941C203.982 150.783 204.344 150.874 204.51 151.144C204.675 151.415 204.581 151.761 204.297 151.919C201.649 153.408 199.175 154.152 196.913 154.152V154.145Z" fill="#201D1D"/>
<path d="M244.249 268.87C244.154 268.87 244.059 268.847 243.973 268.802L230.238 261.816C229.946 261.666 229.844 261.327 229.994 261.057C230.151 260.778 230.506 260.681 230.789 260.824L244.524 267.81C244.816 267.96 244.918 268.298 244.769 268.569C244.658 268.757 244.461 268.87 244.249 268.87Z" fill="#201D1D"/>
<path d="M160.823 271.698C160.602 271.698 160.39 271.577 160.287 271.374C160.153 271.088 160.279 270.758 160.571 270.622L179.38 262.245C179.68 262.11 180.027 262.237 180.168 262.516C180.302 262.801 180.176 263.132 179.885 263.268L161.075 271.645C160.996 271.683 160.91 271.698 160.823 271.698Z" fill="#201D1D"/>
<path d="M266.848 196.061C276.714 211.665 310.63 261.576 314.893 300.386L289.897 304.222C289.897 304.222 257.912 244.362 241.522 225.931C241.522 225.931 250.75 189.173 255.895 182.819C258.456 184.496 261.135 187.03 266.848 196.061Z" fill="#FBBF24"/>
<path d="M250.056 241.287C249.765 241.287 249.512 241.084 249.473 240.805L245.115 211.914C245.068 211.605 245.297 211.319 245.62 211.274C245.943 211.229 246.242 211.447 246.289 211.756L250.647 240.647C250.694 240.956 250.466 241.242 250.143 241.287C250.111 241.287 250.088 241.287 250.056 241.287Z" fill="#201D1D"/>
<path d="M212.792 129.788C217.11 132.006 220.585 135.984 222.618 138.706C223.76 138.353 224.958 138.225 226.046 138.473L226.4 137.669C219.639 128.968 213.178 125.795 213.178 125.795L212.799 129.788H212.792Z" fill="white"/>
<path d="M222.618 139.27C222.429 139.27 222.248 139.188 222.137 139.037C220.033 136.217 216.653 132.412 212.516 130.284C212.311 130.179 212.185 129.961 212.208 129.735L212.587 125.742C212.602 125.554 212.721 125.389 212.894 125.298C213.067 125.208 213.272 125.208 213.446 125.298C213.713 125.434 220.112 128.63 226.873 137.338C226.999 137.496 227.023 137.706 226.944 137.894L226.589 138.699C226.479 138.955 226.188 139.09 225.904 139.03C224.998 138.827 223.926 138.902 222.799 139.248C222.736 139.27 222.673 139.278 222.618 139.278V139.27ZM213.414 129.472C217.433 131.638 220.719 135.255 222.846 138.052C223.839 137.797 224.801 137.721 225.675 137.834L225.715 137.744C220.53 131.156 215.542 127.833 213.666 126.72L213.406 129.464L213.414 129.472Z" fill="#201D1D"/>
<path d="M169.987 136.511C169.987 136.511 181.335 144.128 182.682 144.331C184.03 144.534 189.483 144.978 190.16 143.903C190.838 142.827 189.727 142.075 191.192 142.03C192.658 141.985 193.943 143.985 196.157 144.316C198.363 144.647 211.42 143.865 214.068 142.015C216.716 140.165 219.19 127.945 218.008 125.306C216.826 122.666 211.428 115.973 208.442 114.973C205.668 114.078 178.277 116.402 173.975 118.598C169.664 120.786 168.23 131.983 169.987 136.518V136.511Z" fill="white"/>
<path d="M186.669 145.166C184.644 145.166 182.635 144.888 182.595 144.88C181.216 144.677 172.336 138.774 169.649 136.969C169.554 136.902 169.475 136.811 169.436 136.706C168.538 134.382 168.411 130.404 169.129 126.577C169.932 122.253 171.603 119.162 173.699 118.094C177.994 115.906 205.416 113.402 208.631 114.432C211.83 115.5 217.315 122.313 218.552 125.08C219.852 127.99 217.275 140.466 214.415 142.466C211.468 144.534 198.143 145.181 196.062 144.865C194.786 144.677 193.824 144.016 192.973 143.436C192.296 142.978 191.736 142.572 191.208 142.587C191.106 142.587 191.027 142.594 190.972 142.602C190.972 142.632 190.972 142.669 190.972 142.7C190.996 143.045 191.035 143.579 190.657 144.181C190.176 144.956 188.411 145.166 186.662 145.166H186.669ZM170.484 136.15C175.842 139.744 181.926 143.609 182.785 143.767C185.054 144.106 189.207 144.166 189.656 143.602C189.837 143.309 189.821 143.053 189.806 142.782C189.782 142.496 189.758 142.136 190.042 141.827C190.334 141.519 190.806 141.466 191.177 141.459C191.2 141.459 191.216 141.459 191.24 141.459C192.122 141.459 192.871 141.978 193.667 142.519C194.447 143.053 195.251 143.602 196.251 143.752C198.292 144.053 211.255 143.286 213.721 141.556C216.101 139.895 218.552 127.938 217.472 125.524C216.322 122.96 211.026 116.425 208.253 115.5C205.975 114.763 178.577 116.891 174.258 119.087C170.311 121.095 168.9 131.705 170.492 136.15H170.484Z" fill="#201D1D"/>
<path d="M207.614 114.845C202.106 114.5 177.119 115.53 173.305 117.244C169.499 118.959 166.851 134.059 169.987 136.481C173.124 138.902 202.398 137.744 207.819 134.134C213.241 130.525 213.123 115.199 207.614 114.853V114.845Z" fill="white"/>
<path d="M181.5 138.33C175.661 138.33 170.878 137.872 169.625 136.909C167.568 135.322 167.97 130.156 168.238 128.013C168.821 123.358 170.578 117.846 173.061 116.733C177.135 114.898 202.65 113.966 207.662 114.289C209.537 114.402 211.003 115.958 211.791 118.666C213.32 123.899 212.067 131.991 208.166 134.593C204.549 136.999 191.492 138.338 181.5 138.338V138.33ZM204.352 115.334C195.495 115.334 176.622 116.372 173.557 117.748C171.863 118.508 170.043 123.072 169.404 128.141C168.908 132.104 169.278 135.202 170.358 136.029C173.297 138.3 202.319 137.097 207.48 133.653C210.94 131.352 212.043 123.727 210.64 118.959C210.27 117.68 209.372 115.515 207.567 115.402C206.779 115.357 205.668 115.327 204.344 115.327L204.352 115.334Z" fill="#201D1D"/>
<path d="M213.651 141.338C213.469 141.338 213.296 141.263 213.178 141.113L208.781 135.601C208.584 135.353 208.631 134.999 208.891 134.811C209.151 134.623 209.521 134.668 209.718 134.916L214.115 140.429C214.312 140.677 214.265 141.03 214.005 141.218C213.895 141.293 213.777 141.331 213.651 141.331V141.338Z" fill="#201D1D"/>
<path d="M174.132 119.944C172.186 121.313 170.862 129.434 171.934 132.796C173.005 136.157 202.374 134.127 206.251 131.51C210.128 128.885 209.38 120.493 207.197 118.139C205.006 115.785 176.087 118.583 174.132 119.944Z" fill="#FBBF24"/>
<path d="M177.938 130.389C177.773 130.389 177.607 130.322 177.489 130.194C177.276 129.953 177.308 129.6 177.56 129.397L188.695 120.373C188.947 120.17 189.317 120.2 189.53 120.44C189.743 120.681 189.711 121.034 189.459 121.237L178.324 130.261C178.214 130.352 178.08 130.397 177.938 130.397V130.389Z" fill="#201D1D"/>
<path d="M192.682 130.404C192.532 130.404 192.382 130.352 192.264 130.239C192.036 130.021 192.028 129.66 192.264 129.442L200.428 121.553C200.656 121.335 201.035 121.328 201.263 121.553C201.492 121.771 201.5 122.132 201.263 122.35L193.099 130.239C192.981 130.352 192.832 130.404 192.682 130.404Z" fill="#201D1D"/>
<path d="M37.8399 169.583C41.5592 182.082 48.2966 190.008 61.8818 189.166C64.2221 189.008 67.5002 188.195 69.3678 189.812C70.6128 190.91 71.3299 192.535 72.1573 194.008C75.853 190.406 79.9427 187.135 82.811 184.992C81.2508 183.744 80.1634 182.804 79.6906 182.262C76.1997 178.284 76.7119 175.803 71.4954 173.253C66.2867 170.704 58.1309 166.102 57.0828 166.846C56.0269 167.591 56.0978 170.012 57.1853 171.358C58.2648 172.704 61.5666 174.171 62.591 175.539C63.5917 176.893 63.6469 177.337 63.6469 177.337C63.6469 177.337 55.3256 176.073 53.2295 174.479C51.1413 172.885 47.7608 166.801 45.7672 166.109C44.5221 165.703 43.1746 165.613 41.8666 165.966C41.8666 165.966 39.6286 163.755 38.4151 164.861C37.6429 165.605 37.8714 166.703 38.5097 167.47C36.8785 166.621 37.6586 168.929 37.8399 169.591V169.583Z" fill="white"/>
<path d="M72.1572 194.565C72.1572 194.565 72.1021 194.565 72.0705 194.565C71.8814 194.542 71.7238 194.43 71.6293 194.272C71.4717 193.986 71.3141 193.7 71.1565 193.407C70.5339 192.249 69.8878 191.046 68.9579 190.218C67.6577 189.098 65.3962 189.354 63.4025 189.579C62.8825 189.639 62.386 189.692 61.9132 189.73C49.3998 190.512 41.5513 184.157 37.2567 169.741C37.2567 169.741 37.2567 169.741 37.2567 169.734L37.2094 169.576C36.8942 168.501 36.6499 167.41 37.304 166.914C37.3513 166.876 37.4064 166.846 37.4616 166.816C37.17 165.959 37.3434 165.079 37.9817 164.462C39.1794 163.372 40.9839 164.41 42.0241 165.342C43.277 165.072 44.6245 165.147 45.9326 165.575C47.2328 166.027 48.7773 168.102 50.4163 170.29C51.551 171.817 52.7251 173.389 53.5762 174.035C54.9709 175.096 59.8408 176.111 62.5988 176.592C62.4648 176.389 62.2993 176.148 62.0866 175.855C61.6295 175.239 60.5342 174.532 59.4862 173.847C58.3515 173.11 57.2877 172.419 56.6967 171.689C55.9481 170.757 55.5777 169.358 55.7668 168.125C55.885 167.335 56.216 166.733 56.7203 166.38C57.658 165.711 60.1402 166.801 67.6262 170.651C69.0761 171.396 70.5024 172.133 71.7553 172.742C75.2856 174.464 76.3415 176.216 77.5629 178.247C78.2091 179.314 78.934 180.525 80.1318 181.886C80.5494 182.368 81.5738 183.262 83.1813 184.541C83.3153 184.654 83.3941 184.812 83.3941 184.984C83.3941 185.157 83.3074 185.315 83.1656 185.421C80.9119 187.113 76.5306 190.519 72.567 194.392C72.4567 194.505 72.2991 194.565 72.1415 194.565H72.1572ZM66.0029 188.248C67.3977 188.248 68.7294 188.496 69.7617 189.384C70.8491 190.346 71.5426 191.64 72.2203 192.888C72.2518 192.941 72.2833 193.001 72.3069 193.053C75.7032 189.805 79.2729 186.94 81.8811 184.962C80.51 183.849 79.6669 183.097 79.2413 182.608C77.9727 181.164 77.2162 179.916 76.5543 178.803C75.3801 176.855 74.4503 175.314 71.2274 173.742C69.9666 173.125 68.5403 172.388 67.0825 171.644C63.6232 169.862 58.4224 167.192 57.398 167.32C57.1773 167.5 57.0197 167.846 56.9567 168.283C56.8227 169.2 57.1064 170.32 57.658 171.005C58.1308 171.591 59.171 172.261 60.1717 172.915C61.3616 173.689 62.4885 174.419 63.0716 175.201C64.0566 176.532 64.2142 177.088 64.2299 177.269C64.2457 177.442 64.1827 177.615 64.0487 177.735C63.9147 177.856 63.7335 177.916 63.5523 177.886C63.2055 177.833 55.0497 176.577 52.8591 174.915C51.8741 174.163 50.7079 172.599 49.4707 170.937C48.1469 169.162 46.5078 166.959 45.5622 166.628C44.3723 166.245 43.1431 166.2 42.032 166.5C41.8271 166.56 41.5986 166.5 41.441 166.35C41.0549 165.966 39.471 164.665 38.8248 165.26C38.2181 165.839 38.6357 166.696 38.9745 167.109C39.1479 167.32 39.1479 167.621 38.9667 167.824C38.7854 168.027 38.4781 168.08 38.2338 167.952C38.1787 167.922 38.1314 167.899 38.0841 167.884C38.0841 168.095 38.1393 168.493 38.3678 169.268L38.4151 169.433C42.5205 183.247 49.9671 189.339 61.8502 188.609C62.2915 188.579 62.78 188.526 63.2765 188.466C64.1669 188.368 65.0967 188.263 66.0108 188.263L66.0029 188.248Z" fill="#201D1D"/>
<path d="M69.281 196.813C69.5253 197.272 108.563 242.919 117.656 245.069C134.023 248.935 169.034 213.861 169.034 213.861L171.051 169.606C171.051 169.606 158.995 169.772 145.488 184.353C130.926 200.04 123.937 207.372 117.68 208.169C102.535 199.972 91.7075 189.797 84.2136 183.841C84.0009 183.699 83.8275 183.548 83.662 183.413C80.4864 185.789 73.3707 192.835 69.2889 196.821L69.281 196.813Z" fill="#FBBF24"/>
<path d="M161.461 226.886C161.461 226.886 161.422 226.886 161.398 226.886C161.075 226.856 160.839 226.578 160.87 226.269L163.565 200.822C163.597 200.513 163.896 200.288 164.211 200.318C164.534 200.348 164.771 200.626 164.739 200.934L162.044 226.382C162.013 226.675 161.753 226.886 161.453 226.886H161.461Z" fill="#201D1D"/>
<path d="M41.6616 165.673C41.6616 165.673 46.6497 174.637 49.9987 176.758C53.0009 178.645 55.3886 178.773 55.7747 178.668" fill="white"/>
<path d="M55.4594 179.247C54.4429 179.247 52.2444 178.848 49.6676 177.224C46.2241 175.058 41.3385 166.305 41.1336 165.936C40.9839 165.658 41.0863 165.32 41.3779 165.177C41.6694 165.026 42.024 165.139 42.1738 165.41C42.221 165.5 47.1224 174.276 50.3138 176.284C53.127 178.059 55.3255 178.171 55.617 178.119C55.9244 178.059 56.2474 178.239 56.3262 178.532C56.3972 178.826 56.2396 179.119 55.9322 179.202C55.8298 179.232 55.6643 179.247 55.4516 179.247H55.4594Z" fill="#201D1D"/>
<path d="M38.8563 167.764C38.8563 167.764 43.1036 176.6 46.1453 179.006C49.187 181.412 50.9521 181.676 50.9521 181.676" fill="white"/>
<path d="M50.9522 182.24C50.9522 182.24 50.8891 182.24 50.8576 182.24C50.7788 182.225 48.8955 181.924 45.7671 179.45C42.6545 176.991 38.4939 168.373 38.3205 168.012C38.1866 167.726 38.3205 167.395 38.6121 167.267C38.9037 167.139 39.2583 167.267 39.3922 167.546C39.4316 167.636 43.6159 176.291 46.5157 178.585C49.3525 180.833 51.0231 181.127 51.0389 181.134C51.3619 181.187 51.5747 181.48 51.5195 181.781C51.4723 182.059 51.2201 182.255 50.9364 182.255L50.9522 182.24Z" fill="#201D1D"/>
<path d="M105.411 149.746C105.198 150.686 104.899 151.588 104.536 152.453C104.213 153.212 103.835 153.949 103.401 154.641C99.6662 160.717 92.1408 164.101 84.5366 162.515C76.9403 160.928 71.5661 154.859 70.8333 147.851C70.7466 147.046 70.723 146.226 70.7624 145.407C70.8096 144.474 70.9357 143.534 71.1485 142.594C71.377 141.609 71.6843 140.669 72.0783 139.759C72.1492 139.586 72.2359 139.413 72.3147 139.248C75.6558 132.209 83.7959 128.103 92.0226 129.818C100.257 131.532 105.86 138.503 105.82 146.234C105.82 146.414 105.82 146.602 105.813 146.79C105.765 147.768 105.647 148.746 105.419 149.731L105.411 149.746Z" fill="#201D1D"/>
<path d="M88.319 163.477C87.0267 163.477 85.7265 163.349 84.4184 163.071C76.7275 161.469 71.0382 155.378 70.2502 147.911C70.1635 147.106 70.1398 146.256 70.1792 145.384C70.2265 144.414 70.3605 143.436 70.5811 142.474C70.8018 141.489 71.1248 140.504 71.5346 139.549C71.6134 139.368 71.6922 139.195 71.7789 139.022C75.2776 131.638 83.851 127.539 92.1566 129.276C100.462 131.006 106.467 138.142 106.419 146.241C106.419 146.429 106.419 146.625 106.404 146.813C106.356 147.851 106.222 148.873 105.994 149.851C105.773 150.806 105.474 151.746 105.088 152.648C104.749 153.453 104.355 154.213 103.914 154.92C100.612 160.296 94.6466 163.462 88.3111 163.462L88.319 163.477ZM88.319 130.013C81.7786 130.013 75.6164 133.653 72.8506 139.496C72.7718 139.654 72.7008 139.819 72.6299 139.985C72.2438 140.88 71.9444 141.805 71.7316 142.722C71.5267 143.617 71.4006 144.534 71.3534 145.437C71.314 146.249 71.3376 147.046 71.4243 147.798C72.1571 154.777 77.484 160.469 84.6706 161.973C91.8571 163.47 99.1855 160.417 102.897 154.363C103.307 153.701 103.677 152.994 103.992 152.242C104.347 151.4 104.631 150.52 104.835 149.625C105.048 148.708 105.174 147.753 105.222 146.775C105.222 146.595 105.229 146.414 105.229 146.241C105.269 138.669 99.6662 131.999 91.8965 130.382C90.7066 130.134 89.501 130.013 88.319 130.013Z" fill="#201D1D"/>
<path d="M138.625 157.521C138.176 159.499 123.464 158.191 103.401 154.641C98.2557 153.731 92.7634 152.671 87.0661 151.483C81.3689 150.295 75.908 149.069 70.8333 147.851C51.0466 143.098 37.1069 138.428 37.5561 136.45C38.0052 134.495 52.4887 135.766 72.3069 139.255C72.2281 139.421 72.1493 139.594 72.0705 139.767C65.6798 139.127 61.4482 139.308 61.1882 140.459C60.9282 141.609 64.679 143.451 70.7624 145.414C75.2855 146.873 81.0852 148.392 87.468 149.723C93.8587 151.054 99.7923 151.979 104.536 152.453C110.911 153.092 115.135 152.904 115.395 151.754C115.655 150.603 111.896 148.761 105.805 146.798C105.805 146.61 105.813 146.422 105.813 146.241C125.339 150.956 139.066 155.559 138.617 157.521H138.625Z" fill="#FBBF24"/>
<path d="M128.223 256.778C123.109 265.96 126.277 277.15 132.557 285.053C145.268 301.131 166.828 309.425 187.528 309.974C219.537 311.065 248.007 291.799 265.556 267.426C319.605 193.918 278.077 66.2136 172.367 72.2446C162.21 72.7259 152.092 74.3502 142.171 76.7942C139.011 77.5688 135.788 75.7565 134.969 72.741C134.149 69.7254 136.056 66.6498 139.216 65.8677C149.909 63.4688 160.87 61.9422 171.942 61.6565C218.26 59.9194 258.89 83.2088 279.559 122.696C303.766 168.644 301.449 228.059 269.283 270.006C250.545 294.754 220.459 314.073 187.442 312.17C166.252 311.11 144.527 302.199 131.935 285.482C125.788 277.338 122.826 265.952 128.223 256.785V256.778Z" fill="white"/>
<path d="M191.839 312.855C190.357 312.855 188.876 312.809 187.41 312.727C164.203 311.569 143.282 301.499 131.454 285.798C122.739 274.262 123.992 262.801 127.711 256.492C127.869 256.221 128.223 256.124 128.507 256.274C128.791 256.425 128.901 256.763 128.743 257.034C125.379 263.08 124.48 273.954 133.03 284.7C144.795 299.574 165.173 308.801 187.544 309.395C216.322 310.373 245.297 294.558 265.067 267.088C294.192 227.488 296.587 169.17 270.899 125.276C261.08 108.491 247.527 94.8724 231.711 85.8784C214.234 75.9445 194.274 71.5378 172.407 72.7936C162.817 73.2448 152.699 74.7639 142.321 77.3207C138.846 78.178 135.3 76.1776 134.401 72.8613C133.968 71.2596 134.212 69.5901 135.095 68.1613C135.977 66.7325 137.388 65.7173 139.074 65.3037C150.382 62.7695 161.43 61.3482 171.934 61.0775C194.723 60.2277 216.763 65.4541 235.683 76.2152C254.524 86.9312 269.882 102.911 280.095 122.426C305.208 170.087 301.055 229.525 269.764 270.321C259.93 283.309 247.574 294.107 234.012 301.552C220.498 308.974 206.015 312.84 191.846 312.84L191.839 312.855ZM144.661 297.115C156.197 305.583 171.264 310.787 187.473 311.599C203.028 312.494 218.481 308.786 233.421 300.589C246.833 293.22 259.071 282.534 268.803 269.675C299.842 229.21 303.947 170.245 279.031 122.945C268.921 103.626 253.72 87.8111 235.068 77.2004C216.345 66.552 194.534 61.3783 171.965 62.2205C161.54 62.4837 150.563 63.8975 139.35 66.4167C137.987 66.7551 136.828 67.5823 136.111 68.7479C135.386 69.9135 135.189 71.2821 135.544 72.5981C136.277 75.3053 139.184 76.9447 142.021 76.2453C152.47 73.6735 162.675 72.1394 172.336 71.6807C194.439 70.4173 214.628 74.8767 232.31 84.9234C248.307 94.0151 262.002 107.784 271.931 124.734C297.832 168.997 295.413 227.803 266.045 267.742C246.045 295.529 216.661 311.501 187.512 310.531C171.429 310.102 156.347 305.274 144.661 297.115Z" fill="#201D1D"/>
<path d="M114.016 96.9103C114.11 97.2713 124.205 109.01 140.319 105.852C155.134 102.949 166.378 89.8641 165.118 88.8489C163.581 87.6081 155.181 92.4585 143.96 92.0825C139.98 91.9471 135.449 88.1646 135.449 88.1646L114.016 96.9103Z" fill="white"/>
<path d="M134.953 106.942C121.974 106.942 113.661 97.8202 113.448 97.0456C113.377 96.7749 113.519 96.4967 113.787 96.3839L135.221 87.6381C135.434 87.5554 135.67 87.593 135.843 87.7283C135.891 87.7659 140.264 91.3831 143.983 91.5034C150.539 91.729 156.197 90.1122 159.94 89.0443C162.966 88.1795 164.637 87.7058 165.504 88.4051C165.701 88.5631 165.913 88.8864 165.756 89.473C165.031 92.1727 154.393 103.663 140.445 106.393C138.538 106.769 136.702 106.934 134.961 106.934L134.953 106.942ZM114.969 97.1359C117.002 99.3091 126.253 108.032 140.201 105.303C153.849 102.625 164.243 91.353 164.613 89.2248C164.014 89.0744 162.036 89.6309 160.271 90.1347C156.457 91.2251 150.697 92.8645 143.936 92.6464C140.335 92.5261 136.426 89.6685 135.347 88.8187L114.969 97.1359Z" fill="#201D1D"/>
<path d="M104.788 62.9423C104.694 62.5814 107.53 47.6391 123.22 42.9241C137.64 38.5926 154.141 44.8116 153.558 46.278C152.848 48.0828 143.038 47.7369 133.416 53.2716C130.004 55.2343 127.971 60.6412 127.971 60.6412L104.788 62.9423Z" fill="white"/>
<path d="M104.788 63.5064C104.52 63.5064 104.284 63.3334 104.221 63.0853C103.984 62.2129 107.373 47.0977 123.038 42.3902C136.623 38.3069 151.769 43.4129 153.778 45.4358C154.212 45.8795 154.196 46.248 154.101 46.4811C153.699 47.4963 151.997 47.8573 148.916 48.504C145.102 49.3086 139.334 50.5193 133.716 53.7529C130.532 55.5878 128.546 60.7766 128.523 60.8293C128.444 61.0323 128.255 61.1752 128.026 61.1977L104.843 63.4989C104.843 63.4989 104.804 63.4989 104.78 63.4989L104.788 63.5064ZM134.275 41.9541C130.737 41.9541 127.01 42.3752 123.393 43.4581C109.816 47.5414 106.175 59.4531 105.505 62.2957L127.554 60.1073C128.066 58.859 130.028 54.5576 133.109 52.7829C138.893 49.4515 144.771 48.2182 148.664 47.3985C150.461 47.0225 152.47 46.5939 152.919 46.1803C151.887 44.947 143.755 41.9465 134.275 41.9465V41.9541Z" fill="#201D1D"/>
<path d="M143.203 60.7616L148.68 80.9001C148.68 80.9001 133.495 94.7971 111.991 98.9406C101.258 101.001 89.8871 101.009 80.2105 100.016C66.846 98.6699 56.7438 95.4062 56.1056 93.0675C55.4673 90.7137 62.6381 83.1937 73.6307 75.8016C81.5895 70.4624 91.5262 65.1909 101.951 62.0099C122.849 55.6555 143.195 60.7541 143.195 60.7541L143.203 60.7616Z" fill="#FBBF24"/>
<path d="M150.051 61.0398L154.503 77.4184L148.373 79.7571L143.503 61.8444L150.051 61.0398Z" fill="#201D1D"/>
<path d="M148.372 80.3211C148.278 80.3211 148.191 80.2986 148.105 80.261C147.955 80.1858 147.845 80.0579 147.797 79.9L142.927 61.9798C142.888 61.8219 142.912 61.6565 143.006 61.5211C143.101 61.3858 143.25 61.2955 143.424 61.2805L149.98 60.4834C150.264 60.4533 150.555 60.6262 150.626 60.9045L155.078 77.283C155.149 77.5613 155 77.847 154.724 77.9448L148.593 80.2835C148.522 80.3136 148.451 80.3211 148.372 80.3211ZM144.243 62.3182L148.774 78.9976L153.802 77.08L149.61 61.664L144.235 62.3182H144.243Z" fill="#201D1D"/>
<path d="M67.0588 91.4131C66.7987 91.4131 66.5623 91.2477 66.4914 90.9995C66.4047 90.6987 66.5938 90.3904 66.909 90.3077L141.643 70.8911C141.966 70.8083 142.281 70.9888 142.368 71.2896C142.455 71.5904 142.265 71.8987 141.95 71.9815L67.2164 91.3981C67.1612 91.4131 67.1139 91.4207 67.0588 91.4207V91.4131Z" fill="#201D1D"/>
<path d="M86.5066 75.8692C91.5735 74.6133 96.7427 77.5085 98.0587 82.3439C99.3747 87.1792 96.3409 92.1124 91.274 93.3682C86.2072 94.624 81.0379 91.7288 79.7219 86.8935C78.406 82.0581 81.4398 77.125 86.5066 75.8692Z" fill="white"/>
<path d="M88.8863 94.218C84.4184 94.218 80.3208 91.3454 79.1466 87.0289C77.7519 81.9002 80.9827 76.6513 86.3568 75.3127C91.7231 73.9817 97.2312 77.0649 98.6339 82.1935C99.3116 84.6751 98.9333 87.262 97.5701 89.4729C96.2068 91.6838 94.0241 93.263 91.4237 93.9022C90.5805 94.1127 89.7295 94.2105 88.8942 94.2105L88.8863 94.218ZM86.6484 76.4106C81.9125 77.5913 79.06 82.2236 80.2892 86.7506C80.8881 88.939 82.3459 90.7814 84.3868 91.9244C86.4356 93.0674 88.8233 93.3908 91.1242 92.8193C93.4173 92.2478 95.3479 90.8566 96.5457 88.9089C97.7434 86.9537 98.0823 84.6751 97.4834 82.4793C96.2462 77.9598 91.3922 75.2375 86.6484 76.4106Z" fill="#201D1D"/>
<path d="M290.504 162.372C310.637 162.372 326.957 146.797 326.957 127.584C326.957 108.372 310.637 92.7968 290.504 92.7968C270.372 92.7968 254.051 108.372 254.051 127.584C254.051 146.797 270.372 162.372 290.504 162.372Z" fill="white"/>
<path d="M290.504 162.936C270.079 162.936 253.46 147.076 253.46 127.584C253.46 108.092 270.079 92.2328 290.504 92.2328C310.929 92.2328 327.548 108.092 327.548 127.584C327.548 147.076 310.929 162.936 290.504 162.936ZM290.504 93.3608C270.725 93.3608 254.642 108.717 254.642 127.584C254.642 146.452 270.733 161.808 290.504 161.808C310.275 161.808 326.366 146.452 326.366 127.584C326.366 108.717 310.275 93.3608 290.504 93.3608Z" fill="#201D1D"/>
<path d="M304.546 106.769C304.546 108.619 303.349 110.198 301.646 110.837C302.561 110.108 303.144 109.002 303.144 107.777C303.144 105.558 301.252 103.761 298.928 103.761C297.565 103.761 296.351 104.378 295.595 105.333C296.217 103.611 297.927 102.37 299.936 102.37C302.482 102.37 304.546 104.34 304.546 106.769Z" fill="#201D1D"/>
<path d="M301.639 111.401C301.434 111.401 301.237 111.304 301.134 111.123C300.984 110.882 301.04 110.582 301.26 110.401C302.08 109.747 302.545 108.792 302.545 107.769C302.545 105.867 300.921 104.317 298.92 104.317C297.801 104.317 296.729 104.821 296.059 105.663C295.886 105.882 295.563 105.949 295.311 105.821C295.051 105.694 294.933 105.4 295.027 105.137C295.744 103.137 297.714 101.798 299.929 101.798C302.797 101.798 305.129 104.024 305.129 106.761C305.129 108.807 303.845 110.612 301.851 111.356C301.78 111.386 301.709 111.394 301.639 111.394V111.401ZM298.92 103.197C301.568 103.197 303.727 105.25 303.727 107.777C303.727 107.874 303.727 107.965 303.719 108.062C303.869 107.656 303.955 107.22 303.955 106.769C303.955 104.656 302.151 102.934 299.936 102.934C299.401 102.934 298.888 103.031 298.416 103.219C298.581 103.204 298.754 103.189 298.928 103.189L298.92 103.197Z" fill="#201D1D"/>
<path d="M318.73 131.059C317.627 133.021 315.413 134.044 313.23 133.803C314.633 133.525 315.909 132.675 316.642 131.367C317.966 129.013 317.028 126.08 314.562 124.817C313.12 124.08 311.465 124.08 310.094 124.682C311.78 123.193 314.333 122.809 316.469 123.899C319.172 125.283 320.188 128.487 318.738 131.066L318.73 131.059Z" fill="#201D1D"/>
<path d="M313.884 134.405C313.64 134.405 313.403 134.39 313.159 134.367C312.868 134.337 312.647 134.112 312.639 133.833C312.623 133.555 312.828 133.315 313.112 133.254C314.404 132.999 315.499 132.217 316.122 131.104C316.689 130.096 316.808 128.945 316.461 127.848C316.114 126.757 315.342 125.855 314.286 125.321C313.065 124.697 311.591 124.652 310.346 125.201C310.078 125.313 309.771 125.231 309.605 125.005C309.44 124.772 309.479 124.464 309.692 124.276C311.607 122.576 314.444 122.23 316.745 123.411C318.187 124.148 319.25 125.381 319.723 126.877C320.196 128.374 320.03 129.961 319.258 131.337C318.179 133.254 316.13 134.413 313.892 134.413L313.884 134.405ZM313.537 123.847C313.987 123.952 314.42 124.11 314.838 124.321C316.169 125.005 317.146 126.141 317.588 127.517C318.029 128.9 317.879 130.359 317.162 131.63C316.981 131.953 316.76 132.262 316.516 132.54C317.209 132.119 317.8 131.525 318.21 130.788C318.833 129.675 318.967 128.397 318.588 127.186C318.202 125.975 317.351 124.982 316.185 124.388C315.358 123.96 314.444 123.794 313.545 123.839L313.537 123.847Z" fill="#201D1D"/>
<path d="M305.287 149.362C305.122 151.16 303.813 152.588 302.104 153.07C303.057 152.438 303.719 151.415 303.829 150.227C304.026 148.076 302.356 146.181 300.102 145.986C298.778 145.873 297.549 146.377 296.729 147.234C297.486 145.617 299.259 144.557 301.205 144.722C303.672 144.933 305.492 147.008 305.271 149.362H305.287Z" fill="#201D1D"/>
<path d="M302.104 153.634C301.883 153.634 301.67 153.513 301.568 153.31C301.442 153.062 301.528 152.761 301.765 152.603C302.608 152.039 303.152 151.152 303.238 150.167C303.325 149.279 303.033 148.415 302.434 147.723C301.836 147.031 300.985 146.617 300.055 146.535C298.975 146.444 297.896 146.843 297.179 147.603C296.982 147.806 296.658 147.851 296.414 147.693C296.17 147.535 296.083 147.242 296.201 146.993C297.084 145.113 299.117 143.97 301.268 144.151C302.616 144.264 303.845 144.873 304.712 145.865C305.579 146.858 305.996 148.114 305.878 149.4C305.697 151.385 304.278 153.032 302.277 153.596C302.222 153.611 302.167 153.619 302.111 153.619L302.104 153.634ZM299.779 145.414C299.905 145.414 300.031 145.414 300.165 145.429C301.41 145.535 302.545 146.099 303.349 147.008C304.152 147.926 304.538 149.084 304.428 150.272C304.428 150.325 304.42 150.385 304.412 150.438C304.57 150.084 304.672 149.708 304.704 149.31C304.798 148.324 304.475 147.354 303.813 146.595C303.144 145.835 302.206 145.369 301.174 145.279C300.701 145.241 300.228 145.279 299.787 145.399L299.779 145.414Z" fill="#201D1D"/>
<path d="M294.097 124.997C293.656 126.246 292.474 127.05 291.174 127.111C291.962 126.817 292.616 126.201 292.915 125.373C293.443 123.877 292.6 122.26 291.032 121.756C290.118 121.463 289.149 121.613 288.416 122.095C289.243 121.072 290.693 120.606 292.049 121.042C293.766 121.598 294.68 123.366 294.105 125.005L294.097 124.997Z" fill="#201D1D"/>
<path d="M291.174 127.674C290.898 127.674 290.654 127.486 290.599 127.231C290.536 126.96 290.693 126.689 290.961 126.592C291.615 126.351 292.127 125.84 292.356 125.2C292.561 124.621 292.521 123.997 292.23 123.448C291.946 122.899 291.45 122.486 290.843 122.29C290.142 122.065 289.354 122.162 288.747 122.553C288.503 122.711 288.187 122.674 287.983 122.471C287.778 122.268 287.77 121.959 287.943 121.741C288.952 120.5 290.67 119.997 292.23 120.5C294.247 121.155 295.335 123.253 294.657 125.178C294.145 126.622 292.789 127.599 291.198 127.667C291.19 127.667 291.182 127.667 291.166 127.667L291.174 127.674ZM292.222 121.719C293.089 122.335 293.617 123.305 293.656 124.328C293.798 123.26 293.231 122.207 292.222 121.719Z" fill="#201D1D"/>
<path d="M282.017 143.985C282.072 144.971 281.481 145.843 280.591 146.234C281.056 145.82 281.332 145.219 281.292 144.564C281.221 143.384 280.166 142.474 278.928 142.542C278.203 142.579 277.573 142.94 277.203 143.474C277.478 142.542 278.353 141.835 279.425 141.775C280.78 141.707 281.939 142.692 282.009 143.993L282.017 143.985Z" fill="#201D1D"/>
<path d="M280.599 146.798C280.41 146.798 280.221 146.708 280.11 146.55C279.945 146.317 279.984 146.016 280.197 145.82C280.552 145.504 280.741 145.053 280.717 144.587C280.67 143.715 279.89 143.045 278.968 143.098C278.456 143.128 277.983 143.384 277.699 143.782C277.534 144.015 277.226 144.098 276.958 143.978C276.698 143.858 276.556 143.579 276.635 143.316C276.99 142.128 278.101 141.278 279.393 141.211C280.213 141.165 280.993 141.429 281.592 141.947C282.199 142.466 282.553 143.181 282.6 143.955C282.671 145.151 281.978 146.249 280.835 146.745C280.757 146.783 280.67 146.798 280.591 146.798H280.599Z" fill="#201D1D"/>
<path d="M271.521 126.983C271.576 127.968 270.985 128.84 270.095 129.231C270.56 128.818 270.836 128.216 270.796 127.562C270.725 126.381 269.669 125.471 268.432 125.539C267.707 125.576 267.077 125.937 266.707 126.471C266.982 125.539 267.857 124.832 268.929 124.772C270.284 124.704 271.442 125.689 271.513 126.99L271.521 126.983Z" fill="#201D1D"/>
<path d="M270.103 129.795C269.914 129.795 269.725 129.705 269.614 129.547C269.449 129.314 269.488 129.013 269.701 128.818C270.056 128.502 270.245 128.051 270.221 127.592C270.197 127.171 270 126.787 269.669 126.501C269.338 126.216 268.905 126.08 268.472 126.103C267.959 126.133 267.487 126.381 267.203 126.787C267.037 127.013 266.722 127.103 266.462 126.983C266.202 126.862 266.06 126.584 266.139 126.321C266.494 125.125 267.605 124.283 268.897 124.215C270.56 124.133 272.018 125.358 272.104 126.96C272.175 128.156 271.482 129.254 270.339 129.75C270.26 129.788 270.174 129.803 270.095 129.803L270.103 129.795Z" fill="#201D1D"/>
<path d="M278.905 108.875C278.913 109.822 278.314 110.627 277.447 110.965C277.912 110.589 278.203 110.025 278.196 109.393C278.18 108.265 277.211 107.356 276.021 107.371C275.327 107.371 274.713 107.701 274.334 108.19C274.642 107.31 275.508 106.671 276.533 106.656C277.833 106.641 278.897 107.634 278.905 108.875Z" fill="#201D1D"/>
<path d="M277.447 111.529C277.25 111.529 277.053 111.431 276.943 111.258C276.793 111.025 276.84 110.717 277.061 110.536C277.408 110.251 277.605 109.837 277.597 109.401C277.589 108.589 276.887 107.935 276.036 107.935H276.021C275.54 107.935 275.083 108.16 274.799 108.529C274.626 108.754 274.311 108.822 274.051 108.694C273.791 108.566 273.672 108.28 273.759 108.017C274.153 106.882 275.256 106.107 276.509 106.1C277.258 106.092 278.038 106.378 278.597 106.897C279.157 107.423 279.472 108.123 279.48 108.875C279.496 110.033 278.779 111.063 277.652 111.491C277.581 111.522 277.502 111.529 277.431 111.529H277.447Z" fill="#201D1D"/>
</svg>
