<svg width="700" height="657" viewBox="0 0 700 657" fill="none" xmlns="http://www.w3.org/2000/svg">
<g filter="url(#filter0_d_20_1359)">
<rect x="11" y="11" width="670" height="627" rx="25" stroke="#3F51B5" stroke-width="10" shape-rendering="crispEdges"/>
<path d="M300.46 419.765C300.064 419.765 299.668 419.395 299.536 419.024C298.216 414.212 292.936 411.374 287.788 412.608C286.6 412.854 285.544 413.348 284.62 413.965C284.356 414.212 284.092 414.212 283.696 414.088C283.432 413.965 283.168 413.718 283.036 413.471C281.056 407.548 274.324 404.216 267.988 406.067C267.46 406.191 266.932 405.944 266.8 405.574C266.668 405.08 266.932 404.587 267.328 404.463C270.892 403.353 274.72 403.723 278.02 405.327C280.924 406.684 283.168 409.029 284.488 411.867C287.392 410.263 290.956 410.016 294.124 411.127C297.82 412.237 300.592 415.076 301.384 418.654C301.516 419.148 301.12 419.518 300.724 419.641L300.46 419.765Z" fill="#FBBF24"/>
<path d="M646.036 423.22C645.508 423.22 645.112 422.85 645.112 422.48C644.188 416.063 637.852 411.744 630.988 412.608C630.328 412.731 629.668 412.854 629.008 413.101C628.744 413.225 628.48 413.225 628.216 413.101C627.952 412.978 627.82 412.731 627.688 412.484C625.444 403.599 615.94 398.17 606.436 400.268C604.456 400.761 602.476 401.502 600.76 402.612C600.364 402.859 599.836 402.859 599.44 402.489C596.668 398.54 591.652 396.319 586.636 396.812C581.62 397.553 577.792 401.995 578.188 406.314C578.188 406.684 577.924 407.055 577.528 407.178C577.132 407.301 576.736 407.178 576.472 406.808C575.548 405.697 574.228 404.957 572.776 404.71C570.664 404.34 568.42 404.833 566.704 405.944C564.064 407.672 562.216 410.633 560.896 415.199C560.764 415.569 560.5 415.816 560.104 415.816C559.708 415.816 559.312 415.693 559.18 415.322C558.388 413.842 556.936 412.731 555.22 412.237C552.712 411.497 549.94 411.62 547.432 412.731C543.208 414.705 540.436 418.654 538.192 422.726C537.928 423.097 537.4 423.22 536.872 422.973C536.476 422.726 536.344 422.233 536.476 421.863C538.984 417.544 541.888 413.348 546.508 411.127C549.412 409.769 552.712 409.646 555.748 410.51C557.2 411.003 558.652 411.744 559.708 412.854C561.028 408.906 563.008 406.191 565.648 404.463C567.76 402.982 570.532 402.489 573.172 402.859C574.36 402.982 575.416 403.476 576.34 404.093C577.264 399.404 581.224 395.702 586.24 394.838C591.652 394.221 597.064 396.442 600.364 400.514C609.604 395.332 621.616 398.17 627.16 406.808C627.952 408.165 628.744 409.523 629.14 411.127C632.968 410.263 636.928 410.88 640.228 412.854C643.924 414.829 646.3 418.407 646.828 422.356C647.092 422.726 646.696 423.22 646.036 423.22Z" fill="#FBBF24"/>
<path d="M641.944 428.896H45.964C45.436 428.896 45.04 428.526 45.04 428.033C45.04 427.539 45.436 427.169 45.964 427.169H642.076C642.604 427.169 643 427.539 643 428.033C643 428.526 642.472 428.896 641.944 428.896C642.076 428.896 642.076 428.896 641.944 428.896Z" fill="#FBBF24"/>
<path d="M263.236 331.657H65.896V428.156H263.236V331.657Z" fill="white"/>
<path d="M263.236 428.896H65.8959C65.3679 428.896 64.9719 428.526 64.9719 428.033V331.657C64.9719 331.164 65.3679 330.793 65.8959 330.793H263.236C263.764 330.793 264.16 331.164 264.16 331.657V428.156C264.16 428.526 263.764 428.896 263.236 428.896ZM66.8199 427.169H262.312V332.398H66.8199V427.169Z" fill="#FBBF24"/>
<path d="M263.236 331.657H65.896V337.457H263.236V331.657Z" fill="white"/>
<path d="M263.236 338.321H65.8959C65.3679 338.321 64.9719 337.951 64.9719 337.457V331.657C64.9719 331.164 65.3679 330.793 65.8959 330.793H263.236C263.764 330.793 264.16 331.164 264.16 331.657V337.457C264.16 337.951 263.764 338.321 263.236 338.321ZM66.8199 336.593H262.312V332.521H66.8199V336.593Z" fill="#FBBF24"/>
<path d="M185.884 314.011H143.248V428.033H185.884V314.011Z" fill="white"/>
<path d="M185.884 428.896H143.248C142.72 428.896 142.324 428.526 142.324 428.033V314.011C142.324 313.517 142.72 313.147 143.248 313.147H185.884C186.412 313.147 186.808 313.517 186.808 314.011V428.033C186.808 428.526 186.412 428.896 185.884 428.896ZM144.172 427.169H184.96V314.875H144.172V427.169Z" fill="#FBBF24"/>
<path d="M189.052 306.977H139.948V314.011H189.052V306.977Z" fill="white"/>
<path d="M189.184 314.875H140.08C139.552 314.875 139.156 314.505 139.156 314.011V306.977C139.156 306.484 139.552 306.113 140.08 306.113H189.184C189.712 306.113 190.108 306.484 190.108 306.977V314.011C190.108 314.381 189.712 314.875 189.184 314.875ZM140.872 313.147H188.128V307.841H141.004L140.872 313.147Z" fill="#FBBF24"/>
<path d="M174.268 406.067H154.864V428.033H174.268V406.067Z" fill="white"/>
<path d="M174.268 428.896H154.864C154.336 428.896 153.94 428.526 153.94 428.033V406.067C153.94 405.574 154.336 405.204 154.864 405.204H174.268C174.796 405.204 175.192 405.574 175.192 406.067V428.033C175.192 428.526 174.796 428.896 174.268 428.896ZM155.788 427.169H173.344V406.931H155.788V427.169Z" fill="#FBBF24"/>
<path d="M174.268 409.893H154.864V428.033H174.268V409.893Z" fill="white"/>
<path d="M174.268 428.896H154.864C154.336 428.896 153.94 428.526 153.94 428.033V409.893C153.94 409.399 154.336 409.029 154.864 409.029H174.268C174.796 409.029 175.192 409.399 175.192 409.893V428.033C175.192 428.526 174.796 428.896 174.268 428.896ZM155.788 427.169H173.344V410.757H155.788V427.169Z" fill="#FBBF24"/>
<path d="M89.656 348.686H79.624V362.137H89.656V348.686Z" fill="white"/>
<path d="M89.656 362.877H79.624C79.096 362.877 78.7 362.507 78.7 362.014V348.686C78.7 348.193 79.096 347.823 79.624 347.823H89.656C90.184 347.823 90.58 348.193 90.58 348.686V362.014C90.58 362.507 90.184 362.877 89.656 362.877ZM80.548 361.15H88.7319V349.55H80.548V361.15Z" fill="#FBBF24"/>
<path d="M110.38 348.686H100.348V362.137H110.38V348.686Z" fill="white"/>
<path d="M110.512 362.877H100.48C99.9522 362.877 99.5562 362.507 99.5562 362.014V348.686C99.5562 348.193 99.9522 347.823 100.48 347.823H110.512C111.04 347.823 111.436 348.193 111.436 348.686V362.014C111.436 362.507 110.908 362.877 110.512 362.877ZM101.272 361.15H109.456V349.55H101.272V361.15Z" fill="#FBBF24"/>
<path d="M131.236 348.686H121.204V362.137H131.236V348.686Z" fill="white"/>
<path d="M131.236 362.877H121.204C120.676 362.877 120.28 362.507 120.28 362.014V348.686C120.28 348.193 120.676 347.823 121.204 347.823H131.236C131.764 347.823 132.16 348.193 132.16 348.686V362.014C132.16 362.507 131.764 362.877 131.236 362.877ZM122.128 361.15H130.312V349.55H122.128V361.15Z" fill="#FBBF24"/>
<path d="M89.656 367.69H79.624V381.141H89.656V367.69Z" fill="white"/>
<path d="M89.656 382.004H79.624C79.096 382.004 78.7 381.634 78.7 381.141V367.69C78.7 367.196 79.096 366.826 79.624 366.826H89.656C90.184 366.826 90.58 367.196 90.58 367.69V381.141C90.58 381.511 90.184 382.004 89.656 382.004ZM80.548 380.277H88.7319V368.554H80.548V380.277Z" fill="#FBBF24"/>
<path d="M110.38 367.69H100.348V381.141H110.38V367.69Z" fill="white"/>
<path d="M110.512 382.004H100.48C99.9522 382.004 99.5562 381.634 99.5562 381.141V367.69C99.5562 367.196 99.9522 366.826 100.48 366.826H110.512C111.04 366.826 111.436 367.196 111.436 367.69V381.141C111.436 381.511 111.04 382.004 110.512 382.004ZM101.272 380.277H109.456V368.554H101.272V380.277Z" fill="#FBBF24"/>
<path d="M131.236 367.69H121.204V381.141H131.236V367.69Z" fill="white"/>
<path d="M131.236 382.004H121.204C120.676 382.004 120.28 381.634 120.28 381.141V367.69C120.28 367.196 120.676 366.826 121.204 366.826H131.236C131.764 366.826 132.16 367.196 132.16 367.69V381.141C132.16 381.511 131.764 382.004 131.236 382.004ZM122.128 380.277H130.312V368.554H122.128V380.277Z" fill="#FBBF24"/>
<path d="M89.656 386.817H79.624V400.268H89.656V386.817Z" fill="white"/>
<path d="M89.656 401.008H79.624C79.096 401.008 78.7 400.638 78.7 400.144V386.817C78.7 386.323 79.096 385.953 79.624 385.953H89.656C90.184 385.953 90.58 386.323 90.58 386.817V400.268C90.58 400.638 90.184 401.008 89.656 401.008ZM80.548 399.28H88.7319V387.557H80.548V399.28Z" fill="#FBBF24"/>
<path d="M110.38 386.817H100.348V400.268H110.38V386.817Z" fill="white"/>
<path d="M110.512 401.008H100.48C99.9522 401.008 99.5562 400.638 99.5562 400.144V386.817C99.5562 386.323 99.9522 385.953 100.48 385.953H110.512C111.04 385.953 111.436 386.323 111.436 386.817V400.268C111.304 400.638 110.908 401.008 110.512 401.008ZM101.272 399.28H109.456V387.557H101.272V399.28Z" fill="#FBBF24"/>
<path d="M131.236 386.817H121.204V400.268H131.236V386.817Z" fill="white"/>
<path d="M131.236 401.008H121.204C120.676 401.008 120.28 400.638 120.28 400.144V386.817C120.28 386.323 120.676 385.953 121.204 385.953H131.236C131.764 385.953 132.16 386.323 132.16 386.817V400.268C132.16 400.638 131.764 401.008 131.236 401.008ZM122.128 399.28H130.312V387.557H122.128V399.28Z" fill="#FBBF24"/>
<path d="M208.192 348.686H198.16V362.137H208.192V348.686Z" fill="white"/>
<path d="M208.324 362.877H198.16C197.632 362.877 197.236 362.507 197.236 362.014V348.686C197.236 348.193 197.632 347.823 198.16 347.823H208.192C208.72 347.823 209.116 348.193 209.116 348.686V362.014C209.116 362.507 208.72 362.877 208.324 362.877ZM199.084 361.15H207.4V349.55H199.216L199.084 361.15Z" fill="#FBBF24"/>
<path d="M229.048 348.686H219.016V362.137H229.048V348.686Z" fill="white"/>
<path d="M229.048 362.877H219.016C218.488 362.877 218.092 362.507 218.092 362.014V348.686C218.092 348.193 218.488 347.823 219.016 347.823H229.048C229.576 347.823 229.972 348.193 229.972 348.686V362.014C229.972 362.507 229.576 362.877 229.048 362.877ZM219.94 361.15H228.124V349.55H219.94V361.15Z" fill="#FBBF24"/>
<path d="M249.904 348.686H239.872V362.137H249.904V348.686Z" fill="white"/>
<path d="M249.904 362.877H239.872C239.344 362.877 238.948 362.507 238.948 362.014V348.686C238.948 348.193 239.344 347.823 239.872 347.823H249.904C250.432 347.823 250.828 348.193 250.828 348.686V362.014C250.828 362.507 250.432 362.877 249.904 362.877ZM240.796 361.15H248.98V349.55H240.796V361.15Z" fill="#FBBF24"/>
<path d="M208.192 367.69H198.16V381.141H208.192V367.69Z" fill="white"/>
<path d="M208.324 382.004H198.16C197.632 382.004 197.236 381.634 197.236 381.141V367.69C197.236 367.196 197.632 366.826 198.16 366.826H208.192C208.72 366.826 209.116 367.196 209.116 367.69V381.141C209.116 381.511 208.72 381.881 208.324 382.004ZM199.084 380.277H207.4V368.554H199.216L199.084 380.277Z" fill="#FBBF24"/>
<path d="M229.048 367.69H219.016V381.141H229.048V367.69Z" fill="white"/>
<path d="M229.048 382.004H219.016C218.488 382.004 218.092 381.634 218.092 381.141V367.69C218.092 367.196 218.488 366.826 219.016 366.826H229.048C229.576 366.826 229.972 367.196 229.972 367.69V381.141C229.972 381.511 229.576 382.004 229.048 382.004ZM219.94 380.277H228.124V368.554H219.94V380.277Z" fill="#FBBF24"/>
<path d="M249.904 367.69H239.872V381.141H249.904V367.69Z" fill="white"/>
<path d="M249.904 382.004H239.872C239.344 382.004 238.948 381.634 238.948 381.141V367.69C238.948 367.196 239.344 366.826 239.872 366.826H249.904C250.432 366.826 250.828 367.196 250.828 367.69V381.141C250.828 381.511 250.432 382.004 249.904 382.004ZM240.796 380.277H248.98V368.554H240.796V380.277Z" fill="#FBBF24"/>
<path d="M208.192 386.817H198.16V400.268H208.192V386.817Z" fill="white"/>
<path d="M208.324 401.008H198.16C197.632 401.008 197.236 400.638 197.236 400.144V386.817C197.236 386.323 197.632 385.953 198.16 385.953H208.192C208.72 385.953 209.116 386.323 209.116 386.817V400.268C209.116 400.638 208.72 401.008 208.324 401.008ZM199.084 399.28H207.4V387.557H199.216L199.084 399.28Z" fill="#FBBF24"/>
<path d="M229.048 386.817H219.016V400.268H229.048V386.817Z" fill="white"/>
<path d="M229.048 401.008H219.016C218.488 401.008 218.092 400.638 218.092 400.144V386.817C218.092 386.323 218.488 385.953 219.016 385.953H229.048C229.576 385.953 229.972 386.323 229.972 386.817V400.268C229.972 400.638 229.576 401.008 229.048 401.008ZM219.94 399.28H228.124V387.557H219.94V399.28Z" fill="#FBBF24"/>
<path d="M249.904 386.817H239.872V400.268H249.904V386.817Z" fill="white"/>
<path d="M249.904 401.008H239.872C239.344 401.008 238.948 400.638 238.948 400.144V386.817C238.948 386.323 239.344 385.953 239.872 385.953H249.904C250.432 385.953 250.828 386.323 250.828 386.817V400.268C250.828 400.638 250.432 401.008 249.904 401.008ZM240.796 399.28H248.98V387.557H240.796V399.28Z" fill="#FBBF24"/>
<path d="M252.28 542.178C252.016 542.178 251.752 542.054 251.62 541.931L151.828 435.56C151.432 435.19 151.564 434.696 151.96 434.326C152.356 433.956 152.884 434.079 153.28 434.449L253.072 540.82C253.468 541.19 253.336 541.684 252.94 542.054C252.676 542.054 252.544 542.178 252.28 542.178Z" fill="#FBBF24"/>
<path d="M634.948 531.072C634.816 531.072 634.816 531.072 634.684 531.072L193.804 433.832C193.276 433.709 193.012 433.215 193.144 432.845C193.276 432.352 193.804 432.105 194.2 432.228L635.08 529.467C635.608 529.591 635.872 530.084 635.74 530.455C635.74 530.825 635.344 531.072 634.948 531.072Z" fill="#FBBF24"/>
<path d="M520.24 176.79C520.24 176.79 536.74 159.144 544.264 156.182C551.788 153.221 560.896 166.671 559.972 169.756C559.048 172.841 527.5 190.364 527.5 190.364L520.24 176.79Z" fill="white"/>
<path d="M527.5 191.228C527.368 191.228 527.368 191.228 527.236 191.228C526.972 191.105 526.84 190.981 526.708 190.858L519.316 177.284C519.184 177.037 519.184 176.667 519.448 176.42C520.108 175.68 536.08 158.527 543.868 155.565C546.772 154.455 550.072 155.319 553.372 158.033C557.596 161.489 561.424 167.659 560.764 170.127C559.972 173.212 535.42 187.032 527.896 191.228C527.896 191.228 527.764 191.228 527.5 191.228ZM521.296 176.914L528.028 189.254C543.076 180.862 558.652 171.361 559.312 169.51C559.708 168.152 556.804 162.476 552.448 159.021C550.468 157.416 547.564 155.812 544.66 156.799C537.928 159.514 523.672 174.322 521.296 176.914Z" fill="#231F20"/>
<path d="M255.448 139.77C251.488 135.698 247 131.256 241.06 130.392C234.328 129.405 227.332 133.477 220.732 131.749C219.016 131.256 217.3 130.515 215.716 129.528C212.548 127.677 209.248 125.703 207.532 122.618C207.136 128.047 207.136 133.477 207.4 138.906C212.152 141.498 217.432 144.213 222.976 143.719C225.484 143.349 227.992 142.732 230.368 141.868C235.12 140.387 240.004 139.523 245.02 139.4C249.772 139.153 255.448 140.017 257.824 143.842C258.22 143.102 258.484 142.362 258.484 141.498" fill="#3F51B5"/>
<path d="M250.564 159.267L265.876 173.582C265.876 173.582 279.736 163.957 279.604 163.957C279.472 163.957 271.156 149.519 267.856 145.076C264.556 140.634 250.168 143.102 248.848 146.804C247.528 150.506 250.564 159.267 250.564 159.267Z" fill="white"/>
<path d="M266.008 174.322C265.744 174.322 265.612 174.199 265.48 174.075L250.168 159.761C250.036 159.638 250.036 159.514 249.904 159.391C249.772 159.021 246.868 150.506 248.188 146.557C248.98 144.213 253.468 142.608 257.56 141.991C259.54 141.745 266.14 141.128 268.648 144.459C270.892 147.544 275.512 155.195 278.152 159.761C279.208 161.489 280.132 162.969 280.264 163.216C280.396 163.34 280.396 163.463 280.396 163.586C280.528 164.203 280.528 164.203 266.404 173.952C266.272 174.199 266.14 174.322 266.008 174.322ZM251.356 158.774L266.008 172.471C270.496 169.386 276.7 165.067 278.548 163.71C278.152 163.093 277.624 162.229 276.7 160.625C273.928 156.059 269.44 148.532 267.196 145.447C266.008 143.719 262.312 142.979 257.824 143.596C253.864 144.089 250.3 145.693 249.772 147.051C248.716 149.889 250.432 156.306 251.356 158.774Z" fill="#231F20"/>
<path d="M406.192 399.651C406.192 399.651 411.076 408.659 429.82 418.901C448.564 429.143 479.848 440.496 484.732 445.926C489.616 451.355 492.388 475.048 492.388 475.048C492.388 475.048 504.136 464.559 504.532 460.363C504.928 456.168 498.064 434.573 498.064 434.573L430.084 378.549L406.192 399.651Z" fill="white"/>
<path d="M492.388 475.788C492.256 475.788 492.256 475.788 492.124 475.788C491.86 475.665 491.596 475.418 491.596 475.171C491.596 474.925 488.956 451.602 484.204 446.419C481.564 443.458 470.212 438.522 458.068 433.092C448.564 428.896 437.608 424.084 429.424 419.518C410.812 409.276 405.664 400.391 405.532 400.021C405.4 399.651 405.4 399.28 405.664 399.034L429.556 377.932C429.82 377.685 430.348 377.685 430.744 377.932L498.724 433.956C498.856 434.079 498.988 434.203 498.988 434.326C499.252 435.19 505.852 456.168 505.456 460.363C505.06 464.559 494.368 474.431 493.048 475.542C492.784 475.788 492.52 475.912 492.388 475.788ZM407.248 399.774C408.568 401.748 414.508 409.523 430.216 418.161C438.4 422.603 449.224 427.416 458.728 431.611C471.4 437.288 482.488 442.1 485.392 445.309C489.748 449.998 492.256 467.767 493.048 473.32C496.744 469.865 503.476 463.078 503.608 460.363C503.872 457.155 499.12 441.236 497.272 435.066L430.084 379.66L407.248 399.774Z" fill="#231F20"/>
<path d="M494.104 431.488C493.708 432.475 501.628 453.083 500.044 458.759C498.46 464.436 491.86 471.716 491.86 471.716C491.86 471.716 487.9 479.984 491.464 480.971C495.028 481.958 513.772 461.104 512.584 457.155C511.396 453.206 505.984 445.555 505.984 445.555L516.544 451.849L518.128 448.023C518.128 448.023 509.548 439.015 504.268 435.93C501.1 434.203 497.668 432.722 494.104 431.488Z" fill="#231F20"/>
<path d="M491.86 481.835C491.728 481.835 491.464 481.835 491.332 481.712C490.54 481.465 489.88 480.971 489.616 480.231C488.296 477.516 490.936 471.963 491.2 471.346C491.2 471.223 491.332 471.223 491.332 471.223C491.332 471.099 497.932 464.065 499.384 458.636C500.44 454.934 497.008 443.951 495.028 437.411C493.444 432.352 493.312 431.735 493.576 431.241C493.708 430.871 494.236 430.624 494.632 430.747C498.328 431.981 501.76 433.586 505.06 435.437C510.34 438.522 518.656 447.283 519.052 447.653C519.316 447.9 519.316 448.147 519.184 448.394L517.6 452.219C517.468 452.466 517.336 452.589 517.072 452.713C516.808 452.836 516.544 452.713 516.412 452.589L508.888 448.147C510.868 450.985 512.452 453.947 513.64 457.032C514.696 460.487 504.268 472.58 498.46 477.763C494.632 481.095 492.916 481.835 491.86 481.835ZM492.652 472.086C491.86 473.691 490.276 477.886 491.068 479.614C491.2 479.984 491.464 480.107 491.86 480.231C492.124 480.354 493.708 479.861 497.272 476.652C504.4 470.235 512.584 459.5 511.924 457.402C510.868 453.7 505.456 446.172 505.456 446.049C505.192 445.679 505.324 445.185 505.72 444.938C505.984 444.815 506.38 444.815 506.644 444.938L516.412 450.738L517.468 448.27C515.884 446.543 508.624 439.262 504.136 436.671C501.364 435.066 498.328 433.709 495.292 432.598C495.556 433.709 496.084 435.313 496.612 436.917C498.856 444.075 502.156 454.81 501.1 458.883C499.384 464.559 493.444 471.223 492.652 472.086Z" fill="#231F20"/>
<path d="M329.764 410.88C329.764 410.88 360.124 498.494 360.124 501.949C360.124 505.404 344.944 524.408 344.944 524.408C344.944 524.408 363.424 525.765 369.232 520.706C375.04 515.647 381.244 499.975 381.244 499.975L365.932 392.617L329.764 410.88Z" fill="white"/>
<path d="M350.356 525.272C347.32 525.272 345.076 525.148 344.812 525.148C344.548 525.148 344.284 524.902 344.152 524.655C344.02 524.408 344.02 524.038 344.284 523.914C350.092 516.634 359.332 504.294 359.332 501.949C359.2 499.358 341.116 446.172 328.972 411.127C328.84 410.757 328.972 410.386 329.368 410.14L365.536 391.753C365.8 391.63 366.064 391.63 366.328 391.753C366.592 391.876 366.724 392.123 366.724 392.37L382.036 499.728C382.036 499.851 382.036 499.975 382.036 500.098C381.772 500.715 375.7 516.017 369.892 521.076C365.668 524.655 356.428 525.272 350.356 525.272ZM346.528 523.668C351.016 523.914 364.084 524.038 368.572 520.089C373.852 515.523 379.528 501.579 380.32 499.851L365.272 393.851L330.82 411.374C334.78 422.85 361.048 498.741 361.048 502.073C361.048 505.404 350.356 518.732 346.528 523.668Z" fill="#231F20"/>
<path d="M380.716 497.26C380.716 497.26 370.816 518.485 365.8 521.076C360.784 523.668 346.132 522.68 346.132 522.68C346.132 522.68 336.232 526.506 338.08 529.591C339.928 532.676 366.46 532.799 372.4 528.974C378.34 525.148 380.716 518.115 380.716 518.115L382.036 529.961L386.92 530.084C386.92 530.084 389.956 513.055 388.372 507.996C386.788 502.936 380.716 497.26 380.716 497.26Z" fill="#231F20"/>
<path d="M352.864 532.676C348.904 532.799 344.944 532.429 340.984 531.689C339.004 531.195 337.816 530.701 337.42 529.961C337.024 529.344 337.024 528.604 337.288 527.987C338.344 525.025 345.208 522.31 346 522.063C346.132 522.063 346.264 521.94 346.396 522.063C346.528 522.063 360.916 523.051 365.668 520.583C369.628 518.485 377.548 502.936 380.188 497.137C380.32 496.766 380.848 496.52 381.244 496.766C381.376 496.766 381.376 496.89 381.508 496.89C381.772 497.137 387.712 502.69 389.296 507.996C390.88 513.302 387.976 529.714 387.844 530.455C387.712 530.825 387.448 531.072 387.052 531.072L382.168 530.948C381.772 530.948 381.376 530.578 381.376 530.208L380.452 521.323C378.736 524.655 376.228 527.616 373.06 529.714C369.628 531.689 360.784 532.676 352.864 532.676ZM346.264 523.421C343.624 524.531 339.4 526.753 338.74 528.357C338.608 528.604 338.608 528.85 338.74 529.097C338.74 529.097 339.004 529.591 341.248 530.084C348.508 531.689 367.12 531.318 371.872 528.233C377.548 524.531 379.924 517.868 379.924 517.744C380.056 517.374 380.584 517.127 380.98 517.251C381.244 517.374 381.508 517.621 381.508 517.868L382.696 529.097L386.128 529.221C386.656 526.012 388.9 512.438 387.448 508.119C386.26 504.417 382.564 500.222 380.848 498.494C378.736 502.936 370.684 519.225 366.064 521.693C361.312 524.408 348.112 523.544 346.264 523.421Z" fill="#231F20"/>
<path d="M435.364 214.057C437.476 219.116 436.42 225.04 433.648 229.852C428.236 238.737 419.524 245.524 409.096 248.856C401.44 251.324 393.256 252.311 385.204 251.447C374.644 250.09 364.876 245.401 357.616 237.997C352.864 233.061 349.168 226.891 348.904 220.227C348.64 213.563 351.94 206.53 358.144 203.321C361.048 201.84 365.008 200.853 366.064 197.768C366.988 195.177 365.404 192.585 365.272 189.871C365.008 186.169 367.384 182.96 370.156 180.245C376.492 174.075 383.488 170.99 392.992 172.101C401.572 173.212 408.964 178.518 414.772 184.318C417.28 186.909 420.052 189.5 420.844 192.956C421.24 194.56 421.24 196.287 421.768 198.015C423.484 203.815 430.48 206.653 434.044 211.712C434.572 212.453 434.968 213.193 435.364 214.057Z" fill="white"/>
<path d="M391.144 252.558C378.208 252.558 365.8 247.498 357.088 238.49C351.676 232.937 348.508 226.397 348.112 220.104C347.716 212.7 351.676 205.666 357.88 202.457C358.54 202.087 359.2 201.84 359.992 201.47C362.368 200.36 364.612 199.372 365.404 197.398C365.8 195.917 365.668 194.313 365.14 192.832C364.876 191.845 364.744 190.858 364.612 189.871C364.348 186.662 366.064 183.207 369.76 179.628C376.756 172.841 384.28 170.127 393.256 171.361C400.78 172.348 408.04 176.42 415.564 183.824C417.94 186.169 420.844 189.13 421.9 192.832C422.032 193.696 422.296 194.436 422.296 195.3C422.428 196.164 422.56 196.904 422.824 197.768C423.748 200.977 426.52 203.198 429.292 205.542C431.404 207.147 433.384 209.121 434.968 211.219C435.496 211.959 435.892 212.823 436.288 213.687C438.4 218.623 437.74 224.793 434.44 230.222C428.896 239.354 420.052 246.264 409.492 249.596C403.552 251.571 397.348 252.558 391.144 252.558ZM389.032 172.718C382.168 172.718 376.36 175.309 370.684 180.862C367.384 184.071 365.8 187.032 366.064 189.871C366.196 190.858 366.328 191.722 366.592 192.585C367.252 194.313 367.252 196.164 366.856 198.015C365.932 200.606 363.16 201.84 360.52 202.951C359.86 203.198 359.2 203.568 358.54 203.938C352.864 206.776 349.432 213.317 349.696 220.104C349.96 225.903 352.996 232.073 358.144 237.38C365.272 244.66 374.776 249.226 385.204 250.583C393.124 251.447 401.176 250.583 408.7 248.115C418.864 244.784 427.312 238.243 432.724 229.482C435.628 224.423 436.288 218.746 434.44 214.304C434.176 213.563 433.78 212.823 433.252 212.206C431.668 210.232 429.952 208.381 427.972 206.9C425.068 204.432 422.032 201.964 420.976 198.385C420.712 197.521 420.58 196.534 420.448 195.67C420.316 194.93 420.184 194.19 420.052 193.326C419.128 190.117 416.488 187.403 414.112 185.058C406.852 177.901 399.856 173.952 392.86 173.088C391.672 172.841 390.352 172.718 389.032 172.718Z" fill="#231F20"/>
<path d="M419.26 226.644L518.788 165.314L538.324 197.398L439.456 265.391C439.456 265.391 438.4 281.927 433.912 323.636C431.272 348.686 494.896 355.597 524.86 398.91C524.86 398.91 427.312 450.245 359.992 436.177C299.404 423.59 305.608 426.182 295.444 421.492L344.284 321.045C344.284 321.045 347.056 267.613 346 261.196L250.564 177.654L280.264 150.753L368.704 223.435L419.26 226.644Z" fill="#3F51B5"/>
<path d="M380.32 271.315C380.32 271.315 377.68 234.541 380.584 227.631C381.244 225.657 382.432 223.929 383.884 222.325C385.996 220.597 388.636 219.363 391.408 218.87C394.708 218.006 398.272 217.265 401.308 218.499C404.08 219.857 406.06 222.448 406.588 225.41C407.116 228.371 406.984 231.333 406.192 234.171C403.816 246.264 380.32 271.315 380.32 271.315Z" fill="#231F20"/>
<path d="M380.32 272.055C380.188 272.055 380.188 272.055 380.056 272.055C379.792 271.932 379.528 271.685 379.528 271.315C379.396 269.834 376.888 234.295 379.924 227.261C381.376 222.325 385.864 218.746 391.276 218.006C394.84 217.019 398.536 216.402 401.836 217.759C404.872 219.24 407.116 221.955 407.644 225.163C408.172 228.125 408.04 231.21 407.248 234.295C404.74 246.511 382.036 270.821 380.98 271.808C380.848 271.932 380.584 272.055 380.32 272.055ZM397.48 218.499C395.5 218.623 393.52 218.87 391.54 219.487C388.9 219.98 386.392 221.091 384.412 222.818C383.092 224.299 382.036 226.027 381.376 227.878C378.868 233.678 380.584 261.813 380.98 269.464C385.996 264.034 403.42 244.29 405.532 234.048C406.192 231.21 406.324 228.371 405.928 225.533C405.532 222.818 403.684 220.474 401.044 219.24C399.856 218.623 398.668 218.376 397.48 218.499Z" fill="#231F20"/>
<path d="M407.38 239.848C408.172 243.55 408.568 247.252 408.436 250.954C408.436 264.404 409.492 277.731 411.604 291.059C413.716 304.386 416.884 319.07 425.596 330.176C445.264 355.35 482.884 349.92 482.884 349.92L495.16 316.109C495.16 316.109 470.872 322.772 448.036 311.173C443.548 308.952 440.38 305.003 437.74 301.054C429.424 287.974 426.388 271.932 423.484 257.247C422.692 253.545 420.976 239.107 418.996 235.529C414.904 228.248 407.248 223.312 398.536 222.201C398.272 222.201 398.14 222.201 397.876 222.325C397.744 222.448 397.612 222.695 397.612 222.818L396.952 228.125C402.364 229.976 406.324 234.418 407.38 239.848Z" fill="white"/>
<path d="M474.436 351.154C462.028 351.154 438.928 348.563 424.936 330.547C416.356 319.687 413.056 305.126 410.812 291.059C408.7 277.731 407.644 264.281 407.644 250.954C407.776 247.252 407.38 243.673 406.588 239.971C405.532 234.912 401.836 230.593 396.688 228.742C396.292 228.618 396.16 228.248 396.16 227.878L396.82 222.572C396.82 221.831 397.48 221.214 398.272 221.214C398.404 221.214 398.536 221.214 398.668 221.214C407.644 222.201 415.564 227.384 419.788 234.912C421.372 237.75 422.692 246.635 423.616 252.434C423.88 254.409 424.144 256.013 424.408 256.877L424.672 258.111C427.576 272.795 430.612 287.85 438.664 300.437C441.7 305.373 444.868 308.458 448.564 310.309C470.872 321.538 494.764 315.245 495.028 315.245C495.292 315.122 495.688 315.245 495.82 315.492C496.084 315.739 496.084 315.985 495.952 316.232L483.544 350.044C483.412 350.291 483.148 350.537 482.884 350.537C480.112 351.031 477.208 351.154 474.436 351.154ZM408.172 239.601C408.964 243.303 409.36 247.128 409.228 250.83C409.228 264.157 410.284 277.485 412.396 290.812C414.64 304.633 417.808 318.947 426.256 329.559C444.208 352.512 477.736 349.55 482.224 349.057L493.84 317.096C488.032 318.33 467.308 321.662 447.64 311.79C443.68 309.815 440.248 306.36 437.08 301.301C428.896 288.467 425.86 273.166 422.956 258.358L422.692 257.124C422.56 256.136 422.296 254.532 421.9 252.558C421.108 247.128 419.656 238.12 418.204 235.529C414.244 228.495 406.852 223.682 398.404 222.695L397.876 227.384C403.288 229.729 407.116 234.171 408.172 239.601Z" fill="#231F20"/>
<path d="M383.884 222.201C383.884 222.201 302.572 208.381 247.924 308.952L277.756 330.3C277.756 330.3 298.084 231.456 383.884 232.32V222.201Z" fill="white"/>
<path d="M277.624 331.164C277.492 331.164 277.228 331.164 277.096 331.04L247.264 309.692C247 309.445 246.868 309.075 247 308.705C262.708 279.953 290.824 242.439 335.968 227.261C363.028 218.129 383.752 221.461 383.884 221.584C384.28 221.708 384.544 221.955 384.544 222.325V232.444C384.544 232.69 384.412 232.814 384.28 232.937C384.148 233.061 383.884 233.184 383.62 233.184H382.564C299.14 233.184 278.416 329.559 278.284 330.547C278.284 330.793 278.02 331.04 277.756 331.164C277.888 331.164 277.756 331.164 277.624 331.164ZM248.98 308.705L277.096 328.942C281.32 311.913 288.316 295.624 297.82 280.57C312.208 258.111 338.608 231.456 382.828 231.456H382.96V222.818C379.132 222.325 360.388 220.597 336.496 228.618C311.944 236.886 276.964 257.494 248.98 308.705Z" fill="#231F20"/>
<path d="M382.96 218.376C381.112 226.52 374.38 243.92 391.804 241.328C393.652 240.958 395.368 240.341 397.084 239.477C407.644 234.541 408.436 228.742 409.888 218.623C410.548 214.18 412.132 193.696 412.132 193.696L388.9 177.16C388.768 176.79 382.168 181.109 380.188 183.454C373.72 191.105 374.116 201.594 374.248 210.849C374.116 218.623 382.96 218.376 382.96 218.376Z" fill="white"/>
<path d="M388.636 242.316C386.128 242.439 383.488 241.575 381.64 239.971C377.68 235.899 379.792 227.631 381.376 221.461C381.64 220.597 381.772 219.857 382.036 219.116C379.66 218.993 377.548 218.129 375.7 216.648C373.984 215.044 373.06 212.946 373.192 210.725V209.121C373.06 200.236 373.06 190.241 379.264 182.713C380.848 180.862 387.448 175.926 388.768 176.05C388.9 176.05 389.032 176.173 389.164 176.173L412.396 192.709C412.66 192.832 412.792 193.079 412.66 193.449C412.66 194.313 411.076 214.057 410.416 218.499C409.096 228.742 408.304 234.912 397.216 239.971C395.5 240.835 393.652 241.452 391.804 241.822C390.88 242.192 389.692 242.316 388.636 242.316ZM382.96 217.512C383.224 217.512 383.488 217.636 383.62 217.759C383.752 217.882 383.884 218.129 383.752 218.376C383.488 219.363 383.224 220.474 382.96 221.708C381.508 227.384 379.396 235.282 382.828 238.737C384.544 240.465 387.448 240.958 391.672 240.341C393.388 239.971 395.104 239.354 396.688 238.614C406.852 233.801 407.644 228.371 408.964 218.376C409.492 214.427 410.944 196.781 411.076 193.819C394.972 182.343 390.088 178.888 388.504 177.654C385.6 179.258 382.96 181.356 380.584 183.577C374.644 190.611 374.776 199.866 374.776 208.998V210.602C374.644 212.329 375.436 214.18 376.756 215.414C378.472 216.895 380.716 217.636 382.96 217.512Z" fill="#231F20"/>
<path d="M381.376 226.274C381.376 226.274 388.372 227.878 393.784 224.299C399.196 220.721 399.46 216.278 399.46 216.278C399.46 216.278 390.88 219.61 382.96 218.376L381.376 226.274Z" fill="#231F20"/>
<path d="M385.204 227.384C383.884 227.384 382.564 227.261 381.244 227.014C380.848 226.891 380.584 226.52 380.584 226.15L382.168 218.253C382.3 217.882 382.696 217.636 383.092 217.636C390.616 218.87 399.064 215.661 399.064 215.661C399.46 215.538 399.988 215.661 400.12 216.031C400.12 216.155 400.252 216.278 400.12 216.402C400.12 216.648 399.724 221.338 394.048 225.04C391.54 226.644 388.372 227.508 385.204 227.384ZM382.3 225.657C384.148 225.903 389.164 226.397 393.256 223.682C395.632 222.201 397.48 220.104 398.404 217.512C393.652 219.116 388.636 219.733 383.62 219.24L382.3 225.657Z" fill="#231F20"/>
<path d="M391.276 206.653C390.088 206.653 387.184 206.53 386.128 204.925C384.94 203.074 389.56 198.385 392.464 195.67C392.728 195.424 393.256 195.424 393.652 195.67C394.048 195.917 393.916 196.411 393.652 196.781C390.22 199.989 387.448 203.445 387.58 204.185C388.108 205.049 390.616 205.296 391.672 205.172C392.068 205.172 392.464 205.419 392.464 205.913C392.464 206.283 392.2 206.653 391.672 206.776L391.276 206.653Z" fill="#231F20"/>
<path d="M390.088 212.7C385.204 212.7 381.904 207.887 381.772 207.764C381.376 207.517 381.376 207.023 381.64 206.653C381.904 206.283 382.432 206.283 382.828 206.53C382.96 206.653 382.96 206.776 383.092 206.9C383.092 206.9 385.996 211.095 390.088 211.095C392.728 211.095 395.368 209.244 397.876 205.666C398.14 205.296 398.668 205.172 398.932 205.419C399.328 205.666 399.46 206.159 399.196 206.53C396.424 210.602 393.388 212.7 390.088 212.7Z" fill="#231F20"/>
<path d="M402.364 194.066C402.1 194.066 401.836 193.943 401.704 193.696C401.308 193.079 399.988 191.475 398.932 191.475C398.404 191.475 397.876 191.845 397.348 192.709C397.084 193.079 396.556 193.202 396.16 192.956C395.764 192.709 395.632 192.215 395.896 191.845C396.424 190.734 397.612 189.994 398.8 189.871C401.044 189.871 402.892 192.585 403.024 192.956C403.288 193.326 403.156 193.819 402.76 193.943C402.628 194.066 402.496 194.066 402.364 194.066Z" fill="#231F20"/>
<path d="M382.96 192.462C382.828 192.462 382.696 192.462 382.564 192.339C382.168 192.092 382.036 191.598 382.3 191.228C382.3 191.105 383.884 188.76 386.26 188.513C388.636 188.266 389.428 190.364 389.56 191.475C389.692 191.845 389.428 192.339 388.9 192.339C388.504 192.462 387.976 192.092 387.976 191.722C387.976 191.722 387.58 189.871 386.392 189.994C385.204 190.364 384.28 190.981 383.62 191.968C383.488 192.339 383.224 192.462 382.96 192.462Z" fill="#231F20"/>
<path d="M346.528 316.356C346.132 316.356 345.736 315.985 345.736 315.615L343.492 251.817C343.492 251.324 343.888 251.077 344.284 250.954C344.68 250.954 345.076 251.324 345.076 251.694L347.32 315.492C347.32 315.985 346.924 316.356 346.528 316.356Z" fill="#231F20"/>
<path d="M377.548 160.255L373.852 176.297C373.852 176.297 379.792 172.718 392.992 173.458C409.36 174.446 421.24 191.598 421.24 191.598L424.276 168.646C424.276 168.769 403.816 140.881 377.548 160.255Z" fill="#231F20"/>
<path d="M421.24 192.462C420.976 192.462 420.712 192.339 420.58 192.092C420.448 191.968 408.7 175.186 392.992 174.322C380.32 173.582 374.512 176.914 374.38 177.037C374.116 177.16 373.72 177.16 373.456 177.037C373.192 176.914 373.06 176.543 373.192 176.297L376.888 160.255C376.888 160.131 377.02 159.884 377.152 159.884C384.676 154.331 392.596 152.11 400.516 153.221C415.168 155.319 424.672 168.029 425.068 168.646C425.2 168.769 425.2 169.016 425.2 169.139L422.164 192.092C422.164 192.462 421.9 192.709 421.504 192.709H421.24V192.462ZM389.428 172.718C390.616 172.718 391.804 172.718 393.124 172.841C406.852 173.582 417.28 185.305 420.712 189.747L423.484 169.016C422.164 167.288 413.056 156.306 400.12 154.455C392.728 153.468 385.468 155.565 378.34 160.625L375.172 174.816C379.66 173.212 384.544 172.471 389.428 172.718Z" fill="#231F20"/>
<path d="M380.056 174.446C380.056 174.446 355.768 164.327 355.504 163.34C354.976 161.735 393.256 144.213 396.952 143.596C400.648 142.979 445.792 170.003 446.188 170.99C446.584 171.978 447.508 173.212 445.528 174.692C444.076 175.68 415.828 183.207 415.828 183.207L399.592 170.62L380.056 174.446Z" fill="#231F20"/>
<path d="M415.828 183.824C415.696 183.824 415.432 183.701 415.3 183.701L399.328 171.361L380.32 175.186C380.188 175.186 379.924 175.186 379.792 175.186C355.24 164.82 354.976 163.957 354.844 163.586C354.844 163.34 354.844 163.093 354.976 162.846C356.824 160.008 394.444 143.349 396.82 142.855C397.48 142.732 399.46 142.362 423.22 156.059C423.484 156.182 446.452 169.51 446.98 170.744L447.112 170.99C448.036 172.348 447.64 174.322 446.188 175.186C446.188 175.186 446.056 175.186 446.056 175.309C444.604 176.297 420.844 182.713 416.092 183.947C415.96 183.824 415.96 183.824 415.828 183.824ZM399.46 169.633C399.592 169.633 399.856 169.756 399.988 169.756L415.96 182.096C426.784 179.258 443.812 174.569 445 173.829C446.32 172.965 446.056 172.348 445.528 171.484L445.396 171.237C442.888 169.016 400.912 144.213 397.084 144.213C393.916 144.83 360.916 159.884 356.692 163.093C359.464 164.697 372.004 170.127 380.188 173.582L399.46 169.633Z" fill="#231F20"/>
<path d="M257.032 124.962C257.032 124.962 257.824 139.4 251.62 146.064C245.416 152.727 225.22 164.944 225.22 164.944L237.892 177.654C237.892 177.654 260.068 159.144 264.82 148.285C267.724 141.251 269.836 133.97 270.76 126.443C270.76 126.32 263.5 118.792 257.032 124.962Z" fill="white"/>
<path d="M237.892 178.394C237.628 178.394 237.496 178.271 237.232 178.148L224.56 165.437C224.428 165.314 224.296 165.067 224.296 164.82C224.296 164.574 224.428 164.327 224.692 164.203C224.956 164.08 244.888 151.987 250.96 145.447C257.032 138.906 256.24 125.086 256.24 124.962C256.24 124.715 256.372 124.469 256.504 124.345C258.088 122.618 260.464 121.754 262.972 121.754C267.592 121.877 271.288 125.703 271.42 125.826C271.552 125.949 271.684 126.196 271.684 126.443C270.628 133.97 268.648 141.374 265.612 148.532C260.86 159.391 239.476 177.407 238.552 178.148C238.288 178.271 238.156 178.394 237.892 178.394ZM226.54 165.067L237.892 176.42C241.456 173.335 259.804 157.416 263.896 147.915C266.8 141.128 268.78 133.97 269.704 126.69C268.912 125.949 266.008 123.481 262.708 123.358C260.86 123.358 259.144 123.975 257.824 125.209C257.956 127.554 258.088 140.264 252.148 146.557C246.736 152.48 230.5 162.599 226.54 165.067Z" fill="#231F20"/>
<path d="M256.9 160.995C256.9 160.995 252.016 151.987 245.416 151C245.416 151 253.072 145.57 253.732 139.523C264.424 136.315 265.084 141.991 265.084 146.434C265.216 146.434 260.992 157.54 256.9 160.995Z" fill="#3F51B5"/>
<path d="M222.976 168.276C222.184 171.114 224.56 174.692 226.672 176.42C230.5 179.505 239.344 180.492 240.004 174.075C240.268 170.62 238.42 167.412 235.384 165.437C231.424 162.969 225.088 163.093 223.108 167.659C223.108 167.905 222.976 168.152 222.976 168.276Z" fill="white"/>
<path d="M233.932 179.752C231.16 179.752 228.388 178.765 226.144 177.16C223.636 175.063 221.392 171.237 222.184 168.152C222.184 167.905 222.316 167.659 222.448 167.412C223.24 165.437 224.956 164.08 227.068 163.463C230.104 162.723 233.272 163.216 235.912 164.82C239.212 166.918 241.192 170.497 240.928 174.199C240.796 176.42 239.344 178.394 237.232 179.135C236.176 179.505 234.988 179.752 233.932 179.752ZM223.768 168.522C223.24 170.867 225.088 174.199 227.2 175.926C229.312 177.654 233.536 178.765 236.44 177.654C238.024 177.037 239.08 175.556 239.08 174.075C239.344 170.867 237.628 167.905 234.856 166.178C232.612 164.82 229.972 164.45 227.464 165.067C225.88 165.561 224.56 166.671 223.9 168.029C223.9 168.152 223.768 168.276 223.768 168.522Z" fill="#231F20"/>
<path d="M235.252 179.011C234.724 179.011 234.46 178.641 234.46 178.271C234.46 177.901 234.724 177.531 235.12 177.531C236.44 177.16 237.232 176.05 237.232 174.816C237.1 173.458 236.572 172.101 235.516 171.114C234.46 170.003 233.14 169.016 231.688 168.276C231.028 167.905 230.368 167.659 229.576 167.659C228.916 167.659 228.388 167.905 227.992 168.276C227.86 168.646 227.728 169.016 227.596 169.386C227.332 170.127 227.464 170.99 227.728 171.731C228.256 172.471 229.048 173.088 229.972 173.458C231.16 174.075 231.556 173.952 231.688 173.952C231.952 173.829 232.084 173.582 232.084 173.335C232.216 172.841 232.084 172.224 231.82 171.731C231.556 170.99 231.028 170.497 230.236 170.127C229.84 170.003 229.576 169.51 229.708 169.139C229.84 168.769 230.368 168.522 230.764 168.646C231.952 169.139 232.876 170.003 233.272 171.114C233.668 171.978 233.8 172.841 233.668 173.705C233.536 174.446 233.008 175.063 232.348 175.433C231.292 175.68 230.104 175.556 229.048 174.939C227.86 174.446 226.804 173.582 226.144 172.595C225.748 171.607 225.616 170.373 225.88 169.263C226.012 168.646 226.144 168.152 226.54 167.535C227.2 166.671 228.388 166.178 229.576 166.178C230.632 166.178 231.556 166.425 232.48 166.918C234.064 167.659 235.516 168.769 236.704 170.127C238.024 171.484 238.684 173.212 238.816 174.939C238.816 176.914 237.364 178.765 235.252 179.135V179.011Z" fill="#231F20"/>
<path d="M271.948 151.37C271.684 150.876 266.932 140.757 264.556 140.634C262.18 140.511 253.468 142.979 254.656 143.966C255.844 144.953 262.048 145.2 262.048 145.2C259.804 148.532 259.804 152.727 262.048 155.936" fill="white"/>
<path d="M261.916 156.553C261.652 156.553 261.388 156.429 261.256 156.182C259.012 153.097 258.88 149.025 260.596 145.693C258.484 145.57 255.184 145.2 254.128 144.459C253.732 144.213 253.6 143.719 253.732 143.225C254.524 141.621 262.444 139.647 264.556 139.77C267.724 140.017 272.608 150.876 272.608 151C272.74 151.37 272.608 151.863 272.212 151.987C271.816 152.11 271.288 151.987 271.156 151.493C270.1 148.902 265.876 141.374 264.424 141.251C261.388 141.498 258.484 142.238 255.844 143.472C257.824 143.842 259.936 144.089 261.916 144.213C262.444 144.213 262.708 144.583 262.708 145.076C262.708 145.2 262.708 145.323 262.576 145.447C260.596 148.408 260.596 152.357 262.576 155.319C262.84 155.689 262.708 156.182 262.312 156.429C262.312 156.553 262.18 156.676 261.916 156.553Z" fill="#231F20"/>
<path d="M246.868 144.089C246.208 144.583 245.548 145.076 244.888 145.693C243.832 147.051 243.436 148.778 243.964 150.259C244.492 151.863 245.68 153.221 247.132 153.961C247.66 154.208 248.188 154.331 248.716 154.331C249.112 154.208 249.376 154.085 249.64 153.838C251.224 152.604 252.676 151.246 253.732 149.642C254.788 148.408 255.184 146.927 255.052 145.447C254.524 143.842 253.204 142.608 251.488 142.238C249.772 141.621 248.32 143.102 246.868 144.089Z" fill="white"/>
<path d="M248.584 155.195C248.056 155.195 247.396 154.948 246.868 154.702C245.152 153.838 243.832 152.357 243.172 150.506C242.644 148.655 243.04 146.681 244.228 145.2C244.888 144.583 245.548 143.966 246.34 143.472L247.132 142.855C248.32 141.868 249.904 140.757 251.884 141.374C253.864 141.868 255.448 143.349 255.976 145.2C256.24 146.927 255.712 148.655 254.524 150.012C253.336 151.74 251.884 153.221 250.168 154.455C249.772 154.702 249.376 154.948 248.848 155.072C248.848 155.195 248.716 155.195 248.584 155.195ZM247.396 144.706C246.736 145.076 246.208 145.57 245.68 146.187C244.756 147.298 244.492 148.778 244.888 150.136C245.416 151.493 246.34 152.604 247.66 153.344C247.924 153.591 248.32 153.591 248.584 153.591C248.848 153.468 248.98 153.344 249.244 153.221C250.828 152.11 252.148 150.753 253.204 149.149C254.128 148.161 254.524 146.804 254.392 145.447C253.996 144.089 252.808 143.102 251.356 142.732C250.3 142.485 249.508 142.979 248.188 143.966L247.396 144.706Z" fill="#231F20"/>
<path d="M262.972 184.441C262.708 184.441 262.576 184.318 262.312 184.194C262.048 183.824 262.048 183.33 262.312 183.084L287.92 160.378C288.184 160.008 288.712 160.008 289.108 160.255C289.504 160.501 289.504 160.995 289.24 161.365L289.108 161.489L263.5 184.071C263.368 184.318 263.236 184.441 262.972 184.441Z" fill="#231F20"/>
<path d="M445.528 192.339C445.132 192.339 444.736 191.968 444.736 191.598L444.604 172.718C444.604 172.348 445 171.978 445.396 171.978C445.792 171.978 446.188 172.348 446.188 172.718V191.598C446.32 191.968 445.924 192.339 445.528 192.339Z" fill="#231F20"/>
<path d="M445.924 189.871C445.924 189.871 442.228 198.509 442.624 198.509C443.02 198.509 447.244 199.249 447.244 199.249L445.924 189.871Z" fill="#231F20"/>
<path d="M447.244 199.989H447.112C445.264 199.619 443.152 199.249 442.756 199.249C442.492 199.249 442.228 199.249 442.096 199.002C441.7 198.509 441.568 198.509 445.264 189.624C445.396 189.254 445.924 189.007 446.32 189.254C446.584 189.377 446.848 189.624 446.848 189.871L448.168 199.249C448.168 199.496 448.168 199.743 447.904 199.866C447.64 199.989 447.508 199.989 447.244 199.989ZM443.68 197.892C444.208 198.015 445 198.138 446.32 198.385L445.528 193.079C444.736 195.053 443.944 196.904 443.68 197.892Z" fill="#231F20"/>
<path d="M407.908 200.236C409.756 197.521 413.452 196.658 416.488 198.262C417.148 198.632 417.676 199.126 418.072 199.743C418.6 200.73 418.6 201.717 418.336 202.828C417.28 206.776 413.188 209.491 408.964 208.998" fill="white"/>
<path d="M409.756 209.738C409.36 209.738 408.964 209.738 408.568 209.615C408.04 209.615 407.776 209.244 407.776 208.751C407.776 208.257 408.172 208.01 408.7 208.01H408.832C412.792 208.381 416.356 206.036 417.28 202.457C417.544 201.594 417.412 200.73 417.148 199.989C416.884 199.496 416.356 199.002 415.828 198.755C413.32 197.398 410.02 198.138 408.568 200.483C408.304 200.853 407.776 200.977 407.38 200.73C406.984 200.483 406.852 199.989 407.116 199.619C409.096 196.534 413.452 195.547 416.884 197.398C417.676 197.892 418.336 198.509 418.732 199.249C419.26 200.36 419.392 201.594 418.996 202.828C417.94 206.9 414.112 209.615 409.756 209.738Z" fill="#231F20"/>
<path d="M422.032 176.667C421.768 176.667 421.504 176.543 421.372 176.42C421.24 176.297 405.4 159.144 392.464 160.008C379.528 160.872 375.964 166.671 375.964 166.671C375.7 167.042 375.172 167.288 374.776 167.042C374.38 166.795 374.248 166.301 374.38 165.931C374.512 165.684 378.604 159.267 392.332 158.404C406.06 157.54 422.032 174.692 422.692 175.433C423.088 175.803 422.956 176.297 422.56 176.667C422.428 176.667 422.296 176.667 422.032 176.667Z" fill="white"/>
<path d="M604.456 164.944L554.164 192.215L518.788 135.328L569.74 107.686L604.456 164.944Z" fill="white"/>
<path d="M554.164 192.956C553.9 192.956 553.636 192.832 553.504 192.585L517.996 135.698C517.864 135.575 517.864 135.328 517.864 135.081C517.864 134.834 517.996 134.711 518.26 134.587L569.344 106.946C569.476 106.822 569.74 106.822 570.004 106.822C570.268 106.822 570.4 106.946 570.532 107.193L605.116 164.45C605.38 164.82 605.248 165.314 604.852 165.561L554.56 192.956C554.428 192.956 554.296 192.956 554.164 192.956ZM519.976 135.575L554.56 191.105L603.4 164.574L569.608 108.673L519.976 135.575Z" fill="#231F20"/>
<path d="M555.88 186.415C555.748 186.415 555.748 186.415 555.616 186.415C555.352 186.415 555.22 186.169 555.088 186.045L524.992 137.549C524.728 137.179 524.86 136.685 525.256 136.315C525.256 136.315 525.256 136.315 525.388 136.315L566.836 113.856C567.232 113.609 567.892 113.733 568.156 114.103C568.156 114.103 568.156 114.103 568.156 114.226L598.252 162.723C598.516 163.093 598.384 163.71 597.988 163.957L556.408 186.292C556.276 186.415 556.144 186.415 555.88 186.415ZM527.104 137.426L556.276 184.318L596.008 162.723L566.836 115.831L527.104 137.426Z" fill="#FBBF24"/>
<path d="M542.284 142.115C541.756 142.115 541.36 141.745 541.36 141.251C541.36 140.881 541.492 140.634 541.888 140.511L562.48 129.405C562.876 129.158 563.404 129.281 563.8 129.651C563.8 129.651 563.8 129.651 563.8 129.775C564.064 130.145 563.932 130.762 563.536 131.009C563.536 131.009 563.536 131.009 563.404 131.009L542.812 142.238C542.68 142.238 542.548 142.238 542.284 142.115Z" fill="#FBBF24"/>
<path d="M528.952 167.659C528.952 167.659 530.536 160.748 530.932 159.267C531.328 157.787 537.268 152.11 538.192 153.097C539.116 154.085 534.892 161.365 534.892 161.365C537.136 163.216 538.06 166.054 537.136 168.646" fill="white"/>
<path d="M537.136 169.633C537.004 169.633 537.004 169.633 536.872 169.633C536.476 169.51 536.212 169.016 536.344 168.646C537.136 166.301 536.344 163.71 534.364 162.106C533.968 161.859 533.968 161.489 534.1 161.118C535.552 158.897 536.608 156.429 537.4 153.961C535.816 154.578 531.856 158.527 531.592 159.391C531.196 160.872 529.612 167.782 529.612 167.782L528.028 167.412C528.028 167.412 529.612 160.501 530.008 159.021C530.404 157.54 535.156 152.851 537.268 152.234C537.796 151.987 538.324 152.11 538.72 152.48C539.116 152.851 540.04 153.838 535.948 161.118C538.06 163.093 538.852 166.054 537.928 168.893C537.928 169.386 537.532 169.633 537.136 169.633Z" fill="#231F20"/>
<path d="M527.632 202.334C527.368 202.334 526.972 202.211 526.84 201.964L510.472 174.322C510.208 173.952 510.34 173.458 510.736 173.212C511.132 172.965 511.66 173.088 511.924 173.458L528.292 200.977C528.556 201.347 528.424 201.84 528.028 202.087C527.896 202.211 527.764 202.334 527.632 202.334Z" fill="#231F20"/>
<path d="M277.492 316.479C277.36 316.479 277.096 316.479 276.964 316.356L254.26 302.411C253.864 302.165 253.732 301.671 253.996 301.177C254.26 300.684 254.788 300.684 255.316 300.931L278.02 314.875C278.416 315.122 278.548 315.739 278.284 316.109C278.152 316.356 277.756 316.479 277.492 316.479Z" fill="#FBBF24"/>
<path d="M464.14 345.972C464.008 345.972 463.876 345.972 463.744 345.848C463.216 345.725 463.084 345.108 463.216 344.738L474.304 321.045C474.568 320.551 475.096 320.428 475.492 320.551C476.02 320.798 476.152 321.292 476.02 321.662L464.932 345.355C464.932 345.725 464.536 345.972 464.14 345.972Z" fill="#FBBF24"/>
</g>
<defs>
<filter id="filter0_d_20_1359" x="0" y="0" width="700" height="657" filterUnits="userSpaceOnUse" color-interpolation-filters="sRGB">
<feFlood flood-opacity="0" result="BackgroundImageFix"/>
<feColorMatrix in="SourceAlpha" type="matrix" values="0 0 0 0 0 0 0 0 0 0 0 0 0 0 0 0 0 0 127 0" result="hardAlpha"/>
<feOffset dx="4" dy="4"/>
<feGaussianBlur stdDeviation="5"/>
<feComposite in2="hardAlpha" operator="out"/>
<feColorMatrix type="matrix" values="0 0 0 0 0.984314 0 0 0 0 0.74902 0 0 0 0 0.141176 0 0 0 1 0"/>
<feBlend mode="normal" in2="BackgroundImageFix" result="effect1_dropShadow_20_1359"/>
<feBlend mode="normal" in="SourceGraphic" in2="effect1_dropShadow_20_1359" result="shape"/>
</filter>
</defs>
</svg>
