<svg width="500" height="500" viewBox="0 0 500 500" fill="none" xmlns="http://www.w3.org/2000/svg">
<path d="M307.1 365.8C288.9 352.4 281.9 328.1 282.2 305.6C282.3 294.2 284.4 282.1 292.3 273.9C296.1 270 301 267.3 306.1 265.1C322.2 258.1 343.7 257 355 270.5C358.3 274.5 360.3 279.3 362.2 284.1C368.9 300.8 375 317.7 380.4 334.9C385.7 351.8 391.4 378.4 367.5 379.9C348 381.1 323.1 377.5 307.1 365.8Z" fill="white"/>
<path d="M360.2 380.8C342.7 380.8 321.2 377.1 306.7 366.4C290.3 354.4 281.2 332.2 281.5 305.5C281.7 290.8 285.1 280.3 291.9 273.3C296.3 268.8 302 266.1 305.9 264.3C322.4 257.1 344.2 256.1 355.6 269.9C358.8 273.8 360.8 278.5 363 283.7C369.7 300.3 375.8 317.4 381.2 334.5C387.1 353.2 387.4 365.9 382.3 373.3C379.3 377.7 374.3 380.1 367.6 380.5C365.2 380.8 362.7 380.8 360.2 380.8ZM307.5 365.2C323.9 377.2 349.2 380.3 367.4 379.1C373.6 378.7 378.2 376.5 380.9 372.5C385.7 365.5 385.3 353.3 379.5 335C374.2 317.9 368.1 300.9 361.4 284.3C359.3 279.2 357.4 274.7 354.3 270.9C343.4 257.7 322.3 258.7 306.3 265.7C302.5 267.3 296.9 270.1 292.8 274.3C286.3 281 283 291.2 282.9 305.5C282.6 331.7 291.6 353.4 307.5 365.2Z" fill="#231F20"/>
<path d="M116.7 280.5L64.1001 258.8C82.8001 218.9 103.8 195.2 118.4 185.9C137 170.5 183 169.4 225.1 167.8C225.1 167.8 245.1 166.1 265.2 171.7C314.4 185.3 360.2 256.6 360.2 256.6L300.6 264.7C300.6 264.7 308.3 336.8 315.1 424.6C315.1 424.6 237.9 442 117.2 435.2C117.1 435.2 117.8 293 116.7 280.5Z" fill="#FBBF24"/>
<path d="M230.6 160.7L237.2 192.4C237.2 192.4 230.2 213.4 208.9 211.2C187.6 209 177.8 191.9 177.8 191.9L170.2 133.7C170.2 133.7 184.4 123.5 175.4 90.8999C175.4 90.8999 199.8 99.1999 230 91.1999C230 91.1999 244.2 125.9 243.8 142.2C243.4 158.5 230.6 160.7 230.6 160.7Z" fill="white"/>
<path d="M212 212C211 212 209.9 211.9 208.9 211.8C187.5 209.6 177.4 192.3 177.3 192.1C177.2 192 177.2 191.9 177.2 191.8L169.6 133.6C169.6 133.3 169.7 133.1 169.9 132.9C170 132.8 183.5 122.5 174.9 90.8999C174.8 90.5999 174.9 90.2999 175.1 90.1999C175.3 89.9999 175.6 89.8999 175.9 89.9999C176.1 90.0999 200.5 98.0999 230 90.2999C230.4 90.1999 230.8 90.3999 230.9 90.6999C231.5 92.0999 245.1 125.8 244.8 142C244.5 156.4 234.5 160.3 231.6 161.1L238 192.1C238 192.2 238 192.4 238 192.5C237.9 192.8 231.2 212 212 212ZM178.6 191.5C179.5 193 189.3 208.3 209 210.3C228.7 212.3 235.7 194.4 236.4 192.2L229.9 160.7C229.9 160.5 229.9 160.3 230 160.1C230.1 159.9 230.3 159.8 230.5 159.8C231 159.7 242.9 157.4 243.2 142C243.5 127.2 231.5 96.5999 229.7 91.8999C212.3 96.3999 194.1 96.3999 176.7 91.8999C184.3 121.1 173.4 132 171.2 133.9L178.6 191.5Z" fill="#231F20"/>
<path d="M182.3 131C181.2 128.3 179.3 126 176.8 124.4C174.4 123.1 171.8 122.2 169.1 121.7C167.7 121.3 166.1 121.2 164.7 121.5C163.7 121.8 162.7 122.3 161.9 123C159.8 124.4 158.3 126.5 157.6 128.9C157.3 130.9 157.5 132.9 158.1 134.8C158.6 136.9 159.4 139 160.5 140.9C165.2 148.7 175.3 151.3 183.1 146.6C183.2 146.6 183.2 146.5 183.3 146.5" fill="white"/>
<path d="M174.6 149.6C168.5 149.6 162.9 146.4 159.8 141.2C158.7 139.2 157.8 137.2 157.3 135C156.6 133 156.4 130.8 156.8 128.7C157.5 126.1 159.1 123.9 161.4 122.4C162.3 121.7 163.3 121.1 164.5 120.8C166.1 120.5 167.7 120.6 169.3 121C172.1 121.4 174.8 122.4 177.3 123.8C180 125.4 182 127.9 183.2 130.8C183.3 131.2 183.2 131.6 182.8 131.8C182.4 131.9 182 131.8 181.8 131.4C180.8 128.8 178.9 126.6 176.6 125.2C174.3 123.9 171.7 123.1 169.1 122.6C167.8 122.2 166.4 122.2 165 122.4C164.1 122.7 163.2 123.1 162.5 123.7C160.6 125 159.2 126.9 158.5 129.1C158.2 131 158.4 132.9 159 134.7C159.5 136.8 160.3 138.7 161.4 140.6C165.8 148.1 175.5 150.5 183 146.1C183.1 146.1 183.1 146 183.2 146C183.5 145.8 184 145.9 184.2 146.2C184.4 146.5 184.3 147 184 147.2C180.9 148.8 177.8 149.6 174.6 149.6Z" fill="#231F20"/>
<path d="M233.2 176.5C233.2 176.5 221.4 180 211.2 172.5C201 165 201 159.7 201 159.7C201 159.7 216.7 165.8 229.9 161.2L233.2 176.5Z" fill="#231F20"/>
<path d="M226.5 178.1C220.8 178.2 215.3 176.4 210.7 173.1C200.3 165.4 200.2 160 200.2 159.7C200.2 159.5 200.3 159.2 200.5 159.1C200.7 159 201 158.9 201.2 159C201.4 159.1 216.8 164.9 229.6 160.5C229.8 160.4 230 160.5 230.2 160.6C230.4 160.7 230.5 160.9 230.6 161.1L233.9 176.3C234 176.7 233.8 177.1 233.4 177.2C231.1 177.8 228.8 178.1 226.5 178.1ZM202 160.9C202.6 162.8 204.6 166.7 211.6 171.9C220 178.1 229.7 176.6 232.3 176L229.3 162.3C218.3 165.7 205.9 162.2 202 160.9Z" fill="#231F20"/>
<path d="M211.7 113.3C211.7 113.3 225.2 127.5 223.1 130.7C221 133.9 213.6 133.3 213.6 133.3" fill="white"/>
<path d="M215 134.1C214.1 134.1 213.6 134 213.5 134C213.1 134 212.8 133.6 212.8 133.2C212.8 132.8 213.2 132.5 213.6 132.5C215.5 132.7 220.9 132.6 222.4 130.3C223.5 128.6 217.4 120.4 211.1 113.8C210.8 113.5 210.8 113 211.1 112.7C211.4 112.4 211.9 112.4 212.2 112.7C215.5 116.1 225.9 127.6 223.7 131C222 133.7 217.4 134.1 215 134.1Z" fill="#231F20"/>
<path d="M194.833 119.513C196.216 118.956 196.702 116.927 195.919 114.98C195.135 113.033 193.379 111.906 191.996 112.463C190.612 113.019 190.126 115.049 190.909 116.996C191.693 118.943 193.449 120.07 194.833 119.513Z" fill="#231F20"/>
<path d="M222.725 114.944C224.109 114.387 224.595 112.358 223.811 110.411C223.028 108.464 221.271 107.337 219.888 107.893C218.505 108.45 218.018 110.479 218.802 112.426C219.585 114.373 221.342 115.5 222.725 114.944Z" fill="#231F20"/>
<path d="M213.6 152.8C208.4 152.8 203.6 149.7 199.6 143.9C197.3 140.5 195.5 136.9 194.2 133C194.1 132.6 194.3 132.2 194.7 132.1C195.1 132 195.5 132.2 195.6 132.6C196.8 136.3 198.6 139.8 200.7 143C205.2 149.5 210.7 152.3 216.4 150.9C230.2 147.6 230 131.2 230 131C230 130.6 230.3 130.2 230.7 130.2C231.1 130.2 231.4 130.5 231.5 130.9C231.5 131.1 231.8 148.6 216.8 152.3C215.8 152.7 214.7 152.8 213.6 152.8Z" fill="#231F20"/>
<path d="M135.4 267.7L110 328.1L166.6 279.2L202.7 291.4C202.7 291.4 194.6 345.2 145.4 390.5C96.2002 435.8 45.3002 427.2 42.4002 384.7C39.5002 342.2 69.4002 259.8 69.4002 259.8" fill="white"/>
<path d="M81.4002 421.6C75.6002 421.7 69.8002 420.6 64.4002 418.5C50.8002 413.1 42.7002 401.1 41.6002 384.8C38.7002 342.6 68.4002 260.4 68.7002 259.6C68.8002 259.2 69.3002 259 69.7002 259.1C70.1002 259.2 70.3002 259.7 70.2002 260C70.2002 260 70.2002 260 70.2002 260.1C69.9002 260.9 40.4002 342.8 43.2002 384.7C44.3002 400.4 52.0002 411.9 65.0002 417.1C86.7002 425.7 117.3 415.3 144.9 390C190.5 347.9 200.8 298 201.9 291.9L166.9 280L110.6 328.6C110.3 328.9 109.8 328.8 109.5 328.5C109.3 328.3 109.3 328 109.4 327.7L134.8 267.4C135 267 135.4 266.8 135.8 267C136.2 267.2 136.4 267.6 136.2 268L111.9 325.4L166.1 278.6C166.3 278.4 166.6 278.4 166.8 278.5L202.9 290.7C203.2 290.8 203.5 291.2 203.4 291.5C203.3 292 194.8 346 145.9 391.1C124.5 410.8 101.2 421.6 81.4002 421.6Z" fill="#231F20"/>
<path d="M181.1 191.2L245.5 242.3L247.3 245.4L255.8 260.3L239.4 255.3L236 254.3L171.6 203.1L181.1 191.2Z" fill="#231F20"/>
<path d="M255.8 261H255.6L235.8 255C235.7 255 235.6 254.9 235.6 254.9L171.2 203.7C171 203.6 171 203.4 170.9 203.2C170.9 203 170.9 202.8 171 202.6L180.5 190.7C180.8 190.4 181.2 190.4 181.5 190.6L245.9 241.8C246 241.9 246 241.9 246.1 242L256.4 259.9C256.6 260.3 256.5 260.7 256.1 260.9C256.1 261 256 261 255.8 261ZM236.4 253.6L254.2 259L245 242.8L181.3 192.2L172.7 203L236.4 253.6Z" fill="#231F20"/>
<path d="M247.3 245.4L255.8 260.3L239.4 255.3L247.3 245.4Z" fill="#FBBF24"/>
<path d="M255.8 261H255.6L239.2 256C238.8 255.9 238.6 255.5 238.7 255.1C238.7 255 238.8 254.9 238.8 254.8L246.7 244.9C246.9 244.7 247.1 244.6 247.3 244.6C247.5 244.6 247.8 244.8 247.9 245L256.5 259.9C256.7 260.3 256.6 260.7 256.2 260.9C256.1 261 256 261 255.8 261ZM240.7 254.9L254.3 259L247.2 246.7L240.7 254.9Z" fill="#231F20"/>
<path d="M156.1 190L164.9 178.9C165.7 177.9 167.1 177.7 168.1 178.5L199.9 203.7L188.2 218.4L156.4 193.2C155.5 192.5 155.3 191 156.1 190Z" fill="#231F20"/>
<path d="M188.2 219.3C188 219.3 187.9 219.2 187.7 219.1L156 193.9C154.7 192.9 154.4 191 155.5 189.7C155.5 189.7 155.5 189.7 155.6 189.6L164.4 178.5C165.5 177.2 167.4 177 168.7 178L200.5 203.2C200.8 203.5 200.9 203.9 200.6 204.3L188.8 219C188.7 219.2 188.5 219.3 188.2 219.3ZM166.7 178.8H166.5C166.1 178.9 165.7 179.1 165.5 179.4L156.7 190.5C156.4 190.8 156.3 191.2 156.4 191.6C156.5 192 156.7 192.4 157 192.6L188.2 217.4L198.9 204L167.7 179.2C167.4 179 167.1 178.9 166.7 178.8Z" fill="#231F20"/>
<path d="M175.9 216.4C175.7 216.4 175.6 216.3 175.4 216.2C175.3 216.1 159.5 203.7 157.4 201.7C154.8 199.3 155.9 194.4 156 193.8C156.1 193.4 156.5 193.2 156.9 193.2C157.3 193.3 157.5 193.7 157.4 194.1C157.4 194.1 156.3 198.6 158.3 200.5C160.2 202.2 174.2 213.3 176.2 214.9C176.5 215.2 176.6 215.6 176.3 216C176.4 216.2 176.2 216.3 175.9 216.4Z" fill="#231F20"/>
<path d="M201.8 295.9C202.6 292.5 204 285.5 204 285.5C204 285.5 218.1 286.6 221.1 282.3C224.1 278 233 247.2 230 241.9C227 236.6 215.7 229.4 212.2 228C208.7 226.6 194.9 229.4 194.9 229.4L205.8 218.4C205.8 218.4 223.6 228.9 231.6 228.2C239.6 227.5 241.9 224.6 237.8 219.8C233.7 215 203.8 201.6 198.8 202.2C193.8 202.8 171.7 223.6 171.2 226.6C170.7 229.6 153.7 287.2 157.3 293.6" fill="white"/>
<path d="M201.8 296.6H201.6C201.2 296.5 201 296.1 201.1 295.7C201.9 292.4 203.3 285.4 203.3 285.3C203.4 284.9 203.7 284.7 204.1 284.7C207.9 285 218.3 285.1 220.5 281.8C221.9 279.7 224.9 270.9 227.1 262.2C229.7 251.9 230.6 244.3 229.4 242.2C226.5 237.1 215.1 229.9 212 228.6C209.4 227.5 198.9 229.2 195.1 230C194.7 230.1 194.3 229.8 194.2 229.4C194.2 229.2 194.2 228.9 194.4 228.7L205.3 217.7C205.5 217.5 205.9 217.4 206.2 217.6C206.4 217.7 223.9 228 231.5 227.3C235.6 226.9 238.2 225.9 238.8 224.5C239.4 223.1 238.2 221.4 237.1 220.1C233.2 215.6 203.5 202.2 198.8 202.8C194.1 203.4 172.3 223.7 171.8 226.6C171.7 227.2 171.1 229.6 169.8 234.4C165.8 249.2 155.1 288.3 157.9 293.1C158.1 293.5 158 293.9 157.6 294.1C157.2 294.3 156.8 294.2 156.6 293.8C153.9 289.1 161 260.9 168.4 233.9C169.5 230 170.3 226.8 170.4 226.3C170.9 222.8 193.4 202 198.6 201.3C203.8 200.6 233.9 214.1 238.3 219.1C240.2 221.4 240.9 223.4 240.2 225C239.3 227.1 236.5 228.3 231.6 228.8C224.2 229.4 208.9 220.9 205.9 219.2L197.1 228C201.3 227.3 209.7 226 212.5 227.1C215.9 228.5 227.6 235.9 230.7 241.3C232.6 244.6 230.2 255.9 228.6 262.4C226.4 271.4 223.4 280.2 221.8 282.5C219 286.6 207.8 286.3 204.7 286.1C204.3 287.9 203.3 293.2 202.6 295.9C202.5 296.4 202.2 296.6 201.8 296.6Z" fill="#231F20"/>
<path d="M190.4 243C190.4 243 209.1 239.8 213.2 241C217.3 242.2 229.2 254.9 229.2 254.9" fill="white"/>
<path d="M229.1 255.6C228.9 255.6 228.7 255.5 228.5 255.4C225.3 251.9 216.1 242.6 212.9 241.7C209.7 240.8 195.6 242.9 190.4 243.8C190 243.9 189.6 243.6 189.5 243.2C189.4 242.8 189.7 242.4 190.1 242.3C190.9 242.2 209 239.1 213.2 240.3C217.4 241.5 229 253.9 229.5 254.4C229.8 254.7 229.8 255.2 229.5 255.5C229.5 255.6 229.3 255.7 229.1 255.6Z" fill="#231F20"/>
<path d="M204 285.5C204 285.5 206.8 276.6 206.1 270.3L204 285.5Z" fill="white"/>
<path d="M204 286.2C203.9 286.2 203.9 286.2 203.8 286.2C203.4 286.1 203.2 285.7 203.3 285.3C203.3 285.2 206 276.5 205.4 270.3C205.4 269.9 205.6 269.5 206.1 269.5C206.5 269.5 206.9 269.7 206.9 270.2C207.6 276.7 204.9 285.4 204.8 285.8C204.6 286 204.3 286.2 204 286.2Z" fill="#231F20"/>
<path d="M193.8 270C194.7 269.8 210.4 270.2 211.4 270H193.8Z" fill="white"/>
<path d="M209.1 270.8C207.7 270.8 205.5 270.8 202.6 270.7C199 270.7 194.5 270.6 194 270.7C193.6 270.8 193.2 270.5 193.1 270.1C193 269.7 193.3 269.3 193.6 269.2C194.1 269.1 196.7 269.1 202.6 269.2C206.2 269.2 210.7 269.3 211.2 269.2C211.6 269.1 212 269.4 212.1 269.8C212.2 270.2 212 270.6 211.6 270.7C210.7 270.8 209.9 270.8 209.1 270.8Z" fill="#231F20"/>
<path d="M187.4 255.6C187.4 255.6 200.9 252.6 207.2 254C213.5 255.4 224.6 268.5 225.8 269.7" fill="white"/>
<path d="M225.8 270.4C225.6 270.4 225.4 270.3 225.3 270.2C225.1 270 224.8 269.7 224.4 269.2C221.4 265.9 212.5 255.9 207.1 254.8C201 253.5 187.7 256.4 187.6 256.4C187.2 256.5 186.8 256.3 186.7 255.9C186.6 255.5 186.8 255.1 187.2 255H187.3C187.9 254.9 201 252 207.5 253.4C212.7 254.5 220.3 262.4 225.6 268.3C226 268.8 226.3 269.1 226.5 269.3C226.8 269.6 226.8 270.1 226.5 270.4C226.2 270.4 226 270.4 225.8 270.4Z" fill="#231F20"/>
<path d="M82.3001 350C81.9001 350 81.6001 349.7 81.6001 349.2C81.6001 349 81.7001 348.8 81.9001 348.6L109.6 327.4C109.9 327.2 110.4 327.2 110.6 327.5C110.9 327.8 110.8 328.3 110.5 328.5L82.9001 349.7C82.6001 350 82.5001 350 82.3001 350Z" fill="#231F20"/>
<path d="M157.7 118.5C157.4 118.5 157.1 118.3 157 117.9C154.5 107.3 152 96.6 149.8 86.2L149.6 85.1C148.6 80.6 147.5 75.5 147.8 70.8C148.1 65.1 152.6 64.7 155.4 64.8C156.1 59.9 158.7 55.5 162.8 52.7C173.2 45.5 184.2 48.7 194.8 51.8C201.7 53.8 208.8 55.9 215.4 54.9C219.8 54.3 223.9 52.2 227.9 50.2H228C229.4 49.5 230.9 48.8 232.3 48.1C235.2 46.8 249.6 40.8 253.5 48.7C254.7 51.1 253.8 53.6 252.7 55.7C251.3 58.6 249.7 61.4 247.9 64.1C248.8 63.6 249.8 63.2 250.8 62.8C254.7 61.1 259.1 61 263.1 62.5C264.8 63.2 266.3 64.3 267.3 65.9C269.3 69.1 268.5 73.3 264.9 78.3C262.9 81.1 260.8 83.9 258.5 86.5C261.3 84.8 264.4 83.3 267.8 84.2C269.4 84.5 270.7 85.6 271.5 87C272.9 89.9 270.6 92.9 269.8 93.9C263.8 101.8 256.1 108.3 247.4 113.1C247 113.3 246.6 113.2 246.4 112.8C246.2 112.4 246.3 112 246.7 111.8C246.7 111.8 246.7 111.8 246.8 111.8C255.3 107.2 262.8 100.8 268.7 93C269.3 92.2 271.2 89.7 270.2 87.6C269.6 86.6 268.7 85.8 267.5 85.6C264.1 84.7 261 86.7 258 88.6C257 89.2 256.1 89.8 255.1 90.4C254.7 90.6 254.3 90.4 254.1 90.1C254 89.8 254 89.5 254.2 89.3C257.7 85.6 260.9 81.7 263.8 77.5C266.9 73 267.7 69.4 266.1 66.8C265.3 65.5 264 64.6 262.6 64C259.4 62.7 255.4 62.8 251.4 64.3C249.5 65.1 247.6 66 245.9 67.2C245.6 67.4 245.2 67.4 244.9 67.1C244.7 66.8 244.6 66.4 244.8 66.2C247.2 62.7 249.4 59 251.3 55.2C252.2 53.4 252.9 51.3 252.1 49.5C248.7 42.7 234.5 48.9 232.8 49.6C231.4 50.2 229.9 50.9 228.6 51.6H228.5C224.4 53.6 220.1 55.8 215.5 56.4C208.6 57.4 201.3 55.3 194.3 53.3C184 50.3 173.3 47.2 163.5 54C159.6 56.7 157.1 61 156.7 65.7C156.6 66.1 156.3 66.4 155.9 66.4C152.5 66.3 149.5 66.6 149.2 71C148.9 75.4 150.1 80.6 151.1 85L151.3 86.1C153.6 96.6 156 107.2 158.5 117.8C158.6 118.2 158.4 118.6 158 118.7C157.8 118.5 157.8 118.5 157.7 118.5Z" fill="#231F20"/>
<path d="M163.2 197.4C162.8 197.4 162.4 197 162.5 196.6C162.5 196.4 162.6 196.3 162.7 196.1L172.8 183.9C173.1 183.6 173.6 183.5 173.9 183.8C174.2 184.1 174.3 184.6 174 184.9L163.9 197.1C163.7 197.3 163.5 197.4 163.2 197.4Z" fill="white"/>
<path d="M257.5 262.2C257.3 262.2 257.2 262.1 257 262L254.9 260.4C254.6 260.2 254.5 259.7 254.7 259.4C254.9 259.1 255.4 259 255.7 259.2C255.7 259.2 255.8 259.2 255.8 259.3L257.9 260.9C258.2 261.2 258.3 261.6 258 262C258 262.1 257.8 262.2 257.5 262.2Z" fill="#231F20"/>
<path d="M270.9 110.3H446.2C449.1 110.3 451.4 112.6 451.4 115.5V345.4C451.4 348.3 449.1 350.6 446.2 350.6H270.9C268 350.6 265.7 348.3 265.7 345.4V115.5C265.7 112.6 268.1 110.3 270.9 110.3Z" fill="#231F20"/>
<path d="M440 125H277.1V335.8H440V125Z" fill="white"/>
<path d="M440.1 336.6H277.1C276.7 336.6 276.3 336.3 276.3 335.8V125C276.3 124.6 276.6 124.3 277 124.2H439.9C440.3 124.2 440.6 124.5 440.7 124.9V335.8C440.8 336.3 440.5 336.6 440.1 336.6ZM277.9 335.1H439.3V125.8H277.9V335.1Z" fill="#231F20"/>
<path d="M401.2 101.8H377.8C375.7 91.2001 365.5 84.3001 354.9 86.4001C347.1 87.9001 341 94.0001 339.5 101.8H316C312.9 101.8 310.4 104.3 310.4 107.4V127C310.4 130.1 312.9 132.6 316 132.6H401.2C404.3 132.6 406.8 130.1 406.8 127V107.4C406.8 104.3 404.3 101.8 401.2 101.8ZM358.6 104.4C355.8 104.4 353.6 102.2 353.6 99.4001C353.6 96.6001 355.8 94.4001 358.6 94.4001C361.4 94.4001 363.6 96.6001 363.6 99.4001C363.6 102.1 361.4 104.4 358.6 104.4Z" fill="#FBBF24"/>
<path d="M339.9 193.4H300.5C299.7 193.4 299 192.7 299 191.9V149.8C299 149 299.7 148.3 300.5 148.3H339.9C340.7 148.3 341.4 149 341.4 149.8V191.9C341.4 192.7 340.7 193.4 339.9 193.4ZM300.5 149.8V191.9H339.9V149.9L300.5 149.8Z" fill="#231F20"/>
<path d="M349.1 160.1C348.9 160.5 348.7 160.8 348.4 161.1C339.9 169.6 331.5 178 323 186.5C322.6 187.2 321.7 187.4 321 187C320.8 186.9 320.7 186.7 320.5 186.5L306.2 171.7C305.6 171.2 305.5 170.3 305.9 169.7C306 169.6 306.1 169.5 306.2 169.4L309.8 166.2C310.3 165.6 311.1 165.5 311.7 166C311.8 166.1 311.9 166.1 311.9 166.2L320.4 174.8C321.3 175.7 321.9 175.7 322.8 174.8L342.6 155.1C343 154.4 343.9 154.3 344.6 154.7C344.8 154.8 344.9 154.9 345 155.1C346.1 156.2 347.2 157.3 348.3 158.5C348.5 158.8 348.8 159.1 349 159.4L349.1 160.1Z" fill="#FBBF24"/>
<path d="M339.9 250.8H300.5C299.7 250.8 299 250.1 299 249.3V207.2C299 206.4 299.7 205.7 300.5 205.7H339.9C340.7 205.7 341.4 206.4 341.4 207.2V249.3C341.4 250.1 340.7 250.8 339.9 250.8ZM300.5 207.2V249.3H339.9V207.2H300.5Z" fill="#231F20"/>
<path d="M349.1 217.5C348.9 217.9 348.7 218.2 348.4 218.5C339.9 227 331.5 235.4 323 243.9C322.6 244.6 321.7 244.8 321 244.4C320.8 244.3 320.7 244.1 320.5 243.9L306.2 229.1C305.6 228.6 305.5 227.7 305.9 227.1C306 227 306.1 226.9 306.2 226.8L309.8 223.6C310.3 223 311.1 222.9 311.7 223.4C311.8 223.5 311.9 223.5 311.9 223.6L320.4 232.2C321.3 233.1 321.9 233.1 322.8 232.2L342.6 212.5C343 211.8 343.9 211.7 344.6 212.1C344.8 212.2 344.9 212.3 345 212.5C346.1 213.6 347.2 214.7 348.3 215.9C348.5 216.2 348.8 216.5 349 216.8L349.1 217.5Z" fill="#FBBF24"/>
<path d="M339.9 308.2H300.5C299.7 308.2 299 307.5 299 306.7V264.7C299 263.9 299.7 263.2 300.5 263.2H339.9C340.7 263.2 341.4 263.9 341.4 264.7V306.7C341.4 307.6 340.7 308.2 339.9 308.2ZM300.5 264.7V306.8H339.9V264.8L300.5 264.7Z" fill="#231F20"/>
<path d="M420.4 165H362.4C362 165 361.6 164.7 361.6 164.2C361.6 163.7 361.9 163.4 362.4 163.4H420.4C420.8 163.4 421.2 163.7 421.2 164.2C421.2 164.7 420.8 165 420.4 165Z" fill="#231F20"/>
<path d="M405.3 178.2H362.3C361.9 178.2 361.5 177.9 361.5 177.4C361.5 176.9 361.8 176.6 362.3 176.6H405.3C405.7 176.6 406.1 176.9 406.1 177.4C406.1 177.9 405.7 178.2 405.3 178.2Z" fill="#231F20"/>
<path d="M420.4 222.3H362.4C362 222.3 361.6 222 361.6 221.5C361.6 221 361.9 220.7 362.4 220.7H420.4C420.8 220.7 421.2 221 421.2 221.5C421.2 222 420.8 222.3 420.4 222.3Z" fill="#231F20"/>
<path d="M405.3 235.5H362.3C361.9 235.5 361.5 235.2 361.5 234.7C361.5 234.2 361.8 233.9 362.3 233.9H405.3C405.7 233.9 406.1 234.2 406.1 234.7C406.1 235.2 405.7 235.5 405.3 235.5Z" fill="#231F20"/>
<path d="M420.4 279.8H362.4C362 279.8 361.6 279.5 361.6 279C361.6 278.5 361.9 278.2 362.4 278.2H420.4C420.8 278.2 421.2 278.5 421.2 279C421.2 279.5 420.8 279.8 420.4 279.8Z" fill="#231F20"/>
<path d="M405.3 293H362.3C361.9 293 361.5 292.7 361.5 292.2C361.5 291.7 361.8 291.4 362.3 291.4H405.3C405.7 291.4 406.1 291.7 406.1 292.2C406.1 292.7 405.7 293 405.3 293Z" fill="#231F20"/>
<path d="M415.6 350C416 347.4 416.2 344.7 416.4 342.1C416.8 336.8 415.5 330.9 413.9 326C413.2 323.8 412.2 321.5 410.3 320C408.4 318.5 405.3 318.5 404 320.5C402.8 322.2 403.3 324.5 403.8 326.5C405 332 405.3 337.6 404.6 343.2C403.7 335.7 402.7 327.9 398.6 321.5C397.7 320 396.5 318.8 395.1 317.9C393.6 317 391.7 317.1 390.3 318C388.2 319.5 388.4 322.6 388.6 325.2C389.3 331.8 389.2 338.5 388.3 345.1C388.8 339.3 388.4 333.5 387.1 327.8C386.2 324.1 384.6 320 381 318.8C380.2 318.5 379.4 318.5 378.5 318.6C376.8 319.2 375.6 320.6 375.3 322.3C375 324 375 325.7 375.3 327.4C376 334.1 375.8 340.8 374.7 347.4C375.5 341.6 375.3 335.7 374.1 330C373.8 327.7 372.9 325.5 371.5 323.7C370 322 367.4 320.9 365.3 321.9C363.7 322.8 362.6 324.3 362.3 326.1C362 327.9 362 329.7 362.1 331.4C362.3 338.1 361 344.8 358.4 351.1C356.3 356.3 353.5 362 354 367.8C354.5 373.8 359.3 379 364.9 381.2C370.5 383.4 376.9 383.2 382.8 382.1C402.3 378.2 418.5 368.9 425.4 350.2" fill="white"/>
<path d="M374.4 383.8C371 383.9 367.6 383.3 364.4 382C358.1 379.5 353.5 373.9 353 368C352.5 362.6 354.8 357.3 356.8 352.6L357.5 350.9C360 344.8 361.3 338.2 361.1 331.5V330.7C361 329.1 361.1 327.6 361.3 326C361.6 324 362.9 322.2 364.7 321.3C367.2 320.2 370.2 321.4 371.8 323.3C373.3 325.2 374.2 327.4 374.6 329.8C374.5 329.1 374.5 328.3 374.4 327.6V327.2C374.1 325.6 374.1 323.9 374.4 322.3C374.7 320.3 376.2 318.6 378.1 318C379 317.8 380 317.8 381 318.2C384.2 319.2 386.4 322.4 387.6 327.7C387.7 328.3 387.9 329 388 329.6C387.9 328.2 387.8 326.8 387.7 325.4C387.4 322.5 387.3 319.2 389.7 317.5C391.4 316.4 393.6 316.3 395.3 317.4C396.9 318.3 398.2 319.7 399.1 321.3C401.6 325.4 403.2 330 403.9 334.8C403.8 332.1 403.4 329.4 402.8 326.8C402.3 324.7 401.8 322.1 403.2 320.2C403.9 319.3 405 318.6 406.1 318.5C407.7 318.3 409.3 318.6 410.6 319.6C412.7 321.1 413.7 323.7 414.5 325.9C416.6 332.2 417.4 337.7 417.1 342.3C417 343.1 417 343.8 417 344.5C416.9 346.4 416.7 348.4 416.4 350.3C416.3 350.7 415.9 351 415.5 350.9C415.1 350.8 414.8 350.4 414.9 350C415.2 348.1 415.4 346.3 415.5 344.4C415.5 343.7 415.6 343 415.6 342.2C415.9 337.8 415.1 332.5 413.1 326.3C412.4 324.3 411.5 322 409.8 320.7C408.8 320 407.6 319.7 406.4 319.9C405.6 320 404.9 320.4 404.5 321C403.5 322.4 404 324.5 404.4 326.4C405.7 332 405.9 337.7 405.2 343.4C405.2 343.8 404.8 344.1 404.4 344.1C404 344.1 403.7 343.8 403.7 343.4C402.9 336.4 401.9 328.4 397.8 322.1C397 320.7 395.9 319.6 394.5 318.7C393.2 318 391.7 318 390.5 318.7C388.8 320 388.9 322.7 389.1 325.2C389.8 331.9 389.7 338.6 388.8 345.3C388.7 345.7 388.4 346 387.9 345.9C387.5 345.8 387.2 345.5 387.3 345.1C387.8 339.4 387.3 333.7 386 328.1C384.9 323.4 383 320.5 380.4 319.7C379.8 319.5 379.1 319.4 378.4 319.6C377 320.1 376 321.3 375.8 322.8C375.6 324.3 375.6 325.8 375.8 327.3V327.7C376.5 334.4 376.3 341.2 375.2 347.9C375.1 348.3 374.7 348.6 374.3 348.5C373.9 348.4 373.7 348.1 373.7 347.7C374.5 342 374.3 336.2 373.1 330.6C372.8 328.4 371.9 326.4 370.6 324.6C369.4 323.2 367.1 322.2 365.3 323C363.9 323.7 363 325.1 362.7 326.7C362.5 328.1 362.4 329.6 362.5 331V331.8C362.7 338.7 361.4 345.5 358.8 351.8C358.6 352.3 358.3 352.9 358.1 353.5C356.1 358.3 354 363.2 354.5 368.2C355 373.5 359.1 378.7 364.9 381C369.7 382.9 375.5 383.2 382.4 381.8C404.2 377.5 418.4 366.9 424.5 350.4C424.6 350 425 349.8 425.4 349.9C425.8 350 426 350.4 425.9 350.8V350.9C419.6 367.9 405.1 378.8 382.7 383.3C380 383.5 377.2 383.8 374.4 383.8Z" fill="#231F20"/>
</svg>
