<svg width="500" height="500" viewBox="0 0 500 500" fill="none" xmlns="http://www.w3.org/2000/svg">
<path d="M213.5 321.22C213.387 321.218 213.275 321.191 213.175 321.138C213.074 321.086 212.987 321.012 212.92 320.92C207.86 313.61 196.76 311.28 189.19 315.92C189.097 315.974 188.993 316.007 188.887 316.017C188.78 316.028 188.672 316.015 188.57 315.98C188.468 315.94 188.377 315.877 188.304 315.795C188.231 315.713 188.178 315.616 188.15 315.51C185.5 306.03 175.05 299.38 165.34 300.96C165.239 300.98 165.135 300.977 165.036 300.949C164.937 300.921 164.846 300.87 164.77 300.8C164.691 300.734 164.629 300.652 164.587 300.558C164.546 300.464 164.526 300.362 164.53 300.26C164.67 293.52 158.58 288.16 153.44 284.85C143.66 278.58 132.655 274.468 121.16 272.79C116.54 272.13 100.99 270.79 95.16 281.18C95.0696 281.339 94.9206 281.456 94.745 281.506C94.5693 281.557 94.3809 281.537 94.22 281.45C85.9 276.92 78.61 275 71.9 275.6C63.62 276.34 56.43 281.6 54.42 288.41C54.34 288.67 54.27 288.93 54.2 289.19C53.9615 290.497 53.4013 291.724 52.57 292.76C51.6272 293.643 50.4847 294.285 49.24 294.63C48.9 294.75 48.55 294.88 48.24 295.02C46.1072 295.973 44.3239 297.566 43.1377 299.578C41.9514 301.591 41.421 303.923 41.62 306.25C41.6296 306.34 41.6212 306.431 41.5951 306.518C41.5689 306.605 41.5257 306.686 41.468 306.756C41.4102 306.825 41.339 306.883 41.2587 306.925C41.1783 306.967 41.0904 306.993 41 307C40.9093 307.011 40.8173 307.004 40.7293 306.979C40.6413 306.955 40.5591 306.913 40.4875 306.856C40.4158 306.799 40.3562 306.729 40.312 306.649C40.2678 306.569 40.2399 306.481 40.23 306.39C40.0005 303.766 40.5959 301.135 41.9333 298.866C43.2707 296.596 45.2832 294.801 47.69 293.73C48.04 293.58 48.41 293.44 48.77 293.31C49.8049 293.031 50.7603 292.514 51.56 291.8C52.2317 290.92 52.6811 289.891 52.87 288.8C52.94 288.53 53.02 288.26 53.09 287.99C55.27 280.66 62.95 274.99 71.78 274.19C78.61 273.58 85.98 275.45 94.32 279.89C100.79 269.34 116.61 270.72 121.37 271.4C133.065 273.108 144.261 277.291 154.21 283.67C161.64 288.45 165.67 293.9 165.92 299.46C175.77 298.28 186.12 304.86 189.24 314.27C197.38 309.86 208.78 312.46 214.08 320.1C214.138 320.176 214.179 320.263 214.201 320.356C214.224 320.449 214.226 320.546 214.21 320.64C214.193 320.734 214.156 320.823 214.103 320.902C214.05 320.982 213.981 321.049 213.9 321.1C213.781 321.178 213.642 321.22 213.5 321.22Z" fill="#D1D3D4"/>
<path d="M480.8 322.6H39.5999C39.4142 322.6 39.2362 322.526 39.1049 322.395C38.9737 322.264 38.8999 322.086 38.8999 321.9C38.8999 321.714 38.9737 321.536 39.1049 321.405C39.2362 321.274 39.4142 321.2 39.5999 321.2H480.8C480.892 321.2 480.983 321.218 481.068 321.253C481.153 321.288 481.23 321.34 481.295 321.405C481.36 321.47 481.411 321.547 481.447 321.632C481.482 321.717 481.5 321.808 481.5 321.9C481.5 321.992 481.482 322.083 481.447 322.168C481.411 322.253 481.36 322.33 481.295 322.395C481.23 322.46 481.153 322.511 481.068 322.547C480.983 322.582 480.892 322.6 480.8 322.6Z" fill="#D1D3D4"/>
<path d="M248.1 365.11H237.1C237.002 365.122 236.902 365.113 236.808 365.083C236.713 365.054 236.626 365.004 236.552 364.939C236.478 364.873 236.419 364.792 236.378 364.702C236.337 364.612 236.316 364.514 236.316 364.415C236.316 364.316 236.337 364.218 236.378 364.128C236.419 364.038 236.478 363.957 236.552 363.891C236.626 363.826 236.713 363.777 236.808 363.747C236.902 363.717 237.002 363.708 237.1 363.72H248.1C248.198 363.708 248.298 363.717 248.392 363.747C248.487 363.777 248.574 363.826 248.648 363.891C248.722 363.957 248.781 364.038 248.822 364.128C248.862 364.218 248.883 364.316 248.883 364.415C248.883 364.514 248.862 364.612 248.822 364.702C248.781 364.792 248.722 364.873 248.648 364.939C248.574 365.004 248.487 365.054 248.392 365.083C248.298 365.113 248.198 365.122 248.1 365.11Z" fill="#D1D3D4"/>
<path d="M198.66 379.24H189.24C189.054 379.24 188.876 379.166 188.745 379.035C188.614 378.904 188.54 378.726 188.54 378.54C188.54 378.354 188.614 378.176 188.745 378.045C188.876 377.914 189.054 377.84 189.24 377.84H198.66C198.845 377.84 199.023 377.914 199.155 378.045C199.286 378.176 199.36 378.354 199.36 378.54C199.36 378.726 199.286 378.904 199.155 379.035C199.023 379.166 198.845 379.24 198.66 379.24Z" fill="#D1D3D4"/>
<path d="M50.33 347.06H40.13C40.0317 347.072 39.932 347.063 39.8376 347.033C39.7431 347.004 39.656 346.954 39.5819 346.889C39.5079 346.823 39.4486 346.742 39.408 346.652C39.3674 346.562 39.3464 346.464 39.3464 346.365C39.3464 346.266 39.3674 346.168 39.408 346.078C39.4486 345.988 39.5079 345.907 39.5819 345.841C39.656 345.776 39.7431 345.726 39.8376 345.697C39.932 345.667 40.0317 345.658 40.13 345.67H50.33C50.4282 345.658 50.5279 345.667 50.6223 345.697C50.7168 345.726 50.8039 345.776 50.878 345.841C50.952 345.907 51.0113 345.988 51.0519 346.078C51.0925 346.168 51.1135 346.266 51.1135 346.365C51.1135 346.464 51.0925 346.562 51.0519 346.652C51.0113 346.742 50.952 346.823 50.878 346.889C50.8039 346.954 50.7168 347.004 50.6223 347.033C50.5279 347.063 50.4282 347.072 50.33 347.06Z" fill="#D1D3D4"/>
<path d="M212.79 340.78H205.72C205.622 340.792 205.522 340.783 205.427 340.753C205.333 340.724 205.246 340.674 205.172 340.609C205.098 340.543 205.038 340.462 204.998 340.372C204.957 340.282 204.936 340.184 204.936 340.085C204.936 339.986 204.957 339.888 204.998 339.798C205.038 339.708 205.098 339.627 205.172 339.561C205.246 339.496 205.333 339.446 205.427 339.417C205.522 339.387 205.622 339.378 205.72 339.39H212.79C212.96 339.41 213.116 339.492 213.23 339.62C213.344 339.749 213.406 339.914 213.406 340.085C213.406 340.256 213.344 340.421 213.23 340.549C213.116 340.678 212.96 340.76 212.79 340.78Z" fill="#D1D3D4"/>
<path d="M459.22 362.75H448.22C448.122 362.762 448.022 362.753 447.928 362.723C447.833 362.694 447.746 362.644 447.672 362.579C447.598 362.513 447.539 362.432 447.498 362.342C447.458 362.252 447.437 362.154 447.437 362.055C447.437 361.956 447.458 361.858 447.498 361.768C447.539 361.678 447.598 361.597 447.672 361.531C447.746 361.466 447.833 361.416 447.928 361.387C448.022 361.357 448.122 361.348 448.22 361.36H459.22C459.39 361.38 459.547 361.462 459.66 361.59C459.774 361.719 459.837 361.884 459.837 362.055C459.837 362.226 459.774 362.391 459.66 362.519C459.547 362.648 459.39 362.73 459.22 362.75Z" fill="#D1D3D4"/>
<path d="M59.79 376.88H52.68C52.51 376.86 52.3534 376.778 52.2398 376.65C52.1262 376.522 52.0635 376.356 52.0635 376.185C52.0635 376.014 52.1262 375.849 52.2398 375.721C52.3534 375.593 52.51 375.511 52.68 375.49H59.79C59.8882 375.478 59.9879 375.487 60.0824 375.517C60.1768 375.547 60.2639 375.596 60.338 375.661C60.412 375.727 60.4713 375.808 60.5119 375.898C60.5525 375.988 60.5735 376.086 60.5735 376.185C60.5735 376.284 60.5525 376.382 60.5119 376.472C60.4713 376.562 60.412 376.643 60.338 376.709C60.2639 376.774 60.1768 376.824 60.0824 376.853C59.9879 376.883 59.8882 376.892 59.79 376.88Z" fill="#D1D3D4"/>
<path d="M282.63 387.08H275.57C275.471 387.092 275.372 387.083 275.277 387.053C275.183 387.024 275.096 386.974 275.022 386.909C274.948 386.843 274.888 386.762 274.848 386.672C274.807 386.582 274.786 386.484 274.786 386.385C274.786 386.286 274.807 386.188 274.848 386.098C274.888 386.008 274.948 385.927 275.022 385.861C275.096 385.796 275.183 385.746 275.277 385.717C275.372 385.687 275.471 385.678 275.57 385.69H282.63C282.728 385.678 282.828 385.687 282.922 385.717C283.017 385.746 283.104 385.796 283.178 385.861C283.252 385.927 283.311 386.008 283.352 386.098C283.392 386.188 283.413 386.286 283.413 386.385C283.413 386.484 283.392 386.582 283.352 386.672C283.311 386.762 283.252 386.843 283.178 386.909C283.104 386.974 283.017 387.024 282.922 387.053C282.828 387.083 282.728 387.092 282.63 387.08Z" fill="#D1D3D4"/>
<path d="M278.71 338.43H270.86C270.674 338.43 270.496 338.356 270.365 338.225C270.234 338.094 270.16 337.916 270.16 337.73C270.16 337.544 270.234 337.366 270.365 337.235C270.496 337.104 270.674 337.03 270.86 337.03H278.71C278.802 337.03 278.893 337.048 278.978 337.083C279.063 337.118 279.14 337.17 279.205 337.235C279.27 337.3 279.322 337.377 279.357 337.462C279.392 337.547 279.41 337.638 279.41 337.73C279.41 337.822 279.392 337.913 279.357 337.998C279.322 338.083 279.27 338.16 279.205 338.225C279.14 338.29 279.063 338.342 278.978 338.377C278.893 338.412 278.802 338.43 278.71 338.43Z" fill="#D1D3D4"/>
<path d="M172.76 352.55H164.91C164.812 352.562 164.712 352.553 164.618 352.523C164.523 352.494 164.436 352.444 164.362 352.379C164.288 352.313 164.229 352.232 164.188 352.142C164.147 352.052 164.126 351.954 164.126 351.855C164.126 351.756 164.147 351.658 164.188 351.568C164.229 351.478 164.288 351.397 164.362 351.331C164.436 351.266 164.523 351.216 164.618 351.187C164.712 351.157 164.812 351.148 164.91 351.16H172.76C172.858 351.148 172.958 351.157 173.052 351.187C173.147 351.216 173.234 351.266 173.308 351.331C173.382 351.397 173.441 351.478 173.482 351.568C173.523 351.658 173.544 351.756 173.544 351.855C173.544 351.954 173.523 352.052 173.482 352.142C173.441 352.232 173.382 352.313 173.308 352.379C173.234 352.444 173.147 352.494 173.052 352.523C172.958 352.553 172.858 352.562 172.76 352.55Z" fill="#D1D3D4"/>
<path d="M467.07 340.78H463.14C463.042 340.792 462.942 340.783 462.848 340.753C462.753 340.724 462.666 340.674 462.592 340.609C462.518 340.543 462.459 340.462 462.418 340.372C462.377 340.282 462.356 340.184 462.356 340.085C462.356 339.986 462.377 339.888 462.418 339.798C462.459 339.708 462.518 339.627 462.592 339.561C462.666 339.496 462.753 339.446 462.848 339.417C462.942 339.387 463.042 339.378 463.14 339.39H467.07C467.24 339.41 467.397 339.492 467.51 339.62C467.624 339.749 467.686 339.914 467.686 340.085C467.686 340.256 467.624 340.421 467.51 340.549C467.397 340.678 467.24 340.76 467.07 340.78Z" fill="#D1D3D4"/>
<path d="M425.18 125.15H268.45V130.44H425.18V125.15Z" fill="white"/>
<path d="M425.19 131.14H268.45C268.266 131.137 268.09 131.062 267.961 130.931C267.832 130.8 267.76 130.624 267.76 130.44V125.15C267.759 125.059 267.775 124.968 267.809 124.883C267.844 124.798 267.894 124.721 267.958 124.656C268.023 124.59 268.099 124.539 268.183 124.503C268.268 124.468 268.358 124.45 268.45 124.45H425.19C425.281 124.45 425.372 124.468 425.456 124.503C425.541 124.539 425.617 124.59 425.681 124.656C425.746 124.721 425.796 124.798 425.83 124.883C425.864 124.968 425.881 125.059 425.88 125.15V130.44C425.88 130.624 425.807 130.8 425.678 130.931C425.549 131.062 425.374 131.137 425.19 131.14ZM269.19 129.74H424.49V125.85H269.15L269.19 129.74Z" fill="#D1D3D4"/>
<path d="M425.18 141.64H268.45V146.93H425.18V141.64Z" fill="white"/>
<path d="M425.19 147.63H268.45C268.266 147.627 268.09 147.552 267.961 147.421C267.832 147.29 267.76 147.114 267.76 146.93V141.64C267.759 141.548 267.775 141.458 267.809 141.373C267.844 141.288 267.894 141.211 267.958 141.146C268.023 141.08 268.099 141.029 268.183 140.993C268.268 140.958 268.358 140.94 268.45 140.94H425.19C425.281 140.94 425.372 140.958 425.456 140.993C425.541 141.029 425.617 141.08 425.681 141.146C425.746 141.211 425.796 141.288 425.83 141.373C425.864 141.458 425.881 141.548 425.88 141.64V146.93C425.88 147.114 425.807 147.29 425.678 147.421C425.549 147.552 425.374 147.627 425.19 147.63ZM269.19 146.23H424.49V142.34H269.15L269.19 146.23Z" fill="#D1D3D4"/>
<path d="M276.21 113.11H262.92V161.18H276.21V113.11Z" fill="white"/>
<path d="M276.21 161.87H262.91C262.727 161.87 262.551 161.797 262.422 161.668C262.292 161.538 262.22 161.363 262.22 161.18V113.11C262.218 113.018 262.235 112.928 262.269 112.843C262.304 112.758 262.354 112.681 262.418 112.616C262.483 112.55 262.559 112.499 262.643 112.463C262.728 112.428 262.818 112.41 262.91 112.41H276.21C276.301 112.41 276.392 112.428 276.476 112.463C276.561 112.499 276.637 112.55 276.701 112.616C276.765 112.681 276.816 112.758 276.85 112.843C276.884 112.928 276.901 113.018 276.9 113.11V161.18C276.9 161.363 276.827 161.538 276.698 161.668C276.568 161.797 276.393 161.87 276.21 161.87ZM263.61 160.48H275.51V113.81H263.61V160.48Z" fill="#D1D3D4"/>
<path d="M328.07 113.11H320.71V161.18H328.07V113.11Z" fill="white"/>
<path d="M328.07 161.87H320.71C320.527 161.87 320.352 161.797 320.222 161.668C320.093 161.538 320.02 161.363 320.02 161.18V113.11C320.019 113.018 320.036 112.928 320.07 112.843C320.104 112.758 320.154 112.681 320.219 112.616C320.283 112.55 320.359 112.499 320.444 112.463C320.528 112.428 320.619 112.41 320.71 112.41H328.07C328.162 112.41 328.252 112.428 328.336 112.463C328.421 112.499 328.497 112.55 328.562 112.616C328.626 112.681 328.676 112.758 328.71 112.843C328.745 112.928 328.761 113.018 328.76 113.11V161.18C328.76 161.363 328.687 161.538 328.558 161.668C328.429 161.797 328.253 161.87 328.07 161.87ZM321.41 160.48H327.41V113.81H321.41V160.48Z" fill="#D1D3D4"/>
<path d="M431.83 113.11H418.54V161.18H431.83V113.11Z" fill="white"/>
<path d="M431.83 161.87H418.54C418.356 161.87 418.179 161.798 418.048 161.668C417.917 161.539 417.842 161.364 417.84 161.18V113.11C417.84 112.924 417.914 112.746 418.045 112.615C418.176 112.484 418.354 112.41 418.54 112.41H431.83C432.015 112.41 432.194 112.484 432.325 112.615C432.456 112.746 432.53 112.924 432.53 113.11V161.18C432.53 161.271 432.512 161.362 432.476 161.446C432.441 161.531 432.389 161.607 432.324 161.671C432.259 161.736 432.182 161.786 432.097 161.82C432.012 161.854 431.921 161.871 431.83 161.87ZM419.24 160.48H431.14V113.81H419.24V160.48Z" fill="#D1D3D4"/>
<path d="M267.71 112.83C267.618 112.83 267.528 112.812 267.443 112.776C267.359 112.741 267.282 112.689 267.218 112.624C267.154 112.559 267.103 112.482 267.069 112.397C267.035 112.312 267.018 112.221 267.02 112.13V108.56C267.008 108.462 267.017 108.362 267.047 108.267C267.076 108.173 267.125 108.086 267.191 108.012C267.257 107.938 267.337 107.879 267.428 107.838C267.518 107.797 267.616 107.776 267.715 107.776C267.814 107.776 267.911 107.797 268.002 107.838C268.092 107.879 268.173 107.938 268.238 108.012C268.304 108.086 268.353 108.173 268.383 108.267C268.412 108.362 268.421 108.462 268.41 108.56V112.13C268.41 112.316 268.336 112.494 268.205 112.625C268.073 112.756 267.895 112.83 267.71 112.83Z" fill="#D1D3D4"/>
<path d="M273 112.83C272.908 112.83 272.818 112.812 272.733 112.776C272.649 112.741 272.572 112.689 272.508 112.624C272.444 112.559 272.393 112.482 272.359 112.397C272.325 112.312 272.308 112.221 272.31 112.13V108.56C272.298 108.462 272.307 108.362 272.337 108.267C272.366 108.173 272.415 108.086 272.481 108.012C272.547 107.938 272.627 107.879 272.718 107.838C272.808 107.797 272.906 107.776 273.005 107.776C273.104 107.776 273.202 107.797 273.292 107.838C273.382 107.879 273.463 107.938 273.528 108.012C273.594 108.086 273.643 108.173 273.673 108.267C273.702 108.362 273.712 108.462 273.7 108.56V112.13C273.7 112.316 273.626 112.494 273.495 112.625C273.363 112.756 273.185 112.83 273 112.83Z" fill="#D1D3D4"/>
<path d="M422.61 112.83C422.519 112.83 422.428 112.812 422.344 112.776C422.259 112.741 422.183 112.689 422.119 112.624C422.054 112.559 422.004 112.482 421.97 112.397C421.936 112.312 421.919 112.221 421.92 112.13V108.56C421.908 108.462 421.917 108.362 421.947 108.267C421.976 108.173 422.026 108.086 422.091 108.012C422.157 107.938 422.238 107.879 422.328 107.838C422.418 107.797 422.516 107.776 422.615 107.776C422.714 107.776 422.812 107.797 422.902 107.838C422.992 107.879 423.073 107.938 423.139 108.012C423.204 108.086 423.254 108.173 423.283 108.267C423.313 108.362 423.322 108.462 423.31 108.56V112.13C423.31 112.316 423.236 112.494 423.105 112.625C422.974 112.756 422.796 112.83 422.61 112.83Z" fill="#D1D3D4"/>
<path d="M427.88 112.83C427.694 112.83 427.516 112.756 427.385 112.625C427.254 112.494 427.18 112.316 427.18 112.13V108.56C427.168 108.462 427.177 108.362 427.207 108.267C427.236 108.173 427.285 108.086 427.351 108.012C427.417 107.938 427.497 107.879 427.588 107.838C427.678 107.797 427.776 107.776 427.875 107.776C427.974 107.776 428.072 107.797 428.162 107.838C428.252 107.879 428.333 107.938 428.398 108.012C428.464 108.086 428.513 108.173 428.543 108.267C428.572 108.362 428.582 108.462 428.57 108.56V112.13C428.571 112.221 428.554 112.312 428.52 112.397C428.486 112.482 428.435 112.559 428.371 112.624C428.307 112.689 428.231 112.741 428.146 112.776C428.062 112.812 427.971 112.83 427.88 112.83Z" fill="#D1D3D4"/>
<path d="M453.98 257H396.57V321.51H453.98V257Z" fill="white"/>
<path d="M454 322.21H396.57C396.385 322.207 396.209 322.133 396.078 322.002C395.947 321.871 395.873 321.695 395.87 321.51V257C395.873 256.816 395.948 256.64 396.079 256.511C396.21 256.382 396.386 256.31 396.57 256.31H454C454.183 256.31 454.359 256.383 454.488 256.512C454.617 256.641 454.69 256.817 454.69 257V321.51C454.69 321.694 454.618 321.87 454.489 322.001C454.36 322.132 454.184 322.207 454 322.21ZM397.28 320.81H453.28V257.7H397.28V320.81Z" fill="#D1D3D4"/>
<path d="M396.66 257H238.82V321.51H396.66V257Z" fill="white"/>
<path d="M396.66 322.21H238.82C238.636 322.207 238.46 322.132 238.331 322.001C238.202 321.87 238.13 321.694 238.13 321.51V257C238.13 256.817 238.203 256.641 238.332 256.512C238.461 256.383 238.637 256.31 238.82 256.31H396.66C396.751 256.309 396.842 256.325 396.927 256.36C397.012 256.394 397.089 256.444 397.154 256.508C397.219 256.573 397.271 256.649 397.306 256.734C397.342 256.818 397.36 256.908 397.36 257V321.51C397.36 321.696 397.286 321.874 397.155 322.005C397.024 322.136 396.846 322.21 396.66 322.21ZM239.52 320.81H396V257.7H239.52V320.81Z" fill="#D1D3D4"/>
<path d="M441.99 160.51H384.5V256.85H441.99V160.51Z" fill="white"/>
<path d="M442 257.55H384.5C384.314 257.55 384.136 257.476 384.005 257.345C383.874 257.214 383.8 257.035 383.8 256.85V160.51C383.802 160.326 383.877 160.15 384.008 160.021C384.139 159.892 384.316 159.82 384.5 159.82H442C442.183 159.82 442.358 159.893 442.488 160.022C442.617 160.151 442.69 160.327 442.69 160.51V256.85C442.691 256.941 442.674 257.032 442.64 257.117C442.606 257.202 442.556 257.279 442.491 257.344C442.427 257.409 442.351 257.461 442.266 257.496C442.182 257.532 442.091 257.55 442 257.55ZM385.2 256.15H441.3V161.21H385.2V256.15Z" fill="#D1D3D4"/>
<path d="M384.68 160.51H252.48V256.85H384.68V160.51Z" fill="white"/>
<path d="M384.67 257.55H252.48C252.294 257.55 252.116 257.476 251.985 257.345C251.854 257.214 251.78 257.036 251.78 256.85V160.51C251.78 160.418 251.798 160.328 251.833 160.244C251.869 160.159 251.92 160.083 251.985 160.018C252.051 159.954 252.128 159.904 252.213 159.87C252.298 159.835 252.388 159.819 252.48 159.82H384.67C384.761 159.819 384.852 159.835 384.937 159.87C385.022 159.904 385.099 159.954 385.164 160.018C385.229 160.083 385.281 160.159 385.316 160.244C385.352 160.328 385.37 160.418 385.37 160.51V256.85C385.37 257.036 385.296 257.214 385.165 257.345C385.033 257.476 384.855 257.55 384.67 257.55ZM253.17 256.15H384V161.21H253.17V256.15Z" fill="#D1D3D4"/>
<path d="M286.34 196.9H273.44C273.348 196.901 273.258 196.884 273.173 196.85C273.088 196.816 273.011 196.766 272.945 196.701C272.88 196.637 272.829 196.561 272.793 196.476C272.758 196.392 272.74 196.301 272.74 196.21V180.42C272.74 180.234 272.814 180.056 272.945 179.925C273.076 179.794 273.254 179.72 273.44 179.72H286.34C286.524 179.723 286.699 179.798 286.828 179.928C286.957 180.059 287.03 180.236 287.03 180.42V196.21C287.03 196.393 286.957 196.568 286.828 196.698C286.698 196.827 286.523 196.9 286.34 196.9ZM274.14 195.51H285.64V181.12H274.14V195.51Z" fill="#D1D3D4"/>
<path d="M313.6 196.9H300.71C300.618 196.901 300.527 196.884 300.443 196.85C300.358 196.816 300.28 196.766 300.215 196.701C300.15 196.637 300.099 196.561 300.063 196.476C300.028 196.392 300.01 196.301 300.01 196.21V180.42C300.01 180.234 300.084 180.056 300.215 179.925C300.346 179.794 300.524 179.72 300.71 179.72H313.6C313.785 179.72 313.963 179.794 314.095 179.925C314.226 180.056 314.3 180.234 314.3 180.42V196.21C314.3 196.301 314.282 196.392 314.246 196.476C314.211 196.561 314.159 196.637 314.094 196.701C314.029 196.766 313.952 196.816 313.867 196.85C313.782 196.884 313.691 196.901 313.6 196.9ZM301.4 195.51H312.91V181.12H301.4V195.51Z" fill="#D1D3D4"/>
<path d="M340.87 196.9H328C327.908 196.901 327.818 196.884 327.733 196.85C327.648 196.816 327.571 196.766 327.505 196.701C327.44 196.637 327.389 196.561 327.353 196.476C327.318 196.392 327.3 196.301 327.3 196.21V180.42C327.3 180.234 327.374 180.056 327.505 179.925C327.636 179.794 327.814 179.72 328 179.72H340.89C341.075 179.72 341.254 179.794 341.385 179.925C341.516 180.056 341.59 180.234 341.59 180.42V196.21C341.59 196.303 341.571 196.395 341.535 196.481C341.498 196.567 341.445 196.644 341.377 196.709C341.31 196.773 341.23 196.823 341.143 196.856C341.056 196.889 340.963 196.904 340.87 196.9ZM328.67 195.51H340.18V181.12H328.67V195.51Z" fill="#D1D3D4"/>
<path d="M368.14 196.9H355.24C355.057 196.9 354.881 196.827 354.752 196.698C354.623 196.568 354.55 196.393 354.55 196.21V180.42C354.55 180.236 354.622 180.059 354.751 179.928C354.88 179.798 355.056 179.723 355.24 179.72H368.14C368.325 179.72 368.504 179.794 368.635 179.925C368.766 180.056 368.84 180.234 368.84 180.42V196.21C368.84 196.301 368.822 196.392 368.786 196.476C368.751 196.561 368.699 196.637 368.634 196.701C368.569 196.766 368.492 196.816 368.407 196.85C368.322 196.884 368.231 196.901 368.14 196.9ZM355.94 195.51H367.45V181.12H355.94V195.51Z" fill="#D1D3D4"/>
<path d="M286.34 226.39H273.44C273.348 226.391 273.258 226.374 273.173 226.34C273.088 226.306 273.011 226.255 272.945 226.191C272.88 226.127 272.829 226.051 272.793 225.966C272.758 225.882 272.74 225.791 272.74 225.7V209.91C272.74 209.818 272.758 209.728 272.793 209.643C272.829 209.559 272.88 209.483 272.945 209.418C273.011 209.354 273.088 209.304 273.173 209.269C273.258 209.235 273.348 209.218 273.44 209.22H286.34C286.523 209.22 286.698 209.293 286.828 209.422C286.957 209.551 287.03 209.727 287.03 209.91V225.7C287.03 225.883 286.957 226.058 286.828 226.188C286.698 226.317 286.523 226.39 286.34 226.39ZM274.14 225H285.64V210.61H274.14V225Z" fill="#D1D3D4"/>
<path d="M313.6 226.39H300.71C300.618 226.391 300.527 226.374 300.443 226.34C300.358 226.306 300.28 226.255 300.215 226.191C300.15 226.127 300.099 226.051 300.063 225.966C300.028 225.882 300.01 225.791 300.01 225.7V209.91C300.01 209.818 300.028 209.728 300.063 209.643C300.099 209.559 300.15 209.483 300.215 209.418C300.28 209.354 300.358 209.304 300.443 209.269C300.527 209.235 300.618 209.218 300.71 209.22H313.6C313.691 209.218 313.782 209.235 313.867 209.269C313.952 209.304 314.029 209.354 314.094 209.418C314.159 209.483 314.211 209.559 314.246 209.643C314.282 209.728 314.3 209.818 314.3 209.91V225.7C314.3 225.791 314.282 225.882 314.246 225.966C314.211 226.051 314.159 226.127 314.094 226.191C314.029 226.255 313.952 226.306 313.867 226.34C313.782 226.374 313.691 226.391 313.6 226.39ZM301.4 225H312.91V210.61H301.4V225Z" fill="#D1D3D4"/>
<path d="M340.87 226.39H328C327.908 226.391 327.818 226.374 327.733 226.34C327.648 226.306 327.571 226.255 327.505 226.191C327.44 226.127 327.389 226.051 327.353 225.966C327.318 225.882 327.3 225.791 327.3 225.7V209.91C327.3 209.818 327.318 209.728 327.353 209.643C327.389 209.559 327.44 209.483 327.505 209.418C327.571 209.354 327.648 209.304 327.733 209.269C327.818 209.235 327.908 209.218 328 209.22H340.89C340.981 209.218 341.072 209.235 341.157 209.269C341.242 209.304 341.319 209.354 341.384 209.418C341.449 209.483 341.501 209.559 341.536 209.643C341.572 209.728 341.59 209.818 341.59 209.91V225.7C341.59 225.793 341.571 225.885 341.535 225.971C341.498 226.057 341.445 226.134 341.377 226.199C341.31 226.263 341.23 226.313 341.143 226.346C341.056 226.379 340.963 226.394 340.87 226.39ZM328.67 225H340.18V210.61H328.67V225Z" fill="#D1D3D4"/>
<path d="M368.14 226.39H355.24C355.057 226.39 354.881 226.317 354.752 226.188C354.623 226.058 354.55 225.883 354.55 225.7V209.91C354.55 209.727 354.623 209.551 354.752 209.422C354.881 209.293 355.057 209.22 355.24 209.22H368.14C368.231 209.218 368.322 209.235 368.407 209.269C368.492 209.304 368.569 209.354 368.634 209.418C368.699 209.483 368.751 209.559 368.786 209.643C368.822 209.728 368.84 209.818 368.84 209.91V225.7C368.84 225.791 368.822 225.882 368.786 225.966C368.751 226.051 368.699 226.127 368.634 226.191C368.569 226.255 368.492 226.306 368.407 226.34C368.322 226.374 368.231 226.391 368.14 226.39ZM355.94 225H367.45V210.61H355.94V225Z" fill="#D1D3D4"/>
<path d="M429.36 237.38H416.46C416.274 237.38 416.096 237.306 415.965 237.175C415.834 237.044 415.76 236.866 415.76 236.68V220.9C415.76 220.714 415.834 220.536 415.965 220.405C416.096 220.274 416.274 220.2 416.46 220.2H429.36C429.451 220.2 429.542 220.218 429.626 220.253C429.711 220.289 429.787 220.34 429.851 220.406C429.915 220.471 429.966 220.548 430 220.633C430.034 220.718 430.051 220.808 430.05 220.9V236.68C430.051 236.771 430.034 236.862 430 236.947C429.966 237.032 429.915 237.109 429.851 237.174C429.787 237.239 429.711 237.291 429.626 237.326C429.542 237.362 429.451 237.38 429.36 237.38ZM417.16 236H428.66V221.6H417.16V236Z" fill="#D1D3D4"/>
<path d="M433 298.07H420.1C419.917 298.07 419.741 297.997 419.612 297.868C419.482 297.738 419.41 297.563 419.41 297.38V281.59C419.41 281.407 419.482 281.231 419.612 281.102C419.741 280.973 419.917 280.9 420.1 280.9H433C433.091 280.899 433.182 280.916 433.267 280.95C433.352 280.984 433.429 281.034 433.494 281.099C433.559 281.163 433.611 281.239 433.646 281.324C433.682 281.408 433.7 281.499 433.7 281.59V297.38C433.7 297.471 433.682 297.562 433.646 297.646C433.611 297.731 433.559 297.807 433.494 297.871C433.429 297.936 433.352 297.986 433.267 298.02C433.182 298.054 433.091 298.071 433 298.07ZM420.8 296.68H432.3V282.29H420.8V296.68Z" fill="#D1D3D4"/>
<path d="M412.09 195H399.19C399.099 195 399.008 194.982 398.924 194.946C398.839 194.911 398.763 194.859 398.699 194.794C398.634 194.729 398.584 194.652 398.55 194.567C398.516 194.482 398.499 194.391 398.5 194.3V178.52C398.499 178.428 398.516 178.338 398.55 178.253C398.584 178.168 398.634 178.091 398.699 178.025C398.763 177.96 398.839 177.909 398.924 177.873C399.008 177.838 399.099 177.82 399.19 177.82H412.09C412.276 177.82 412.454 177.894 412.585 178.025C412.716 178.156 412.79 178.334 412.79 178.52V194.3C412.79 194.485 412.716 194.664 412.585 194.795C412.454 194.926 412.276 195 412.09 195ZM399.89 193.61H411.4V179.22H399.89V193.61Z" fill="#D1D3D4"/>
<path d="M297.48 290.24H284.59C284.404 290.24 284.226 290.166 284.095 290.035C283.963 289.904 283.89 289.725 283.89 289.54V273.76C283.89 273.574 283.963 273.396 284.095 273.265C284.226 273.134 284.404 273.06 284.59 273.06H297.48C297.665 273.06 297.843 273.134 297.975 273.265C298.106 273.396 298.18 273.574 298.18 273.76V289.54C298.18 289.725 298.106 289.904 297.975 290.035C297.843 290.166 297.665 290.24 297.48 290.24ZM285.28 288.85H296.79V274.46H285.28V288.85Z" fill="#D1D3D4"/>
<path d="M324.75 290.24H311.86C311.674 290.24 311.496 290.166 311.365 290.035C311.233 289.904 311.16 289.725 311.16 289.54V273.76C311.16 273.574 311.233 273.396 311.365 273.265C311.496 273.134 311.674 273.06 311.86 273.06H324.75C324.935 273.06 325.113 273.134 325.245 273.265C325.376 273.396 325.45 273.574 325.45 273.76V289.54C325.45 289.725 325.376 289.904 325.245 290.035C325.113 290.166 324.935 290.24 324.75 290.24ZM312.55 288.85H324.06V274.46H312.55V288.85Z" fill="#D1D3D4"/>
<path d="M270.21 290.24H257.32C257.134 290.24 256.956 290.166 256.825 290.035C256.694 289.904 256.62 289.725 256.62 289.54V273.76C256.62 273.574 256.694 273.396 256.825 273.265C256.956 273.134 257.134 273.06 257.32 273.06H270.21C270.396 273.06 270.574 273.134 270.705 273.265C270.836 273.396 270.91 273.574 270.91 273.76V289.54C270.91 289.725 270.836 289.904 270.705 290.035C270.574 290.166 270.396 290.24 270.21 290.24ZM258 288.85H269.51V274.46H258V288.85Z" fill="#D1D3D4"/>
<path d="M352 290.24H339.13C338.944 290.24 338.766 290.166 338.635 290.035C338.503 289.904 338.43 289.725 338.43 289.54V273.76C338.43 273.574 338.503 273.396 338.635 273.265C338.766 273.134 338.944 273.06 339.13 273.06H352C352.185 273.06 352.363 273.134 352.495 273.265C352.626 273.396 352.7 273.574 352.7 273.76V289.54C352.7 289.725 352.626 289.904 352.495 290.035C352.363 290.166 352.185 290.24 352 290.24ZM339.8 288.85H351.31V274.46H339.82L339.8 288.85Z" fill="#D1D3D4"/>
<path d="M379.29 290.24H366.39C366.298 290.24 366.208 290.222 366.123 290.186C366.039 290.151 365.963 290.099 365.898 290.034C365.834 289.969 365.783 289.892 365.749 289.807C365.715 289.722 365.698 289.631 365.7 289.54V273.76C365.698 273.668 365.715 273.578 365.749 273.493C365.783 273.408 365.834 273.331 365.898 273.265C365.963 273.2 366.039 273.149 366.123 273.113C366.208 273.078 366.298 273.06 366.39 273.06H379.29C379.475 273.06 379.653 273.134 379.785 273.265C379.916 273.396 379.99 273.574 379.99 273.76V289.54C379.99 289.725 379.916 289.904 379.785 290.035C379.653 290.166 379.475 290.24 379.29 290.24ZM367.09 288.85H378.6V274.46H367.09V288.85Z" fill="#D1D3D4"/>
<path d="M331.47 330.67H318.21V400.26H331.47V330.67Z" fill="white"/>
<path d="M331.47 401H318.21C318.118 401 318.028 400.982 317.943 400.947C317.859 400.911 317.782 400.859 317.718 400.794C317.654 400.729 317.603 400.652 317.569 400.567C317.535 400.482 317.518 400.391 317.52 400.3V330.67C317.518 330.579 317.535 330.488 317.569 330.403C317.603 330.318 317.654 330.241 317.718 330.176C317.782 330.11 317.859 330.059 317.943 330.023C318.028 329.988 318.118 329.97 318.21 329.97H331.47C331.655 329.97 331.833 330.044 331.965 330.175C332.096 330.306 332.17 330.484 332.17 330.67V400.25C332.177 400.346 332.163 400.442 332.131 400.533C332.099 400.624 332.049 400.707 331.983 400.778C331.917 400.848 331.838 400.904 331.75 400.942C331.661 400.981 331.566 401 331.47 401ZM318.91 399.61H330.78V331.41H318.91V399.61Z" fill="#231F20"/>
<path d="M412.7 330.67H399.44V400.26H412.7V330.67Z" fill="white"/>
<path d="M412.7 401H399.44C399.254 401 399.076 400.926 398.945 400.795C398.814 400.664 398.74 400.486 398.74 400.3V330.67C398.74 330.484 398.814 330.306 398.945 330.175C399.076 330.044 399.254 329.97 399.44 329.97H412.7C412.885 329.97 413.063 330.044 413.195 330.175C413.326 330.306 413.4 330.484 413.4 330.67V400.25C413.407 400.346 413.394 400.442 413.362 400.533C413.329 400.624 413.279 400.707 413.213 400.778C413.148 400.848 413.068 400.904 412.98 400.942C412.891 400.981 412.796 401 412.7 401ZM400.14 399.61H412V331.41H400.14V399.61Z" fill="#231F20"/>
<path d="M422.96 338.38H305.29V373.7H422.96V338.38Z" fill="white"/>
<path d="M423 374.4H305.29C305.104 374.4 304.926 374.326 304.795 374.195C304.664 374.064 304.59 373.886 304.59 373.7V338.38C304.59 338.289 304.608 338.198 304.643 338.114C304.679 338.029 304.73 337.953 304.795 337.889C304.861 337.824 304.938 337.774 305.023 337.74C305.108 337.706 305.198 337.689 305.29 337.69H423C423.184 337.69 423.36 337.762 423.491 337.891C423.622 338.021 423.697 338.196 423.7 338.38V373.7C423.7 373.886 423.626 374.064 423.495 374.195C423.364 374.326 423.186 374.4 423 374.4ZM306 373H422.26V339.08H306V373Z" fill="#231F20"/>
<path d="M347.8 373.7H329.76L307.46 338.38H325.5L347.8 373.7Z" fill="#231F20"/>
<path d="M347.8 374.39H329.75C329.634 374.391 329.52 374.361 329.418 374.305C329.317 374.249 329.231 374.168 329.17 374.07L306.87 338.75C306.803 338.645 306.766 338.524 306.762 338.4C306.759 338.276 306.789 338.153 306.849 338.044C306.91 337.936 306.998 337.846 307.106 337.783C307.213 337.721 307.336 337.689 307.46 337.69H325.46C325.577 337.69 325.693 337.719 325.796 337.775C325.899 337.831 325.986 337.911 326.05 338.01L348.35 373.33C348.411 373.436 348.444 373.557 348.444 373.68C348.444 373.803 348.411 373.924 348.35 374.03C348.297 374.132 348.218 374.219 348.122 374.282C348.026 374.345 347.915 374.382 347.8 374.39ZM330.14 373H346.54L325.12 339.07H308.72L330.14 373Z" fill="#231F20"/>
<path d="M384.3 373.7H366.25L343.95 338.38H362L384.3 373.7Z" fill="#231F20"/>
<path d="M384.3 374.39H366.25C366.133 374.39 366.017 374.361 365.914 374.305C365.811 374.249 365.724 374.168 365.66 374.07L343.37 338.75C343.306 338.644 343.273 338.523 343.273 338.4C343.273 338.277 343.306 338.156 343.37 338.05C343.431 337.942 343.52 337.852 343.627 337.788C343.734 337.725 343.856 337.691 343.98 337.69H362C362.117 337.69 362.233 337.719 362.336 337.775C362.439 337.831 362.526 337.911 362.59 338.01L384.88 373.33C384.946 373.435 384.98 373.556 384.98 373.68C384.98 373.804 384.946 373.925 384.88 374.03C384.824 374.136 384.741 374.226 384.639 374.289C384.537 374.353 384.42 374.387 384.3 374.39ZM366.63 373H383L361.58 339.07H345.21L366.63 373Z" fill="#231F20"/>
<path d="M420.79 373.7H402.74L380.45 338.38H398.49L420.79 373.7Z" fill="#231F20"/>
<path d="M420.79 374.39H402.74C402.624 374.391 402.509 374.363 402.408 374.307C402.306 374.251 402.221 374.169 402.16 374.07L379.86 338.75C379.798 338.644 379.766 338.523 379.766 338.4C379.766 338.277 379.798 338.156 379.86 338.05C379.92 337.94 380.008 337.849 380.115 337.786C380.223 337.722 380.345 337.689 380.47 337.69H398.47C398.587 337.69 398.703 337.719 398.806 337.775C398.909 337.831 398.996 337.911 399.06 338.01L421.36 373.33C421.421 373.436 421.454 373.557 421.454 373.68C421.454 373.803 421.421 373.924 421.36 374.03C421.304 374.134 421.223 374.222 421.123 374.286C421.023 374.349 420.908 374.385 420.79 374.39ZM403.13 373H419.53L398.11 339.07H381.71L403.13 373Z" fill="#231F20"/>
<path d="M422.33 401.21H380.74C380.642 401.222 380.542 401.213 380.448 401.183C380.353 401.154 380.266 401.104 380.192 401.039C380.118 400.973 380.059 400.892 380.018 400.802C379.978 400.712 379.957 400.614 379.957 400.515C379.957 400.416 379.978 400.318 380.018 400.228C380.059 400.138 380.118 400.057 380.192 399.991C380.266 399.926 380.353 399.876 380.448 399.847C380.542 399.817 380.642 399.808 380.74 399.82H422.33C422.428 399.808 422.528 399.817 422.622 399.847C422.717 399.876 422.804 399.926 422.878 399.991C422.952 400.057 423.011 400.138 423.052 400.228C423.093 400.318 423.114 400.416 423.114 400.515C423.114 400.614 423.093 400.712 423.052 400.802C423.011 400.892 422.952 400.973 422.878 401.039C422.804 401.104 422.717 401.154 422.622 401.183C422.528 401.213 422.428 401.222 422.33 401.21Z" fill="#231F20"/>
<path d="M337.31 401.21H310.36C310.19 401.19 310.033 401.108 309.919 400.979C309.806 400.851 309.743 400.686 309.743 400.515C309.743 400.344 309.806 400.178 309.919 400.05C310.033 399.922 310.19 399.84 310.36 399.82H337.31C337.408 399.808 337.508 399.817 337.602 399.847C337.696 399.876 337.784 399.926 337.858 399.991C337.932 400.057 337.991 400.138 338.032 400.228C338.072 400.318 338.093 400.416 338.093 400.515C338.093 400.614 338.072 400.712 338.032 400.802C337.991 400.892 337.932 400.973 337.858 401.039C337.784 401.104 337.696 401.154 337.602 401.183C337.508 401.213 337.408 401.222 337.31 401.21Z" fill="#231F20"/>
<path d="M150.92 174.37C150.92 174.37 174.99 225.43 178.22 232.81C181.45 240.19 167.15 257.24 161.62 253.09C156.09 248.94 150.92 174.37 150.92 174.37Z" fill="#231F20"/>
<path d="M95.5901 391.41C95.5901 391.41 94.5901 397.59 96.0701 399.96C97.5501 402.33 98.7601 405.35 99.3901 410.89C98.2567 412.162 96.8716 413.185 95.3224 413.894C93.7732 414.604 92.0937 414.983 90.3901 415.01C84.6801 415.01 78.9801 410.73 78.3901 408.67C77.8001 406.61 82.9801 384.76 82.9801 384.76L95.5901 391.41Z" fill="white"/>
<path d="M90.37 415.71C84.24 415.71 78.37 411.22 77.66 408.88C77.01 406.75 81.37 388.28 82.24 384.6C82.2659 384.498 82.3145 384.403 82.3823 384.322C82.4501 384.241 82.5352 384.177 82.6313 384.133C82.7275 384.09 82.8322 384.069 82.9376 384.072C83.043 384.075 83.1464 384.102 83.24 384.15L95.9 390.8C96.0297 390.866 96.1353 390.971 96.2017 391.1C96.2681 391.229 96.292 391.376 96.27 391.52C96.02 393.17 95.59 397.84 96.65 399.61C97.96 401.78 99.39 404.82 100.07 410.81C100.081 410.902 100.073 410.996 100.047 411.085C100.022 411.174 99.9783 411.258 99.92 411.33C98.7242 412.689 97.256 413.781 95.6107 414.535C93.9655 415.29 92.18 415.69 90.37 415.71ZM83.37 385.8C81 396 78.65 407.22 79 408.47C79.52 410.16 84.94 414.31 90.37 414.31C91.9251 414.283 93.4591 413.946 94.8826 413.32C96.306 412.693 97.5902 411.789 98.66 410.66C98 405.14 96.66 402.34 95.47 400.32C94.15 398.13 94.62 393.42 94.83 391.8L83.37 385.8Z" fill="#231F20"/>
<path d="M144 252.79L116.55 260.39L110.21 181C110.21 181 132.93 175.62 138.42 178.15C143.91 180.68 144 252.79 144 252.79Z" fill="#231F20"/>
<path d="M116.56 261.08C116.421 261.082 116.284 261.04 116.17 260.96C116.085 260.9 116.015 260.823 115.963 260.733C115.911 260.643 115.88 260.543 115.87 260.44L109.51 181.09C109.499 180.924 109.547 180.759 109.646 180.626C109.744 180.492 109.888 180.398 110.05 180.36C110.98 180.14 133.05 174.95 138.71 177.55C144.37 180.15 144.71 240.68 144.71 252.79C144.708 252.942 144.657 253.088 144.565 253.209C144.473 253.329 144.345 253.417 144.2 253.46L116.75 261.06L116.56 261.08ZM110.94 181.58L117.19 259.5L143.32 252.26C143.25 217.68 141.42 180.33 138.13 178.81C133.39 176.63 114.51 180.77 110.94 181.58Z" fill="#231F20"/>
<path d="M134.86 378.53V397.11L143.73 399.65L143.52 395.85L147.52 399.85C147.52 399.85 171.35 404.13 171.22 400.96C171.09 397.79 168.69 396.05 165.68 394.47C162.46 392.78 154 388 154 388L152.73 374.38" fill="white"/>
<path d="M166.8 402.82C160.47 402.82 150.03 401.02 147.41 400.54C147.269 400.518 147.14 400.451 147.04 400.35L144.31 397.63L144.42 399.63C144.425 399.74 144.405 399.85 144.359 399.95C144.314 400.051 144.246 400.139 144.16 400.208C144.075 400.278 143.974 400.326 143.866 400.348C143.758 400.371 143.646 400.368 143.54 400.34L134.67 397.8C134.526 397.76 134.398 397.674 134.308 397.555C134.218 397.435 134.169 397.29 134.17 397.14V378.53C134.19 378.36 134.272 378.203 134.4 378.09C134.529 377.976 134.694 377.913 134.865 377.913C135.036 377.913 135.201 377.976 135.329 378.09C135.458 378.203 135.54 378.36 135.56 378.53V396.59L142.98 398.71L142.82 395.89C142.814 395.749 142.85 395.609 142.923 395.488C142.996 395.367 143.102 395.271 143.23 395.21C143.36 395.153 143.504 395.137 143.643 395.164C143.783 395.19 143.91 395.259 144.01 395.36L147.87 399.21C158.08 401.03 169.59 402.21 170.55 400.93C170.42 398.3 168.39 396.68 165.36 395.09C162.16 393.41 153.71 388.64 153.63 388.59C153.532 388.535 153.449 388.457 153.388 388.363C153.327 388.269 153.29 388.162 153.28 388.05L152 374.43C151.983 374.246 152.04 374.062 152.158 373.92C152.276 373.778 152.446 373.688 152.63 373.67C152.813 373.658 152.994 373.717 153.135 373.834C153.276 373.951 153.367 374.118 153.39 374.3L154.62 387.56C156.19 388.44 163.17 392.37 166 393.86C169 395.43 171.77 397.38 171.92 400.94C171.925 401.141 171.885 401.342 171.802 401.525C171.719 401.709 171.595 401.871 171.44 402C170.77 402.59 169 402.82 166.8 402.82Z" fill="#231F20"/>
<path d="M92.28 260.28L75.8 390.15C75.8 390.15 76.5 395.3 87.69 395.94C98.88 396.58 97.75 393.94 97.75 393.94L124.37 301.66L131.55 383.79L155.71 385.28L150.91 250.21L92.28 260.28Z" fill="#231F20"/>
<path d="M91.0001 396.73C90.0001 396.73 88.9001 396.73 87.7001 396.63C76.0001 396 75.1401 390.47 75.1101 390.24C75.1 390.18 75.1 390.119 75.1101 390.06L91.5901 260.2C91.608 260.05 91.6744 259.911 91.7791 259.802C91.8838 259.694 92.0212 259.623 92.1701 259.6L150.79 249.53C150.888 249.513 150.988 249.517 151.084 249.541C151.18 249.566 151.269 249.612 151.346 249.674C151.423 249.737 151.486 249.815 151.529 249.904C151.573 249.993 151.597 250.091 151.6 250.19L156.4 385.27C156.405 385.366 156.39 385.462 156.356 385.551C156.321 385.641 156.268 385.722 156.2 385.79C156.129 385.855 156.046 385.906 155.954 385.939C155.863 385.971 155.767 385.985 155.67 385.98L131.51 384.49C131.345 384.479 131.189 384.409 131.07 384.294C130.951 384.179 130.876 384.025 130.86 383.86L124 305.44L98.4701 394C98.4997 394.356 98.4003 394.711 98.1901 395C97.3901 396.17 95.0001 396.73 91.0001 396.73ZM76.5001 390.12C76.6501 390.68 78.0501 394.7 87.7301 395.24C94.7301 395.64 96.5101 394.74 96.9601 394.33C97.0701 394.23 97.0901 394.16 97.0901 394.14C97.063 394.08 97.049 394.015 97.049 393.95C97.049 393.884 97.063 393.82 97.0901 393.76L123.71 301.47C123.76 301.318 123.86 301.189 123.994 301.102C124.128 301.015 124.288 300.977 124.446 300.993C124.605 301.01 124.753 301.08 124.867 301.192C124.98 301.304 125.052 301.451 125.07 301.61L132.19 383.14L154.99 384.55L150.24 251L92.9101 260.84L76.5001 390.12Z" fill="#231F20"/>
<path d="M115.34 171.06C115.34 171.06 123.95 262.4 119.73 267.88C115.51 273.36 96.61 280.66 88.17 273.88C79.73 267.1 81.53 197.67 85.33 191.76C95.87 183 115.34 171.06 115.34 171.06Z" fill="#FBBF24"/>
<path d="M150.92 174.37C150.92 174.37 168.92 263.14 166.35 265.67C163.78 268.2 146.35 273.59 142.53 271.05C138.71 268.51 130.47 174.13 130.47 174.13C130.47 174.13 145.43 169.73 150.92 174.37Z" fill="#FBBF24"/>
<path d="M128.57 167.39L131.91 178.54C131.91 178.54 131.99 184.07 124.01 184.54C116.03 185.01 113.35 180.27 113.35 180.27L107.86 159.27C107.86 159.27 109.93 151.15 104.61 139.69C104.61 139.69 115.52 138.31 128.43 135.85C128.43 135.85 133.75 151.85 134.63 157.85C135.51 163.85 128.57 167.39 128.57 167.39Z" fill="white"/>
<path d="M122.83 185.3C115.44 185.3 112.83 180.83 112.74 180.63C112.711 180.579 112.687 180.526 112.67 180.47L107.18 159.47C107.15 159.355 107.15 159.235 107.18 159.12C107.18 159.04 109.12 151.12 103.98 140C103.931 139.902 103.905 139.794 103.905 139.685C103.905 139.575 103.931 139.468 103.98 139.37C104.034 139.276 104.109 139.195 104.199 139.134C104.29 139.074 104.392 139.035 104.5 139.02C104.61 139.02 115.5 137.61 128.28 135.18C128.447 135.145 128.62 135.174 128.767 135.261C128.913 135.348 129.021 135.487 129.07 135.65C129.29 136.3 134.42 151.78 135.3 157.8C136.11 163.32 131.05 166.8 129.38 167.75L132.56 178.36C132.571 178.423 132.571 178.487 132.56 178.55C132.56 178.61 132.56 184.75 124 185.28C123.63 185.29 123.23 185.3 122.83 185.3ZM114 180C114.37 180.58 117 184.29 124 183.85C130.74 183.43 131.22 179.29 131.25 178.61L127.94 167.61C127.891 167.452 127.9 167.283 127.964 167.131C128.028 166.979 128.143 166.855 128.29 166.78C128.36 166.78 134.78 163.46 133.98 158C133.21 152.74 128.98 139.58 127.98 136.67C117.6 138.62 108.51 139.89 105.65 140.28C110.18 150.58 108.87 158.01 108.65 159.28L114 180Z" fill="#231F20"/>
<path d="M104 158.44C104 158.44 95.8 149.61 96.82 143.34C97.84 137.07 109.53 140.61 109.53 140.61C109.53 140.61 111.83 155.82 109.53 159.97C107.23 164.12 104 158.44 104 158.44Z" fill="#231F20"/>
<path d="M107.56 162.18C105.5 162.18 103.77 159.42 103.44 158.85C102.65 157.99 95.1001 149.56 96.1401 143.23C96.2301 142.567 96.4672 141.934 96.8341 141.375C97.2009 140.816 97.6882 140.346 98.2601 140C102.03 137.65 109.42 139.84 109.73 139.94C109.857 139.976 109.972 140.047 110.059 140.147C110.146 140.246 110.202 140.369 110.22 140.5C110.31 141.13 112.53 155.99 110.14 160.3C109.93 160.821 109.578 161.273 109.123 161.603C108.669 161.934 108.131 162.13 107.57 162.17L107.56 162.18ZM103 140.31C101.612 140.237 100.23 140.541 99.0001 141.19C98.5982 141.432 98.2562 141.762 97.9999 142.155C97.7436 142.548 97.5796 142.994 97.5201 143.46C96.5201 149.32 104.44 157.88 104.52 157.96C104.554 158.001 104.584 158.044 104.61 158.09C105.21 159.09 106.54 160.79 107.61 160.79C108.08 160.79 108.54 160.4 108.96 159.63C110.7 156.51 109.6 145.63 108.96 141.16C107.015 140.637 105.014 140.352 103 140.31Z" fill="#231F20"/>
<path d="M111.19 157.59C110.617 156.652 109.758 155.923 108.74 155.51C107.777 155.17 106.761 155.001 105.74 155.01C105.182 154.949 104.617 155.018 104.09 155.21C103.734 155.384 103.415 155.625 103.15 155.92C102.469 156.559 102.04 157.421 101.94 158.35C101.945 159.102 102.138 159.841 102.5 160.5C102.829 161.25 103.256 161.952 103.77 162.59C104.298 163.21 104.944 163.72 105.671 164.089C106.397 164.458 107.19 164.68 108.002 164.741C108.815 164.803 109.632 164.703 110.405 164.447C111.179 164.191 111.894 163.784 112.51 163.25" fill="white"/>
<path d="M108.45 165.46H107.94C106.114 165.315 104.421 164.452 103.23 163.06C102.674 162.379 102.213 161.625 101.86 160.82C101.451 160.058 101.238 159.205 101.24 158.34C101.34 157.241 101.838 156.217 102.64 155.46C102.965 155.096 103.359 154.8 103.8 154.59C104.438 154.351 105.122 154.262 105.8 154.33C106.904 154.326 108 154.512 109.04 154.88C110.199 155.352 111.176 156.183 111.83 157.25C111.882 157.331 111.918 157.421 111.934 157.516C111.95 157.611 111.947 157.708 111.924 157.801C111.902 157.895 111.861 157.983 111.803 158.06C111.746 158.137 111.673 158.202 111.59 158.25C111.51 158.305 111.42 158.343 111.324 158.361C111.229 158.379 111.131 158.376 111.036 158.354C110.942 158.331 110.853 158.289 110.777 158.229C110.7 158.17 110.636 158.095 110.59 158.01C110.103 157.197 109.361 156.568 108.48 156.22C107.587 155.908 106.646 155.752 105.7 155.76C105.248 155.708 104.79 155.759 104.36 155.91C104.085 156.042 103.839 156.229 103.64 156.46C103.081 156.988 102.727 157.696 102.64 158.46C102.66 159.096 102.828 159.72 103.13 160.28C103.435 160.971 103.828 161.62 104.3 162.21C105.257 163.312 106.606 163.998 108.06 164.12C108.782 164.173 109.506 164.083 110.193 163.855C110.88 163.627 111.514 163.265 112.06 162.79C112.202 162.667 112.387 162.605 112.574 162.618C112.762 162.631 112.937 162.718 113.06 162.86C113.122 162.93 113.17 163.011 113.2 163.1C113.23 163.188 113.242 163.282 113.236 163.375C113.229 163.468 113.204 163.559 113.162 163.642C113.12 163.726 113.061 163.8 112.99 163.86C111.719 164.923 110.107 165.491 108.45 165.46Z" fill="#231F20"/>
<path d="M126.51 148.92C126.51 148.92 132.36 153.33 131.79 154.64C131.22 155.95 128.44 156.19 128.44 156.19" fill="white"/>
<path d="M128.44 156.89C128.268 156.878 128.107 156.804 127.987 156.68C127.867 156.557 127.796 156.394 127.789 156.222C127.781 156.05 127.837 155.881 127.946 155.748C128.056 155.615 128.21 155.527 128.38 155.5C129.38 155.42 130.88 155 131.15 154.37C131.15 153.8 128.75 151.48 126.09 149.48C126.006 149.429 125.933 149.362 125.877 149.281C125.821 149.201 125.782 149.109 125.763 149.013C125.745 148.916 125.746 148.817 125.769 148.721C125.791 148.626 125.833 148.536 125.892 148.458C125.952 148.379 126.027 148.314 126.113 148.267C126.199 148.219 126.294 148.191 126.392 148.182C126.49 148.174 126.588 148.187 126.681 148.219C126.774 148.251 126.858 148.303 126.93 148.37C129.79 150.53 133.08 153.37 132.43 154.92C131.72 156.57 128.82 156.86 128.49 156.92L128.44 156.89Z" fill="#231F20"/>
<path d="M122.904 148.936C123.38 148.645 123.434 147.866 123.024 147.197C122.615 146.528 121.897 146.222 121.421 146.514C120.946 146.805 120.892 147.583 121.301 148.252C121.711 148.921 122.428 149.227 122.904 148.936Z" fill="#231F20"/>
<path d="M128.595 146.582C129.069 146.292 129.122 145.516 128.715 144.85C128.307 144.183 127.592 143.878 127.118 144.168C126.644 144.458 126.59 145.234 126.998 145.9C127.405 146.567 128.12 146.872 128.595 146.582Z" fill="#231F20"/>
<path d="M130.67 158.54L125.56 159.78C125.56 159.78 125.88 163.57 128.79 163.78C131.7 163.99 130.67 158.54 130.67 158.54Z" fill="white"/>
<path d="M128.93 164.46H128.75C125.97 164.28 124.99 161.37 124.87 159.85C124.856 159.685 124.902 159.52 124.999 159.386C125.097 159.252 125.239 159.158 125.4 159.12L130.51 157.87C130.695 157.829 130.889 157.861 131.05 157.96C131.129 158.012 131.196 158.08 131.248 158.159C131.299 158.238 131.334 158.327 131.35 158.42C131.43 158.8 132.02 162.18 130.67 163.71C130.453 163.955 130.184 164.148 129.883 164.278C129.583 164.408 129.257 164.47 128.93 164.46ZM126.35 160.31C126.55 161.24 127.15 162.95 128.84 163.06C128.983 163.086 129.131 163.073 129.268 163.024C129.404 162.975 129.526 162.891 129.62 162.78C130.18 162.15 130.22 160.59 130.09 159.4L126.35 160.31Z" fill="#231F20"/>
<path d="M128.57 167.39C128.57 167.39 122.74 168.99 119.57 168.15C119.57 168.15 123.66 174.15 130.45 174.15L128.57 167.39Z" fill="#231F20"/>
<path d="M130.36 174.82C123.36 174.82 119.19 168.82 119.02 168.54C118.939 168.423 118.895 168.285 118.896 168.143C118.896 168.001 118.94 167.862 119.022 167.746C119.105 167.63 119.22 167.543 119.354 167.495C119.488 167.447 119.633 167.442 119.77 167.48C122.7 168.27 128.33 166.73 128.38 166.72C128.468 166.694 128.56 166.686 128.651 166.696C128.743 166.706 128.831 166.735 128.911 166.779C128.991 166.824 129.061 166.884 129.118 166.956C129.174 167.029 129.216 167.111 129.24 167.2L131.14 173.94C131.167 174.042 131.172 174.148 131.153 174.252C131.134 174.356 131.092 174.454 131.03 174.54C130.967 174.627 130.884 174.697 130.789 174.746C130.693 174.795 130.587 174.82 130.48 174.82H130.36ZM121.26 169.08C123.404 171.477 126.347 173.013 129.54 173.4L128.08 168.23C125.848 168.781 123.559 169.067 121.26 169.08Z" fill="#231F20"/>
<path d="M124.59 306H124.48C124.297 305.97 124.134 305.87 124.025 305.72C123.916 305.57 123.871 305.383 123.9 305.2C123.9 304.91 128.64 275.77 128.33 270.52C128.325 270.429 128.338 270.339 128.367 270.253C128.397 270.167 128.444 270.088 128.504 270.02C128.564 269.953 128.637 269.897 128.719 269.858C128.801 269.818 128.89 269.795 128.98 269.79C129.163 269.779 129.343 269.842 129.48 269.964C129.548 270.024 129.603 270.097 129.642 270.179C129.682 270.261 129.705 270.349 129.71 270.44C130.03 275.84 125.47 304.22 125.27 305.44C125.24 305.598 125.155 305.74 125.031 305.843C124.907 305.945 124.751 306.001 124.59 306Z" fill="white"/>
<path d="M99.5201 284.32C99.4147 284.31 99.313 284.276 99.2228 284.221C99.1327 284.165 99.0565 284.09 99.0002 284C98.9418 283.926 98.8991 283.841 98.8745 283.75C98.85 283.659 98.844 283.564 98.8571 283.47C98.8702 283.377 98.902 283.287 98.9506 283.206C98.9993 283.125 99.0637 283.055 99.1402 283C101.186 281.353 103.379 279.897 105.69 278.65C105.773 278.612 105.862 278.591 105.953 278.588C106.044 278.585 106.134 278.6 106.219 278.633C106.304 278.665 106.381 278.715 106.447 278.778C106.512 278.841 106.564 278.916 106.6 279C106.675 279.167 106.682 279.357 106.618 279.529C106.555 279.701 106.426 279.842 106.26 279.92C104.041 281.124 101.936 282.526 99.9702 284.11C99.9129 284.173 99.8436 284.224 99.7664 284.26C99.6891 284.296 99.6054 284.317 99.5201 284.32Z" fill="white"/>
<path d="M150.39 282.19C150.264 282.186 150.14 282.152 150.03 282.09L141.48 277C141.344 276.895 141.252 276.743 141.22 276.574C141.189 276.406 141.22 276.231 141.309 276.084C141.398 275.937 141.538 275.828 141.702 275.777C141.867 275.727 142.044 275.738 142.2 275.81L150.75 280.94C150.876 281.021 150.974 281.14 151.027 281.28C151.081 281.42 151.088 281.574 151.048 281.718C151.007 281.863 150.922 281.991 150.803 282.083C150.685 282.175 150.54 282.226 150.39 282.23V282.19Z" fill="white"/>
<path d="M135.46 131.14L128.46 132.62C126.566 128.731 123.313 125.669 119.317 124.013C115.32 122.357 110.856 122.222 106.766 123.632C102.676 125.042 99.2436 127.9 97.1166 131.667C94.9896 135.434 94.315 139.849 95.2201 144.08L118.22 139.22V139.27L136.35 135.43C136.919 135.309 137.417 134.967 137.734 134.48C138.051 133.992 138.161 133.399 138.04 132.83C137.919 132.261 137.578 131.763 137.09 131.446C136.603 131.129 136.009 131.019 135.44 131.14H135.46Z" fill="white"/>
<path d="M95.25 144.78C95.1158 144.777 94.9847 144.74 94.87 144.67C94.7174 144.567 94.6101 144.41 94.57 144.23C93.6458 139.882 94.3263 135.346 96.4858 131.46C98.6453 127.574 102.138 124.601 106.319 123.089C110.499 121.578 115.086 121.63 119.231 123.237C123.376 124.844 126.8 127.896 128.87 131.83L135.32 130.46C136.071 130.302 136.853 130.449 137.495 130.868C138.138 131.287 138.587 131.944 138.745 132.695C138.903 133.446 138.756 134.228 138.337 134.87C137.918 135.513 137.261 135.962 136.51 136.12L118.38 140C118.301 140.015 118.219 140.015 118.14 140L95.4 144.8L95.25 144.78ZM112.6 123.39C110.122 123.384 107.672 123.919 105.423 124.959C103.174 125.999 101.179 127.519 99.5786 129.411C97.9782 131.303 96.8107 133.522 96.158 135.912C95.5053 138.303 95.3831 140.807 95.8 143.25L118.08 138.54H118.33L136.22 134.76C136.414 134.722 136.598 134.644 136.762 134.533C136.925 134.421 137.064 134.277 137.17 134.11C137.278 133.947 137.352 133.763 137.388 133.571C137.424 133.379 137.421 133.181 137.38 132.99C137.296 132.604 137.063 132.266 136.731 132.051C136.4 131.836 135.997 131.76 135.61 131.84L128.61 133.31C128.458 133.343 128.299 133.323 128.159 133.254C128.019 133.185 127.907 133.071 127.84 132.93C126.445 130.074 124.278 127.667 121.584 125.98C118.891 124.294 115.778 123.397 112.6 123.39Z" fill="#231F20"/>
<path d="M128.49 132.62C127.85 132.43 103.42 137.62 103.42 137.62L128.49 132.62Z" fill="white"/>
<path d="M103.42 138.31C103.251 138.304 103.09 138.237 102.966 138.122C102.843 138.006 102.765 137.849 102.748 137.681C102.731 137.513 102.775 137.344 102.873 137.206C102.971 137.068 103.116 136.97 103.28 136.93C127.89 131.71 128.47 131.93 128.69 131.93C128.868 131.983 129.017 132.105 129.105 132.268C129.193 132.431 129.213 132.622 129.16 132.8C129.11 132.955 129.009 133.089 128.872 133.178C128.735 133.268 128.572 133.307 128.41 133.29C127.19 133.34 112.92 136.29 103.57 138.29L103.42 138.31Z" fill="#231F20"/>
<path d="M115 131.91C113.868 128.304 111.39 125.274 108.08 123.45L115 131.91Z" fill="white"/>
<path d="M115 132.61C114.852 132.612 114.707 132.564 114.588 132.476C114.468 132.388 114.382 132.262 114.34 132.12C113.271 128.68 110.903 125.793 107.74 124.07C107.577 123.981 107.456 123.831 107.403 123.653C107.351 123.475 107.371 123.283 107.46 123.12C107.549 122.957 107.699 122.836 107.877 122.783C108.055 122.731 108.247 122.751 108.41 122.84C111.888 124.744 114.491 127.924 115.67 131.71C115.721 131.886 115.701 132.075 115.615 132.238C115.53 132.4 115.384 132.522 115.21 132.58L115 132.61Z" fill="#231F20"/>
<path d="M119 131.1C117.752 127.869 115.742 124.987 113.14 122.7L119 131.1Z" fill="white"/>
<path d="M119 131.8C118.859 131.799 118.722 131.756 118.606 131.675C118.49 131.595 118.401 131.482 118.35 131.35C117.147 128.223 115.201 125.437 112.68 123.23C112.539 123.106 112.452 122.932 112.439 122.744C112.425 122.557 112.487 122.372 112.61 122.23C112.671 122.159 112.746 122.102 112.83 122.06C112.913 122.019 113.004 121.995 113.097 121.989C113.191 121.984 113.284 121.997 113.372 122.028C113.46 122.059 113.541 122.107 113.61 122.17C116.305 124.524 118.385 127.5 119.67 130.84C119.704 130.925 119.72 131.016 119.718 131.108C119.716 131.2 119.696 131.29 119.659 131.374C119.622 131.458 119.568 131.533 119.501 131.596C119.435 131.659 119.356 131.708 119.27 131.74C119.185 131.777 119.093 131.797 119 131.8Z" fill="#231F20"/>
<path d="M103.84 268.08C103.66 268.077 103.487 268.005 103.358 267.879C103.23 267.752 103.155 267.58 103.15 267.4C103.15 266.93 101.91 219.94 101.3 207.8C100.929 200.424 100.114 193.078 98.8601 185.8C98.8427 185.711 98.8432 185.619 98.8615 185.53C98.8797 185.44 98.9154 185.356 98.9666 185.28C99.0177 185.205 99.0832 185.141 99.1593 185.091C99.2355 185.041 99.3207 185.007 99.4101 184.99C99.5917 184.955 99.78 184.993 99.9336 185.096C100.087 185.199 100.194 185.358 100.23 185.54C101.498 192.89 102.323 200.31 102.7 207.76C103.3 219.93 104.53 266.93 104.54 267.4C104.543 267.492 104.527 267.583 104.495 267.669C104.462 267.755 104.412 267.834 104.349 267.901C104.286 267.968 104.21 268.021 104.127 268.059C104.043 268.097 103.952 268.117 103.86 268.12L103.84 268.08Z" fill="#231F20"/>
<path d="M84.7901 250.87C84.6192 250.869 84.4548 250.805 84.3277 250.691C84.2006 250.577 84.1196 250.42 84.1001 250.25C84.089 250.159 84.096 250.067 84.1207 249.979C84.1454 249.891 84.1874 249.809 84.2441 249.737C84.3009 249.666 84.3713 249.606 84.4513 249.562C84.5313 249.518 84.6193 249.49 84.7101 249.48C84.9301 249.48 106.78 246.99 113.34 243.41C113.503 243.321 113.695 243.301 113.873 243.353C114.051 243.406 114.201 243.527 114.29 243.69C114.379 243.853 114.399 244.045 114.347 244.223C114.294 244.401 114.173 244.551 114.01 244.64C107.21 248.35 85.7801 250.76 84.8701 250.86L84.7901 250.87Z" fill="#231F20"/>
<path d="M151.79 258.86C151.622 258.861 151.458 258.801 151.331 258.691C151.204 258.58 151.122 258.427 151.1 258.26C147.45 232.75 137.83 178.85 137.73 178.31C137.714 178.219 137.715 178.126 137.735 178.036C137.754 177.946 137.791 177.861 137.844 177.785C137.896 177.71 137.963 177.645 138.04 177.595C138.118 177.545 138.204 177.511 138.295 177.495C138.386 177.478 138.479 177.48 138.569 177.5C138.659 177.519 138.744 177.556 138.82 177.609C138.895 177.661 138.96 177.728 139.01 177.805C139.059 177.883 139.094 177.969 139.11 178.06C139.2 178.6 148.83 232.53 152.48 258.06C152.494 258.151 152.49 258.245 152.467 258.334C152.444 258.424 152.403 258.508 152.347 258.582C152.292 258.656 152.221 258.717 152.141 258.763C152.061 258.809 151.972 258.839 151.88 258.85L151.79 258.86Z" fill="#231F20"/>
<path d="M142.57 243.49C142.401 243.484 142.24 243.417 142.116 243.301C141.993 243.186 141.915 243.029 141.898 242.861C141.881 242.693 141.926 242.524 142.023 242.386C142.121 242.248 142.266 242.15 142.43 242.11L160.87 238.42C161.051 238.387 161.238 238.426 161.391 238.529C161.544 238.632 161.652 238.79 161.69 238.97C161.709 239.06 161.71 239.153 161.692 239.243C161.675 239.333 161.639 239.419 161.588 239.496C161.537 239.572 161.471 239.638 161.394 239.688C161.317 239.739 161.231 239.773 161.14 239.79L142.7 243.48L142.57 243.49Z" fill="#231F20"/>
<path d="M85.3301 191.78C85.3301 191.78 48 246.64 66.2 261.85C82.89 275.79 119.82 252.63 119.82 252.63L117.6 233C117.6 233 85.11 248.43 84.6 241.07C83.9 230.23 89.0501 226.16 89.0501 226.16L85.3301 191.78Z" fill="#231F20"/>
<path d="M116.1 212.2L119.33 279C119.33 279 173.15 295.46 190.2 270.11L194.93 200.64C194.93 200.64 147 219.58 116.1 212.2Z" fill="white"/>
<path d="M154.44 285C152.44 285 150.403 284.937 148.33 284.81C138.443 284.13 128.654 282.424 119.12 279.72C118.985 279.676 118.865 279.593 118.778 279.48C118.691 279.368 118.639 279.232 118.63 279.09L115.41 212.24C115.404 212.132 115.424 212.024 115.467 211.925C115.51 211.826 115.577 211.739 115.66 211.67C115.744 211.604 115.841 211.558 115.944 211.534C116.048 211.509 116.156 211.508 116.26 211.53C146.58 218.77 194.2 200.22 194.67 200.04C194.779 199.995 194.898 199.978 195.015 199.992C195.133 200.006 195.244 200.05 195.34 200.12C195.434 200.19 195.51 200.282 195.561 200.389C195.611 200.495 195.635 200.612 195.63 200.73L190.9 270.2C190.891 270.325 190.849 270.445 190.78 270.55C184.38 280 171.89 285 154.44 285ZM120 278.51C125.3 280.03 173.67 293.1 189.52 269.91L194.16 201.71C185.361 204.959 176.379 207.687 167.26 209.88C153 213.3 132.79 216.59 116.84 213.08L120 278.51Z" fill="#231F20"/>
<path d="M111.66 239.72C111.409 238.241 111.526 236.723 112 235.3C112.458 234.331 113.092 233.456 113.87 232.72C115.2 231.34 116.619 230.051 118.12 228.86C119.47 227.79 121.12 226.75 122.8 227.1C122.251 229.57 120.804 231.747 118.74 233.21C119.429 232.421 120.327 231.842 121.33 231.54C122.01 231.34 122.93 231.37 123.21 232.02C123.274 232.233 123.291 232.457 123.262 232.678C123.233 232.899 123.157 233.111 123.04 233.3C122.253 235.013 121.041 236.496 119.52 237.61L121.16 236.61C121.565 236.31 122.034 236.108 122.53 236.02C122.78 235.977 123.037 236.015 123.263 236.128C123.49 236.242 123.675 236.424 123.79 236.65C123.896 237.021 123.853 237.419 123.67 237.76C123.256 238.754 122.561 239.605 121.67 240.21C122.263 239.71 122.971 239.367 123.73 239.21C124.11 239.148 124.499 239.224 124.827 239.424C125.155 239.624 125.401 239.934 125.52 240.3C125.572 240.717 125.484 241.139 125.27 241.5C124.06 243.84 121.16 244.11 119.76 246.07C118.76 247.55 119.2 249.13 117.05 250.02C111.68 252.24 112 242.77 111.66 239.72Z" fill="white"/>
<path d="M115.54 251.06C114.961 251.068 114.391 250.909 113.9 250.6C111.52 249.1 111.25 244.37 111.07 241.23C111.07 240.67 111.01 240.17 110.97 239.78C110.705 238.189 110.836 236.558 111.35 235.03C111.838 233.984 112.516 233.038 113.35 232.24C114.699 230.837 116.139 229.524 117.66 228.31C119.06 227.21 120.9 225.99 122.93 226.42C123.11 226.46 123.267 226.567 123.37 226.72C123.468 226.878 123.501 227.068 123.46 227.25C123.189 228.489 122.702 229.67 122.02 230.74C122.386 230.708 122.752 230.786 123.073 230.965C123.394 231.143 123.654 231.413 123.82 231.74C123.925 232.043 123.963 232.364 123.934 232.683C123.905 233.002 123.808 233.311 123.65 233.59C123.365 234.187 123.03 234.759 122.65 235.3C123.012 235.293 123.368 235.392 123.675 235.583C123.982 235.775 124.227 236.052 124.38 236.38C124.547 236.923 124.501 237.51 124.25 238.02C124.18 238.19 124.09 238.36 124.01 238.53C124.491 238.542 124.956 238.708 125.334 239.006C125.713 239.303 125.985 239.715 126.11 240.18C126.201 240.754 126.088 241.341 125.79 241.84C125.028 243.101 123.902 244.101 122.56 244.71C121.666 245.135 120.871 245.745 120.23 246.5C119.95 246.928 119.738 247.397 119.6 247.89C119.463 248.515 119.174 249.096 118.759 249.582C118.344 250.069 117.815 250.446 117.22 250.68C116.688 250.909 116.119 251.038 115.54 251.06ZM121.91 227.74C120.654 227.965 119.488 228.544 118.55 229.41C117.076 230.578 115.683 231.844 114.38 233.2C113.66 233.877 113.07 234.68 112.64 235.57C112.219 236.887 112.122 238.287 112.36 239.65C112.36 240.05 112.42 240.57 112.46 241.16C112.6 243.65 112.87 248.3 114.65 249.42C114.971 249.593 115.33 249.684 115.695 249.684C116.06 249.684 116.419 249.593 116.74 249.42C117.153 249.265 117.519 249.004 117.799 248.664C118.08 248.323 118.267 247.915 118.34 247.48C118.518 246.853 118.795 246.259 119.16 245.72C119.909 244.793 120.855 244.045 121.93 243.53C123.032 243.047 123.965 242.246 124.61 241.23C124.754 241.008 124.821 240.744 124.8 240.48C124.73 240.13 124.2 239.91 123.8 239.95C123.228 240.069 122.69 240.319 122.23 240.68L122.05 240.81C121.973 240.867 121.886 240.908 121.792 240.93C121.699 240.951 121.602 240.953 121.508 240.935C121.414 240.917 121.325 240.88 121.246 240.826C121.167 240.772 121.1 240.701 121.05 240.62C120.994 240.543 120.954 240.456 120.932 240.363C120.911 240.271 120.908 240.175 120.925 240.081C120.942 239.988 120.978 239.899 121.03 239.819C121.083 239.74 121.151 239.672 121.23 239.62L121.4 239.51C122.11 239.001 122.669 238.31 123.02 237.51C123.16 237.16 123.16 237 123.13 236.92C123.07 236.843 122.99 236.784 122.898 236.75C122.806 236.716 122.706 236.709 122.61 236.73C122.217 236.816 121.846 236.983 121.52 237.22L119.88 238.22C119.802 238.275 119.714 238.314 119.621 238.334C119.527 238.354 119.431 238.355 119.337 238.336C119.243 238.317 119.154 238.28 119.076 238.225C118.997 238.171 118.931 238.101 118.88 238.02C118.771 237.865 118.727 237.672 118.759 237.485C118.791 237.298 118.896 237.131 119.05 237.02C120.474 235.991 121.61 234.614 122.35 233.02C122.51 232.67 122.57 232.43 122.51 232.31C122.45 232.19 121.93 232.08 121.51 232.22C121.14 232.332 120.785 232.486 120.45 232.68C120.042 233.09 119.597 233.462 119.12 233.79C118.983 233.865 118.825 233.892 118.67 233.867C118.516 233.841 118.375 233.765 118.269 233.65C118.163 233.535 118.099 233.388 118.086 233.232C118.074 233.076 118.114 232.92 118.2 232.79C118.6 232.331 119.065 231.934 119.58 231.61C120.655 230.525 121.454 229.198 121.91 227.74Z" fill="#231F20"/>
<path d="M197.83 230.32C197.62 227.47 196.74 224.32 194.27 222.91C193.509 222.485 192.654 222.253 191.782 222.236C190.911 222.218 190.048 222.415 189.27 222.81C189 222.96 188.71 223.15 188.65 223.45C188.59 223.75 188.97 224.27 189.36 224.5C190.177 225.001 191.063 225.378 191.99 225.62C191.238 225.551 190.483 225.717 189.83 226.095C189.176 226.472 188.655 227.044 188.34 227.73C189.269 228.789 190.553 229.472 191.95 229.65C191.486 229.528 190.995 229.547 190.542 229.703C190.088 229.86 189.691 230.148 189.4 230.53C188.49 231.81 189.22 232.17 190.22 232.94C189.777 232.847 189.316 232.892 188.9 233.07C188.694 233.159 188.52 233.308 188.399 233.496C188.278 233.685 188.215 233.906 188.22 234.13C188.3 234.95 189.33 235.21 190.05 235.62C190.628 235.961 191.067 236.496 191.29 237.13C191.374 237.474 191.491 237.809 191.64 238.13C193.08 240.59 196.19 238.54 196.95 236.82C197.746 234.751 198.048 232.525 197.83 230.32Z" fill="white"/>
<path d="M193.46 240C192.957 239.999 192.464 239.861 192.034 239.6C191.604 239.339 191.253 238.966 191.02 238.52C190.875 238.253 190.767 237.967 190.7 237.67L190.61 237.36C190.447 236.886 190.116 236.488 189.68 236.24C189.53 236.15 189.36 236.07 189.2 235.99C188.53 235.67 187.6 235.23 187.51 234.2C187.49 233.834 187.582 233.471 187.773 233.159C187.964 232.846 188.245 232.599 188.58 232.45C188.19 231.91 188.07 231.19 188.81 230.14C188.972 229.903 189.172 229.694 189.4 229.52C188.798 229.167 188.257 228.718 187.8 228.19C187.713 228.092 187.657 227.971 187.637 227.841C187.618 227.712 187.636 227.579 187.69 227.46C188.074 226.604 188.732 225.9 189.56 225.46C189.361 225.36 189.168 225.25 188.98 225.13C187.89 224.47 187.87 223.72 187.98 223.34C188.052 223.091 188.179 222.862 188.352 222.67C188.526 222.478 188.74 222.327 188.98 222.23C189.866 221.779 190.85 221.554 191.844 221.573C192.838 221.592 193.812 221.856 194.68 222.34C197.55 223.99 198.39 227.58 198.58 230.34C198.781 232.677 198.438 235.028 197.58 237.21C197.209 237.975 196.653 238.635 195.964 239.133C195.275 239.63 194.473 239.949 193.63 240.06L193.46 240ZM189.7 233.61C189.522 233.606 189.346 233.636 189.18 233.7C189.106 233.735 189.041 233.789 188.992 233.855C188.943 233.921 188.912 233.999 188.9 234.08C188.9 234.3 189.29 234.49 189.8 234.74C190 234.83 190.19 234.93 190.37 235.03C191.097 235.448 191.648 236.116 191.92 236.91C191.97 237.04 192.011 237.174 192.04 237.31C192.086 237.485 192.146 237.655 192.22 237.82C192.335 238.071 192.524 238.281 192.762 238.423C192.999 238.564 193.274 238.629 193.55 238.61C194.131 238.514 194.682 238.283 195.158 237.936C195.633 237.588 196.021 237.134 196.29 236.61C197.042 234.635 197.329 232.514 197.13 230.41C196.96 228.03 196.27 224.91 193.92 223.56C193.258 223.189 192.515 222.987 191.756 222.971C190.998 222.955 190.247 223.127 189.57 223.47C189.468 223.515 189.377 223.58 189.3 223.66C189.3 223.66 189.42 223.78 189.7 223.95C190.465 224.398 191.29 224.735 192.15 224.95C192.33 224.985 192.49 225.089 192.593 225.241C192.696 225.393 192.734 225.58 192.7 225.76C192.665 225.94 192.561 226.1 192.409 226.203C192.257 226.306 192.07 226.345 191.89 226.31C191.363 226.263 190.833 226.359 190.356 226.588C189.879 226.816 189.473 227.17 189.18 227.61C189.946 228.365 190.935 228.852 192 229C192.091 229.01 192.179 229.038 192.259 229.082C192.339 229.126 192.409 229.186 192.466 229.258C192.523 229.329 192.565 229.411 192.589 229.499C192.614 229.587 192.621 229.679 192.61 229.77C192.585 229.953 192.489 230.12 192.344 230.233C192.198 230.347 192.014 230.4 191.83 230.38C190.83 230.26 190.34 230.38 189.95 230.97C189.56 231.56 189.51 231.59 190.36 232.23L190.62 232.43C190.746 232.52 190.836 232.651 190.876 232.801C190.917 232.95 190.904 233.109 190.84 233.25C190.781 233.395 190.675 233.515 190.538 233.591C190.402 233.667 190.244 233.695 190.09 233.67L189.7 233.61Z" fill="#231F20"/>
<path d="M90.6301 206.31C90.4782 206.309 90.3307 206.259 90.2098 206.167C90.089 206.075 90.0013 205.946 89.9601 205.8C89.9343 205.712 89.9262 205.62 89.9364 205.529C89.9466 205.438 89.9749 205.349 90.0196 205.269C90.0643 205.189 90.1245 205.119 90.1967 205.062C90.2689 205.006 90.3516 204.964 90.4401 204.94L113 198.49C113.087 198.463 113.179 198.453 113.27 198.462C113.361 198.471 113.45 198.498 113.53 198.542C113.61 198.586 113.681 198.646 113.738 198.717C113.794 198.789 113.836 198.872 113.86 198.96C113.91 199.139 113.887 199.33 113.798 199.493C113.708 199.656 113.558 199.777 113.38 199.83L90.7901 206.28C90.7383 206.297 90.6845 206.307 90.6301 206.31Z" fill="#231F20"/>
<path d="M136.27 194.32C136.097 194.312 135.934 194.24 135.811 194.118C135.688 193.996 135.614 193.834 135.604 193.661C135.594 193.488 135.649 193.318 135.757 193.183C135.865 193.048 136.019 192.958 136.19 192.93L152.32 191.09C152.411 191.079 152.502 191.087 152.59 191.112C152.678 191.137 152.76 191.179 152.831 191.235C152.903 191.292 152.963 191.362 153.007 191.442C153.051 191.522 153.08 191.609 153.09 191.7C153.101 191.79 153.093 191.882 153.068 191.97C153.043 192.058 153.001 192.14 152.945 192.211C152.888 192.283 152.818 192.342 152.738 192.387C152.658 192.431 152.571 192.459 152.48 192.47L136.35 194.32H136.27Z" fill="#231F20"/>
</svg>
