<svg width="500" height="500" viewBox="0 0 500 500" fill="none" xmlns="http://www.w3.org/2000/svg">
<path d="M242 398.4C306.231 398.4 358.3 346.331 358.3 282.1C358.3 217.869 306.231 165.8 242 165.8C177.769 165.8 125.7 217.869 125.7 282.1C125.7 346.331 177.769 398.4 242 398.4Z" fill="#1976D2"/>
<path d="M242 165.8C306.2 165.8 358.3 217.9 358.3 282.1C358.3 346.3 306.3 398.4 242 398.4C177.7 398.4 125.7 346.3 125.7 282.1C125.7 217.9 177.8 165.8 242 165.8ZM242 164.5C177.1 164.5 124.4 217.2 124.4 282.1C124.4 347 177.1 399.7 242 399.7C306.9 399.7 359.6 347 359.6 282.1C359.5 217.2 306.9 164.6 242 164.5Z" fill="#231F20"/>
<path d="M154.8 205.1C155.7 205.4 156.6 205.5 157.5 205.3L155.9 203.9C158 201.6 160.2 199.3 162.5 197.2C162.5 198.8 161.5 200.2 159.9 201.4C162.4 201.5 164.3 200.1 166.4 199.4C169 198.8 171.6 198.3 174.2 198L170.3 200.8C171 201.1 171.8 201.3 172.5 201.5C173.2 199.9 174.2 201.2 175 201.2C176.9 201.1 179 203.3 180.4 201C181.1 201.1 181.7 201.2 182.4 201.4C184.1 202.1 186 202.6 187.5 203.8C189.3 205.2 189.8 205.4 191.1 203.3L189.3 202.7V202L192.9 201.2C193 202.1 193.1 202.9 193.1 203.8C192.9 204.3 192.7 204.9 192.4 205.3C193.5 205.4 194.5 205.6 195.6 205.8C196.6 206.1 197.6 206.6 198.5 207L197.6 208.8L202.4 208L202.6 208.4L200.7 209.6C203.5 210.4 205.2 209 205.2 206.2L207.6 204.9C206.8 204.8 205.9 204.9 205.1 205.2C202.5 205.8 199.9 206.4 197.3 205.1C196 204.4 196 203.5 197.3 202.8C198.9 202 200.5 201.3 202.2 200.7C205.1 199.9 208.2 199.3 211.2 198.6L210.7 197.8C212.1 197.4 213.5 197.1 215 197C215.9 197.1 216.7 197.4 217.5 197.8C217.3 197.3 217.1 196.9 216.7 196.2C218.1 196.9 219.3 197.9 220.1 197.7C222 197.3 223.4 198.7 225.3 198.3C226.4 198.1 227.9 199.7 228.7 200.2C229.6 200.3 230.5 200.5 231.3 200.8C232.1 201.3 232.8 201.9 233.5 202.5L230.5 201.8C231.8 203.4 233.3 205.4 234.9 207.2C236 208.4 237.2 210 238.7 210.4C240.7 211 242.5 212 244 213.4C244.6 214 244.9 214.9 244.8 215.7C244.6 216.9 244.3 218.1 243.8 219.3C243.3 220.6 241.8 221.3 240.4 220.8C239.3 220.2 237.8 218.8 237.1 219.2C236 219.7 235.5 221.3 234.8 222.5C234.7 222.7 234.5 223 234.4 223.3C233.7 224.7 233.8 227.9 231.2 224.6C229.1 225 229.1 223.3 229 222.2C228.9 221 228.2 219.9 227.2 219.4C225.8 218.6 225.8 217.3 227 216.4C228.6 215.2 228.8 214.2 227.4 212.7C226.7 211.9 225.6 211.5 224.8 210.8C224 210.1 223.6 209.1 222.7 208.4C221.8 207.6 220.7 207 219.6 206.6C219 206.4 218.1 207 217.1 207.4C219 208.9 220.4 210 221.8 211.1C222.6 211.7 223.5 215.5 222.8 216C221.5 216.8 220 217.3 218.5 217.4C217.2 217.5 215.8 216.7 214.4 216.5C213.7 216.5 213 216.7 212.4 216.9V217.7C213.6 217.8 214.8 217.9 216 218C216.9 218.1 217.9 218.2 218.8 218.3C220.1 218.6 220.2 219.4 219.4 220.3C218.2 221.4 218.6 222.1 219.6 223C222 221 222.6 221.2 223.1 224.3C223.2 225 223.2 225.7 223.1 226.4C224.1 226.8 225.3 227.8 225.9 227.5C228.4 226.3 230.1 228.5 232.4 228.7C233.1 226.9 234.4 228 235.5 228C236.3 227.9 237 227.6 237.6 227C237.9 226.7 238.1 225.8 237.9 225.6C236.9 224.6 236.6 223 237.3 221.7C240.4 223.4 240.3 223.4 239.6 226.5C239.5 227.1 239.4 227.8 239.5 228.4L244 230.2C245.5 231.6 246.5 232.7 247.6 233.7C248 234.1 248.5 234.3 248.8 234.7C249.5 236.4 251.4 237.2 253.1 236.5C253.2 236.5 253.2 236.4 253.3 236.4C253.2 237 253.2 237.6 253.1 238.3L257.1 238.1C255.9 239.6 254.7 241 253.3 242.2C251.7 244 253 246 253.2 247.9C256.6 248.2 260 246.6 263.3 248.6C261.4 252.4 264.5 256.3 262.3 260L260.1 259.7L258.8 261.5C255.4 260.7 252.1 260.2 251.1 257.3C251.1 256.2 251.4 255.3 251 254.9C250.2 253.9 249.2 252.9 248.3 251.9C247.7 251.2 246.7 250.4 246.8 249.7C246.9 247.5 245.6 247.6 244.4 248.1C243.4 248.7 242.1 248.4 241.3 247.5C240.5 246.9 239.7 246.3 238.9 245.9C238.3 246.6 237.8 247.4 237.1 248.1C236.1 249.4 235 250.6 233.7 251.7C231.5 253.3 228.9 254.5 229.8 258L228.2 255.9C228.5 255 228.6 254.4 228.9 253.3L226.4 254.5C226.5 254.1 226.5 253.8 226.6 253.7C228.1 252.7 229 250.9 230.9 250.5C231.4 250.4 231.9 249.8 232.3 249.3C232.9 248.5 233.2 247.6 233.8 246.9C235.3 245.1 235 244.1 233 243.6C232.8 244.1 232.6 244.5 232.3 244.9C232.1 245.1 231.4 245.1 231.3 245.3C230.8 247.3 229 247.9 227.5 248.9C226.5 249.5 225.2 250.6 225.2 251.5C225.2 255.6 222.3 258.1 220.8 261.3C220.2 260.4 219.6 259.4 219.1 258.4C218.9 257.8 219 257.1 219.3 256.5C219.8 255.6 220.3 254.7 220.9 253.8C220 253.9 219.1 254.2 218.8 253.9C217.2 252.5 217.3 252.4 215.9 253.2C216 254.7 216.1 256 216.2 257.1C215.6 258 215.1 259.4 214.2 259.8C213.1 260.3 212.2 262.2 210.3 260.6C209.7 260.1 207.7 261.1 206.4 261.5C206.3 261.5 206.3 261.5 206.2 261.5L202.8 259.8C203.5 263 204.1 265.5 204.7 268C205.1 269.6 205.7 270.8 207.7 270.9C208.5 270.9 209.2 271.8 209.6 272L206.5 275.3L208 276.5L207.8 277.1L204.8 276.2C204.4 276.9 203.8 277.8 203.3 278.8C202.5 280.4 201.7 282.1 201 283.8C200.4 285.2 199.9 286.5 199.3 287.9C199 288.9 198.7 290 198.3 290.9C197.7 292 197 293 196.3 294C194.2 297 194.3 300.6 193.7 304C193.5 305.2 193 305.6 191.9 305.1C189.9 304.2 188 303.1 186.1 302C184.1 300.7 182.5 298.9 180.4 297.7C178.5 296.7 176.8 295.4 175.5 293.7C175.1 293.2 174.9 292.7 174.6 292.1C174.3 291.5 174 291 173.6 290.5C171.3 287.9 171.7 285.7 174.9 284.1C175.5 283.7 176 283.1 176.2 282.4C176.4 281.5 176.5 280.6 176.5 279.7C177.4 280.6 178.2 281.6 178.9 282.7C179.8 284.5 181.2 283.4 182.4 283.6C182.5 282.9 182.6 282.1 182.8 281.4C182.9 280.9 183 280.4 183.2 279.4C183.7 280.5 183.9 281 184 281.3C185.2 278.8 186.4 276.2 187.6 273.7C185.7 271.6 185.3 271.6 183.9 274.2C183.7 274.6 183.5 275 183.4 275.4C182.5 278.2 179.5 279.7 176.7 278.7C176.4 278.6 176.2 278.5 175.9 278.4C174.9 280.9 174.7 281.2 171.9 281.4C169.1 281.6 166.1 281.4 163.5 281.4L158.7 286.8L160.1 287.4L157 290.1L155.4 288.1C154.7 292 154.1 296.6 152.9 301C151.9 305.5 150.5 309.9 148.6 314.1C145.9 311 144.5 306.9 144.8 302.8C145 301.8 144.8 300.7 144.4 299.8C143.4 298.3 141.8 297.3 140.8 295.8C139.3 293.5 136.4 292.3 135.8 289.2C135.7 288.8 134.9 288.4 134.4 288.3C132.9 287.9 131.3 287.6 129.7 287.3C129.5 288.5 129.1 289.6 128.6 290.6C127.7 291.8 126.9 293.2 126.3 294.6C125.8 290.2 125.6 285.8 125.5 281.4C125.6 253.8 136 226.4 154.8 205.1Z" fill="#FBBF24"/>
<path d="M316 371.8C315.6 371.1 315.4 370.3 315.3 369.5C315.2 367.5 314.5 366.2 312.9 365.5C311 364.6 309 364 307 363.3C306.5 363.2 306.1 362.9 305.8 362.5C304.8 360.9 304 359.2 303.4 357.4C303 354.9 302.7 352.3 302.5 349.8C302.5 349.5 302.5 349.2 302.3 349C301.3 347.7 300.1 346.5 299.2 345.1C298.2 343.6 296.8 341.9 296.7 340.2C296.5 338.2 297.9 336.4 299.9 336.2C300 336.2 300.1 336.2 300.1 336.2C300.4 336.1 300.7 335.9 300.9 335.6C303.2 332.5 306.4 333.2 309.6 333.2C309.3 331.9 310 331.4 311.4 331.1C314.6 330.4 317.2 328.9 318.1 325.2C319.1 321.4 321 320.3 324.9 320.1C326.1 319.9 327.2 319.3 328.1 318.5C328.9 317.9 329.6 317.2 330.2 316.4C330.5 316 330.8 315.6 331.2 315.3C332.3 314.5 333.1 312.9 334.6 313.2C336.1 313.5 337.7 313.9 339.3 313.2C340.9 312.5 342.1 311.9 343.8 311.1C344.2 312.2 344.8 313.7 345.3 315.3C346.4 313.6 345.3 312 345 310.3C348.1 312.2 351.7 313.3 352.4 317.5L352.6 317.4C346 338.8 333.2 357.6 316 371.8Z" fill="#FBBF24"/>
<path d="M339.4 244.3C335.5 245.2 332.6 243.2 329.5 241.7C328.9 241.4 328.5 240.8 328.4 240.2C328.5 239.4 328.9 238.7 329.5 238.3C330.4 237.9 331.3 237.7 332.2 237.6L331 236.8C332.6 236 334.1 235.1 335.5 234C336.2 233.4 336 231.9 336.5 231C337.5 229.5 338.5 228 339.6 226.6C340.6 228.1 340.9 230.7 343.5 230.1C344.3 229.9 345 229.5 345.4 228.8C352.6 242.7 356.8 257.8 358 273.4C357.6 273 357.1 272.6 356.6 272.3C353.4 270.5 353.2 269.9 354.1 266.2C354.2 265 354.2 263.8 354.1 262.6C353.8 263.8 353.5 264.7 353.3 265.7C352.5 264.4 351.5 263.3 351.3 262.1C351.1 260 350.1 259.5 348.3 259.5C347.6 259.4 346.9 259.3 346.3 259L346.9 258.7C346.8 257.7 347.1 256.1 346.5 255.7C344.3 254.4 342 253.2 339.6 252.1L341.1 255.3L340.6 255.4L333.3 251.5L333.6 250.9L334.5 251.4C334.3 250.8 334.2 250.2 334 249.7C334.3 249.7 334.6 249.9 334.8 250.2C336.1 252.2 336.8 252.3 338.8 250.9C340.3 249.8 340.8 248.6 339.2 247.1C339.1 247 339.4 245.9 339.6 245.9C340.4 245.8 341.3 245.9 342.1 246.1C343.2 246.5 344.2 246.9 345.2 247.4C343.5 246 341.9 243.7 339.4 244.3Z" fill="#D1D3D4"/>
<path d="M238.8 323.3C238.3 324.2 238.1 325.3 238.2 326.3C239.1 329.4 239.1 332 236.6 334.6C234.4 336.9 233.4 340 233.6 343.1C233.6 343.5 233.5 343.9 233.3 344.3C232.3 345.7 232.9 346.7 233.6 348.1C235.1 351.2 236.5 354.3 234.4 358C233.1 360.1 231.8 362.3 231.7 365.1C231.8 367.8 230.8 370.4 229 372.5C227.9 373.7 226.8 375.7 226.9 377.2C227.2 378.8 226.4 380.3 224.9 381C224.3 380.7 223.6 380.5 222.9 380.3C221 380.1 219 380.2 217.2 379.7C212.5 378.3 210.1 374.3 207.7 370.5C207.3 369.8 207.5 368.6 207.5 367.3C207.2 367.1 206.6 366.7 205.9 366.4C204 365.5 203.4 364.2 204 362.2C204.2 361.5 204.6 360.8 204.7 360C204.8 359.6 204.9 358.9 204.6 358.7C203 357.3 201.3 356 199.8 354.5C198.8 353.5 197.4 352.5 197.2 351.3C197 349.4 197 347.6 197.5 345.7C197.7 344.5 198.5 343.3 198.8 342.1C199.1 340.9 198.1 339.2 199.6 338C199.8 337.9 199.7 337.1 199.5 336.8C197.1 333.5 195.2 329.7 192.2 327.3C188.2 324.1 186.2 319.8 184 315.5C183.4 314.3 183.4 312.8 183.2 311.5C186.3 312.3 189 313 191.7 313.6C192.3 313.6 192.9 313.4 193.2 312.9C193.7 312.1 193.6 311 194.1 310.3C195.1 309.1 196.4 308.1 197.5 307C198.1 306.4 198.6 305.7 199 304.9C199.9 302.1 202 299.9 202.3 296.8C202.5 294.9 204.3 293.1 205.2 291.2C206.3 288.8 207.3 286.4 208.1 283.9C208.7 282.1 209.7 282.2 211.2 282.6C212.3 283 213.4 283 214.5 282.8C216.7 282.2 218.8 281.4 220.9 280.6C222.8 279.9 224.3 280.7 224.5 282.6C224.6 284 225.2 284.7 226.5 283.7C227.8 282.7 230.4 283.2 230.9 280.8C230.9 280.7 231.4 280.8 231.6 280.7C233.6 279.8 236.3 280.9 237.4 278.8C236.9 277.2 236.4 275.9 235.9 274.4C236.8 274.2 237.7 274.1 238.7 274C241.1 274.1 243.5 274.2 245.9 274.5C247.6 274.7 249.3 275.2 250.9 275.8C253.4 276.8 255.9 277.8 258.2 275.9C259.4 277.1 260.2 278.6 261.5 279.3C263 280 263.9 281.5 263.9 283.2C263.9 285.8 265.3 286.7 267.3 287.3C267.8 287.5 268.3 287.8 268.6 288.2C269.8 290.2 271 292.1 272 294.2C272.7 295.6 274 296.9 272.7 299C271.9 300.2 272.1 302.4 272.6 303.9C273.2 306 273.4 308.2 273.1 310.3C273 310.8 272.7 311.3 272.3 311.6C272 312 271.5 312.2 271.3 312.6C270.2 314.4 269 316.2 267.7 317.9C266.2 319.3 264.6 320.7 262.9 322C261.9 322.9 260.9 322.9 259.6 322.5C257.9 322.2 256.1 322 254.3 322C253.6 322 253 321.9 252.3 321.7C251 321.1 249.6 320.6 248.2 320.2C246.8 319.9 244.9 319 244.2 321.1C243.6 323 242.5 322.9 241 322.8C240.1 322.5 239.4 322.8 238.8 323.3Z" fill="#FBBF24"/>
<path d="M326.8 202.5C326.4 202.4 326 202.2 325.6 202L322.2 204.4L326.6 203.8C326.6 204 326.7 204.2 326.7 204.4L322.5 206V208.1L327.5 210.7L325.2 212.5C325.3 213.1 325.3 213.7 325.2 214.3C323.6 217.5 322 220.8 320.3 223.9C319.8 224.7 319.1 225.4 318.3 225.8C317.1 226.4 315.9 227 314.7 227.4C313.8 227.8 312.9 228.3 312.6 226.6C312.3 224.9 311.9 223.5 311.5 222C311.4 221.7 311.3 221.3 311.1 221.2C309.4 220.3 309.1 218.9 309.1 217.1C309.1 216.5 308.1 215.4 307.6 215.4C304.2 215.7 302.1 214 300.3 211.5C299.8 210.8 298.9 209.9 298.2 209.9C293.8 209.6 290 207.6 286.1 205.4L291.4 204.8L290 203.1L285.8 204.9C285.5 202.7 286.3 201.7 287.9 201C289.7 200.3 289.9 199.3 288.9 198H284L285.4 196.4L282.3 196L283.7 194.6C281.3 192.9 284.5 192.1 284.3 190.9L281.3 190.7C281.8 189.9 282.2 188.8 282.8 188.6C283.8 188.4 284.8 188.3 285.8 188.4C283 184.2 278.2 182.9 273.8 180.8C276.2 179.5 279 179.4 281.5 180.3C283.8 180.9 286.1 181.4 288.4 181.7L287.3 180C288.2 180.1 289.1 180.2 290 180.3C290.5 180.3 291 180.3 291.5 180.3C291.5 180 291.5 179.7 291.6 179.4L286.1 178.5C288 178 289.7 177.3 291.5 176.9C304.8 183 316.8 191.8 326.8 202.5Z" fill="#FBBF24"/>
<path d="M341.6 221.9C341.8 222.3 342.1 222.7 342.3 223C341.9 223.1 341.4 223.3 341 223.5L341.6 221.9Z" fill="#D1D3D4"/>
<path d="M335.2 212.6C335.6 213.1 336 213.5 336.3 214L335.2 212.6Z" fill="#D1D3D4"/>
<path d="M339.5 221.3C339.3 220.5 339.4 219.7 339.6 218.9C340.1 219.6 340.6 220.4 341 221.1L339.5 221.3Z" fill="#D1D3D4"/>
<path d="M193.2 360.7C193.9 362.3 193.7 365.3 192.5 366.4C191.5 367.3 190 367.2 189.2 366.2C189 366 188.8 365.7 188.7 365.4C187.5 361.4 186.4 357.4 185.3 353.3C185.2 353 185.3 352.6 185.1 352.4C184.1 350.9 184.4 348.8 185.7 347.6C188 349.4 188.3 353.2 192.5 353C192.5 354.4 192.4 355.6 192.5 356.9C192.5 358.2 192.8 359.5 193.2 360.7Z" fill="#D1D3D4"/>
<path d="M249.4 232.5C249.2 232 248.7 231.2 248.9 231C249.2 230.7 249.6 230.5 250 230.5L254.6 224.2C253.4 222 253.4 221.2 255.1 220.1C256.1 219.4 258.4 220.4 259.5 221.9C260 222.6 259.3 223.9 257.5 225.6L257.7 226.9C257.3 226.9 257.1 226.9 256.9 227C256.2 227.5 255.3 227.9 255.1 228.6C254.9 229.3 255.5 230 256.6 229.6C256.9 229.8 257 230.1 257.1 230.4C257.2 231.2 257.1 231.9 257.1 232.9L255.4 233.4L258.5 235.8L250.2 234.5L249.4 232.5Z" fill="#FBBF24"/>
<path d="M178.3 190.5C179.9 192.2 181.5 193.8 183.3 195.3C181.1 197.5 178.2 197.7 174.8 197.6C175.8 196.9 176.6 196.6 176.9 196C177.2 195.4 177.5 194.3 177.2 193.9C175.6 192 173.7 190.5 171.5 189.5C172.2 188.9 173 188.4 173.7 187.8C175.5 188.3 177.1 189.2 178.3 190.5Z" fill="#FBBF24"/>
<path d="M283.3 221.3C282.5 221.5 281.6 221.5 280.8 221.3C279.5 221 278.3 220.4 277.2 219.6C276.4 218.9 274.6 218.4 275.4 216.9C276.1 215.7 277.4 214.9 278.4 214L278.6 214.7L285 216.2L286.5 214.1L286.3 214.8L289.1 216.4L288.8 216.8H285.8L288.5 218.2L285.5 219.1L287 220.2C285.8 220.6 284.6 221.1 283.3 221.3Z" fill="#FBBF24"/>
<path d="M228.8 186.2C227.4 185.1 226.3 184.1 225.1 183.3C224.7 183.1 224.1 183.1 223.7 183.3C223.3 183.5 223.3 184.2 223 184.7H218.9C218.9 184.4 218.8 184.2 218.8 183.9L230.2 179.3C229.7 180.4 229.5 180.8 229.5 180.9L236.3 180.3L236.5 181C235.5 181.7 234.6 182.7 233.6 183C232.6 183.3 231.4 182.7 230.3 182.6C230.3 182.8 230.3 183 230.2 183.1L232.8 184L232.7 184.4L230.7 184.6L232.1 185.3L228.8 186.2Z" fill="#FBBF24"/>
<path d="M259 228.7C258 228.1 257.9 227.3 258.9 226.8C259.9 226.3 261 225.5 262.1 226.7C262.7 227.4 263.4 227.9 264.2 228.7V232L264.9 232.3C264.5 232.6 264.1 233.2 263.8 233.1C262.3 232.7 260.8 232.2 259.4 231.5C259 231.3 259.3 230 259.3 229.2C259.2 229.1 259.2 228.8 259 228.7Z" fill="#FBBF24"/>
<path d="M356.8 295C357.1 294.9 357.4 294.8 357.7 294.7C357.7 295.2 357.6 295.7 357.5 296.2C356.7 296.5 355.9 296.8 355.1 297.2C354.3 297.6 353.8 298.7 352.9 299.7L349 299.3C351.8 297.7 354.2 296.3 356.8 295Z" fill="#D1D3D4"/>
<path d="M341.6 302.1C341.4 300.2 344.8 299 347.8 299.9L346.2 301.8L349.4 301.5C346.9 303.2 344.2 301.9 341.6 302.1Z" fill="#D1D3D4"/>
<path d="M215.5 179.6H226.2C224.8 180.3 223.3 180.8 221.7 181.1C219.6 181.1 217.5 181 215.4 180.8L215.5 179.6Z" fill="#FBBF24"/>
<path d="M144 320C143.4 319.8 142.6 318.6 142.7 318.2C143.3 316.9 144 315.6 144.8 314.4L145.4 314.7C145.4 316 145.4 317.3 145.4 318.6C145.5 319.7 145.1 320.5 144 320Z" fill="#D1D3D4"/>
<path d="M238.5 252.6L239.9 253.2V256.8C237.5 256.7 238.6 254.8 238.1 253.7C238 253.5 238.3 253 238.5 252.6Z" fill="#D1D3D4"/>
<path d="M230.8 258.5H234.6L234.7 258.9L231.2 261C231 260.1 230.9 259.2 230.8 258.5Z" fill="#D1D3D4"/>
<path d="M380.944 132.037L364.818 164.11L368.302 165.862L384.428 133.789L380.944 132.037Z" fill="#231F20"/>
<path d="M368.2 166.5C368.1 166.5 368 166.5 367.9 166.4L364.5 164.7C364.2 164.5 364 164.1 364.2 163.8L380.3 131.7C380.4 131.5 380.5 131.4 380.7 131.3C380.9 131.2 381.1 131.2 381.2 131.3L384.6 133C384.9 133.2 385.1 133.6 384.9 133.9L368.8 166C368.7 166.2 368.6 166.3 368.4 166.3C368.3 166.5 368.3 166.5 368.2 166.5ZM365.7 163.8L367.9 164.9L383.4 134L381.2 132.9L365.7 163.8Z" fill="#231F20"/>
<path d="M355.4 177.9C355.8 176.7 364.1 166.6 364.4 164.4C364.7 162.2 362.9 153.2 364.7 152C366.5 150.8 369.9 159.2 369.9 159.2C369.9 159.2 377.1 146 379.2 146.9C381.3 147.8 380.6 155 379.5 159.5C378.4 164 365.2 185.8 365.2 185.8L355.4 177.9Z" fill="white"/>
<path d="M365.2 186.4C365 186.4 364.9 186.3 364.8 186.2L355 178.4C354.8 178.2 354.7 177.9 354.8 177.6C355 177.1 355.9 175.8 358 172.9C360.1 170 363.6 165.3 363.8 164.2C363.8 162.9 363.8 161.6 363.6 160.4C363.2 155.7 363 152.3 364.4 151.3C364.8 151 365.2 151 365.6 151.1C367.2 151.6 369.1 155.3 370.1 157.5C373.4 151.6 377.5 145.3 379.6 146.1C382.7 147.4 380.9 157 380.3 159.5C379.1 164 366.5 185.1 365.9 186C365.8 186.2 365.6 186.3 365.4 186.3L365.2 186.4ZM356.3 177.7L365 184.7C367.2 181 377.8 163.1 378.8 159.3C380.2 154.1 380.2 148.1 378.9 147.5C377.8 147.6 373.6 153.8 370.5 159.5C370.4 159.7 370.1 159.9 369.8 159.9C369.5 159.9 369.3 159.7 369.2 159.5C367.6 155.6 365.7 152.6 365 152.6C364.1 153.2 364.5 157.9 364.8 160.4C365 161.8 365.1 163.2 365 164.6C364.8 166 362.4 169.4 359 174C358 175.3 356.8 176.9 356.3 177.7Z" fill="#231F20"/>
<path d="M391.3 360.5C391.3 360.5 401.6 378.8 400.9 378.9C400.2 379 383.7 383.9 383.7 383.9C383.7 383.9 374 369.1 374.1 368.7C374.2 368.3 391.3 360.5 391.3 360.5Z" fill="white"/>
<path d="M383.7 384.5C383.5 384.5 383.2 384.4 383.1 384.2C373.2 369.1 373.3 368.8 373.4 368.4C373.5 368 373.6 367.8 391 359.9C391.3 359.7 391.7 359.9 391.9 360.2C402.1 378.2 401.8 378.8 401.6 379.2C401.5 379.4 401.3 379.6 401 379.6C400.3 379.7 390.4 382.6 383.9 384.5H383.7ZM375 368.9C376.1 370.9 380.8 378.2 384 383C387.8 381.9 397.3 379.1 400.1 378.4C399.1 376 394.3 367.3 391 361.5C385.4 364 377.1 367.8 375 368.9Z" fill="#231F20"/>
<path d="M401 378.9C401 378.9 429 377.4 430.4 382.4C431.8 387.4 390.4 400.1 390.4 400.1L383.7 383.9L401 378.9Z" fill="#231F20"/>
<path d="M390.4 400.7C390.1 400.7 389.9 400.5 389.8 400.3L383.1 384.1C383 383.9 383 383.7 383.1 383.5C383.2 383.3 383.3 383.2 383.5 383.1L400.7 378.1H400.8C405.6 377.8 429.4 376.8 430.9 382.1C432.4 387.4 400.4 397.6 390.5 400.6C390.6 400.7 390.5 400.7 390.4 400.7ZM384.7 384.3L390.9 399.2C410.3 393.2 430.5 385.2 429.8 382.6C428.9 379.6 412.6 379 401.2 379.6L384.7 384.3Z" fill="#231F20"/>
<path d="M332.7 363.9L325.5 371.8L312.6 358.1L323 347.3L332.7 363.9Z" fill="white"/>
<path d="M325.5 372.5C325.3 372.5 325.1 372.4 325 372.3L312.1 358.7C311.8 358.4 311.8 358 312.1 357.7L322.5 346.8C322.7 346.6 322.9 346.6 323.1 346.6C323.3 346.6 323.5 346.8 323.6 346.9L333.3 363.5C333.4 363.8 333.4 364.1 333.2 364.3L326.1 372.2C325.9 372.3 325.7 372.4 325.5 372.5ZM313.5 358.2L325.5 370.8L331.8 363.8L322.8 348.4L313.5 358.2Z" fill="#231F20"/>
<path d="M325.5 371.8C325.5 371.8 334.8 400 329.9 399.6C325 399.2 301.8 369.9 301.8 369.9L312.6 358.2L325.5 371.8Z" fill="#231F20"/>
<path d="M330.1 400.3H330C325 399.9 303.8 373.3 301.4 370.3C301.2 370 301.2 369.7 301.4 369.4L312.2 357.7C312.3 357.6 312.5 357.5 312.7 357.5C312.9 357.5 313.1 357.6 313.2 357.7L326.1 371.3C326.2 371.4 326.2 371.5 326.3 371.6C327.7 375.7 334.3 396.2 331.5 399.7C331.1 400 330.6 400.3 330.1 400.3ZM302.8 369.9C311.8 381.2 326.8 398.7 330.1 398.9C330.2 398.9 330.3 398.9 330.4 398.8C332.1 396.6 328 381.3 325 372.2L312.7 359.2L302.8 369.9Z" fill="#231F20"/>
<path d="M340.7 229.8C340.7 229.8 397.2 291 398.1 297C399.8 308.7 333.7 368.6 333.7 368.6L318.6 348L358 302L306.3 231.3L340.7 229.8Z" fill="#231F20"/>
<path d="M333.7 369.3C333.4 369.3 333.3 369.2 333.1 369L318 348.3C317.8 348 317.8 347.7 318 347.4L357 301.9L305.6 231.6C305.4 231.3 305.5 230.8 305.8 230.6C305.9 230.5 306 230.5 306.2 230.5L340.7 229C340.9 229 341.1 229.1 341.2 229.2C347 235.5 397.9 290.7 398.8 296.8C399.6 301.9 388.9 315.6 367 337.6C350.9 353.9 334.3 368.9 334.1 369.1C334 369.2 333.9 369.3 333.7 369.3ZM319.5 348L333.9 367.6C352.6 350.6 398.9 306.3 397.5 297.1C396.9 292.9 363.2 255.1 340.5 230.5L307.6 231.9L358.6 301.6C358.8 301.9 358.8 302.2 358.6 302.5L319.5 348Z" fill="#231F20"/>
<path d="M294.2 243.4L376.9 378.4L400.1 365L331.6 230.8L294.2 243.4Z" fill="#231F20"/>
<path d="M376.9 379.1C376.7 379.1 376.4 379 376.3 378.8L293.6 243.8C293.5 243.6 293.5 243.4 293.5 243.2C293.6 243 293.7 242.8 293.9 242.8L331.4 230.2C331.7 230.1 332.1 230.2 332.2 230.6L400.7 364.9C400.9 365.2 400.7 365.6 400.4 365.8L377.2 379C377.1 379.1 377 379.1 376.9 379.1ZM295.2 243.7L377.1 377.4L399.2 364.7L331.3 231.6L295.2 243.7Z" fill="#231F20"/>
<path d="M378.5 321.5C378.2 321.5 378 321.4 377.9 321.1L339 246.9C338.9 246.7 338.9 246.4 339 246.2L343.1 238.8C343.3 238.5 343.7 238.4 344.1 238.6C344.4 238.8 344.5 239.2 344.4 239.5L340.5 246.5L379.2 320.4C379.4 320.7 379.2 321.2 378.9 321.4C378.7 321.4 378.6 321.4 378.5 321.5Z" fill="white"/>
<path d="M299.2 145.6C295.6 145 292 144.1 288.5 143.2C285.9 142.5 283.2 141.5 281.8 139.3C284.1 138.3 285.1 135.6 285.9 133.2L291.2 116.9C292.7 112.4 294.1 107.9 296.8 104C298.7 101.3 306.7 93.2996 309.7 98.2996C313.1 95.6996 320.2 93.7995 324.3 95.6995C328.9 98.0995 332.3 102.5 333.4 107.6C334.3 111.8 333.7 116.1 332.8 120.2C332.7 121 332.4 121.9 332 122.6C331.3 123.6 330.4 124.5 329.3 125.1C321.9 130.4 316 137.5 312 145.6C311.8 146.2 311.4 146.6 310.9 146.9C310.5 147 310.1 147.1 309.6 147C306.1 146.7 302.7 146.2 299.2 145.6Z" fill="white"/>
<path d="M310.1 147.7C309.9 147.7 309.7 147.7 309.5 147.7C306 147.4 302.5 146.9 299.1 146.3C295.5 145.7 291.8 144.8 288.3 143.8C285.5 143 282.6 142 281.2 139.6C281.1 139.4 281.1 139.2 281.1 139C281.2 138.8 281.3 138.7 281.5 138.6C283.5 137.7 284.4 135.3 285.2 132.9L290.5 116.6C292 112.1 293.5 107.5 296.2 103.5C297.8 101.2 303.1 95.8998 307 95.8998H307.1C308.2 95.8998 309.1 96.3998 309.8 97.1998C313.4 94.7998 320.2 92.8998 324.5 94.9998C329.3 97.4998 332.8 102 334 107.4C334.9 111.7 334.3 116.2 333.4 120.3C333.3 121.2 333 122.1 332.5 122.9C331.8 123.9 330.9 124.8 329.8 125.5L329.6 125.6C322.3 130.8 316.5 137.8 312.5 145.9C312.2 146.6 311.7 147.2 311.1 147.6C310.8 147.6 310.5 147.7 310.1 147.7ZM282.8 139.4C284.2 141.1 286.6 141.8 288.7 142.4C292.2 143.4 295.8 144.2 299.4 144.8C302.8 145.4 306.3 145.9 309.7 146.2C310 146.3 310.3 146.3 310.6 146.2C310.9 146.1 311.1 145.6 311.3 145.2C315.3 136.9 321.4 129.8 328.8 124.4L329 124.3C329.9 123.7 330.7 123 331.3 122.1C331.6 121.4 331.9 120.7 332 119.9C332.8 115.9 333.5 111.7 332.6 107.6C331.5 102.7 328.3 98.4998 323.9 96.1998C320.3 94.3998 313.4 96.0998 310.1 98.6998C309.9 98.7998 309.7 98.8998 309.5 98.7998C309.3 98.7998 309.1 98.6998 309 98.4998C308.6 97.6998 307.8 97.2998 307 97.1998C303.7 97.1998 298.7 102.3 297.4 104.2C294.8 108 293.3 112.5 291.9 116.9L286.6 133.2C285.8 135.6 284.8 138.1 282.8 139.4Z" fill="#231F20"/>
<path d="M332.8 126.1C332.8 126.1 337.2 135.7 335.7 137.3C334.2 138.9 330.5 137.1 330.5 137.1" fill="white"/>
<path d="M333.9 138.7C332.6 138.6 331.4 138.3 330.2 137.8C329.8 137.6 329.7 137.2 329.9 136.9C330.1 136.5 330.5 136.4 330.8 136.6C331.7 137 334.3 138 335.2 137C335.8 136.3 334.4 131.4 332.2 126.6C332 126.2 332.2 125.8 332.5 125.7C332.8 125.5 333.3 125.7 333.4 126C334.8 129 337.8 136.2 336.2 138C335.6 138.5 334.7 138.8 333.9 138.7Z" fill="#231F20"/>
<path d="M333.4 114.4C336.6 118 334.5 124.1 333.8 128.2C332.8 134 331.7 139.7 330.5 145.4C329.7 149 320.2 147.6 318.7 146.2L317.7 158.4C317.7 158.4 314.4 164.7 307.3 160C300.2 155.3 299.2 150.1 299.2 150.1L302.5 133.5C302.5 133.5 308.7 134.5 313.6 127.7C318.5 120.9 320.2 109.3 320.2 109.3C320.2 109.3 330.3 111 333.4 114.4Z" fill="white"/>
<path d="M312.3 162.6C310.4 162.5 308.5 161.9 306.9 160.7C299.7 155.8 298.5 150.5 298.5 150.3C298.5 150.2 298.5 150.1 298.5 150L301.8 133.4C301.9 133 302.2 132.8 302.6 132.8C302.8 132.8 308.5 133.7 313.1 127.2C317.8 120.6 319.5 109.3 319.5 109.2C319.5 109 319.6 108.9 319.8 108.7C320 108.6 320.1 108.5 320.3 108.6C320.7 108.7 330.6 110.2 333.9 113.8C336.8 117 335.8 122 334.9 126C334.7 126.8 334.6 127.5 334.5 128.2C333.5 133.9 332.4 139.8 331.2 145.5C330.9 146.7 329.9 147.7 328.7 147.9C326 148.8 321.6 148.2 319.4 147.3L318.4 158.5C318.4 158.6 318.4 158.7 318.3 158.8C317.3 160.5 315.8 161.8 313.9 162.3C313.4 162.6 312.8 162.6 312.3 162.6ZM300 150.2C300.2 151 301.6 155.4 307.8 159.6C309.9 161 311.9 161.5 313.6 161.1C315.1 160.7 316.3 159.7 317.1 158.4L318.1 146.3C318.1 146 318.3 145.8 318.5 145.7C318.8 145.6 319 145.7 319.2 145.8C320 146.5 325.2 147.7 328.2 146.7C329.1 146.4 329.7 145.9 329.8 145.3C331 139.6 332.1 133.8 333.1 128.1C333.2 127.4 333.4 126.6 333.5 125.8C334.3 122.1 335.2 117.5 332.8 114.8C330.3 112 323 110.5 320.8 110.1C320.3 112.7 318.5 122 314.2 128.1C309.9 134.2 304.9 134.4 303.1 134.3L300 150.2Z" fill="#231F20"/>
<path d="M331.1 141.2C331.1 141.2 326.2 143.2 324.5 138.2L331.1 141.2Z" fill="white"/>
<path d="M328.9 142.3C326.5 142.4 324.4 140.7 323.9 138.4C323.8 138 324 137.6 324.3 137.5C324.7 137.4 325.1 137.6 325.2 137.9C325.5 139 326.2 139.9 327.2 140.5C328.4 140.9 329.6 140.9 330.8 140.5C331.1 140.3 331.6 140.5 331.7 140.8C331.9 141.1 331.7 141.6 331.4 141.7H331.3C330.5 142.1 329.7 142.3 328.9 142.3Z" fill="#231F20"/>
<path d="M321.1 128.1C321.2 126.6 320.8 125.2 320.1 123.9C319.7 122.8 319.1 121.8 318.4 120.9C317.7 120 316.6 119.5 315.4 119.5C314.4 119.6 313.5 120.1 312.9 120.9C312.3 121.7 311.9 122.7 311.7 123.7C310.8 128.1 312.3 132.6 315.7 135.6L315.4 135.2" fill="white"/>
<path d="M315.8 136.2C315.6 136.2 315.5 136.1 315.3 136C311.8 132.9 310.2 128.1 311.1 123.4C311.3 122.3 311.8 121.3 312.4 120.4C313.1 119.4 314.2 118.8 315.5 118.7C316.9 118.7 318.2 119.3 319 120.4C319.8 121.3 320.4 122.4 320.8 123.5C321.6 124.9 321.9 126.5 321.8 128.1C321.7 128.5 321.4 128.7 321 128.7C320.6 128.6 320.3 128.3 320.4 127.9C320.4 126.6 320.1 125.2 319.5 124.1C319.1 123.1 318.6 122.2 317.9 121.3C317.3 120.6 316.4 120.1 315.5 120.1C314.7 120.2 314 120.6 313.5 121.3C313 122 312.6 122.9 312.5 123.8C311.7 127.7 312.9 131.7 315.6 134.5C315.8 134.5 315.9 134.6 316.1 134.8L316.4 135.2C316.6 135.5 316.5 136 316.2 136.2C316.1 136.2 315.9 136.3 315.8 136.2Z" fill="#231F20"/>
<path d="M318.8 146.3C318.8 146.3 314.1 144 312.4 140.3C312.4 140.3 311.3 149.2 318.4 152.9L318.8 146.3Z" fill="#231F20"/>
<path d="M318.4 153.6C318.3 153.6 318.2 153.6 318.1 153.5C310.6 149.6 311.7 140.3 311.7 140.2C311.7 139.8 312.1 139.5 312.5 139.6C312.7 139.6 312.9 139.8 313.1 140C314.7 143.5 319.2 145.7 319.2 145.7C319.4 145.8 319.6 146.1 319.6 146.4L319.2 153C319.2 153.2 319.1 153.5 318.8 153.6C318.7 153.5 318.5 153.6 318.4 153.6ZM313.1 142.7C313.3 145.2 314.2 149.3 317.8 151.7L318.1 146.8C316.2 145.7 314.5 144.3 313.1 142.7Z" fill="#231F20"/>
<path d="M330.895 121.896C331.266 120.797 331.227 119.791 330.808 119.65C330.39 119.509 329.75 120.286 329.379 121.385C329.009 122.484 329.048 123.489 329.466 123.63C329.885 123.771 330.525 122.995 330.895 121.896Z" fill="#231F20"/>
<path d="M295.1 147C295.1 147 314.5 149.3 321.5 160.3C328.5 171.3 332 211.7 335.6 214.7C339.2 217.7 349 233.2 348.8 233.9C348.6 234.6 292 248.3 292 248.3C292 248.3 289.6 235.2 284.7 218.2C279.8 201.2 278.9 147 295.1 147Z" fill="#3F51B5"/>
<path d="M309.8 164.4C310.2 165 329.6 201.6 329.6 201.6L355.3 172.3L368.8 183.6C368.8 183.6 345.8 222 331.2 225.7C316.6 229.4 287.1 175.7 288 170.1C288.9 164.5 304.1 156.1 309.8 164.4Z" fill="#3F51B5"/>
<path d="M329.7 202.3C329.4 202.3 329.2 202.1 329.1 201.9L311.5 168.8C311.3 168.4 311.5 168 311.9 167.9C312.2 167.8 312.6 167.9 312.8 168.2C313 168.6 327.1 195.1 329.9 200.4L340.5 188.2C340.7 187.9 341.2 187.8 341.5 188.1C341.8 188.3 341.9 188.8 341.6 189.1C341.6 189.1 341.6 189.2 341.5 189.2L330.2 202.1C330.1 202.2 329.9 202.3 329.7 202.3Z" fill="#231F20"/>
<path d="M331.3 225.7C321.8 225.7 312 217.2 302.3 200.4C302.1 200.1 302.2 199.6 302.5 199.4C302.5 199.4 302.5 199.4 302.6 199.4C302.9 199.2 303.4 199.3 303.5 199.6C313.7 217.2 323.7 225.4 333.4 224.1C343.1 222.8 353.7 204.5 353.8 204.3C354 204 354.5 203.9 354.8 204.1C355.1 204.3 355.2 204.7 355 205C354.5 205.8 343.8 224.1 333.6 225.5C332.8 225.6 332.1 225.7 331.3 225.7Z" fill="#231F20"/>
<path d="M317.2 265.7C317.1 265.7 316.9 265.7 316.8 265.6C316.5 265.4 316.3 265 316.5 264.7C316.5 264.7 316.5 264.6 316.6 264.6C323.1 253.8 318.5 249.1 318.2 248.9C317.9 248.6 317.9 248.2 318.2 247.9C318.5 247.6 318.9 247.6 319.2 247.9C319.4 248.1 324.9 253.5 317.8 265.3C317.7 265.6 317.5 265.7 317.2 265.7Z" fill="white"/>
<path d="M283.3 146C277.4 146 270.8 147.3 267.6 152.3C265.6 155.6 265.6 159.7 267.6 163C269.8 166.2 273.6 167.8 277.5 167.1C280.3 166.5 282.7 164.6 285.3 163.5C289.1 161.9 293.4 161.9 297.4 160.9C298.7 160.7 299.9 160.2 300.9 159.3C301.9 158.3 302.4 157 302.4 155.6C303 145.7 289.9 146.1 283.3 146Z" fill="#3F51B5"/>
<path d="M283.5 165.1C283.2 165.1 282.9 164.9 282.8 164.6C282.7 164.2 282.9 163.8 283.2 163.7C283.7 163.5 294.3 159.6 301.7 160.3C302.1 160.3 302.4 160.7 302.3 161.1C302.3 161.5 301.9 161.8 301.5 161.7C294.4 161.1 283.7 165 283.6 165.1C283.7 165.1 283.6 165.1 283.5 165.1Z" fill="#231F20"/>
<path d="M158 286C156.8 286.3 155.7 286.6 154.5 286.8C139 289.6 121.6 289 109.2 279.2L111 272.4L105.7 277L98.5999 270.6C110.8 260.9 112.4 245.7 120.4 233.3C126.9 223.3 141.6 222.5 151.8 226.8C158.9 229.8 164.6 235.5 167.7 242.6C171.1 250.5 171 259.5 170.3 268.1C169.4 278 166.5 283.5 158 286Z" fill="white"/>
<path d="M139.1 289C128.8 289 117.7 286.8 108.8 279.8C108.6 279.6 108.5 279.3 108.6 279.1L109.8 274.5L106.2 277.6C105.9 277.8 105.5 277.8 105.3 277.6L98.1 271.2C97.8 270.9 97.8 270.5 98 270.2C98 270.2 98 270.2 98.1 270.1C105.6 264.1 109 256.1 112.5 247.6C114.5 242.5 116.9 237.6 119.7 233C124.7 225.2 137.7 220.2 151.9 226.3C159.2 229.4 165 235.2 168.2 242.4C171.7 250.5 171.6 259.6 170.9 268.3C170 279 166.5 284.2 158.2 286.7C157 287.1 155.8 287.3 154.6 287.6C149.5 288.5 144.3 289 139.1 289ZM110 279C123.3 289.2 141.4 288.5 154.4 286.2C155.6 286 156.7 285.7 157.8 285.4C165.4 283.1 168.7 278.3 169.5 268.3C170.2 259.9 170.4 251 166.9 243.1C163.9 236.2 158.3 230.7 151.4 227.7C141.2 223.4 127 224.5 120.9 233.9C118.1 238.5 115.8 243.3 113.8 248.3C110.4 256.3 107 264.7 99.6 270.8L105.7 276.2L110.5 272C110.7 271.8 111.1 271.8 111.3 271.9C111.6 272.1 111.7 272.4 111.6 272.7L110 279Z" fill="#231F20"/>
<path d="M94.9 387C92.9 387 78.2 388.6 71.3 392C64.4 395.4 62.9 395.7 64.3 400.3C65.7 404.9 77.8 406.1 87 404.3C92.9 403.1 98.7 401 104 398.1L94.9 387Z" fill="white"/>
<path d="M78.4999 405.8C71.5999 405.8 64.7999 404.3 63.6999 400.6C62.2999 395.8 63.8999 395 69.4999 392.3L70.9999 391.5C77.9999 388 92.6999 386.3 94.8999 386.4C95.0999 386.4 95.2999 386.5 95.3999 386.6L104.6 397.7C104.7 397.8 104.8 398 104.7 398.2C104.7 398.4 104.6 398.5 104.4 398.6C98.9999 401.5 93.1999 403.6 87.1999 404.8C84.2999 405.5 81.3999 405.8 78.4999 405.8ZM94.5999 387.7C91.7999 387.8 78.0999 389.4 71.5999 392.6L69.9999 393.4C64.4999 396.1 63.7999 396.5 64.8999 400.2C66.0999 404.3 77.6999 405.5 86.8999 403.8C92.4999 402.6 97.9999 400.7 103.1 398L94.5999 387.7Z" fill="#231F20"/>
<path d="M92.8999 387C90.1999 387.6 88.4999 390.3 88.8999 393C89.4999 397.9 99.8999 398.1 100.5 398.1C101.1 398.1 92.8999 387 92.8999 387Z" fill="white"/>
<path d="M100.5 398.8C98.5998 398.8 88.9998 398.3 88.2998 393.1C87.5998 387.7 92.6998 386.4 92.7998 386.4C93.0998 386.3 93.2998 386.4 93.4998 386.6C101.6 397.6 101.4 398 101.2 398.4C101 398.6 100.8 398.8 100.5 398.8ZM92.6998 387.8C90.4998 388.5 89.1998 390.7 89.5998 393C90.0998 396.5 96.8998 397.3 99.5998 397.5C98.3998 395.7 95.4998 391.6 92.6998 387.8Z" fill="#231F20"/>
<path d="M169.7 398.2C170 398.3 172.8 402 185.1 403.5C197.4 405 202 407.6 204.7 401.2C207.4 394.8 205.6 390.6 199.5 388.7C193.4 386.8 176.8 385.3 173.5 388.4C170.2 391.5 169.7 398.2 169.7 398.2Z" fill="white"/>
<path d="M198.7 406C196.4 405.9 194.2 405.6 192 405.2C190 404.9 187.7 404.5 185.1 404.2C180 403.6 173.1 402.2 169.5 398.9L169.4 398.8C169.2 398.7 169.1 398.5 169.1 398.2C169.1 397.9 169.7 391.2 173.1 388C176.7 384.6 193.9 386.4 199.7 388.1C202.8 389.1 204.9 390.6 205.9 392.7C207 395 206.8 397.9 205.3 401.4C203.8 404.9 201.8 406 198.7 406ZM170.4 398C173.8 401 180.3 402.3 185.2 402.9C187.9 403.2 190.2 403.6 192.2 403.9C199.5 405.1 202.2 405.5 204.2 400.9C205.5 397.8 205.7 395.2 204.8 393.3C204 391.5 202.1 390.2 199.4 389.3C193.3 387.4 176.9 386.1 174 388.9C171.3 391.4 170.5 396.6 170.4 398Z" fill="#231F20"/>
<path d="M165.8 395.6C165.8 395.6 171.4 400.3 175.1 399.7C178.8 399.1 184 397.1 181.9 393.1C179.8 389.1 166.5 386.7 166.5 386.7L165.8 395.6Z" fill="white"/>
<path d="M174.5 400.4C170.6 400.4 165.6 396.3 165.4 396.1C165.2 396 165.2 395.8 165.2 395.6L165.9 386.7C165.9 386.5 166 386.4 166.1 386.2C166.2 386.1 166.4 386 166.6 386.1C168 386.3 180.3 388.7 182.4 392.9C183.1 394 183.1 395.4 182.5 396.6C181.1 399.4 176.5 400.2 175.1 400.5C174.9 400.4 174.7 400.4 174.5 400.4ZM166.5 395.3C167.6 396.2 172.1 399.5 175 399.1C177.4 398.7 180.6 397.7 181.4 395.9C181.8 395.1 181.7 394.2 181.3 393.4C179.8 390.5 171.1 388.3 167.1 387.4L166.5 395.3Z" fill="#231F20"/>
<path d="M98.7998 356.5C98.7998 356.5 104.7 379.4 126.1 383.8C147.5 388.2 158.6 387 166.2 372.5C173.8 358 168.8 349.2 168.8 349.2L101.1 347.9L98.7998 356.5Z" fill="#231F20"/>
<path d="M143.9 386.8C137.9 386.6 131.9 385.9 126 384.5C104.4 380.1 98.1999 356.9 98.0999 356.7C98.0999 356.6 98.0999 356.5 98.0999 356.3L100.4 347.7C100.5 347.4 100.8 347.2 101.1 347.2L168.8 348.5C169 348.5 169.3 348.6 169.4 348.9C169.6 349.3 174.5 358.3 166.8 372.9C161.6 383.1 154.4 386.8 143.9 386.8ZM99.5999 356.5C100.2 358.6 106.5 379.1 126.3 383.1C146.9 387.3 158 386.7 165.7 372.2C172.2 359.8 169.2 351.6 168.4 349.9L101.7 348.6L99.5999 356.5Z" fill="#231F20"/>
<path d="M174 356.7C174 356.7 185.1 320.9 183.6 298.4C182.1 275.9 167.5 274.3 162.4 273.9C157.3 273.5 130.4 269.4 120.3 281.2C110.2 293 92.3999 348.7 92.3999 348.7L174 356.7Z" fill="#3F51B5"/>
<path d="M133.9 274L135.7 286C135.7 286 139.5 292.2 147 289C154.5 285.8 154.7 280.1 154.7 280.1L151.1 258C151.1 258 143.1 250.9 139.8 237.2C139.8 237.2 133.1 248.8 123.4 251.5C123.4 251.5 124.1 261.2 125.8 267.2C127.5 272.9 133.8 273.9 133.9 274Z" fill="white"/>
<path d="M142.9 290.6C139.8 290.5 136.8 288.9 135.1 286.3C135.1 286.2 135 286.1 135 286L133.3 274.5C129.1 273.4 126.2 270.8 125.1 267.2C123.4 261.2 122.7 251.8 122.7 251.4C122.7 251.1 122.9 250.8 123.2 250.7C132.5 248.2 139.1 236.9 139.1 236.8C139.3 236.5 139.7 236.3 140.1 236.5C140.3 236.6 140.4 236.8 140.4 236.9C143.6 250.2 151.4 257.3 151.5 257.4C151.6 257.5 151.7 257.7 151.7 257.8L155.3 280C155.3 280.4 155.1 286.4 147.2 289.7C145.9 290.3 144.4 290.6 142.9 290.6ZM136.3 285.7C136.9 286.5 140.3 291 146.7 288.4C153.8 285.5 154 280.2 154 280.1L150.5 258.3C149.3 257.2 142.9 250.6 139.6 238.9C137.5 242.1 131.9 249.6 124.3 251.9C124.5 254 125.2 261.8 126.6 266.9C127.8 271.2 131.8 272.7 134.1 273.3C134.2 273.3 134.3 273.4 134.4 273.4C134.6 273.5 134.7 273.7 134.7 273.9L136.3 285.7Z" fill="#231F20"/>
<path d="M146.4 258.3C146.5 257.2 147 256.1 147.7 255.3C148.4 254.5 149.3 253.9 150.2 253.5C150.7 253.2 151.2 253 151.8 252.9C152.2 252.9 152.6 253 153 253.1C153.9 253.4 154.7 254 155.2 254.8C155.5 255.5 155.7 256.3 155.6 257C155.6 257.8 155.6 258.7 155.4 259.5C154.5 262.9 151.1 264.9 147.7 264.1C147.7 264.1 147.7 264.1 147.6 264.1" fill="white"/>
<path d="M149.4 265C148.8 265 148.2 264.9 147.6 264.8C147.2 264.7 147 264.4 147.1 264C147.2 263.6 147.5 263.4 147.9 263.5H148C151 264.3 154 262.5 154.9 259.6C154.9 259.6 154.9 259.6 154.9 259.5C155.1 258.7 155.1 258 155.1 257.2C155.1 256.5 155 255.9 154.7 255.3C154.3 254.6 153.6 254.2 152.9 253.9C152.6 253.8 152.3 253.7 152 253.7C151.5 253.8 151.1 253.9 150.7 254.2C149.8 254.6 149 255.2 148.3 255.9C147.6 256.6 147.3 257.5 147.2 258.5C147.2 258.9 146.8 259.2 146.4 259.1C146 259.1 145.7 258.7 145.8 258.4C145.9 257.1 146.4 255.9 147.3 255C148.1 254.2 149 253.5 150 253C150.6 252.6 151.2 252.4 151.9 252.4C152.4 252.4 152.9 252.5 153.3 252.7C154.4 253 155.3 253.7 155.9 254.7C156.3 255.5 156.5 256.4 156.4 257.2C156.4 258.1 156.4 259 156.2 259.9C155.4 262.8 152.6 265 149.4 265Z" fill="#231F20"/>
<path d="M135.6 254.9C135.6 254.9 132.2 261.6 133.3 262.5C134.4 263.4 137.1 262.4 137.1 262.4" fill="white"/>
<path d="M134.7 263.6C134 263.6 133.4 263.4 132.9 263C131.6 261.9 133.3 257.8 135 254.5C135.2 254.2 135.6 254 135.9 254.2C136.2 254.4 136.4 254.8 136.2 255.1C134.6 258.2 133.5 261.3 133.8 261.9C134.3 262.3 135.9 262 136.8 261.6C137.1 261.5 137.5 261.6 137.7 262C137.8 262.4 137.7 262.8 137.3 262.9C136.5 263.4 135.6 263.6 134.7 263.6Z" fill="#231F20"/>
<path d="M140.917 254.7C141.468 254.655 141.863 253.994 141.8 253.224C141.737 252.453 141.24 251.865 140.69 251.909C140.139 251.954 139.744 252.615 139.807 253.386C139.869 254.157 140.367 254.745 140.917 254.7Z" fill="#231F20"/>
<path d="M130.31 256.284C130.86 256.242 131.257 255.54 131.195 254.713C131.134 253.887 130.638 253.251 130.087 253.292C129.536 253.333 129.139 254.036 129.201 254.862C129.263 255.688 129.759 256.325 130.31 256.284Z" fill="#231F20"/>
<path d="M136.5 268.9C134.5 268.9 132.5 268.4 130.7 267.6C130.3 267.4 130.2 267 130.3 266.7C130.5 266.3 130.9 266.2 131.2 266.4C131.3 266.4 136.2 268.7 139.7 266.8C141.4 265.9 142.6 264.1 143 261.5C143.1 261.1 143.4 260.9 143.8 260.9C144.2 260.9 144.4 261.3 144.4 261.7C143.8 264.8 142.5 266.9 140.3 268C139.2 268.7 137.9 269 136.5 268.9Z" fill="#231F20"/>
<path d="M133.9 274C133.9 274 141.6 274.6 145.7 271.5C145.7 271.5 142.3 282.3 135.1 282.2L133.9 274Z" fill="#231F20"/>
<path d="M135.1 282.9C134.7 282.9 134.4 282.7 134.4 282.3L133.2 274.1C133.2 273.9 133.2 273.7 133.4 273.5C133.5 273.3 133.8 273.3 134 273.3C134.1 273.3 141.5 273.9 145.3 270.9C145.5 270.7 145.9 270.7 146.1 270.9C146.3 271.1 146.5 271.4 146.4 271.7C146.2 272.1 142.7 282.9 135.1 282.9ZM134.7 274.7L135.7 281.5C140.1 281.1 143 276 144.3 273.1C140.9 274.7 136.6 274.8 134.7 274.7Z" fill="#231F20"/>
<path d="M176.7 279.7C182.8 280.9 201.8 341.5 193.1 347.9C179.6 357.9 138.2 344.2 138.2 344.2L142.3 326.4C142.3 326.4 172.1 327.8 172.7 321.7C173.3 315.6 156 286.9 158.4 282.7C160.8 278.5 176.7 279.7 176.7 279.7Z" fill="#3F51B5"/>
<path d="M145.4 332.5C140.4 332.7 135.5 332.4 130.6 331.5C126.8 330.7 123.5 329.9 119.5 330C114.6 330.1 109.7 331.2 105.1 333C104.9 333.1 104.7 333.2 104.6 333.3C104.2 333.9 105.2 334.5 105.9 334.6C107.9 334.7 109.8 334.5 111.7 334C107 335.7 102.5 337.9 98.3998 340.8C97.8998 341.1 97.3998 341.6 97.5998 342.2C97.7998 342.8 98.7998 342.7 99.3998 342.4L110.2 337.7C107.4 338.8 104.8 340.3 102.5 342.2C102.2 342.5 101.8 342.8 101.9 343.3C102.1 344 103.1 343.9 103.8 343.6C107.1 342.1 110.2 340.2 113.2 338.1L106.5 343C106.4 343.5 107 344 107.5 344C108 344 108.6 343.8 109 343.5L116.4 339.4L111.8 342.5C111.1 343 110.2 343.8 110.6 344.6C111 345.4 112.4 345.3 113.4 344.9C117.2 343.3 121.2 342.2 125.3 341.5C126.7 341.1 128.2 340.8 129.7 340.7C131.9 340.8 134.3 341.8 136.4 342.3C139.7 343.1 143 344 146.3 344.8" fill="white"/>
<path d="M111.9 345.7C111.6 345.7 111.3 345.6 111 345.5C110.2 345.2 109.8 344.3 110.1 343.5L109.5 343.8C108.9 344.2 108.3 344.4 107.6 344.4C107.1 344.4 106.6 344.1 106.3 343.7C106.1 343.5 106 343.2 106 342.9L104.2 343.8C103.5 344.1 102.8 344.2 102.1 343.9C101.8 343.7 101.5 343.4 101.4 343C101.3 342.5 101.5 342.1 101.8 341.8L99.7998 342.7C99.1998 343 98.4998 343.1 97.8998 342.9C97.5998 342.8 97.2998 342.5 97.1998 342.2C96.8998 341.5 97.2998 340.7 98.1998 340.1C101 338.2 103.9 336.5 107 335.2C106.7 335.2 106.4 335.2 106.1 335.2C105.3 335.2 104.6 334.8 104.2 334.1C104 333.7 104.1 333.3 104.3 332.9C104.5 332.7 104.8 332.5 105.1 332.4C109.7 330.5 114.7 329.5 119.7 329.4C123 329.4 126.3 329.8 129.5 330.6L130.9 330.9C135.7 331.8 140.7 332.1 145.6 331.9C145.9 331.9 146.2 332.2 146.2 332.5C146.2 332.9 145.9 333.1 145.6 333.2C140.6 333.4 135.5 333.1 130.6 332.2L129.2 331.9C126.1 331.1 122.9 330.7 119.7 330.7C114.8 330.8 110.1 331.8 105.6 333.6H105.5C105.7 333.8 106 333.9 106.3 333.9C108.2 334 110.1 333.8 112 333.3C112.3 333.2 112.7 333.4 112.8 333.8C112.9 334.1 112.7 334.4 112.4 334.6C107.7 336.2 103.3 338.5 99.1998 341.3C98.7998 341.6 98.5998 341.8 98.5998 341.9C98.8998 342 99.2998 341.9 99.4998 341.8L107.8 338.2C108.6 337.8 109.4 337.4 110.3 337.1C110.6 337 111 337.1 111.1 337.5C111.2 337.8 111.1 338.2 110.7 338.3L108.3 339.3C106.5 340.2 104.8 341.3 103.2 342.6C102.8 342.9 102.8 343.1 102.8 343.1C103.1 343.2 103.5 343.1 103.8 342.9C107 341.4 110.2 339.6 113.1 337.5C113.4 337.3 113.8 337.4 114 337.6C114.2 337.9 114.2 338.3 113.9 338.5L107.5 343.1C107.6 343.2 107.7 343.2 107.8 343.2C108.2 343.2 108.6 343 109 342.8L116.4 338.7C116.7 338.5 117.1 338.6 117.3 338.9C117.5 339.2 117.4 339.6 117.1 339.8L112.4 342.9C111.8 343.3 111.2 343.9 111.4 344.2C111.4 344.3 111.5 344.4 111.6 344.4C112.2 344.5 112.8 344.4 113.3 344.1C117.2 342.5 121.2 341.4 125.3 340.7C125.8 340.6 126.3 340.5 126.7 340.4C127.7 340.1 128.8 339.9 129.8 339.9C131.4 340 133 340.4 134.6 340.9C135.3 341.1 136 341.3 136.6 341.5C139.9 342.3 143.2 343.1 146.5 344C146.8 344.1 147.1 344.4 147 344.7C146.9 345 146.6 345.3 146.3 345.2C146.3 345.2 146.3 345.2 146.2 345.2C142.9 344.4 139.6 343.5 136.3 342.7C135.6 342.5 134.9 342.3 134.2 342.1C132.8 341.6 131.3 341.3 129.7 341.1C128.8 341.1 127.9 341.3 127 341.5C126.5 341.6 126 341.8 125.5 341.9C121.5 342.6 117.5 343.7 113.8 345.3C113.1 345.5 112.5 345.7 111.9 345.7Z" fill="#231F20"/>
<path d="M123.4 286.3C121.7 287.9 117.1 314.1 115.3 326.5L123.4 286.3Z" fill="white"/>
<path d="M115.3 327.1C114.9 327 114.6 326.7 114.7 326.4C116 317.3 120.9 287.9 123 285.9C123.2 285.6 123.7 285.6 123.9 285.9C124.1 286.2 124.2 286.6 123.9 286.8C122.5 288.3 117.9 312.7 116 326.6C115.9 326.9 115.6 327.1 115.3 327.1Z" fill="#231F20"/>
<path d="M160.7 350.8H160.6L146.2 348C145.9 347.9 145.6 347.7 145.6 347.3L145.5 329.9C145.5 329.5 145.8 329.2 146.1 329.2L172.2 327L161.5 287.3C161.4 286.9 161.7 286.6 162 286.5C162.3 286.4 162.7 286.6 162.8 287L173.7 327.5C173.8 327.7 173.7 327.9 173.6 328.1C173.5 328.3 173.3 328.4 173.1 328.4L146.8 330.6L146.9 346.7L160.8 349.4C161.2 349.5 161.4 349.8 161.4 350.2C161.3 350.5 161 350.8 160.7 350.8Z" fill="#231F20"/>
<path d="M80.3 355.2L67.7 321.6L119.1 322.6L130.6 361L80.3 355.2Z" fill="white"/>
<path d="M130.6 361.7L80.1999 356C79.8999 356 79.6999 355.8 79.5999 355.5L66.9999 321.9C66.8999 321.7 66.9999 321.4 67.0999 321.3C67.1999 321.1 67.3999 321 67.6999 321L119 322C119.3 322 119.6 322.2 119.7 322.5L131.2 360.9C131.3 361.3 131.1 361.7 130.8 361.8C130.7 361.7 130.6 361.7 130.6 361.7ZM80.7999 354.6L129.6 360.2L118.5 323.3L68.6999 322.3L80.7999 354.6Z" fill="#231F20"/>
<path d="M83 355.6C83 355.6 69.1 366.9 74 377.3C78.9 387.7 167.8 399.5 167.8 399.5L171.8 385.9C171.8 385.9 102.1 350.3 83 355.6Z" fill="#231F20"/>
<path d="M167.9 400.2C164.2 399.7 78.5 388.2 73.4 377.6C68.3 366.8 82 355.5 82.6 355C82.7 354.9 82.8 354.9 82.9 354.9C102 349.6 169.4 383.8 172.3 385.3C172.6 385.5 172.7 385.8 172.7 386.1L168.7 399.7C168.5 400 168.2 400.2 167.9 400.2ZM83.4 356.2C82.1 357.3 70.3 367.7 74.7 377C78.6 385.2 142.4 395.4 167.4 398.8L171.1 386.4C164.6 383 101.3 351.5 83.4 356.2Z" fill="#231F20"/>
<path d="M176.5 350.4C176.5 350.4 107.4 378.4 90.2 385.7L100.2 401.1C100.2 401.1 164 399.9 182.3 383.8C200.6 367.7 199.4 341.1 176.5 350.4Z" fill="#231F20"/>
<path d="M100.2 401.8C99.9999 401.8 99.6999 401.7 99.5999 401.5L89.5999 386.1C89.4999 385.9 89.3999 385.7 89.4999 385.5C89.5999 385.3 89.6999 385.1 89.8999 385C106.8 377.7 175.5 350 176.2 349.7C184.3 346.4 190.8 347.3 193.8 352.3C199.1 361 192.4 375.9 182.7 384.3C175 391.1 158.8 396 134.4 399.1C116.5 401.4 100.4 401.7 100.2 401.8ZM91.2999 386L100.6 400.4C106 400.3 164.7 398.3 181.9 383.3C193.3 373.3 196.7 359.6 192.7 353.1C190 348.7 184.4 348 176.8 351.1C176.1 351.3 109.4 378.2 91.2999 386Z" fill="#231F20"/>
<path d="M80.0999 341.8C79.9999 342.2 79.8999 342.6 79.5999 342.9L78.2999 344.9C78.4999 344.1 79.2999 343.6 80.0999 343.8C80.1999 343.8 80.2999 343.8 80.2999 343.9C81.0999 344.3 81.4999 345.1 81.4999 346C81.4999 346.9 81.2999 347.7 80.8999 348.5C79.8999 351 77.7999 354.6 74.6999 352.7C72.5999 351.4 71.9999 346.9 71.6999 344.7C71.0999 340.3 72.4999 334.6 78.0999 335.5C77.8999 337.7 77.0999 339.7 75.7999 341.5C76.5999 340.6 80.2999 339.2 80.0999 341.8Z" fill="white"/>
<path d="M76.3 353.9C75.6 353.9 74.9 353.7 74.3 353.3C71.9 351.9 71.3 347.3 71 344.9C70.6 342 71 338.4 73 336.3C74.4 335 76.3 334.5 78.1 334.9C78.4 334.9 78.7 335.2 78.6 335.6C78.5 337.1 78.1 338.5 77.4 339.9C78.1 339.6 78.9 339.6 79.7 339.9C80.5 340.3 80.9 341.1 80.7 341.9C80.6 342.4 80.4 342.8 80.1 343.2C80.2 343.2 80.3 343.3 80.4 343.3C81.4 343.8 82 344.9 82 346C82 346.9 81.8 347.9 81.4 348.8C80.8 350.3 79.5 353 77.4 353.8C77.1 353.9 76.7 354 76.3 353.9ZM76.9 336.1C75.8 336.1 74.7 336.5 73.9 337.2C72.1 338.9 71.9 342.2 72.2 344.6C72.5 346.7 73.1 351 74.9 352.1C75.5 352.5 76.2 352.6 76.9 352.4C78.1 352 79.3 350.4 80.2 348.2C80.5 347.5 80.7 346.7 80.8 345.9C80.8 345.3 80.6 344.7 80 344.3C79.8 344.2 79.5 344.2 79.3 344.3L78.8 345C78.6 345.3 78.2 345.4 77.9 345.2C77.7 345.1 77.6 344.9 77.6 344.6C77.7 344.1 77.9 343.6 78.4 343.3L79.1 342.3C79.3 342.1 79.4 341.8 79.5 341.5C79.6 340.9 79.3 340.8 79.3 340.8C78.6 340.5 76.8 341.2 76.2 341.7C75.9 341.9 75.5 341.9 75.3 341.7C75.1 341.5 75.1 341.1 75.3 340.9C76.4 339.5 77.2 337.7 77.4 335.9L76.9 336.1Z" fill="#231F20"/>
<path d="M99.3999 382.8C99.0999 382.8 98.7999 382.6 98.6999 382.3C98.5999 381.9 98.6999 381.5 99.0999 381.4C99.4999 381.3 136.1 367.1 144.1 362.2C144.4 362 144.9 362.1 145.1 362.4C145.3 362.7 145.2 363.2 144.9 363.4C136.9 368.3 101.2 382.1 99.6999 382.7C99.5999 382.8 99.4999 382.8 99.3999 382.8Z" fill="white"/>
</svg>
