<svg transform="scale(1)" version="1.1" id="ZxgFoyyKWM" xmlns="http://www.w3.org/2000/svg" xmlns:xlink="http://www.w3.org/1999/xlink" x="0px" y="0px" viewBox="0 0 500 500" xml:space="preserve" class="pbimage_pbimage__wrapper__image__0LEis false"><title>Hiking 1</title><style type="text/css"> .st0{fill:#D1D3D4;} .st1{fill:#FFFFFF;} .st2{fill:#231F20;} .st3{fill:#68E1FD;} .st4{fill:none;}
 .st3{fill:#FBBF24;}
 .st2{fill:#231F20;}
 .st1{fill:#FFFFFF;}
 .st0{fill:#D1D3D4;}</style><g id="ground"><path class="st0" d="M461.6,406.1l-421.5,2.2c-0.4,0-0.7-0.3-0.7-0.7c0,0,0,0,0,0c0-0.4,0.3-0.7,0.7-0.7c0,0,0,0,0,0l421.5-2.2
		c0.4,0,0.7,0.3,0.7,0.7S462,406.1,461.6,406.1C461.6,406.1,461.6,406.1,461.6,406.1L461.6,406.1z" fill="#D1D3D4"></path><path class="st0" d="M90.5,414.1c-0.4,0-0.7-0.3-0.7-0.6c-0.4-4.3-1.6-8.5-3.6-12.3c-0.2-0.3-0.1-0.8,0.3-0.9c0,0,0,0,0,0
		c0.3-0.2,0.8-0.1,1,0.2c0,0,0,0,0,0.1c2.1,4,3.3,8.4,3.8,12.8c0,0.4-0.3,0.7-0.6,0.8H90.5z" fill="#D1D3D4"></path><path class="st0" d="M98.7,413.6c-0.3,0-0.7-0.2-0.7-0.6c-0.5-3.4-0.4-6.9,0.4-10.2c0.1-0.4,0.5-0.6,0.8-0.5c0,0,0,0,0,0
		c0.4,0.1,0.6,0.5,0.5,0.8c0,0,0,0,0,0c-0.8,3.2-0.9,6.5-0.4,9.7C99.4,413.2,99.2,413.5,98.7,413.6
		C98.8,413.6,98.8,413.6,98.7,413.6L98.7,413.6z" fill="#D1D3D4"></path><path class="st0" d="M225.9,413.4c-0.4,0-0.7-0.3-0.7-0.7c-0.1-2.9,0.5-5.8,1.6-8.5c0.1-0.4,0.4-0.7,0.7-0.9
		c0.4-0.2,0.8-0.1,1.1,0.2c0.3,0.2,0.4,0.6,0.3,0.9c-0.1,0.4-0.5,0.6-0.9,0.5c0,0,0,0,0,0c-1,2.4-1.4,5.1-1.4,7.7
		C226.6,413,226.3,413.3,225.9,413.4C225.9,413.4,225.9,413.4,225.9,413.4L225.9,413.4z" fill="#D1D3D4"></path><path class="st0" d="M443.2,410c-0.4,0-0.7-0.3-0.7-0.7c0,0,0,0,0,0c-0.1-2.7-0.3-5.4-0.7-8.1c-0.1-0.4,0.1-0.8,0.5-0.8
		c0.4-0.1,0.8,0.1,0.8,0.5c0,0,0,0.1,0,0.1c0.4,2.7,0.7,5.5,0.8,8.3C443.9,409.7,443.6,410,443.2,410C443.2,410,443.2,410,443.2,410
		z" fill="#D1D3D4"></path><path class="st0" d="M448.9,409.2c-0.4,0-0.7-0.3-0.7-0.6c-0.4-3.5,2.1-8.1,2.2-8.3c0.2-0.3,0.6-0.5,1-0.3s0.5,0.6,0.3,1
		c0,0-2.3,4.4-2,7.5C449.7,408.8,449.4,409.1,448.9,409.2L448.9,409.2z" fill="#D1D3D4"></path></g><g id="background_plants"><path class="st0" d="M51.3,385.8c-0.3,0-0.5-0.1-0.7-0.2c-0.7-0.5-1.2-1.3-1.3-2.1c-1.2-9.3,1.7-18.7,7.9-25.8
		c6.5-7.2,15.6-11.4,25.3-11.9c3,0,6,0.9,8.6,2.5c-2.7-15.7,2.8-31.8,14.7-42.5c6-5.4,12.6-8.1,18.5-7.6c4.1,0.4,7.9,2.6,10.3,6
		c0.9,1.3,1.5,2.9,1.8,4.5c4.2-5.9,13.1-7.8,18.5-8.4c12.1-1.4,22.4-0.1,30.8,3.9c10.2,4.8,17.2,14,17.7,23.4c0.2,2.5-0.2,5-1.1,7.4
		c6.4-3.2,15-2.2,20.1,2.7c5.9,5.6,6.6,14.7,1.7,21.2c-0.2,0.3-0.7,0.4-1,0.2c-0.3-0.2-0.4-0.7-0.2-1c0,0,0-0.1,0.1-0.1
		c4.4-5.9,3.8-14.2-1.6-19.3c-5.4-5-14.6-5.5-20.5-1.2c-0.3,0.2-0.7,0.2-1-0.1c-0.2-0.2-0.2-0.6,0-0.8c1.6-2.7,2.3-5.7,2-8.8
		c-0.5-8.9-7.2-17.6-16.9-22.2c-8.1-3.8-18.2-5.1-30-3.8c-5.9,0.7-16.2,2.9-18.9,10.5c-0.1,0.4-0.5,0.5-0.9,0.4
		c-0.4-0.1-0.6-0.5-0.5-0.9c0.6-2.3,0.1-4.8-1.3-6.7c-2.2-3-5.6-5-9.3-5.4c-7.5-0.7-14.2,4.2-17.5,7.2
		c-12.1,10.9-17.5,27.9-13.8,43.3c0.1,0.3-0.1,0.7-0.4,0.8c-0.3,0.1-0.7,0.1-0.8-0.2c-1.8-2.2-6.2-3.7-9.1-3.6
		c-9.3,0.4-18.1,4.5-24.3,11.4c-5.9,6.7-8.7,15.7-7.6,24.6c0,0.4,0.2,0.8,0.5,1.1c0.4-0.2,0.8,0,1,0.3c0,0,0,0,0,0
		c0.2,0.3,0,0.8-0.3,0.9C51.7,385.7,51.5,385.8,51.3,385.8z"></path><path class="st0" d="M422.6,404c-0.2,0-0.4-0.1-0.6-0.3c-0.2-0.3-0.2-0.7,0.1-1c0,0,0,0,0,0c20.5-14.3,25.6-42.5,11.2-63.1
		c-4.9-7-11.6-12.5-19.4-15.8c-4.7-2-11.8-3.9-18.5-1.7c-3.8,1.2-7,3.6-10.2,6c-0.2,0.1-0.4,0.2-0.6,0.1c-0.2-0.1-0.4-0.2-0.5-0.5
		c-5.8-18.4-25.4-28.6-43.8-22.8c-7.1,2.2-13.3,6.7-17.7,12.7c-0.2,0.3-0.6,0.4-0.9,0.2c-0.3-0.2-0.4-0.5-0.3-0.9
		c1.5-4.1-0.1-9.3-4-12.5c-4.1-3.5-9.5-4.4-13.4-4.5c-7.8-0.2-15.4,2.1-21.7,6.7c-8.9,6.4-17.7,13.6-19.2,24.7
		c-1.1,8.2,0.8,16.5,3.1,24.2c0.1,0.3,0,0.6-0.3,0.8c-0.3,0.2-0.6,0.1-0.9-0.1c-5.9-6.2-11.6-7.4-18.5-3.7
		c-7.7,4.1-13.6,12-16.2,21.5c-0.8,3-1.3,7.1,1.1,9.4l0,0c0.3,0.3,0.3,0.7,0,1s-0.7,0.3-1,0l0,0c-3.6-3.4-9.1-2.5-13,0
		c-4.5,2.9-5.7,9.6-6.2,14.4c0,0.4-0.4,0.7-0.7,0.6c0,0,0,0,0,0c-0.4,0-0.7-0.4-0.6-0.8c0,0,0,0,0,0c0.5-5.1,1.8-12.2,6.8-15.4
		c3.5-2.2,8.1-3.3,12-1.6c-0.8-2.5-0.4-5.6,0.3-8c2.8-9.9,8.9-18.1,16.9-22.4c6.7-3.6,12.6-3,18.3,2.1c-2-7.1-3.5-14.6-2.4-22.2
		c1.6-11.7,10.7-19.1,19.8-25.7c6.6-4.7,14.5-7.1,22.6-6.9c4.1,0.1,9.9,1,14.2,4.8c3.3,2.7,5.1,6.9,5,11.1
		c13.1-15.2,36-16.8,51.2-3.7c4.8,4.2,8.5,9.6,10.6,15.6c3-2.4,6.3-4.3,9.8-5.6c7.1-2.3,14.5-0.3,19.5,1.8
		c23.7,10.1,34.8,37.5,24.7,61.3c-3.4,8.1-9,15-16.2,20C422.9,403.9,422.8,404,422.6,404z"></path><path class="st0" d="M397.1,356.7L397.1,356.7c-0.5,0-0.8-0.4-0.7-0.8c0,0,0,0,0,0c1.5-14.8-9.3-28.1-24.1-29.6
		c-5.2-0.5-10.4,0.5-15.1,2.9c-0.3,0.2-0.8,0.1-1-0.2c-0.2-0.3-0.1-0.8,0.2-1c0,0,0.1,0,0.1-0.1c14-7.1,31.1-1.6,38.3,12.4
		c2.5,4.9,3.5,10.3,3,15.7C397.7,356.4,397.4,356.7,397.1,356.7z"></path><path class="st0" d="M89,366.4c-0.4,0-0.7-0.3-0.7-0.6c-1.1-11.8,7.6-22.3,19.5-23.4c1.5-0.1,3-0.1,4.5,0.1c0.4,0,0.7,0.4,0.6,0.8
		c0,0,0,0,0,0c0,0.4-0.4,0.7-0.7,0.6c0,0,0,0,0,0c-11-1.3-21,6.6-22.4,17.6c-0.2,1.4-0.2,2.8-0.1,4.2C89.7,366,89.5,366.4,89,366.4
		L89,366.4z"></path></g><g id="Character"><path class="st1" d="M280.3,114.5c0.2-3.4-2.4-6.9-2.5-10.4c-0.1-0.4,0-0.8,0.2-1.1c0.4-0.5,1.2-0.6,1.7-0.2
		c0.5,0.4,0.9,0.8,1.2,1.4l1.5,2.5c0.3-0.8,0.9-1.6,1.6-2.1c1.9-1.6,4.9-1.8,7.2-1.3c3.3,0.8,6,3.2,7.3,6.3c0.7,1.9,1,3.9,1,5.9
		c0.1,4.4-0.8,8.8-2.6,12.9c0,0,5.1,48.1-1.1,50.3c-26,9.3-55.7-12.4-55.7-12.4s-0.7-22.2-0.8-22.8c0.1,1.6,26.9,8.5,29.2,8.9
		c4.2,0.8,11.2,3.8,11.5-2.8C280.3,145.5,280,120.7,280.3,114.5z"></path><path class="st2" d="M282.2,181.7c-21.8,0.1-42.3-14.6-42.5-14.8c-0.2-0.1-0.3-0.3-0.3-0.6c0-0.2-0.7-22.2-0.8-22.8l0,0
		c0-0.4,0.3-0.7,0.7-0.8c0.3,0,0.6,0.2,0.7,0.4c1.9,1.6,25.6,7.9,28.7,8.4c0.7,0.1,1.5,0.3,2.4,0.5c2.6,0.6,5.6,1.4,7.2,0.2
		c0.8-0.7,1.2-1.8,1.2-2.8c0.1-1.8,0.1-7.9,0.1-14.4c0-8.1,0-17.3,0.2-20.7l0,0c-0.1-1.8-0.5-3.6-1.2-5.2c-0.7-1.6-1.1-3.4-1.3-5.1
		c-0.1-0.5,0-1.1,0.3-1.6c0.6-0.8,1.8-1,2.6-0.4c0.6,0.4,1.1,1,1.5,1.7l0.8,1.4c0.3-0.4,0.7-0.8,1.1-1.2c2.1-1.9,5.5-2,7.9-1.5
		c3.6,0.8,6.5,3.4,7.8,6.8c0.7,2,1.1,4.1,1.1,6.2c0.1,4.5-0.8,8.9-2.6,13c0.2,1.6,1.3,12.8,1.8,24.2c0.9,22.5-1.5,26-3.4,26.7
		C291.6,180.9,286.9,181.7,282.2,181.7z M240.8,165.9c5.5,3.8,11.4,6.9,17.7,9.4c9.6,3.8,23.8,7.4,37,2.7c2.2-0.8,4.4-14.9,0.7-49.6
		c0-0.1,0-0.3,0.1-0.4c1.8-4,2.6-8.3,2.6-12.6c0-1.9-0.3-3.9-1-5.7c-1.1-3-3.7-5.2-6.8-5.9c-2.1-0.4-4.9-0.4-6.6,1.2
		c-0.6,0.5-1,1.1-1.3,1.8c-0.1,0.4-0.5,0.6-0.9,0.4c-0.2-0.1-0.3-0.2-0.4-0.3l-1.5-2.5c-0.2-0.5-0.6-0.9-1-1.2
		c-0.2-0.2-0.6-0.1-0.7,0c-0.1,0.2-0.1,0.4-0.1,0.7c0.2,1.6,0.6,3.2,1.2,4.7c0.8,1.8,1.2,3.8,1.3,5.8l0,0
		c-0.2,3.4-0.2,12.6-0.2,20.6c0,6.8,0,12.6-0.1,14.4c0.1,1.5-0.6,3-1.7,3.9c-2.1,1.6-5.4,0.7-8.4,0c-0.8-0.2-1.6-0.4-2.3-0.5
		c-1.2-0.2-8.5-2-15.5-4c-7.6-2.1-11.1-3.4-12.8-4.2C240.3,149.5,240.7,163.4,240.8,165.9L240.8,165.9z M240.1,143.5L240.1,143.5z
		 M280.3,114.5L280.3,114.5z"></path><polygon class="st1" points="256.1,281.4 296.8,368.8 318.5,362.1 289.1,266.9 	"></polygon><path class="st2" d="M296.8,369.5c-0.3,0-0.5-0.2-0.7-0.4l-40.6-87.3c-0.2-0.4,0-0.8,0.3-1c0,0,0,0,0,0l33-14.6
		c0.2-0.1,0.4-0.1,0.6,0c0.2,0.1,0.3,0.3,0.4,0.5l29.4,95.2c0.1,0.4-0.1,0.8-0.5,0.9l-21.7,6.7C296.9,369.5,296.8,369.5,296.8,369.5
		z M257.1,281.8l40.1,86.1l20.4-6.3l-28.9-93.7L257.1,281.8z"></path><polygon class="st1" points="174.7,306.2 129.2,388.8 152.2,388.7 220.4,295.3 	"></polygon><path class="st2" d="M152.2,389.4l-23,0.1c-0.3,0-0.5-0.1-0.6-0.4c-0.1-0.2-0.1-0.5,0-0.7l45.5-82.6c0.1-0.2,0.3-0.3,0.5-0.4
		l45.7-11c0.3-0.1,0.6,0,0.8,0.3c0.2,0.2,0.2,0.6,0,0.8l-68.2,93.4C152.6,389.3,152.4,389.4,152.2,389.4z M130.4,388.1l21.4-0.1
		l66.9-91.6l-43.5,10.4L130.4,388.1z"></path><path class="st2" d="M187,131c-4.3-0.9-8.8-0.8-13.1,0.2c-9.5,2.6-15.7,11.6-19.5,20.7c-5.4,12.8-7.5,26.7-9.2,40.4
		c-1.6,12.7-2.8,25.5-2.5,38.3c0.1,5.6,0.6,11.6,4.3,15.8c4.9,5.6,13.4,5.7,20.9,5.9c6.2,0.2,12.5,0.6,18.6-0.2s12.3-3.2,16.5-7.9
		c2.4-3,4.3-6.3,5.6-9.9c3-7.4,5.3-15.1,7.5-22.8c5-16.8,9.9-33.8,12.2-51.1c0.4-3.5,0.8-7.1-0.2-10.5c-2.1-7.1-11-8.5-17-11.1
		C203.4,135.3,195.4,132.3,187,131z"></path><path class="st2" d="M178.9,253.3c-2.5,0-5-0.1-7.4-0.2c-1.2,0-2.4-0.1-3.6-0.1h-0.3c-7.5-0.2-16-0.4-21.1-6.2
		c-3.8-4.3-4.4-10.3-4.5-16.2c-0.2-13.6,1.1-27.1,2.5-38.4c1.6-12.7,3.7-27.3,9.3-40.6c3.4-8,9.6-18.2,19.9-21.1
		c3.7-1,8-1.1,13.4-0.2l0,0c9.2,1.5,17.9,5,24.4,7.8c1.3,0.6,2.7,1.1,4.2,1.6c5.4,1.9,11.4,4.1,13.1,10c1,3.5,0.7,7.3,0.2,10.8
		c-2.3,17.5-7.3,34.7-12.2,51.3c-2.2,7.6-4.5,15.4-7.6,22.9c-1.3,3.7-3.3,7.1-5.8,10.2c-4.8,5.4-11.9,7.4-16.9,8.1
		C184,253.2,181.4,253.3,178.9,253.3z M180.2,131.1c-2,0-4.1,0.3-6.1,0.8c-9.8,2.7-15.8,12.5-19,20.3c-5.5,13.1-7.6,27.7-9.2,40.3
		c-1.4,11.3-2.8,24.6-2.5,38.2c0.1,5.6,0.7,11.4,4.2,15.3c4.7,5.3,12.9,5.5,20.1,5.7h0.3c1.2,0,2.4,0,3.6,0.1c5,0.3,10,0.2,14.9-0.3
		c4.8-0.7,11.5-2.5,16.1-7.6c2.4-2.9,4.3-6.2,5.5-9.8c3-7.4,5.3-15.2,7.5-22.7c4.9-16.6,9.9-33.6,12.2-51.1
		c0.4-3.4,0.8-6.9-0.2-10.2c-1.5-5.2-7-7.1-12.3-9c-1.5-0.6-3-1.1-4.3-1.6c-6.4-2.8-14.9-6.3-24-7.7l0,0
		C184.7,131.3,182.5,131.1,180.2,131.1z"></path><path class="st3" d="M260.2,171.4c0,0,4.5-20.3,4.7-21.8c0.2-1.1-32.8-6.1-32.8-6.1l0.8-2.2l0,0l-8.7,0.2c0,0-8.1-0.2-17.6,7.5
		c-7.4,6-16,18.4-19.7,28.4c-13,35.2-6.2,79.1-6.2,79.1l72.8-27.8c0,0-7.4-18.6-7.9-26.4c-0.2-3.6,0.9-15,1.3-27.1L260.2,171.4z"></path><path class="st2" d="M244.3,147.7c1.9,4.7,4.3,9.2,4.9,14.3c0.7,5.7-0.2,11.1-1.3,16.6c-1.1,6-2.1,12-2.8,18.1
		c-0.2,1.8-0.4,4.7,1.3,5.8c0.7,0.4,4-7.8,4.3-8.6c5.5-14.2,5.6-29.8,0.4-44.1c-1-2.6-2.6-5.5-5.4-5.9c-0.9-0.1-2,0.2-2.2,1.1
		c-0.1,0.4,0,0.9,0.2,1.3C243.9,146.8,244.1,147.2,244.3,147.7z"></path><path class="st2" d="M246.6,203.3c-0.2,0-0.3,0-0.5-0.1c-2.2-1.4-1.9-4.8-1.7-6.5c0.7-6.5,1.8-12.8,2.8-18.2
		c1.1-5.8,1.9-11,1.3-16.4c-0.5-3.8-1.9-7.2-3.5-10.8c-0.5-1.1-0.9-2.2-1.4-3.3l0,0c-0.2-0.5-0.4-1-0.6-1.5
		c-0.2-0.5-0.3-1.1-0.2-1.7c0.4-1.2,1.7-1.9,3-1.6c2.5,0.4,4.5,2.4,5.9,6.4c5.3,14.4,5.1,30.3-0.4,44.6c-2.2,5.7-3.7,8.8-4.6,9.1
		C246.8,203.3,246.7,203.3,246.6,203.3z M245,147.5c0.4,1.1,0.9,2.2,1.4,3.3c1.5,3.5,3.1,7.2,3.6,11.2c0.7,5.6-0.2,10.9-1.3,16.8
		c-1,5.3-2.1,11.6-2.8,18.1c-0.1,1.2-0.4,3.7,0.7,4.8c1.4-2.6,2.6-5.2,3.6-8c5.4-14,5.5-29.5,0.4-43.6c-1.3-3.4-2.9-5.2-4.8-5.5
		c-0.6-0.1-1.4,0.1-1.4,0.6c0,0.3,0,0.6,0.2,0.9C244.6,146.5,244.8,147.1,245,147.5L245,147.5z"></path><path class="st2" d="M214,205.9c7.8-9.3,12.1-21,12.3-33.2c0-6.4-1.2-13.1-4.5-18.6s-9.1-9.8-15.5-10.4l-3.9,5.5
		c6.1,2.4,12.5,5.7,15.1,11.8c1.2,3.1,1.6,6.5,1.2,9.8c-1.5,22.7-21.7,44.6-44.4,47.4l2.1,6.8c0.1,0.5,0.3,0.9,0.7,1.2
		c0.5,0.2,1.1,0.3,1.6,0.1C191.4,223.1,205.3,216.2,214,205.9z"></path><path class="st2" d="M177.7,227c-0.4,0-0.8-0.1-1.1-0.3c-0.5-0.4-0.9-0.9-1-1.6l-2.1-6.8c-0.1-0.2,0-0.4,0.1-0.6
		c0.1-0.2,0.3-0.3,0.5-0.3c22.2-2.7,42.3-24.1,43.8-46.7c0.3-4-0.1-7-1.1-9.4c-2.5-6-9.2-9.2-14.7-11.4c-0.2-0.1-0.4-0.2-0.4-0.4
		c-0.1-0.2,0-0.4,0.1-0.6l3.9-5.5c0.1-0.2,0.4-0.3,0.6-0.3c6.3,0.6,12.3,4.7,16,10.8c3.1,5.1,4.7,11.5,4.6,18.9
		c-0.2,12.3-4.5,24.2-12.4,33.6l0,0c-8,9.4-21,16.9-35.8,20.6C178.3,226.9,178,227,177.7,227z M175.1,218.7l1.8,6
		c0.1,0.3,0.2,0.6,0.4,0.8c0.3,0.1,0.7,0.1,1,0c14.5-3.5,27.3-10.9,35.1-20.1l0,0c7.7-9.2,11.9-20.8,12.1-32.7
		c0.1-7.2-1.4-13.3-4.4-18.2c-3.4-5.6-8.8-9.3-14.6-10.1l-3.1,4.4c5.6,2.3,12,5.6,14.6,11.8c1.2,3.2,1.6,6.7,1.2,10.1
		C217.8,193.8,197.6,215.5,175.1,218.7L175.1,218.7z"></path><path class="st1" d="M222.8,138.4c-5.9,1.2-12.9-0.7-15.6-6.1c1.8,0.4,3.6,0.4,5.3,0.1c-2.4-2.6-5-4.8-6-8.2
		c-2.6-8.8,0.1-18.7,6.2-25.6c5.4-6,16.7-12.8,24.9-9.6c4.1,1.5,7.8,4,10.7,7.3c2.5,3,5.1,8.1,3.8,12.1c-1,3-2.3,5.9-3.9,8.7
		c-2.1,2.9-4.3,5.7-6.8,8.2c-5,5.7-10.1,11-17.9,13L222.8,138.4z"></path><path class="st2" d="M219.5,139.4c-5.1,0-10.5-2.1-12.9-6.8c-0.1-0.2-0.1-0.5,0.1-0.8c0.2-0.2,0.4-0.3,0.7-0.2
		c1.2,0.3,2.5,0.4,3.8,0.3l-0.7-0.7c-1.9-1.9-3.8-4-4.6-6.8c-2.6-8.7-0.1-19,6.3-26.2c5.4-6.1,17-13.1,25.7-9.7
		c4.2,1.5,8,4.1,11,7.5c2.9,3.5,5.2,8.8,3.9,12.8c-1,3.1-2.3,6-4,8.8c-1.6,2.3-3.4,4.5-5.3,6.6l-1.6,1.7
		c-5.4,6.1-10.4,11.2-18.2,13.2L223,139C221.8,139.3,220.7,139.4,219.5,139.4z M208.6,133.2c3,4.2,9.2,5.5,14.1,4.5l0,0l0.6-0.1
		c7.4-1.9,12.3-6.9,17.5-12.8c0.5-0.6,1.1-1.2,1.6-1.8c1.9-2,3.6-4.1,5.2-6.4c1.6-2.7,2.9-5.5,3.8-8.5c1.2-3.5-1-8.3-3.6-11.4
		c-2.8-3.2-6.4-5.6-10.4-7.1c-7.9-3.1-19.1,3.8-24.1,9.4c-6.1,6.8-8.5,16.6-6,24.9c0.8,2.6,2.5,4.4,4.3,6.3c0.5,0.6,1.1,1.1,1.6,1.7
		c0.3,0.3,0.2,0.7-0.1,1c-0.1,0.1-0.2,0.1-0.3,0.2C211.4,133.3,210,133.4,208.6,133.2L208.6,133.2z"></path><path class="st1" d="M253.9,118.3c0,0,5.2,9.2,3.9,10.9s-5.2,0.3-5.2,0.3"></path><path class="st2" d="M255.6,130.8c-1.1,0-2.2-0.2-3.3-0.6c-0.4-0.1-0.5-0.5-0.4-0.9s0.5-0.5,0.9-0.4c0.9,0.3,3.6,1,4.4,0
		c0.5-0.7-1.3-5.5-3.9-10.1c-0.2-0.3-0.1-0.8,0.3-1s0.8-0.1,1,0.3l0,0c1.6,2.9,5.3,9.8,3.8,11.7
		C257.7,130.5,256.7,130.9,255.6,130.8z"></path><path class="st1" d="M253.4,98.9c3.5,3.3,2,17.3,1.7,21.4c-0.4,5.8-1,11.6-1.7,17.4c-0.4,3.7-10,3.1-11.6,1.9l0.5,14.7
		c0,0-4.7,1-12.1-3.1s-7.4-5.9-7.4-5.9l1.8-16.8c0,0,6.3,0.5,10.6-6.8s4.9-18.8,4.9-18.8S250.1,95.7,253.4,98.9z"></path><path class="st2" d="M241,155.1c-2,0-5.9-0.4-11.2-3.3c-7.3-4-7.8-6-7.8-6.6l1.8-16.8c0-0.4,0.4-0.7,0.8-0.6c0.2,0,5.9,0.3,9.9-6.4
		c4.1-7,4.8-18.4,4.8-18.5c0-0.2,0.1-0.4,0.3-0.5c1.1-0.8,10.6-7.4,14.4-3.9c3,2.9,2.7,12.2,2,20.9l-0.1,1.1
		c-0.4,5.8-1,11.7-1.7,17.5c-0.2,1.2-1.1,2.3-2.3,2.6c-2.6,1.1-7,0.9-9.3,0.3l0.5,13.6c0,0.3-0.2,0.6-0.6,0.7
		C242,155.1,241.5,155.2,241,155.1z M223.4,145.2c0.1,0.3,1,2,7,5.3c5.6,3.1,9.6,3.2,11.1,3.1l-0.5-14c0-0.3,0.1-0.5,0.4-0.6
		c0.2-0.1,0.5-0.1,0.8,0.1c0.9,0.7,6.2,1.3,9,0.1c0.9-0.4,1.4-0.9,1.5-1.5c0.7-5.8,1.3-11.6,1.7-17.4l0.1-1.1
		c0.4-4.7,1.4-17-1.6-19.8l0,0c-2.4-2.2-9.6,1.9-12.3,3.8c-0.1,2-1,12.1-5,18.8c-3.6,6.2-8.7,7.1-10.5,7.1L223.4,145.2z"></path><path class="st1" d="M253.6,133.4c0,0-2-0.3-7.5-4.9"></path><path class="st2" d="M253.6,134.1h-0.1c-0.2,0-2.3-0.5-7.8-5c-0.3-0.2-0.3-0.7-0.1-1c0,0,0,0,0,0c0.2-0.3,0.7-0.3,1-0.1
		c0,0,0,0,0,0c5.2,4.3,7.1,4.7,7.2,4.7c0.4,0.1,0.6,0.4,0.6,0.8C254.2,133.9,253.9,134.1,253.6,134.1z"></path><path class="st1" d="M242.5,121.3c-0.1-1.5-0.5-2.9-1.4-4.1c-0.5-1-1.1-2-1.9-2.8c-0.8-0.8-1.9-1.3-3.1-1.2c-1,0.2-1.9,0.8-2.4,1.7
		c-0.5,0.9-0.8,1.8-0.9,2.8c-0.5,4.4,1.4,8.8,5,11.5l-0.3-0.4"></path><path class="st2" d="M237.8,129.9c-0.1,0-0.3,0-0.4-0.1c-3.8-2.8-5.8-7.4-5.3-12.1c0.1-1.1,0.4-2.2,1-3.1c0.6-1.1,1.7-1.8,2.9-2
		c1.4-0.1,2.7,0.4,3.7,1.3c0.8,0.9,1.5,1.9,2.1,3c0.9,1.3,1.4,2.9,1.4,4.5c0,0.4-0.3,0.7-0.7,0.7c0,0,0,0,0,0
		c-0.4,0-0.7-0.4-0.7-0.7c0,0,0,0,0,0c-0.1-1.3-0.5-2.6-1.3-3.7c-0.5-1-1.1-1.8-1.8-2.6c-0.6-0.7-1.5-1-2.5-1
		c-0.8,0.2-1.5,0.6-1.9,1.3c-0.5,0.8-0.7,1.6-0.8,2.6c-0.4,3.9,1.1,7.8,4.1,10.3c0.2,0,0.4,0.1,0.5,0.3l0.3,0.4
		c0.2,0.3,0.2,0.7,0,0.9C238.2,129.8,238,129.9,237.8,129.9z"></path><path class="st2" d="M241.8,139.7c0,0-4.9-1.9-6.9-5.4c0,0-0.3,8.9,7.1,12L241.8,139.7z"></path><path class="st2" d="M242,146.9c-0.1,0-0.2,0-0.3,0c-7.8-3.2-7.6-12.6-7.6-12.6c0-0.3,0.2-0.6,0.5-0.7c0.3-0.1,0.6,0.1,0.8,0.3
		c1.9,3.3,6.5,5.1,6.6,5.1c0.3,0.1,0.4,0.4,0.4,0.6l0.2,6.5c0,0.2-0.1,0.5-0.3,0.6C242.3,146.9,242.1,146.9,242,146.9z M235.8,136.6
		c0.4,2.5,1.7,6.4,5.5,8.5l-0.2-4.9C239.1,139.3,237.3,138.1,235.8,136.6L235.8,136.6z"></path><ellipse class="st2" transform="matrix(0.2333 -0.9724 0.9724 0.2333 81.4355 331.4504)" cx="250.9" cy="114.1" rx="2.1" ry="0.8"></ellipse><line class="st4" x1="252.8" y1="112.6" x2="248.8" y2="110.4"></line><path class="st2" d="M252.8,113.3c-0.1,0-0.2,0-0.3-0.1l-3.9-2.2c-0.3-0.2-0.5-0.6-0.3-1c0,0,0,0,0,0c0.2-0.3,0.6-0.5,0.9-0.3
		c0,0,0,0,0,0l3.9,2.2c0.3,0.2,0.5,0.6,0.3,0.9c0,0,0,0,0,0.1C253.3,113.1,253,113.3,252.8,113.3z"></path><path class="st1" d="M205.6,119.6l50.1-16c0,0-5.5-17.5-24.2-15.9S204.7,104,205.6,119.6z"></path><path class="st2" d="M205.6,120.3c-0.1,0-0.3,0-0.4-0.1c-0.2-0.1-0.3-0.3-0.3-0.5c-0.9-15.1,7-31.1,26.6-32.7
		c19-1.6,24.8,16.2,24.9,16.4c0.1,0.4-0.1,0.8-0.5,0.9l-50.1,16C205.7,120.3,205.6,120.3,205.6,120.3z M233.7,88.3
		c-0.7,0-1.4,0-2.1,0.1c-12.3,1-26.2,9.6-25.4,30.3l48.6-15.5C253.6,100.1,248.2,88.2,233.7,88.3L233.7,88.3z"></path><path class="st2" d="M236,110.8c-0.3,0-0.6-0.2-0.7-0.5c-0.1-0.4,0.1-0.8,0.4-0.9l41.6-13.9c0.4-0.1,0.8,0.1,0.9,0.4
		s-0.1,0.8-0.4,0.9l-41.6,13.9C236.2,110.7,236.1,110.8,236,110.8z"></path><path class="st2" d="M206.1,110.6c0,0,4.9-0.4,6.4,3.7l-6.4,1.9"></path><path class="st2" d="M206.1,116.9c-0.4,0-0.7-0.3-0.7-0.7c0-0.3,0.2-0.6,0.5-0.7l5.6-1.7c-1.6-2.8-5.3-2.5-5.4-2.5
		c-0.4,0-0.7-0.2-0.8-0.6c0-0.4,0.2-0.7,0.6-0.8c0,0,0,0,0,0c1.9-0.2,5.8,0.5,7.1,4.1c0.1,0.2,0.1,0.4,0,0.6
		c-0.1,0.2-0.2,0.3-0.4,0.4l-6.4,1.9C206.3,116.9,206.2,116.9,206.1,116.9z"></path><path class="st1" d="M265.7,106.2c-1.8,0-3.3,3.3-3.3,7.3s1.5,7.3,3.4,7.3l37.1-0.2l-0.1-14.7L265.7,106.2z"></path><path class="st2" d="M302.9,121.4l-37.1,0.2c-2.3,0-4.1-3.4-4.1-8s1.7-8.1,4-8.1l37.1-0.2c0.4,0,0.7,0.3,0.7,0.7c0,0,0,0,0,0
		l0.1,14.7C303.6,121.1,303.3,121.4,302.9,121.4z M265.7,106.9c-1.2,0-2.6,2.8-2.6,6.6s1.4,6.6,2.6,6.6l36.4-0.2l-0.1-13.2
		L265.7,106.9z"></path><ellipse class="st1" transform="matrix(1 -5.235964e-03 5.235964e-03 1 -0.5893 1.5872)" cx="302.8" cy="113.3" rx="3.3" ry="7.3"></ellipse><path class="st2" d="M302.9,121.4c-2.3,0-4.1-3.4-4.1-8s1.7-8.1,4-8.1s4.1,3.4,4.1,8S305.2,121.4,302.9,121.4z M302.8,106.7
		c-1.2,0-2.6,2.8-2.6,6.6s1.4,6.6,2.6,6.6s2.6-2.8,2.6-6.6S304,106.7,302.8,106.7L302.8,106.7z"></path><path class="st2" d="M250.6,108.9c-1.2,0-2.1,2.1-2.1,4.7s1,4.7,2.1,4.7l23.8-0.1l0-9.4L250.6,108.9z"></path><path class="st2" d="M274.4,118.9l-23.8,0.1c-1.6,0-2.8-2.3-2.9-5.4s1.2-5.4,2.8-5.4l23.8-0.1c0.4,0,0.7,0.3,0.7,0.7c0,0,0,0,0,0
		l0,9.4C275.1,118.6,274.8,118.9,274.4,118.9z M250.6,109.6c-0.5,0-1.4,1.4-1.4,4c0,2.4,0.9,4,1.4,4l23.1-0.1v-8L250.6,109.6z"></path><path class="st1" d="M258.2,106.2c-1.8,0-3.3,3.3-3.3,7.3s1.5,7.3,3.3,7.3l37.1-0.2l-0.1-14.7L258.2,106.2z"></path><path class="st2" d="M295.5,121.4l-37.1,0.2c-2.3,0-4.1-3.4-4.1-8s1.7-8.1,4-8.1l37.1-0.2c0.4,0,0.7,0.3,0.7,0.7l0.1,14.7
		C296.2,121.1,295.8,121.4,295.5,121.4z M258.2,107c-1.2,0-2.6,2.8-2.6,6.6s1.4,6.6,2.6,6.6l36.4-0.2l-0.1-13.2L258.2,107z"></path><ellipse class="st1" transform="matrix(1 -5.235964e-03 5.235964e-03 1 -0.5896 1.5484)" cx="295.4" cy="113.4" rx="3.3" ry="7.3"></ellipse><path class="st2" d="M295.5,121.4c-2.3,0-4.1-3.4-4.1-8s1.7-8.1,4-8.1s4.1,3.4,4.1,8S297.8,121.4,295.5,121.4z M295.4,106.8
		c-1.2,0-2.6,2.8-2.6,6.6s1.4,6.6,2.6,6.6s2.6-2.8,2.6-6.6S296.6,106.8,295.4,106.8z"></path><path class="st1" d="M229.1,191.6c43.8,5.1,50.7-2.8,55.1-10.2s2.6-65.9,1.6-69.5s-10.1-6.2-10.1-6.2c0-2.5-2.8-5.8-4.4-2.4
		c-2.3,4.8-3.4,10.8-4.8,15.9c-0.1,0.3-0.2,0.7-0.4,0.9c-0.3,0.2-0.7,0.4-1.1,0.4l-4.3,0.5c0.1,2.6,6,5.8,6.8,8.2
		c0.7,2.1-2.5,36.6-3.2,38.7l-32.1-3.6"></path><path class="st2" d="M254,194c-8.4,0-16.7-0.6-25-1.7c-0.4,0-0.7-0.3-0.7-0.7s0.3-0.7,0.7-0.7c0.1,0,0.1,0,0.2,0
		c41.9,4.9,49.6-1.9,54.4-9.9c4.3-7.3,2.4-66,1.5-69c-0.8-2.6-7.2-5-9.6-5.8c-0.3-0.1-0.5-0.4-0.5-0.7c0-1.4-1-2.9-1.8-3.1
		c-0.4-0.1-0.8,0.2-1.2,1c-1.6,3.8-2.9,7.7-3.7,11.8c-0.3,1.4-0.7,2.7-1,4c-0.1,0.5-0.3,0.9-0.6,1.2c-0.4,0.3-0.9,0.5-1.5,0.6
		l-3.5,0.4c0.9,1.3,1.9,2.4,3.1,3.4c1.5,1.4,3,2.7,3.4,4c0.8,2.4-2.6,37.3-3.2,39.1c-0.1,0.3-0.4,0.5-0.8,0.5l-32.1-3.6
		c-0.4,0-0.7-0.4-0.6-0.8s0.4-0.7,0.8-0.6l0,0l31.4,3.5c0.8-4.8,3.6-35.5,3.1-37.7c-0.3-0.9-1.6-2.1-3-3.3c-1.8-1.6-3.7-3.3-3.8-5
		c0-0.4,0.3-0.7,0.6-0.8l4.3-0.5c0.2,0,0.5-0.1,0.7-0.2c0.1-0.2,0.2-0.4,0.2-0.6c0.3-1.3,0.7-2.6,1-4c0.9-4.1,2.1-8.1,3.8-12
		c0.9-2,2.3-1.9,2.8-1.8c1.5,0.3,2.7,2.3,2.9,4c2.1,0.7,9,3.1,10.1,6.6c0.9,3.1,3,62.3-1.6,70.1C281,188.2,275.4,193.9,254,194z"></path><polyline class="st3" points="206.3,188.4 229.1,191.6 232.2,164.2 214.9,161.4 	"></polyline><path class="st2" d="M229.1,192.4H229l-22.8-3.2c-0.4-0.1-0.7-0.4-0.6-0.8s0.4-0.7,0.8-0.6l0,0l22.1,3.1l2.9-26.1l-16.7-2.6
		c-0.4-0.1-0.6-0.4-0.6-0.8s0.4-0.6,0.8-0.6l0,0l17.3,2.7c0.4,0.1,0.6,0.4,0.6,0.8l-3.1,27.5c0,0.2-0.1,0.4-0.3,0.5
		C229.4,192.3,229.3,192.3,229.1,192.4z"></path><polygon class="st2" points="180.6,256.5 163.5,318.6 220,310.7 230.2,266.9 258.9,294.3 296.2,267.1 253.4,228.7 	"></polygon><path class="st2" d="M163.5,319.4c-0.2,0-0.4-0.1-0.5-0.2c-0.2-0.2-0.2-0.4-0.1-0.6l17-62.1c0.1-0.2,0.2-0.4,0.4-0.5l72.8-27.8
		c0.2-0.1,0.5,0,0.7,0.1l42.9,38.5c0.2,0.1,0.2,0.3,0.2,0.6c0,0.2-0.1,0.4-0.3,0.5l-37.3,27.2c-0.3,0.2-0.7,0.2-0.9-0.1l-27.8-26.6
		l-9.9,42.6c-0.1,0.3-0.3,0.5-0.6,0.5L163.5,319.4L163.5,319.4z M181.2,257l-16.7,60.8l54.9-7.7l10.1-43.4c0.1-0.4,0.5-0.6,0.8-0.5
		c0.1,0,0.2,0.1,0.3,0.2l28.3,27l36.1-26.3l-41.9-37.6L181.2,257z"></path><path class="st2" d="M167.4,200.1c-0.1-2.3-0.2-4.7-1.3-6.7c-1.3-2.2-3.7-3.5-5.9-4.7c-3.4-1.8-7.5-3.6-11.1-2.1
		c-3.2,1.3-4.9,4.8-6.1,8.1c-3,8.1-4.7,16.6-5.1,25.2c-0.3,6.2,0.1,12.7,3.4,18c4.4,6.9,13.5,9,20.4,4.6c1.8-1.2,3.4-2.7,4.6-4.6
		c2.7-4.3,1.6-10.8,1.5-15.5C167.7,214.8,167.6,207.5,167.4,200.1z"></path><path class="st2" d="M153.8,245.3h-0.1c-5.3,0-10.3-2.7-13.1-7.3c-3.7-5.9-3.8-13.3-3.5-18.4c0.4-8.7,2.2-17.2,5.2-25.4
		c1.2-3.2,3-7,6.5-8.5c3.9-1.6,8.1,0.3,11.7,2.2c2.6,1.4,4.9,2.7,6.2,5s1.4,4.9,1.4,7.1l0,0c0.2,7.4,0.3,14.8,0.4,22.2
		c0,1,0.1,2.1,0.1,3.2c0.2,4.3,0.5,9.2-1.8,12.7C164,242.6,159.1,245.4,153.8,245.3z M151.8,186.6c-0.9,0-1.7,0.2-2.6,0.5
		c-3,1.2-4.6,4.6-5.7,7.7c-3,8-4.7,16.5-5.1,25c-0.2,4.9-0.2,11.9,3.3,17.6c2.6,4.1,7.1,6.6,11.9,6.6h0.1c4.8,0,9.3-2.5,11.8-6.6
		c2-3.2,1.8-7.8,1.6-11.9c-0.1-1.1-0.1-2.2-0.1-3.2c-0.1-7.3-0.2-14.8-0.4-22.1l0,0c-0.1-2.5-0.2-4.6-1.2-6.4
		c-1.2-2-3.2-3.2-5.7-4.4S154.5,186.6,151.8,186.6L151.8,186.6z"></path><path class="st1" d="M163.7,241.6c-0.3,0-0.5-0.2-0.7-0.4c-0.2-0.4-0.1-0.8,0.3-1c0,0,0,0,0.1,0c2.9-1.4,7.3-8.9,3.8-44
		c-1-9.7-9.9-9.4-12.9-9.3c-0.3,0-0.6,0-0.9,0c-0.4-0.1-0.6-0.5-0.5-0.9c0.1-0.3,0.4-0.6,0.8-0.5c0.2,0,0.4,0,0.6,0
		c8.8-0.2,13.6,3.3,14.4,10.6c2.8,27.5,1.2,42.8-4.6,45.5C163.9,241.5,163.8,241.6,163.7,241.6z"></path><path class="st1" d="M159.9,216.6c-8.4,0.1-18.8-4.9-19.3-5.1c-0.4-0.2-0.5-0.6-0.3-1c0.2-0.4,0.6-0.5,1-0.3
		c0.1,0.1,14.7,7,22.9,4.4c0.4-0.1,0.8,0.1,0.9,0.5c0.1,0.4-0.1,0.8-0.5,0.9C163.1,216.4,161.5,216.6,159.9,216.6z"></path><path class="st1" d="M163.4,175.4c-2.6,0-5-1.3-6.5-3.4c-1.9-3-2.4-6.8-1.2-10.2c0.1-0.4,0.5-0.6,0.9-0.5c0.4,0.1,0.6,0.5,0.5,0.9
		c-1,3-0.7,6.2,1,8.9c1.6,2.3,5.1,3.7,7.8,2.1c1.2-0.9,2.3-2,3-3.4c6-9.5,9.8-20.3,11.1-31.5c0-0.4,0.4-0.7,0.8-0.6s0.7,0.4,0.6,0.8
		l0,0c-1.3,11.4-5.2,22.4-11.3,32.1c-0.8,1.6-2.1,2.9-3.5,3.9C165.6,175.1,164.5,175.4,163.4,175.4z"></path><path class="st1" d="M179.2,308H179c-0.4-0.1-0.6-0.5-0.5-0.9c0,0,0,0,0,0l13.1-48.6c0.1-0.4,0.5-0.6,0.9-0.5
		c0.4,0.1,0.6,0.5,0.5,0.9l-13.1,48.6C179.8,307.8,179.5,308,179.2,308z"></path><path class="st1" d="M200.6,265c-0.2,0-0.3-0.1-0.4-0.2c-0.3-0.2-0.4-0.7-0.1-1c0,0,0,0,0,0c0.2-0.2,0.4-0.4,0.6-0.6
		c2-1.9,7.9-7.5,8.6-13.7c0.1-0.4,0.4-0.7,0.8-0.6c0.4,0,0.7,0.4,0.6,0.8c0,0,0,0,0,0c-0.8,6.7-7,12.7-9,14.6
		c-0.2,0.2-0.4,0.4-0.5,0.5C201,264.9,200.8,265,200.6,265z"></path><path class="st1" d="M232.8,267.9h-0.2c-0.4-0.1-0.6-0.5-0.5-0.9c0-0.1,3-10.2,3-14.6c0-0.4,0.4-0.7,0.8-0.6c0.3,0,0.6,0.3,0.6,0.6
		c0,4.7-2.9,14.6-3,15.1C233.4,267.7,233.1,267.9,232.8,267.9z"></path><path class="st2" d="M117.3,407.2c0,0,70.8,1.9,69.1-0.4c1.9-7.5-32.3-18-29.4-20.7s13-16.7,13-16.7l-31.5-5.2L117.3,407.2z"></path><path class="st2" d="M169.5,408.7c-4.6,0-10.5,0-18-0.1c-17-0.2-34-0.6-34.2-0.6c-0.2,0-0.5-0.1-0.6-0.3c-0.1-0.2-0.1-0.5,0-0.7
		l21.1-43c0.1-0.3,0.4-0.4,0.7-0.4l31.5,5.2c0.2,0,0.4,0.2,0.5,0.4c0.1,0.2,0.1,0.5-0.1,0.7c-0.4,0.6-10,13.8-13,16.7
		c0.6,1,5.7,3.5,9.9,5.5c9.7,4.7,20.7,9.9,19.7,14.9c0,0.1,0,0.3-0.1,0.4C186.8,407.9,186.4,408.6,169.5,408.7z M118.4,406.6
		c25.7,0.7,63.4,1.2,67.3,0c0.7-3.9-11.1-9.5-18.9-13.3c-7.1-3.4-10.5-5.1-10.7-6.6c-0.1-0.4,0.1-0.8,0.4-1.1
		c2.4-2.2,9.9-12.5,12.2-15.7l-29.9-5L118.4,406.6z"></path><polygon class="st2" points="318.4,348.4 287.5,358 294.7,383.4 353.5,359 318.5,362.1 	"></polygon><path class="st2" d="M294.7,384.1c-0.1,0-0.2,0-0.3-0.1c-0.2-0.1-0.3-0.2-0.4-0.4l-7.3-25.4c-0.1-0.4,0.1-0.8,0.5-0.9l30.9-9.6
		c0.2-0.1,0.4,0,0.6,0.1c0.2,0.1,0.3,0.3,0.3,0.6l0.1,12.9l34.3-3c0.3,0,0.7,0.2,0.7,0.5c0.1,0.3-0.1,0.7-0.4,0.8L295,384
		C294.9,384,294.8,384.1,294.7,384.1z M288.3,358.5l6.9,23.9l53.9-22.3l-30.5,2.6c-0.2,0-0.4-0.1-0.5-0.2c-0.1-0.1-0.2-0.3-0.2-0.5
		l-0.1-12.7L288.3,358.5z"></path></g><g id="rock"><path class="st1" d="M395,405.8c0-2.4,0-8.4-0.1-11.5c0-4-6.8-10.8-16.3-13c-5.9-1.4-2.8-9.8-3.2-13.5c-0.5-5-4-9.1-8.9-10.4
		c-9.8-3-18.3,1.7-26.9,5.8c-9.6,4.5-19.7,9-30.5,9.3c-5,0.1-10.1-0.5-15,0.6c-4.7,1-9,3.4-13.2,5.8c-3.8,2.2-7.9,4.2-11.6,6.5
		c-2,1.3-4.8,5.2-7.2,5.2c-3.1,0-8.3,3.5-10.4,5.5l-6.8,6.3c-1.1,1-2.6,2.5-2.6,4.1c0,0,0,0.1,0,0.1L395,405.8z"></path><path class="st2" d="M395,406.5l-152.6,0.8c-0.4,0-0.7-0.3-0.7-0.7c0-0.1,0-0.1,0-0.2c0-2,1.9-3.8,2.9-4.7l6.9-6.3
		c1.9-1.8,7.4-5.7,10.9-5.7c1.3,0,2.9-1.6,4.4-3c0.8-0.8,1.6-1.5,2.5-2.1c2.4-1.5,4.9-2.9,7.4-4.2c1.4-0.8,2.8-1.6,4.2-2.4
		c4.2-2.4,8.5-4.9,13.4-5.9c3.4-0.6,6.9-0.8,10.4-0.6c1.5,0,3.1,0.1,4.7,0c10.3-0.3,19.7-4.4,30.2-9.2l2.1-1
		c7.9-3.8,16.1-7.6,25.4-4.8c5.1,1.4,8.8,5.8,9.4,11c0,1.3,0,2.6-0.2,3.9c-0.5,4.8-0.6,8.2,2.8,9c9.6,2.2,16.8,9,16.8,13.7l0.1,11.5
		c0,0.4-0.2,0.8-0.6,0.8C395.1,406.5,395,406.5,395,406.5z M243.1,405.9l151.1-0.8l0-10.8c0-3.4-6.3-10.1-15.7-12.3
		c-4.9-1.1-4.3-6.6-3.9-10.5c0.2-1.2,0.2-2.4,0.2-3.6c-0.5-4.7-3.8-8.5-8.4-9.8c-8.7-2.6-16.7,1.1-24.3,4.7l-2.1,1
		c-10.6,5-20.2,9.1-30.8,9.4c-1.6,0-3.2,0-4.8,0c-3.4-0.2-6.8,0-10.1,0.6c-4.6,1-8.9,3.4-13,5.7c-1.4,0.8-2.8,1.6-4.3,2.4
		c-2.4,1.3-4.9,2.7-7.3,4.2c-0.8,0.6-1.6,1.2-2.2,1.9c-1.6,1.6-3.5,3.4-5.4,3.4c-2.7,0-7.6,3.2-9.9,5.4l-6.9,6.3
		C244.4,403.7,243.7,404.7,243.1,405.9L243.1,405.9z"></path><path class="st2" d="M375.2,376.9c0,0-35.2,7.3-47.9,12.8c0,0,35.2-10.4,51.3-8.4"></path><path class="st2" d="M327.4,390.4c-0.4,0-0.7-0.3-0.7-0.7c0-0.3,0.2-0.6,0.5-0.7c12.5-5.4,47.6-12.8,48-12.8
		c0.4-0.1,0.8,0.2,0.9,0.6s-0.2,0.8-0.6,0.9c-0.2,0-11.2,2.3-23,5.3c9.5-1.8,19.5-3.1,26.4-2.3c0.4,0,0.7,0.4,0.6,0.8
		s-0.4,0.7-0.8,0.6c-15.8-2-50.6,8.2-51,8.3L327.4,390.4z"></path><path class="st2" d="M307.4,398.3c-0.1,0-0.2,0-0.3-0.1c-19.7-8.4-41-3.4-41.2-3.3c-0.4,0.1-0.8-0.1-0.9-0.5c0,0,0,0,0,0
		c-0.1-0.4,0.2-0.8,0.5-0.9c0.2,0,22-5.2,42.1,3.4c0.4,0.1,0.6,0.6,0.4,0.9C307.9,398.1,307.7,398.3,307.4,398.3L307.4,398.3z"></path><path class="st2" d="M348.5,384c-0.1,0-0.2,0-0.3,0c-9-3.6-18.7-5.1-28.4-4.2c-0.5,0-0.9,0.2-1.3,0.5c0.1,0.4-0.1,0.8-0.5,0.9
		c-0.4,0.1-0.8-0.1-0.9-0.5c-0.1-0.4-0.1-0.9,0.2-1.3c0.6-0.7,1.4-1.1,2.3-1.1c9.9-0.9,19.8,0.6,29,4.3c0.4,0.1,0.5,0.6,0.4,0.9
		c0,0,0,0,0,0C349.1,383.8,348.8,384,348.5,384z"></path></g></svg>