<svg width="500" height="500" viewBox="0 0 500 500" fill="none" xmlns="http://www.w3.org/2000/svg">
<path d="M376.6 156.5H396.1C401 156.5 404.9 153.3 404.9 149.3C404.9 145.6 401.5 142.6 397.1 142.2C397.2 141.7 397.3 141.2 397.3 140.7C397.3 136.5 393.2 133.2 388 133.2C386.6 133.2 385.3 133.5 384 134C384 133.9 384 133.8 384 133.7C384 129.6 379.8 126.2 374.7 126.2C370.9 126.2 367.6 128.1 366.2 130.7C365.2 130.5 364.2 130.4 363.1 130.5C354.9 130.5 348.2 135.7 347.7 142.2C342.9 142.3 339 145.4 339 149.4C339 153.4 343 156.6 347.8 156.6" fill="#1976D2"/>
<path d="M396.1 157.3H376.6C376.2 157.3 375.8 156.9 375.8 156.5C375.8 156.1 376.2 155.7 376.6 155.7H396.1C400.5 155.7 404.1 152.8 404.1 149.3C404.1 146.1 401.1 143.4 397.1 143C396.9 143 396.7 142.8 396.5 142.7C396.4 142.5 396.3 142.3 396.4 142.1C396.5 141.7 396.5 141.3 396.5 140.8C396.5 137.1 392.7 134.1 388 134.1C386.7 134.1 385.5 134.3 384.3 134.8C384.1 134.9 383.8 134.9 383.5 134.7C383.3 134.5 383.2 134.3 383.2 134L383.9 133.8H383.2C383.2 130.1 379.4 127.1 374.7 127.1C371.3 127.1 368.2 128.7 366.9 131.2C366.7 131.5 366.4 131.7 366.1 131.6C365.1 131.4 364.1 131.4 363.2 131.4C355.5 131.4 349.1 136.2 348.6 142.4C348.6 142.8 348.2 143.1 347.8 143.1C343.4 143.1 339.9 146 339.9 149.5C339.9 153 343.5 155.9 347.9 155.9C348.3 155.9 348.7 156.3 348.7 156.7C348.7 157.1 348.3 157.5 347.9 157.5C342.6 157.5 338.3 153.9 338.3 149.5C338.3 145.4 342.2 141.9 347.1 141.6C348.1 135 355 129.9 363.2 129.9C364.1 129.9 365 130 365.8 130.1C367.8 127.2 371.2 125.5 374.7 125.7C379.9 125.7 384.2 129 384.7 133.2C385.8 132.9 386.8 132.7 387.9 132.8C393.4 132.8 398 136.5 398 141.1C398 141.4 398 141.6 398 141.9C402.4 142.7 405.6 145.9 405.6 149.7C405.8 153.8 401.5 157.3 396.1 157.3Z" fill="#D1D3D4"/>
<path d="M448.8 304.8C461.6 302.9 456.4 289.5 449.4 289.5C448.9 282.5 441.7 277 433 277C431.9 277 430.8 277.1 429.7 277.3C428.2 274.5 424.7 272.5 420.6 272.5C415.1 272.5 410.7 276.1 410.7 280.5C410.7 280.6 410.7 280.7 410.7 280.8C409.3 280.3 407.9 280 406.4 280C400.9 280 396.5 283.6 396.5 288C396.5 288.5 396.6 289 396.7 289.5C392 290 388.4 293.2 388.4 297.1C388.4 301.3 392.6 304.7 397.8 304.7" fill="#1976D2"/>
<path d="M448.8 305.6C448.4 305.6 448 305.2 448 304.8C448 304.4 448.3 304.1 448.7 304C453.5 303.3 456.1 300.8 455.8 297.2C455.5 293.6 452.5 290.3 449.4 290.3C449 290.3 448.6 290 448.6 289.6C448.1 283 441.2 277.8 433 277.8C431.9 277.8 430.9 277.9 429.9 278C429.6 278.1 429.2 277.9 429.1 277.6C427.7 274.9 424.4 273.2 420.7 273.2C415.7 273.2 411.6 276.4 411.6 280.4V280.6C411.6 280.9 411.5 281.1 411.3 281.3C411.1 281.5 410.8 281.5 410.5 281.4C409.2 280.9 407.9 280.7 406.5 280.7C401.5 280.7 397.4 283.9 397.4 287.9C397.4 288.4 397.5 288.8 397.6 289.3C397.7 289.5 397.6 289.8 397.5 289.9C397.4 290.1 397.2 290.2 396.9 290.2C392.6 290.6 389.4 293.6 389.4 297C389.4 300.8 393.3 303.9 398 303.9C398.4 303.9 398.8 304.3 398.8 304.7C398.8 305.1 398.4 305.5 398 305.5C392.4 305.5 387.8 301.7 387.8 297C387.8 293 391.2 289.5 395.9 288.7C395.9 288.4 395.8 288.1 395.9 287.8C395.9 282.9 400.7 279 406.6 279C407.8 279 409 279.2 410.1 279.5C410.6 275 415.2 271.5 420.8 271.5C424.6 271.4 428.1 273.2 430.3 276.2C431.2 276.1 432.2 276 433.2 276C442 276 449.4 281.5 450.3 288.5C454 289 457.3 292.7 457.6 296.8C457.7 301.6 454.6 304.7 448.8 305.6Z" fill="#D1D3D4"/>
<path d="M221.2 346.8L165.6 314.7L221.2 282.6L276.8 314.7L221.2 346.8Z" fill="#3F51B5"/>
<path d="M221.2 347.5C221.1 347.5 220.9 347.5 220.8 347.4L165.2 315.3C164.8 315.1 164.7 314.6 164.9 314.2C165 314.1 165.1 314 165.2 313.9L220.8 281.8C221 281.7 221.4 281.7 221.6 281.8L277.2 313.9C277.4 314 277.6 314.3 277.6 314.6C277.6 314.9 277.4 315.2 277.2 315.3L221.6 347.4C221.5 347.5 221.3 347.6 221.2 347.5ZM167.2 314.7L221.2 345.9L275.2 314.7L221.2 283.5L167.2 314.7Z" fill="#231F20"/>
<path d="M276.8 390.9L221.2 423V346.8L276.8 314.7V390.9Z" fill="#3F51B5"/>
<path d="M221.2 423.8C221.1 423.8 220.9 423.8 220.8 423.7C220.6 423.6 220.4 423.3 220.4 423V346.8C220.4 346.5 220.6 346.3 220.8 346.1L276.4 314C276.6 313.9 277 313.9 277.2 314C277.4 314.1 277.6 314.4 277.6 314.7V390.9C277.6 391.2 277.4 391.4 277.2 391.6L221.6 423.7C221.5 423.8 221.3 423.8 221.2 423.8ZM222 347.2V421.6L276 390.4V316L222 347.2Z" fill="#231F20"/>
<path d="M221.2 423L165.6 390.9V314.7L221.2 346.8V423Z" fill="#3F51B5"/>
<path d="M221.2 423.8C221.1 423.8 220.9 423.8 220.8 423.7L165.2 391.6C165 391.5 164.8 391.2 164.8 390.9V314.7C164.8 314.4 165 314.1 165.2 314C165.4 313.9 165.8 313.9 166 314L221.6 346.1C221.8 346.2 222 346.5 222 346.8V423C222 423.3 221.8 423.6 221.6 423.7C221.5 423.8 221.3 423.8 221.2 423.8ZM166.4 390.4L220.4 421.6V347.2L166.4 316V390.4Z" fill="#231F20"/>
<path d="M377.1 368.5L329 340.7L377.1 312.9L425.2 340.7L377.1 368.5Z" fill="#3F51B5"/>
<path d="M377.1 369.3C377 369.3 376.8 369.3 376.7 369.2L328.6 341.4C328.4 341.3 328.2 341 328.2 340.7C328.2 340.4 328.4 340.1 328.6 340L376.7 312.2C376.9 312.1 377.3 312.1 377.5 312.2L425.6 340C425.8 340.1 426 340.4 426 340.7C426 341 425.8 341.2 425.6 341.4L377.5 369.2C377.4 369.2 377.2 369.3 377.1 369.3ZM330.6 340.7L377.1 367.6L423.6 340.7L377.1 313.8L330.6 340.7Z" fill="#231F20"/>
<path d="M425.2 384.9L377.1 412.7V368.5L425.2 340.7V384.9Z" fill="#3F51B5"/>
<path d="M377.1 413.5C377 413.5 376.8 413.5 376.7 413.4C376.5 413.3 376.3 413 376.3 412.7V368.5C376.3 368.2 376.5 368 376.7 367.8L424.8 340C425.2 339.8 425.7 339.9 425.9 340.3C426 340.4 426 340.6 426 340.7V384.9C426 385.2 425.8 385.5 425.6 385.6L377.5 413.4C377.4 413.4 377.2 413.5 377.1 413.5ZM377.9 368.9V411.3L424.4 384.4V342L377.9 368.9Z" fill="#231F20"/>
<path d="M377.1 412.7L329 384.9V340.7L377.1 368.5V412.7Z" fill="#3F51B5"/>
<path d="M377.1 413.5C377 413.5 376.8 413.5 376.7 413.4L328.6 385.6C328.4 385.5 328.2 385.2 328.2 384.9V340.7C328.2 340.3 328.6 339.9 329 339.9C329.1 339.9 329.3 339.9 329.4 340L377.5 367.8C377.7 367.9 377.9 368.2 377.9 368.5V412.7C377.9 413 377.7 413.3 377.5 413.4C377.4 413.4 377.2 413.5 377.1 413.5ZM329.8 384.5L376.3 411.4V369L329.8 342.1V384.5Z" fill="#231F20"/>
<path d="M101.5 271.4L61 248L101.5 224.6L142 248L101.5 271.4Z" fill="#3F51B5"/>
<path d="M101.5 272.2C101.4 272.2 101.2 272.2 101.1 272.1L60.5999 248.7C60.3999 248.6 60.2 248.3 60.2 248C60.2 247.7 60.3999 247.5 60.5999 247.3L101.1 223.9C101.3 223.8 101.7 223.8 101.9 223.9L142.4 247.3C142.8 247.5 142.9 248 142.7 248.4C142.6 248.5 142.5 248.6 142.4 248.7L101.9 272.1C101.8 272.1 101.6 272.2 101.5 272.2ZM62.5999 248L101.5 270.5L140.4 248L101.5 225.5L62.5999 248Z" fill="#231F20"/>
<path d="M142 284.9L101.5 308.3V271.4L142 248V284.9Z" fill="#3F51B5"/>
<path d="M101.5 309.1C101.1 309.1 100.7 308.7 100.7 308.3V271.4C100.7 271.1 100.9 270.8 101.1 270.7L141.6 247.3C142 247.1 142.5 247.2 142.7 247.6C142.8 247.7 142.8 247.9 142.8 248V284.9C142.8 285.2 142.6 285.5 142.4 285.6L101.9 309C101.8 309.1 101.6 309.1 101.5 309.1ZM102.3 271.8V306.8L141.2 284.3V249.2L102.3 271.8Z" fill="#231F20"/>
<path d="M101.5 308.3L61 284.9V248L101.5 271.4V308.3Z" fill="#3F51B5"/>
<path d="M101.5 309.1C101.4 309.1 101.2 309.1 101.1 309L60.5999 285.6C60.3999 285.5 60.2 285.2 60.2 284.9V248C60.2 247.7 60.3999 247.4 60.5999 247.3C60.7999 247.2 61.2 247.2 61.4 247.3L101.9 270.7C102.1 270.8 102.3 271.1 102.3 271.4V308.3C102.3 308.7 101.9 309.1 101.5 309.1ZM61.7999 284.4L100.7 306.9V271.8L61.7999 249.3V284.4Z" fill="#231F20"/>
<path d="M105.6 335.3H138.1C146.2 335.3 152.8 330 152.8 323.4C152.8 317.3 147.2 312.3 139.9 311.6C140.1 310.8 140.2 310 140.2 309.2C140.2 302.3 133.3 296.7 124.8 296.7C122.5 296.7 120.3 297.1 118.1 297.9C118.1 297.8 118.1 297.6 118.1 297.5C118.1 290.6 111.2 285 102.7 285C96.4 285 90.9001 288.1 88.5 292.5C86.8 292.2 85.1001 292.1 83.4001 292.1C69.8001 292.1 58.6 300.7 57.8 311.6C49.8 311.7 43.3 317 43.3 323.5C43.3 330 49.9 335.4 58 335.4" fill="#1976D2"/>
<path d="M138.1 336.1H105.6C105.2 336.1 104.8 335.7 104.8 335.3C104.8 334.9 105.2 334.5 105.6 334.5H138.1C145.8 334.5 152 329.5 152 323.4C152 317.8 146.8 313 139.8 312.4C139.6 312.4 139.4 312.3 139.2 312.1C139.1 311.9 139 311.7 139.1 311.5C139.3 310.8 139.4 310 139.4 309.3C139.4 302.8 132.8 297.6 124.8 297.6C122.6 297.6 120.5 298 118.4 298.8C118 299 117.5 298.8 117.4 298.4C117.4 298.3 117.3 298.2 117.3 298.1V297.7C117.3 291.2 110.7 286 102.7 286C96.9001 286 91.6001 288.8 89.3001 293.1C89.1001 293.4 88.8001 293.6 88.5001 293.5C86.8001 293.2 85.2001 293.1 83.5001 293.1C70.4001 293.1 59.5001 301.3 58.7001 311.9C58.7001 312.3 58.3001 312.6 57.9001 312.6C50.3001 312.7 44.2001 317.7 44.2001 323.7C44.2001 329.7 50.5001 334.8 58.1001 334.8C58.5001 334.8 58.9001 335.2 58.9001 335.6C58.9001 336 58.5001 336.4 58.1001 336.4C49.5001 336.4 42.6001 330.7 42.6001 323.7C42.6001 317 49.1001 311.4 57.2001 311C58.5001 300 69.9001 291.5 83.5001 291.5C85.1001 291.5 86.6001 291.6 88.2001 291.8C90.9001 287.3 96.6001 284.4 102.8 284.4C111.5 284.4 118.6 290 119 297C120.9 296.4 122.9 296.1 124.9 296.1C133.8 296.1 141.1 302.1 141.1 309.4C141.1 310 141.1 310.6 141 311.1C148.3 312.2 153.8 317.4 153.8 323.6C153.6 330.4 146.7 336.1 138.1 336.1Z" fill="#D1D3D4"/>
<path d="M109.8 157.3L133.3 143.7L109.8 130.2L86.3 143.7L109.8 157.3Z" fill="#3F51B5"/>
<path d="M109.8 158.1C109.7 158.1 109.5 158.1 109.4 158L85.9 144.4C85.5 144.2 85.4 143.7 85.6 143.3C85.7 143.2 85.8 143.1 85.9 143L109.4 129.4C109.6 129.3 110 129.3 110.2 129.4L133.7 142.9C134.1 143.1 134.2 143.6 134 144C133.9 144.1 133.8 144.2 133.7 144.3L110.2 158C110.1 158.1 110 158.1 109.8 158.1ZM87.9 143.7L109.8 156.3L131.7 143.7L109.8 131.1L87.9 143.7Z" fill="#231F20"/>
<path d="M86.3 170.9L109.8 184.4V157.3L86.3 143.7V170.9Z" fill="#3F51B5"/>
<path d="M109.8 185.2C109.7 185.2 109.5 185.2 109.4 185.1L85.9 171.5C85.7 171.4 85.5 171.1 85.5 170.8V143.7C85.5 143.4 85.7 143.1 85.9 143C86.1 142.9 86.5 142.9 86.7 143L110.2 156.6C110.4 156.7 110.6 157 110.6 157.3V184.4C110.6 184.7 110.4 184.9 110.2 185.1C110.1 185.2 110 185.2 109.8 185.2ZM87.1 170.4L109 183V157.8L87.1 145.2V170.4Z" fill="#231F20"/>
<path d="M109.8 184.4L133.3 170.9V143.7L109.8 157.3V184.4Z" fill="#3F51B5"/>
<path d="M109.8 185.2C109.7 185.2 109.5 185.2 109.4 185.1C109.2 185 109 184.7 109 184.4V157.3C109 157 109.2 156.7 109.4 156.6L132.9 143C133.1 142.9 133.5 142.9 133.7 143C133.9 143.1 134.1 143.4 134.1 143.7V170.8C134.1 171.1 133.9 171.4 133.7 171.5L110.2 185.1C110.1 185.2 110 185.2 109.8 185.2ZM110.6 157.8V183L132.5 170.4V145.2L110.6 157.8Z" fill="#231F20"/>
<path d="M61 100C85.3 116.5 97 88.3 109.6 106.4V80.4C87 68.8 89.7 94.8 61 100Z" fill="#FBBF24"/>
<path d="M109.5 144.6C109 144.6 108.7 144.2 108.7 143.8V77.1C108.8 76.6 109.2 76.3 109.6 76.4C110 76.4 110.3 76.7 110.3 77.1V143.8C110.4 144.2 110 144.6 109.5 144.6Z" fill="#231F20"/>
<path d="M212.1 115.8L193.9 105.3L212.1 94.8L230.3 105.3L212.1 115.8Z" fill="#3F51B5"/>
<path d="M212.1 116.7C212 116.7 211.8 116.7 211.7 116.6L193.5 106C193.3 105.9 193.1 105.6 193.1 105.3C193.1 105 193.3 104.7 193.5 104.6L211.7 94.1C211.9 94 212.3 94 212.5 94.1L230.7 104.6C230.9 104.7 231.1 105 231.1 105.3C231.1 105.6 230.9 105.8 230.7 106L212.5 116.5C212.4 116.6 212.2 116.6 212.1 116.7ZM195.5 105.3L212.1 114.9L228.7 105.3L212.1 95.7L195.5 105.3Z" fill="#D1D3D4"/>
<path d="M230.3 123.3L212.1 133.8V115.8L230.3 105.3V123.3Z" fill="#3F51B5"/>
<path d="M212.1 134.6C212 134.6 211.8 134.6 211.7 134.5C211.5 134.4 211.3 134.1 211.3 133.8V115.8C211.3 115.5 211.5 115.2 211.7 115.1L229.9 104.6C230.1 104.5 230.5 104.5 230.7 104.6C230.9 104.7 231.1 105 231.1 105.3V123.3C231.1 123.6 230.9 123.8 230.7 124L212.5 134.5C212.4 134.6 212.2 134.6 212.1 134.6ZM212.9 116.3V132.4L229.5 122.8V106.7L212.9 116.3Z" fill="#D1D3D4"/>
<path d="M212.1 133.8L193.9 123.3V105.3L212.1 115.8V133.8Z" fill="#3F51B5"/>
<path d="M212.1 134.6C212 134.6 211.8 134.6 211.7 134.5L193.5 124C193.3 123.9 193.1 123.6 193.1 123.3V105.3C193.1 104.9 193.5 104.5 193.9 104.5C194 104.5 194.2 104.5 194.3 104.6L212.5 115.1C212.7 115.2 212.9 115.5 212.9 115.8V133.8C212.9 134.1 212.7 134.3 212.5 134.5C212.4 134.6 212.2 134.6 212.1 134.6ZM194.7 122.8L211.3 132.4V116.3L194.7 106.7V122.8Z" fill="#D1D3D4"/>
<path d="M261.9 129.4H261.7C260.4 129.4 259.3 128.8 258.4 127.9C257.5 127 257.1 125.8 257.1 124.5C257.1 123.2 257.7 122.1 258.6 121.2C259.5 120.3 260.7 119.9 262 119.9C263.3 119.9 264.4 120.5 265.3 121.4C266.2 122.3 266.6 123.5 266.6 124.8C266.6 127.4 264.5 129.4 261.9 129.4ZM261.9 121.5C260.2 121.5 258.8 122.8 258.8 124.5C258.7 126.2 260.1 127.7 261.8 127.7C263.5 127.8 265 126.4 265 124.7C265.1 123 263.7 121.5 262 121.5H261.9Z" fill="#231F20"/>
<path d="M289.6 142.7C291.4 142.7 293.1 142.4 295.2 142.3C297.1 142.2 299.6 141.6 299.7 139.7C299.8 138.1 297.9 136.7 298.3 135.1C298.5 134.7 298.7 134.3 299 134C304.9 126.6 304 115.8 296.8 109.6C297.3 109.7 297.9 109.4 298 108.8V108.7C298 108.1 297.8 107.6 297.4 107.1C296 105.5 294.2 104.3 292.2 103.7C285.8 101.5 278.9 101.3 272.3 103C267.3 104.3 261.2 108 261.7 114C261.9 116.2 263.5 118.3 265.6 118.5C266.5 124.9 269.7 129.4 273.8 134.2C276.5 137.5 280 140 284 141.6C285.8 142.3 287.7 142.7 289.6 142.7Z" fill="white"/>
<path d="M289.4 143.5C287.5 143.5 285.6 143.2 283.8 142.5C279.7 140.9 276.1 138.2 273.3 134.8C269.7 130.6 266.1 125.9 265 119.2C262.7 118.5 261.1 116.4 261 114.1C260.5 108 266.3 103.7 272.2 102.2C278.9 100.4 286 100.6 292.5 102.9C294.7 103.6 296.6 104.8 298.1 106.6C298.6 107.2 298.9 108 298.8 108.7C298.7 109.1 298.6 109.5 298.3 109.8C305 116.5 305.5 127.1 299.7 134.4C299.5 134.7 299.3 134.9 299.1 135.3C298.9 135.8 299.3 136.4 299.7 137.1C300.2 137.9 300.5 138.8 300.5 139.7C300.4 141.7 298.4 142.9 295.2 143.1C294.3 143.1 293.5 143.2 292.8 143.3C291.7 143.4 290.7 143.5 289.6 143.5H289.4ZM281.6 102.7C278.6 102.7 275.6 103.1 272.7 103.8C268.8 104.8 262.2 108.1 262.7 114C262.8 115.7 264.1 117.6 265.9 117.8C266.3 117.8 266.6 118.1 266.6 118.5C267.4 124.4 270.1 128.6 274.6 133.8C277.2 137 280.6 139.5 284.5 141C286.1 141.6 287.8 142 289.6 141.9H289.7C290.7 141.9 291.7 141.8 292.8 141.7C293.6 141.6 294.4 141.6 295.3 141.5C295.9 141.5 298.9 141.2 299 139.6C298.9 139 298.7 138.4 298.4 137.9C297.3 136.6 297.3 134.7 298.5 133.5C304.2 126.4 303.3 116.1 296.5 110.1C296.2 109.8 296.1 109.3 296.4 109C296.6 108.7 297 108.6 297.3 108.8C297.3 108.8 297.4 108.7 297.4 108.6C297.4 108.2 297.3 107.9 297 107.6C295.7 106.1 294 105 292.1 104.4C288.7 103.2 285.1 102.6 281.6 102.7Z" fill="#231F20"/>
<path d="M263.7 127.8C263.7 127.8 258.9 135.2 259.9 136.7C260.9 138.2 264.3 137.2 264.3 137.2" fill="white"/>
<path d="M262 138.3C260.9 138.4 259.9 138 259.2 137.1C258.1 135.4 261.1 130.2 263 127.3C263.2 126.9 263.7 126.8 264.1 127.1C264.5 127.3 264.6 127.8 264.3 128.2C262 131.7 260.2 135.5 260.5 136.2C261 136.9 263.1 136.6 264 136.3C264.4 136.2 264.9 136.5 265 136.9C265.1 137.3 264.9 137.7 264.5 137.8C263.7 138.1 262.8 138.3 262 138.3Z" fill="#231F20"/>
<path d="M264.7 118C261.6 120.5 262.5 125.9 262.6 129.4C262.7 134.3 262.8 139.2 263.1 144C263.3 147.1 271.3 147.1 272.7 146.2L271.5 158.4L288.3 152L287.6 141.9C287.6 141.9 282.1 142 279 135.7C275.9 129.4 276.2 115.7 276.2 115.7C276.2 115.7 267.7 115.6 264.7 118Z" fill="white"/>
<path d="M271.5 159.3C271.3 159.3 271.2 159.2 271 159.1C270.8 158.9 270.7 158.7 270.7 158.4L271.8 147.4C269.3 147.8 266.6 147.6 264.2 146.6C263.1 146.2 262.4 145.2 262.3 144.1C262 139.2 261.8 134.3 261.8 129.4C261.8 128.8 261.8 128.2 261.7 127.5C261.5 124.1 261.3 119.8 264.2 117.4C267.4 114.8 275.9 114.7 276.2 114.8C276.4 114.8 276.6 114.9 276.8 115C277 115.2 277 115.4 277 115.6C277 115.7 276.7 129.2 279.7 135.2C282.6 141 287.5 141 287.6 141C288 141 288.4 141.3 288.4 141.7L289.1 151.8C289.1 152.1 288.9 152.5 288.6 152.6L271.8 159.1C271.7 159.3 271.6 159.3 271.5 159.3ZM272.7 145.4C272.8 145.4 273 145.4 273.1 145.5C273.4 145.7 273.5 146 273.5 146.3L272.4 157.2L287.5 151.3L286.9 142.5C285.2 142.3 281 141.2 278.3 135.9C275.5 130.3 275.4 119.5 275.4 116.3C272.7 116.4 267.3 116.9 265.2 118.6C263 120.5 263.1 124.3 263.3 127.4C263.3 128.1 263.4 128.7 263.4 129.3C263.5 134.2 263.6 139.1 263.9 143.9C263.9 144.3 264.3 144.7 264.9 145.1C267.2 146.2 271.5 146 272.3 145.5C272.4 145.5 272.6 145.4 272.7 145.4Z" fill="#231F20"/>
<path d="M263.2 140.4C263.2 140.4 267 142.7 269 138.8L263.2 140.4Z" fill="white"/>
<path d="M265.7 141.9C264.7 141.9 263.7 141.6 262.8 141.1C262.4 140.9 262.3 140.4 262.5 140C262.7 139.6 263.2 139.5 263.6 139.7C264.4 140.2 265.4 140.4 266.4 140.2C267.2 139.9 267.9 139.3 268.3 138.4C268.5 138 269 137.8 269.4 138.1C269.8 138.3 270 138.8 269.8 139.2C269.3 140.4 268.2 141.4 266.9 141.8C266.5 141.8 266.1 141.9 265.7 141.9Z" fill="#231F20"/>
<path d="M283.8 131.4C283.4 131.4 283.1 131.1 283 130.8C282.9 130.2 282.7 129.7 282.5 129.1C279.8 128.7 260.3 125.6 258 125.2C257.6 125.1 257.3 124.7 257.4 124.3C257.5 123.9 257.9 123.6 258.3 123.6C266.7 124.9 282.6 127.4 283.1 127.5C283.5 127.5 284.1 127.6 284.7 130.3C284.8 130.7 284.6 131.2 284.2 131.3C284.2 131.3 284.2 131.3 284.1 131.3C283.9 131.5 283.8 131.5 283.8 131.4Z" fill="#231F20"/>
<path d="M273.1 130.9C273.2 129.7 273.7 128.5 274.5 127.5C275 126.7 275.6 125.9 276.3 125.3C277 124.7 278 124.4 278.9 124.5C279.7 124.7 280.4 125.3 280.8 126C281.2 126.7 281.4 127.6 281.4 128.4C281.6 132.1 279.8 135.7 276.6 137.7L276.9 137.4" fill="white"/>
<path d="M276.6 138.5C276.2 138.5 275.8 138.1 275.8 137.7C275.8 137.5 275.9 137.3 276 137.2L276.3 136.9C276.4 136.8 276.6 136.7 276.8 136.6C279.3 134.7 280.8 131.6 280.6 128.4C280.6 127.7 280.4 127 280.1 126.3C279.8 125.7 279.3 125.3 278.7 125.2C278 125.1 277.3 125.3 276.7 125.8C276.1 126.4 275.5 127.1 275.1 127.8C274.4 128.6 274 129.7 273.9 130.7C273.9 131.1 273.5 131.5 273.1 131.5C272.7 131.5 272.3 131.1 272.3 130.7C272.4 129.3 272.9 128 273.8 126.9C274.3 126 275 125.2 275.7 124.5C276.6 123.7 277.8 123.3 279 123.5C280.1 123.7 281 124.4 281.5 125.4C281.9 126.3 282.2 127.2 282.2 128.2C282.4 132.3 280.4 136.1 277 138.3C276.9 138.5 276.7 138.5 276.6 138.5Z" fill="#231F20"/>
<path d="M265.965 123.636C266.014 122.643 265.742 121.822 265.355 121.803C264.969 121.784 264.616 122.573 264.566 123.566C264.517 124.559 264.79 125.379 265.176 125.399C265.562 125.418 265.915 124.629 265.965 123.636Z" fill="#231F20"/>
<path d="M291.8 155L290.3 149.6L268.8 150.9L266.5 158.9C275.1 160.3 283.9 158.9 291.8 155Z" fill="white"/>
<path d="M272.5 160.2C270.4 160.2 268.3 160 266.3 159.7C266.1 159.7 265.9 159.5 265.8 159.3C265.7 159.1 265.7 158.9 265.7 158.7L268 150.7C268.1 150.4 268.4 150.1 268.7 150.1L290.2 148.8C290.6 148.8 290.9 149 291 149.4L292.5 154.8C292.6 155.2 292.4 155.6 292.1 155.7C286 158.7 279.3 160.2 272.5 160.2ZM267.4 158.3C275.4 159.3 283.5 158 290.8 154.5L289.7 150.4L269.4 151.7L267.4 158.3Z" fill="#231F20"/>
<path d="M213.5 186.9C213.5 186.9 206.9 178.4 206.3 176.6C205.7 174.8 205.7 171.2 204.3 168.7C202.9 166.2 199.4 164.1 197.8 167.6C197.8 167.6 196.8 161.9 193 165.2C189.2 168.5 188.5 172.3 189.6 176.6C190.7 180.9 207.4 202.7 207.4 202.7" fill="white"/>
<path d="M207.5 203.5C207.3 203.5 207 203.4 206.9 203.2C206.2 202.3 190.1 181.2 189 176.8C187.7 171.8 188.9 167.8 192.6 164.6C193.8 163.5 195 163.2 196.1 163.5C197.1 163.9 197.9 164.8 198.2 165.8C198.7 165.3 199.5 165 200.2 165C202.2 164.9 204.2 166.6 205.2 168.4C206.1 170.2 206.6 172.2 206.8 174.3C206.9 175 207 175.8 207.2 176.5C207.6 177.7 211.7 183.3 214.2 186.5C214.5 186.8 214.4 187.4 214.1 187.6C213.7 187.9 213.2 187.8 213 187.5C211.9 186.1 206.2 178.8 205.7 176.9C205.5 176.1 205.3 175.3 205.2 174.5C205 172.7 204.5 170.9 203.8 169.2C203 167.7 201.5 166.6 200.3 166.6C199.6 166.6 199.1 167.1 198.7 168C198.6 168.3 198.2 168.5 197.9 168.5C197.6 168.5 197.3 168.2 197.2 167.9C197.1 167.3 196.6 165.5 195.6 165.1C195 164.9 194.2 165.4 193.7 165.9C190.4 168.7 189.5 172.1 190.6 176.5C191.5 179.9 203.6 196.3 208.2 202.4C208.5 202.8 208.4 203.3 208.1 203.5C207.9 203.5 207.7 203.5 207.5 203.5Z" fill="#231F20"/>
<path d="M357.1 207.6C357.1 207.6 359 211.8 360.1 214.9C361.2 218 361.3 223.9 361.3 223.9C362.1 223 363.3 222.8 364.2 222C364.3 223.3 364.6 224.6 365.1 225.8C365.6 227 366.7 227.9 368 228.2C368.7 228.2 369.4 228.1 370 227.9C372.4 227.2 376.4 225.8 376.9 223C377 221.9 376.8 220.8 376.3 219.8C374.6 215.5 366.6 204.3 365.3 202.5" fill="white"/>
<path d="M368.4 229H368C366.4 228.7 365.1 227.7 364.4 226.2C364 225.3 363.7 224.4 363.6 223.4L363.3 223.6C362.8 223.8 362.4 224.1 362 224.5C361.8 224.7 361.4 224.8 361.1 224.7C360.8 224.6 360.6 224.3 360.6 224C360.6 223.9 360.4 218.2 359.4 215.2C358.4 212.2 356.5 208 356.5 208C356.3 207.6 356.4 207.1 356.8 206.9C357.2 206.7 357.7 206.8 357.9 207.2V207.3C358 207.5 359.9 211.6 360.9 214.7C361.6 217.2 362 219.8 362.1 222.4L362.6 222.2C363 222 363.4 221.8 363.7 221.5C363.9 221.3 364.2 221.2 364.5 221.3C364.8 221.4 365 221.7 365 222C365.1 223.2 365.3 224.4 365.8 225.6C366.2 226.6 367.1 227.3 368.1 227.5C368.7 227.5 369.3 227.4 369.8 227.2C372.5 226.4 375.8 225.1 376.2 222.9C376.3 221.9 376.1 221 375.7 220.1C374.1 216.2 367.2 206.2 364.8 203C364.5 202.6 364.6 202.1 365 201.9C365.4 201.6 365.8 201.7 366.1 202.1C366.2 202.2 375.2 214.8 377.2 219.5C377.8 220.6 378 221.9 377.8 223.2C377.1 226.7 372.3 228.1 370.3 228.8C369.7 228.9 369 229 368.4 229Z" fill="#231F20"/>
<path d="M252.1 310C252.1 310 254.8 322.1 249.8 324.3C244.8 326.5 217.3 307.7 218.8 303C220.3 298.3 229 296 237.4 301.6C242.1 304.7 247 307.5 252.1 310Z" fill="white"/>
<path d="M248.9 325.3C243.3 325.3 229.6 316.2 223.3 310.6C217.3 305.2 217.9 303.4 218 302.7C218.8 300.5 220.6 298.8 222.8 298.2C227.2 296.6 232.9 297.6 237.8 300.9C242.4 304 247.3 306.8 252.3 309.3C252.5 309.4 252.7 309.6 252.8 309.9C253.1 311.2 255.5 322.8 250.1 325.1C249.7 325.2 249.3 325.3 248.9 325.3ZM227.3 299.1C226 299.1 224.7 299.3 223.4 299.7C221.7 300.2 220.2 301.5 219.6 303.2C219.4 303.7 220.2 305.7 224.4 309.3C232.9 316.9 246.8 324.7 249.5 323.5C252.9 322 252.1 314 251.4 310.5C246.4 308 241.6 305.3 237 302.2C234.2 300.3 230.8 299.2 227.3 299.1Z" fill="#231F20"/>
<path d="M300.4 250.7C300.4 250.7 270 261.3 246.5 258.8L252.4 309.9C252.4 309.9 243.9 313.7 233.4 302.1C233.4 302.1 219.5 239.8 225.2 236.3C230.9 232.8 286 232.3 286 232.3L300.4 250.7Z" fill="#231F20"/>
<path d="M248.7 311.4C245.1 311.4 239.3 309.9 232.8 302.7C232.7 302.6 232.6 302.5 232.6 302.3C230.2 291.8 218.9 239.2 224.8 235.7C230.7 232.2 283.7 231.6 286 231.6C286.2 231.6 286.5 231.7 286.6 231.9L301 250.2C301.2 250.4 301.2 250.7 301.1 250.9C301 251.1 300.8 251.3 300.6 251.4C300.3 251.5 270.6 261.7 247.4 259.6L253.2 309.7C253.2 310 253.1 310.4 252.7 310.5C251.5 311.2 250.1 311.4 248.7 311.4ZM234.1 301.8C242.6 311.2 249.5 310 251.5 309.4L245.7 258.9C245.6 258.5 245.9 258.1 246.4 258C246.5 258 246.5 258 246.6 258C267.2 260.2 293.5 252.1 299 250.3L285.6 233.2C270.1 233.3 230.1 234.3 225.6 237.1C222 239.2 228.4 276.1 234.1 301.8Z" fill="#231F20"/>
<path d="M316.8 240.5C316.8 240.5 315.6 288.5 317.2 289.2C318.8 289.9 365.4 323.6 365.4 323.6L367.1 339.3C367.1 339.3 302 311.4 298.6 302.7C295.2 294 282.1 243.1 282.1 243.1L316.8 240.5Z" fill="#231F20"/>
<path d="M367.1 340.1C367 340.1 366.9 340.1 366.8 340C364.1 338.9 301.4 311.8 297.9 303C294.5 294.4 281.9 245.4 281.4 243.3C281.3 242.9 281.6 242.4 282 242.3H282.1L316.8 239.7C317.2 239.7 317.6 240 317.7 240.5C317.7 240.5 317.7 240.5 317.7 240.6C317.2 257.9 316.9 285.9 317.8 288.6C321.7 290.9 361.3 319.6 365.9 323C366.1 323.1 366.2 323.3 366.2 323.5L367.9 339.2C367.9 339.5 367.8 339.8 367.6 339.9C367.4 340 367.3 340.1 367.1 340.1ZM283.1 243.8C284.9 250.7 296.2 294.5 299.3 302.4C302 309.1 347.3 329.9 366.1 338L364.6 324.1C346.1 310.7 318.4 290.7 316.9 290C316.3 289.8 314.8 289.1 316 241.4L283.1 243.8Z" fill="#231F20"/>
<path d="M249.2 170.4C249.2 170.4 251 159.8 281.6 154.3C289.9 152.8 298.1 153.5 303.8 155.5C304.9 160.2 314.8 228.8 319.2 244.9C319.2 244.9 282.2 258.5 263.7 236C263.7 236 251.9 175.4 249.2 170.4Z" fill="#FBBF24"/>
<path d="M296 153.6C296 153.6 326.9 160.6 334.5 165.2C342.1 169.8 371.6 201.7 371.6 201.7L352 212.8C352 212.8 333.5 190.5 328.1 187.3C322.7 184.1 298.4 186.7 298.4 186.7L296 153.6Z" fill="#FBBF24"/>
<path d="M249.2 170.4C249.2 170.4 231.6 202.5 228.6 200.8C225.6 199.1 213 179.9 213 179.9L199 195.8C199 195.8 210.5 231.8 227.4 227.7C244.3 223.6 270.1 193.7 270.1 193.7L249.2 170.4Z" fill="#FBBF24"/>
<path d="M245.5 218.2C245.2 218.2 245 218.1 244.8 217.8C244.6 217.4 244.7 216.9 245 216.7C259 207.9 269.3 193.3 269.4 193.2C269.7 192.8 270.2 192.7 270.5 193C270.9 193.3 271 193.8 270.7 194.1C270.6 194.2 260.2 209.1 245.9 218.1C245.8 218.2 245.7 218.2 245.5 218.2Z" fill="#231F20"/>
<path d="M316 231C315.6 231 315.3 230.7 315.2 230.4C313.3 220.9 306.2 173.5 306.2 173C306.1 172.6 306.4 172.1 306.8 172.1C307.2 172.1 307.7 172.3 307.7 172.7V172.8C307.8 173.3 314.8 220.7 316.7 230.1C316.8 230.5 316.5 231 316.1 231C316.2 231 316.1 231 316 231Z" fill="#231F20"/>
<path d="M357.1 332.7C353.6 321.3 357.4 316 361.5 315.8C365.6 315.6 368.2 314.9 371.4 326.1C374.6 337.3 375 355 368.5 355.9C362 356.8 360.6 344.1 357.1 332.7Z" fill="white"/>
<path d="M367.9 356.8C362.7 356.8 360.7 349.1 358.4 340.3C357.8 337.9 357.1 335.4 356.4 333C354.4 326.5 354.5 321 356.8 317.8C357.9 316.2 359.6 315.2 361.5 315H362C366.5 314.7 369.2 315.1 372.3 325.9C375 335.3 375.6 349 372.2 354.3C371.5 355.6 370.2 356.5 368.7 356.7C368.4 356.8 368.2 356.8 367.9 356.8ZM363.4 316.5C363 316.5 362.5 316.5 362 316.6H361.5C360.1 316.7 358.8 317.5 358 318.7C356.9 320.3 355.3 324.3 357.8 332.5C358.6 334.9 359.2 337.4 359.8 339.9C362 348.4 364 355.8 368.3 355.1C369.3 354.9 370.1 354.3 370.6 353.4C373.7 348.5 373.1 335.2 370.5 326.4C368.1 317.6 366.2 316.5 363.4 316.5Z" fill="#231F20"/>
</svg>
