<svg width="321" height="253" viewBox="0 0 321 253" fill="none" xmlns="http://www.w3.org/2000/svg">
<path d="M160.813 36.7704C162.483 28.6604 155.495 21.0189 145.206 19.7027C134.916 18.3865 125.22 23.894 123.55 32.004C121.881 40.114 128.868 47.7555 139.158 49.0717C149.448 50.3879 159.143 44.8804 160.813 36.7704Z" fill="white"/>
<path d="M142.203 49.6386C131.482 49.6386 122.815 42.8076 122.815 34.3574C122.815 25.9072 131.482 19.0762 142.203 19.0762C152.924 19.0762 161.591 25.9072 161.591 34.3574C161.591 42.8076 152.924 49.6386 142.203 49.6386ZM142.203 19.9364C132.124 19.9364 123.906 26.4132 123.906 34.408C123.906 42.4028 132.124 48.8796 142.267 48.8796C152.411 48.8796 160.564 42.4028 160.628 34.4586C160.564 26.4132 152.347 19.9364 142.203 19.9364Z" fill="#D1D3D4"/>
<path d="M142.203 34.8127H142.01C141.818 34.7621 141.689 34.6103 141.689 34.4079V24.6421C141.689 24.4397 141.946 24.2373 142.203 24.2373C142.46 24.2373 142.717 24.4397 142.717 24.6421V33.4465L147.596 29.9045C147.788 29.7527 148.109 29.7527 148.302 29.9045C148.495 30.0563 148.495 30.3093 148.302 30.4611L148.238 30.5117L142.46 34.6609C142.46 34.7115 142.331 34.7621 142.203 34.8127Z" fill="#D1D3D4"/>
<path d="M304.95 194.355H15.408C15.1512 194.355 14.8944 194.203 14.8944 193.95C14.8944 193.697 15.087 193.545 15.408 193.545H304.95C305.207 193.545 305.464 193.697 305.464 193.95C305.464 194.203 305.207 194.355 304.95 194.355Z" fill="#241F20"/>
<path d="M214.043 108.891L230.863 208.32H282.48L265.724 108.891H214.043Z" fill="white"/>
<path d="M282.48 208.725H230.863C230.606 208.725 230.414 208.573 230.414 208.421L213.658 108.942C213.658 108.841 213.658 108.739 213.786 108.638C213.85 108.537 214.043 108.486 214.171 108.486H265.852C266.109 108.486 266.302 108.638 266.302 108.79L283.058 208.27C283.058 208.371 283.058 208.472 282.929 208.573C282.737 208.674 282.608 208.725 282.48 208.725ZM231.248 207.966H281.966L265.339 109.245H214.621L231.248 207.966Z" fill="#241F20"/>
<path d="M202.808 108.891L219.564 208.32H271.245L254.489 108.891H202.808Z" fill="#241F20"/>
<path d="M256.286 108.891L238.182 216.062H52.0662L70.1064 108.891H256.286Z" fill="white"/>
<path d="M238.182 216.416H52.0662C51.9378 216.416 51.8094 216.366 51.681 216.315C51.6168 216.214 51.5526 216.113 51.5526 216.012L69.5928 108.841C69.5928 108.638 69.8496 108.537 70.0422 108.537H256.222C256.351 108.537 256.479 108.588 256.607 108.689C256.672 108.79 256.736 108.891 256.736 108.993L238.631 216.163C238.631 216.315 238.439 216.416 238.182 216.416ZM52.5798 215.657H237.797L255.773 109.246H70.5558L52.5798 215.657Z" fill="#241F20"/>
<path d="M251.857 108.891L233.816 216.062H47.6364L65.7408 108.891H251.857Z" fill="white"/>
<path d="M233.816 216.416H47.6364C47.508 216.416 47.3796 216.366 47.2512 216.315C47.187 216.214 47.1228 216.113 47.1228 216.012L65.163 108.841C65.163 108.638 65.4198 108.537 65.6124 108.537H251.792C251.921 108.537 252.049 108.588 252.178 108.689C252.242 108.79 252.306 108.891 252.306 108.993L234.202 216.163C234.266 216.315 234.073 216.416 233.816 216.416ZM48.2142 215.657H233.367L251.343 109.246H66.126L48.2142 215.657Z" fill="#241F20"/>
<path d="M243.19 161.009H57.0096C56.7528 161.009 56.496 160.858 56.496 160.605C56.496 160.352 56.6886 160.2 57.0096 160.2H243.19C243.446 160.2 243.703 160.352 243.703 160.605C243.703 160.858 243.446 161.009 243.19 161.009Z" fill="#241F20"/>
<path d="M240.878 174.621H54.6984C54.4416 174.621 54.1848 174.469 54.1848 174.216C54.1848 173.963 54.3774 173.811 54.6984 173.811H240.878C241.135 173.811 241.392 173.963 241.392 174.216C241.392 174.469 241.135 174.621 240.878 174.621Z" fill="#241F20"/>
<path d="M238.567 188.181H52.3873C52.1305 188.181 51.8737 188.029 51.8737 187.776C51.8737 187.523 52.0663 187.372 52.3873 187.372H238.567C238.824 187.372 239.081 187.523 239.081 187.776C239.081 188.029 238.824 188.181 238.567 188.181Z" fill="#241F20"/>
<path d="M236.256 201.792H50.1402C49.8834 201.792 49.6266 201.641 49.6266 201.388C49.6266 201.135 49.8192 200.983 50.1402 200.983H236.256C236.513 200.983 236.77 201.135 236.77 201.388C236.77 201.641 236.513 201.792 236.256 201.792Z" fill="#241F20"/>
<path d="M211.411 216.416H211.346C211.09 216.365 210.897 216.214 210.961 216.011L223.095 143.957C223.095 143.754 223.352 143.603 223.609 143.603C223.865 143.603 224.058 143.805 224.058 144.007V144.058L211.924 216.112C211.86 216.315 211.667 216.416 211.411 216.416Z" fill="#241F20"/>
<path d="M183.612 216.416H183.548C183.291 216.365 183.098 216.214 183.163 216.011L195.296 143.957C195.296 143.754 195.553 143.603 195.81 143.603C196.067 143.603 196.259 143.805 196.259 144.007V144.058L184.126 216.112C184.061 216.315 183.869 216.416 183.612 216.416Z" fill="#241F20"/>
<path d="M155.813 216.416H155.749C155.492 216.366 155.3 216.214 155.364 216.011L167.498 143.957C167.562 143.755 167.819 143.603 168.076 143.653C168.332 143.704 168.461 143.856 168.461 144.058L156.327 216.113C156.263 216.315 156.07 216.416 155.813 216.416Z" fill="#241F20"/>
<path d="M128.015 216.416H127.951C127.694 216.365 127.501 216.214 127.565 216.011L139.699 143.957C139.699 143.754 139.956 143.603 140.213 143.603C140.47 143.603 140.662 143.805 140.662 144.007V144.058L128.528 216.112C128.464 216.315 128.207 216.416 128.015 216.416Z" fill="#241F20"/>
<path d="M100.152 216.416H100.088C99.831 216.365 99.6384 216.214 99.7026 216.011L111.836 143.957C111.836 143.754 112.093 143.603 112.35 143.603C112.607 143.603 112.799 143.805 112.799 144.007V144.058L100.666 216.112C100.601 216.315 100.409 216.467 100.152 216.416Z" fill="#241F20"/>
<path d="M72.3534 216.416C72.0324 216.366 71.8398 216.214 71.904 216.011L84.0378 143.957C84.102 143.755 84.3588 143.603 84.6156 143.653C84.8724 143.704 85.0008 143.856 85.0008 144.058L72.867 216.113C72.8028 216.315 72.6102 216.416 72.3534 216.416Z" fill="#241F20"/>
<path d="M59.8344 143.957H245.95L250.701 116.026H64.2L59.8344 143.957Z" fill="#FBBF24"/>
<path d="M245.95 144.362H59.7702C59.5134 144.362 59.3208 144.21 59.3208 144.008V143.957L63.7506 115.975C63.7506 115.773 64.0074 115.621 64.2 115.621H250.701C250.829 115.621 250.958 115.672 251.086 115.722C251.15 115.823 251.215 115.925 251.215 116.026L246.464 144.008C246.4 144.21 246.207 144.362 245.95 144.362ZM60.348 143.603H245.565L250.123 116.38H64.6494L60.348 143.603Z" fill="#241F20"/>
<path d="M141.497 171.382C141.304 171.382 141.176 171.281 141.047 171.18C140.919 170.977 140.983 170.775 141.24 170.674L157.739 163.742C157.996 163.64 158.253 163.691 158.381 163.893C158.51 164.096 158.446 164.298 158.189 164.399C158.189 164.399 158.189 164.399 158.125 164.399L141.625 171.332C141.625 171.382 141.561 171.382 141.497 171.382Z" fill="#241F20"/>
<path d="M157.804 171.382C157.739 171.382 157.611 171.382 157.547 171.331L141.047 163.59C140.855 163.488 140.791 163.286 140.855 163.084C140.983 162.932 141.304 162.831 141.497 162.932L157.996 170.674C158.253 170.775 158.317 171.028 158.125 171.18C158.06 171.331 157.932 171.382 157.804 171.382Z" fill="#241F20"/>
<path d="M85.4501 184.892C85.2575 184.892 85.1291 184.842 85.0649 184.69C84.9365 184.487 85.0007 184.285 85.2575 184.184L100.922 176.948C101.179 176.847 101.436 176.897 101.564 177.1C101.693 177.302 101.629 177.505 101.372 177.606L85.7069 184.842C85.5785 184.892 85.5143 184.892 85.4501 184.892Z" fill="#241F20"/>
<path d="M99.6383 184.892C99.5742 184.892 99.4458 184.892 99.3816 184.842L85.0007 178.112C84.8081 178.011 84.6798 177.758 84.8082 177.606C84.9366 177.454 85.1934 177.403 85.4502 177.454L99.8952 184.184C100.152 184.285 100.216 184.538 100.024 184.69C99.9594 184.842 99.8309 184.892 99.6383 184.892Z" fill="#241F20"/>
<path d="M277.665 208.725C277.408 208.725 277.216 208.573 277.216 208.421L265.21 137.227C265.146 137.025 265.339 136.822 265.595 136.822C265.852 136.822 266.109 136.923 266.109 137.126L278.114 208.32C278.179 208.522 277.986 208.725 277.729 208.725C277.729 208.725 277.729 208.725 277.665 208.725Z" fill="#241F20"/>
<path d="M269.768 185.55C269.512 185.55 269.319 185.398 269.319 185.196L258.341 119.922C258.277 119.719 258.469 119.517 258.726 119.466C258.983 119.416 259.24 119.568 259.304 119.77C259.304 119.77 259.304 119.821 259.304 119.871L270.282 185.145C270.346 185.348 270.154 185.55 269.897 185.55H269.768Z" fill="#241F20"/>
<path d="M69.4643 161.667C74.0867 159.845 76.9757 156.101 77.0399 152.053V135.304H27.9911V152.053C28.0553 156.101 30.9443 159.845 35.5667 161.667C39.3545 163.235 42.7571 165.361 45.5177 167.992C50.2685 172.546 50.2685 179.124 45.5177 183.678C42.7571 186.258 39.4187 188.434 35.5667 189.952C30.9443 191.774 28.0553 195.518 27.9911 199.566V216.315H77.0399V199.617C76.9757 195.569 74.0867 191.824 69.4643 190.003C65.6765 188.434 62.2739 186.309 59.5775 183.678C54.8267 179.124 54.8267 172.546 59.5775 167.992C62.2739 165.411 65.6765 163.235 69.4643 161.667Z" fill="white"/>
<path d="M77.0399 216.719H27.9911C27.7343 216.719 27.4775 216.568 27.4775 216.315V199.566C27.4775 195.366 30.4949 191.521 35.3099 189.598C39.0977 188.08 42.3719 185.955 45.0683 183.374C49.6907 178.972 49.6907 172.596 45.0683 168.194C42.3719 165.613 39.0335 163.539 35.3099 161.97C30.5591 160.047 27.5417 156.202 27.4775 152.002V135.253C27.4775 135.051 27.6701 134.899 27.9269 134.849H77.0399C77.2967 134.849 77.4893 135 77.5535 135.203V151.951C77.5535 156.151 74.5361 159.997 69.7211 161.92C65.9333 163.438 62.6591 165.563 59.9627 168.143C55.3403 172.546 55.3403 178.921 59.9627 183.323C62.6591 185.904 65.9975 188.029 69.7211 189.547C74.4719 191.47 77.4893 195.316 77.5535 199.515V216.264C77.4893 216.517 77.2967 216.719 77.0399 216.719ZM28.5047 215.96H76.5905V199.617C76.5905 195.67 73.7657 192.077 69.2717 190.306C65.4197 188.738 61.9529 186.562 59.1923 183.931C54.2489 179.225 54.2489 172.444 59.1923 167.789C61.9529 165.158 65.4197 162.982 69.2717 161.414C73.7015 159.643 76.5263 156.05 76.5905 152.103V135.759H28.4405V152.103C28.4405 156.05 31.2653 159.643 35.7593 161.414C39.6113 162.982 43.0781 165.158 45.8387 167.789C50.7821 172.495 50.7821 179.275 45.8387 183.931C43.0781 186.562 39.6113 188.738 35.7593 190.306C31.3295 192.077 28.5047 195.67 28.4405 199.617L28.5047 215.96Z" fill="#241F20"/>
<path d="M32.1 207.409V207.46C31.8432 207.865 31.6506 208.269 31.458 208.725C31.458 208.775 31.458 208.775 31.3938 208.826C31.0086 209.686 30.7518 210.597 30.495 211.508C30.495 211.558 30.4308 211.66 30.4308 211.71C30.3666 212.115 30.3023 212.57 30.2381 212.975V213.228C30.1739 213.684 30.174 214.139 30.174 214.594H74.8571C74.8571 214.139 74.8571 213.684 74.7929 213.228V213.076C74.0867 206.6 68.8223 200.932 61.1826 198.402C57.0737 197.036 54.0563 194.051 53.8638 190.509C53.8638 190.256 53.8638 190.003 53.8638 189.75V176.594C53.6069 173.052 55.0193 169.611 57.9083 166.879C60.7973 164.096 64.4567 161.819 68.5013 160.149C69.8495 159.592 71.0693 158.884 72.0323 157.973C60.0911 157.315 45.4535 154.33 30.174 146.082V152.103C30.2382 155.544 32.6778 158.681 36.5298 160.199C40.5744 161.869 44.2338 164.146 47.1227 166.929C49.9475 169.662 51.4241 173.102 51.1673 176.644V189.902V190.104C51.0389 193.747 48.2141 196.986 43.9128 198.352C38.6484 200.022 34.4111 203.311 32.1 207.409Z" fill="#241F20"/>
<path d="M81.3413 129.435H23.6897V137.278H81.3413V129.435Z" fill="white"/>
<path d="M81.3413 137.682H23.6897C23.4329 137.682 23.1761 137.531 23.1761 137.278V129.435C23.1761 129.232 23.3687 129.08 23.6255 129.03H81.2771C81.534 129.03 81.7266 129.182 81.7908 129.384V137.227C81.7908 137.48 81.5981 137.682 81.3413 137.682ZM24.2033 136.923H80.8919V129.839H24.1391L24.2033 136.923Z" fill="#D1D3D4"/>
<path d="M81.5981 214.645H23.9465V222.488H81.5981V214.645Z" fill="white"/>
<path d="M81.5982 222.893H23.9466C23.6898 222.893 23.433 222.741 23.433 222.488V214.645C23.433 214.443 23.6256 214.24 23.9466 214.24H81.5982C81.855 214.24 82.1118 214.392 82.1118 214.645V222.488C82.0476 222.741 81.855 222.893 81.5982 222.893ZM24.396 222.134H81.0846V215.05H24.396V222.134Z" fill="#D1D3D4"/>
<path d="M102.399 45.1855H64.0073V89.0051H102.399V45.1855Z" fill="white"/>
<path d="M102.399 89.41H64.0074C63.7506 89.41 63.4938 89.2582 63.4938 89.0052V45.1856C63.4938 44.9832 63.6864 44.7808 64.0074 44.7808H102.399C102.656 44.7808 102.913 44.9326 102.913 45.1856V89.0052C102.848 89.2076 102.656 89.41 102.399 89.41ZM64.521 88.651H101.95V45.5398H64.521V88.651Z" fill="#D1D3D4"/>
<path d="M100.473 45.1855H62.0813V89.0051H100.473V45.1855Z" fill="white"/>
<path d="M100.473 89.41H62.0813C61.8245 89.41 61.6319 89.2582 61.5677 89.0052V45.1856C61.5677 44.9832 61.7603 44.8314 62.0813 44.7808H100.473C100.73 44.7808 100.922 44.9326 100.987 45.1856V89.0052C100.922 89.2076 100.73 89.41 100.473 89.41ZM62.5949 88.651H100.024V45.5398H62.5949V88.651Z" fill="#D1D3D4"/>
<path d="M95.7222 49.9419H66.8964V84.2993H95.7222V49.9419Z" fill="white"/>
<path d="M95.7221 84.6535H66.8963C66.6395 84.6535 66.4469 84.5017 66.3827 84.2487V49.9419C66.3827 49.7395 66.5753 49.5877 66.8963 49.5371H95.7221C95.9789 49.5371 96.1715 49.6889 96.2357 49.9419V84.2993C96.1715 84.5017 95.9789 84.6535 95.7221 84.6535ZM67.3457 83.8945H95.2085V50.2961H67.3457V83.8945Z" fill="#D1D3D4"/>
<path d="M86.6699 56.874H77.0399V78.4802H86.6699V56.874Z" fill="#FBBF24"/>
<path d="M95.7221 50.2964C95.4653 50.2964 95.2727 50.1446 95.2085 49.9422C95.2085 49.841 95.2727 49.7398 95.3369 49.6892L100.088 44.9328C100.28 44.781 100.537 44.7304 100.794 44.8822C100.986 45.034 101.051 45.2364 100.858 45.4388L96.1073 50.1952C95.9789 50.2458 95.8505 50.2964 95.7221 50.2964Z" fill="#D1D3D4"/>
<path d="M66.8963 50.2962C66.7679 50.2962 66.6395 50.2456 66.5111 50.1444L61.7603 45.388C61.5677 45.2362 61.6319 44.9832 61.8245 44.8314C62.0171 44.6796 62.3381 44.7302 62.5307 44.882L67.2815 49.6384C67.4741 49.7902 67.4099 50.0432 67.2173 50.1444C67.0889 50.2962 66.9605 50.2962 66.8963 50.2962Z" fill="#D1D3D4"/>
<path d="M62.0813 89.41C61.9529 89.41 61.8887 89.3594 61.7603 89.3088C61.5677 89.157 61.5035 88.9546 61.6961 88.7522L66.4469 83.9958C66.6395 83.844 66.8963 83.7934 67.1531 83.9452C67.3457 84.097 67.4099 84.2994 67.2173 84.5018L62.4665 89.2582C62.4023 89.3594 62.2097 89.41 62.0813 89.41Z" fill="#D1D3D4"/>
<path d="M100.473 89.41C100.345 89.41 100.216 89.3594 100.088 89.2582L95.337 84.5018C95.1444 84.35 95.2086 84.097 95.4012 83.9452C95.5938 83.7934 95.9148 83.844 96.1074 83.9958L100.858 88.7522C101.051 88.904 100.987 89.157 100.794 89.3088C100.666 89.3594 100.601 89.41 100.473 89.41Z" fill="#D1D3D4"/>
<path d="M189.197 88.8534C189.197 88.8534 155.813 87.5884 146.312 93.458C136.81 99.3276 141.368 108.891 141.368 108.891L195.104 108.79L199.855 87.3354L189.197 88.8534Z" fill="#241F20"/>
<path d="M194.719 103.376L194.333 103.325L192.985 103.173C191.316 102.971 189.647 102.768 187.978 102.515C182.456 101.706 177.064 100.694 171.671 99.4795L169.681 99.0241C167.241 98.4675 164.994 97.9109 162.811 97.5061C160.436 97.0001 157.932 96.7471 155.492 96.6459C153.823 96.5953 152.154 96.6965 150.549 96.9495C150.228 97.0001 149.907 97.0507 149.586 97.1519L149.201 97.2531C148.944 97.3037 148.687 97.1519 148.623 96.9495C148.559 96.7471 148.751 96.5447 149.008 96.4941L149.329 96.4435C149.65 96.3423 150.035 96.2917 150.356 96.2411C152.026 95.9881 153.759 95.8869 155.492 95.9375C158.06 96.0387 160.564 96.3423 163.004 96.7977C165.187 97.2025 167.498 97.7591 169.937 98.3157L171.928 98.7711C177.256 99.9855 182.649 100.997 188.106 101.807C189.775 102.06 191.38 102.262 193.114 102.465L194.462 102.617C194.975 102.667 195.104 102.718 195.232 102.87L194.847 103.072L194.719 103.376Z" fill="white"/>
<path d="M163.903 97.5568C163.774 97.5568 163.646 97.5062 163.517 97.4556C163.453 97.405 163.453 97.3544 163.389 97.3038C163.196 97.1014 162.94 96.899 162.683 96.6966C161.977 96.14 161.142 95.6846 160.243 95.3304C159.344 94.9762 158.381 94.6726 157.418 94.5208C157.162 94.4702 156.969 94.2678 157.033 94.0654C157.097 93.863 157.354 93.7112 157.611 93.7618C158.702 93.9642 159.73 94.2172 160.693 94.622C161.656 95.0268 162.554 95.5328 163.389 96.14C164.352 96.899 164.352 97.1014 164.352 97.2026C164.352 97.3038 164.288 97.405 164.224 97.5062C164.095 97.5568 163.967 97.5568 163.903 97.5568Z" fill="white"/>
<path d="M190.867 147.347L191.059 158.479L184.639 169.712C183.676 174.165 188.234 173.71 189.262 173.862C189.839 173.963 190.417 173.811 190.867 173.507C193.499 171.483 203.257 162.325 203.129 161.363C203 160.2 203.707 148.41 203.707 148.41L190.867 147.347Z" fill="#241F20"/>
<path d="M199.855 87.3352C199.855 87.3352 185.41 108.84 185.217 112.585C185.024 116.329 185.217 150.939 185.217 150.939H207.559C208.136 150.939 211.475 135.355 210.833 131.762C210.191 128.169 207.751 108.891 207.751 108.891H220.591C220.591 108.891 224.122 105.905 223.994 102.161C223.93 100.086 222.196 95.836 220.463 93.559C219.371 92.1422 212.309 84.5522 212.309 84.5522L199.855 87.3352Z" fill="#241F20"/>
<path d="M194.205 96.0895C193.755 95.2293 193.37 94.3185 193.049 93.4077C192.664 92.4969 192.279 91.5861 192.086 90.6753" fill="white"/>
<path d="M194.141 96.3929C193.884 96.3929 193.756 96.0387 192.728 93.5087C191.573 90.5739 191.573 90.5739 191.958 90.4727L192.086 90.7257H192.407C192.407 90.9281 192.921 92.1931 193.37 93.3569C193.82 94.5207 194.333 95.7857 194.462 95.9375L194.205 96.0387L194.269 96.3423C194.269 96.3423 194.205 96.3929 194.141 96.3929Z" fill="#241F20"/>
<path d="M202.679 32.1816C209.549 38.7596 203.193 45.1858 212.566 50.6506C212.566 50.6506 210.319 53.8384 207.494 54.4962L205.44 53.1806L205.568 54.648C205.568 54.648 187.721 61.0236 180.274 56.9756L179.311 55.2552L177.898 56.4696L173.533 53.383C175.459 52.4216 176.55 50.7012 176.486 48.9302C176.357 45.9954 172.377 34.5598 182.97 29.601C189.775 26.4132 194.719 30.1576 194.719 30.1576C194.719 30.1576 199.148 28.7914 202.679 32.1816Z" fill="white"/>
<path d="M187.079 58.5947C184.382 58.5947 181.879 58.1899 180.017 57.1779C179.953 57.1273 179.888 57.0767 179.824 57.0261L179.182 55.8117L178.283 56.5707C178.219 56.6213 178.091 56.6719 177.962 56.6719C177.834 56.6719 177.706 56.6213 177.641 56.5707L173.276 53.4841C173.147 53.3829 173.083 53.2817 173.147 53.1805C173.147 53.0793 173.276 52.9781 173.404 52.8769C175.138 51.9661 176.229 50.4481 176.165 48.7783C176.165 48.3735 176.036 47.7157 175.908 47.0073C175.138 42.6051 173.597 33.4465 182.906 29.0949C186.565 27.3745 189.711 27.6275 191.701 28.1841C192.921 28.4877 194.012 28.9937 194.975 29.6009C196.067 29.3985 199.919 28.8419 203.129 31.8779C206.339 34.9645 206.724 37.9499 207.109 40.8847C207.559 44.2243 208.008 47.4121 212.887 50.2963C213.08 50.3975 213.144 50.6505 213.016 50.8023C212.951 50.9541 210.64 54.1419 207.623 54.7997C207.494 54.8503 207.302 54.7997 207.173 54.7491L205.954 53.9901L206.018 54.5467C206.018 54.6985 205.889 54.8503 205.761 54.9009C205.183 55.1033 195.232 58.5947 187.079 58.5947ZM180.659 56.6213C187.271 60.0621 202.615 55.1033 205.055 54.2937L204.926 53.1299C204.926 52.9781 204.991 52.8263 205.183 52.7757C205.376 52.7251 205.568 52.7251 205.697 52.8263L207.559 54.0407C209.613 53.4841 211.346 51.5107 211.924 50.7517C206.981 47.7157 206.531 44.3255 206.082 41.0365C205.697 38.2535 205.312 35.3187 202.294 32.4345C199.02 29.2973 194.975 30.4105 194.975 30.4105C194.847 30.4611 194.654 30.4611 194.526 30.3599C194.333 30.2081 189.711 26.8685 183.355 29.8539C174.56 33.9019 176.036 42.7063 176.807 46.9567C176.935 47.7663 177.064 48.3735 177.064 48.8289C177.128 50.5999 176.165 52.2697 174.367 53.3323L177.898 55.8623L178.99 54.9009C179.118 54.7997 179.246 54.7491 179.439 54.7997C179.632 54.7997 179.76 54.9009 179.824 55.0021L180.659 56.6213Z" fill="#241F20"/>
<path d="M178.54 53.8384C178.54 53.8384 170.258 58.0382 155.3 75.4952C159.537 76.659 163.453 78.3288 167.048 80.454C170.9 76.7096 182.649 69.3726 182.649 69.3726L178.54 53.8384Z" fill="#FBBF24"/>
<path d="M196.131 51.106C196.131 51.106 209.998 50.1952 217.766 54.9516C221.875 60.8212 219.436 67.9052 218.601 71.4472C217.766 74.9892 209.806 87.3356 209.806 87.3356C209.806 87.3356 198.956 89.1066 191.958 89.2078C187.528 89.2584 183.163 89.1572 178.733 88.7524C178.733 88.7524 179.439 86.526 179.439 78.4806C179.439 72.6616 172.891 71.7508 176.293 65.78C178.669 62.0862 179.439 57.8864 178.54 53.8384C183.098 51.2578 189.583 50.9036 196.131 51.106Z" fill="#FBBF24"/>
<path d="M201.459 56.014C197.672 59.2524 189.775 60.821 185.281 62.5414L184.575 55.1538C184.447 54.243 184.511 53.4334 185.538 53.0286C188.812 51.8142 196.131 51.3588 200.368 52.5226C201.781 52.9274 202.487 54.1924 201.973 55.3056C201.909 55.5586 201.716 55.8116 201.459 56.014Z" fill="#241F20"/>
<path d="M187.271 51.5613L187.592 57.6839C187.592 57.6839 188.427 58.8477 193.627 57.9369C198.506 57.0767 199.02 54.6479 199.02 54.6479C198.763 53.6359 198.506 50.8529 198.314 48.4747C198.057 45.7423 197.479 41.2389 196.259 41.2895C193.563 43.7183 193.563 37.8993 193.178 36.7355C188.363 37.5957 186.95 37.6463 185.024 37.5957C184.768 36.5331 184.639 35.4705 184.575 34.4585C184.511 35.0657 183.869 37.1403 183.676 37.6463C182.713 37.8993 181.622 38.0005 180.595 37.9499C180.402 39.4173 180.851 47.2097 181.75 50.0939C182.456 52.2191 187.271 51.5613 187.271 51.5613Z" fill="white"/>
<path d="M190.225 58.6451C187.913 58.6451 187.336 58.0379 187.207 57.8355C187.143 57.7849 187.143 57.7343 187.143 57.6837L186.822 51.9659C185.474 52.0671 181.943 52.1683 181.365 50.0937C180.466 47.1083 180.017 39.2653 180.209 37.8485C180.209 37.6461 180.466 37.4943 180.659 37.4943C181.558 37.5449 182.456 37.4943 183.291 37.2919L183.355 37.0895C183.612 36.3811 184.061 34.8631 184.126 34.3571C184.19 34.1547 184.382 34.0029 184.639 34.0029C184.896 34.0029 185.089 34.2053 185.089 34.4077C185.153 35.3185 185.217 36.2799 185.41 37.1907C187.015 37.2413 188.491 37.1907 193.049 36.3305C193.306 36.2799 193.563 36.3811 193.627 36.5835C193.756 37.0389 193.82 37.4943 193.884 37.9497C194.012 38.9617 194.398 41.2387 195.04 41.4411C195.168 41.4917 195.425 41.3905 195.874 40.9857C195.938 40.9351 196.067 40.8845 196.195 40.8845C196.452 40.8845 196.645 40.9351 196.837 41.0869C197.929 41.8459 198.442 45.4891 198.763 48.4239C199.084 51.7129 199.277 53.7875 199.469 54.5465C199.534 54.7489 199.148 55.4067 199.02 55.6091C198.378 56.5199 196.901 57.6837 193.756 58.2403C192.6 58.5439 191.38 58.6451 190.225 58.6451ZM188.106 57.5319C188.363 57.6837 189.583 58.2909 193.563 57.5825C197.672 56.8741 198.442 54.9513 198.571 54.6477C198.378 53.7369 198.121 51.7129 197.864 48.5251C197.479 43.9711 196.773 42.2001 196.388 41.7953C196.003 42.1495 195.425 42.3519 194.783 42.2507C193.563 41.9471 193.242 40.2773 192.921 38.1521C192.857 37.7979 192.857 37.4943 192.793 37.2413C188.427 38.0003 186.95 38.1015 185.024 38.0003C184.832 38.0003 184.639 37.8991 184.575 37.7473C184.511 37.4943 184.447 37.2919 184.382 37.0389C184.382 37.1401 184.318 37.2413 184.318 37.3425L184.19 37.6967C184.19 37.7979 184.061 37.8991 183.933 37.9497C183.034 38.2027 182.071 38.3039 181.108 38.3039C181.044 40.3279 181.493 47.3107 182.328 49.9419C182.906 51.7635 187.207 51.1563 187.271 51.1563C187.4 51.1563 187.528 51.1563 187.657 51.2575C187.785 51.3081 187.849 51.4093 187.849 51.5611L188.106 57.5319Z" fill="#241F20"/>
<path d="M190.867 52.9779C191.316 52.4213 191.637 51.8647 191.894 51.2575C191.958 51.0551 191.894 50.8527 191.637 50.8021C191.509 50.7515 191.38 50.7515 191.252 50.8021C189.968 51.2069 188.684 51.4093 187.336 51.4093L187.464 54.6983C188.876 54.4959 190.032 53.8381 190.867 52.9779Z" fill="#241F20"/>
<path d="M187.143 55.002L186.95 51.1564H187.271C188.555 51.1564 189.904 50.9034 191.123 50.5492C191.38 50.448 191.765 50.4986 191.958 50.6504C192.215 50.8022 192.279 51.1058 192.151 51.3082C191.894 51.9154 191.509 52.5226 191.059 53.0792C190.225 54.0406 188.941 54.6984 187.464 54.9514L187.143 55.002ZM187.657 51.6624L187.785 54.3948C188.941 54.1418 189.904 53.5852 190.61 52.8262C191.059 52.3202 191.38 51.7636 191.637 51.1564C191.637 51.1058 191.637 51.0552 191.573 51.0046C191.509 50.954 191.444 50.954 191.38 51.0046C190.16 51.4094 188.941 51.6118 187.657 51.6624Z" fill="#241F20"/>
<path d="M195.296 41.8967C196.259 41.7449 196.259 39.5185 196.837 39.3667C198.121 39.0631 199.534 39.5184 200.111 40.4798C200.561 41.7448 200.368 43.0605 199.534 44.1737C198.956 44.9327 197.993 45.4386 196.901 45.4892" fill="white"/>
<path d="M196.966 45.8434C196.709 45.8434 196.516 45.6916 196.452 45.4892C196.452 45.2868 196.645 45.0844 196.901 45.0844C197.864 45.0338 198.699 44.629 199.148 43.9712C199.855 42.9592 200.047 41.7448 199.662 40.6316C199.213 39.8726 198.057 39.4678 197.03 39.6702C196.901 39.9232 196.773 40.2268 196.709 40.4798C196.452 41.2894 196.195 42.099 195.361 42.2002C195.104 42.2508 194.847 42.1496 194.783 41.9472C194.719 41.7448 194.847 41.5424 195.104 41.4918H195.168C195.425 41.4412 195.682 40.6316 195.746 40.328C195.938 39.6702 196.131 39.1136 196.645 38.9618C198.185 38.557 199.855 39.1642 200.497 40.2774C200.946 41.0364 200.946 43.0098 199.919 44.3254C199.405 45.2362 198.25 45.7928 196.966 45.8434Z" fill="#241F20"/>
<path d="M195.232 91.0801H161.335V93.8125H195.232V91.0801Z" fill="white"/>
<path d="M195.232 94.1667H161.335C161.078 94.1667 160.885 94.0149 160.821 93.7619V91.0801C160.821 90.8777 161.014 90.6753 161.335 90.6753H195.232C195.489 90.6753 195.746 90.8271 195.746 91.0801V93.8125C195.682 94.0149 195.489 94.1667 195.232 94.1667ZM161.784 93.4077H194.719V91.4343H161.784V93.4077Z" fill="#241F20"/>
<path d="M177.192 91.029L168.204 68.0566H121.21L132.445 93.7614H176.55L177.192 91.029Z" fill="white"/>
<path d="M176.55 94.1664H132.445C132.252 94.1664 132.059 94.0652 131.995 93.9134L120.76 68.2086C120.696 68.0062 120.824 67.8038 121.081 67.7026C121.145 67.7026 121.21 67.7026 121.21 67.7026H168.204C168.397 67.7026 168.589 67.8038 168.653 67.9556L177.641 90.928C177.641 90.9786 177.641 91.0292 177.641 91.1304L177.064 93.8628C176.999 94.0146 176.807 94.1664 176.55 94.1664ZM132.766 93.4074H176.165L176.678 91.0798L167.819 68.5122H121.852L132.766 93.4074Z" fill="#241F20"/>
<path d="M176.678 93.7614L166.599 68.0566H119.669L130.904 93.7614H176.678Z" fill="white"/>
<path d="M176.678 94.1664H130.84C130.647 94.1664 130.454 94.0652 130.39 93.9134L119.155 68.2086C119.091 68.0062 119.219 67.8038 119.476 67.7026C119.54 67.7026 119.605 67.7026 119.605 67.7026H166.599C166.792 67.7026 166.984 67.8038 167.048 67.9556L177.128 93.6604C177.192 93.7616 177.128 93.9134 177.064 94.0146C176.999 94.1158 176.871 94.1664 176.678 94.1664ZM131.225 93.4074H176.036L166.278 68.4616H120.311L131.225 93.4074Z" fill="#241F20"/>
<path d="M196.709 83.2877C196.709 83.2877 192.022 81.8709 189.904 81.5167C188.363 81.2131 182.135 82.9334 178.219 84.3502C176.486 84.9574 175.138 85.5141 175.33 86.1719C176.036 88.0441 177.77 89.562 180.081 90.321C182.906 91.1812 192.407 89.056 193.82 89.056C195.232 89.056 200.176 90.0174 200.176 90.0174L196.709 83.2877Z" fill="white"/>
<path d="M182.007 90.8774C181.301 90.8774 180.595 90.8268 179.888 90.6244C177.449 89.8654 175.587 88.1956 174.881 86.2222C174.56 85.2102 176.293 84.603 178.026 83.9452C181.301 82.7814 188.17 80.7068 190.032 81.1116C192.086 81.5164 196.709 82.832 196.901 82.9332C197.03 82.9838 197.094 83.0344 197.158 83.1356L200.625 89.8148C200.689 90.0172 200.625 90.2196 200.368 90.3208C200.304 90.3714 200.176 90.3714 200.111 90.3208C198.763 90.0678 194.975 89.3594 193.884 89.3594C192.921 89.4606 191.958 89.6124 190.995 89.7642C187.528 90.3714 184.318 90.8774 182.007 90.8774ZM189.454 81.8706C187.657 81.8706 182.264 83.338 178.412 84.7042C177.449 85.0584 175.651 85.7162 175.779 86.0704C176.421 87.8414 178.091 89.2582 180.209 89.9666C182.071 90.5232 187.464 89.663 190.674 89.1064C191.701 88.904 192.728 88.7522 193.755 88.651C195.617 88.8028 197.479 89.1064 199.277 89.4606L196.259 83.591C195.361 83.338 191.509 82.2248 189.711 81.8706C189.711 81.8706 189.583 81.8706 189.454 81.8706Z" fill="#241F20"/>
<path d="M217.831 55.0528C217.831 55.0528 239.338 80.6564 232.468 87.3356C225.599 94.0148 199.341 93.104 199.341 93.104L196.067 82.3768C196.067 82.3768 208.265 82.2756 218.023 80.5552C218.023 80.5552 208.457 73.4206 206.531 67.6016C204.605 61.7826 209.934 53.889 217.831 55.0528Z" fill="#FBBF24"/>
<path d="M185.153 120.529C184.896 120.529 184.703 120.377 184.639 120.175C184.639 115.975 184.703 113.445 184.703 112.585C184.832 109.802 189.262 102.87 193.756 95.988C193.884 95.7856 194.141 95.735 194.398 95.8362C194.654 95.9374 194.719 96.1398 194.59 96.3422C191.316 101.352 185.795 109.802 185.666 112.635C185.602 113.496 185.602 116.026 185.602 120.225C185.602 120.377 185.41 120.529 185.153 120.529Z" fill="white"/>
<path d="M207.751 109.245C207.687 109.245 207.623 109.245 207.559 109.195C207.302 109.094 207.238 108.891 207.366 108.689L209.998 104.641C210.127 104.438 210.383 104.388 210.64 104.489C210.897 104.59 210.961 104.793 210.833 104.995L208.201 109.043C208.072 109.195 207.88 109.245 207.751 109.245Z" fill="white"/>
<path d="M179.439 78.8851C179.182 78.8851 178.925 78.7333 178.925 78.4803C178.925 76.1021 177.77 74.5841 176.678 73.1167C175.202 71.0927 173.789 69.2205 175.779 65.5773C176.55 64.3629 177.192 63.0473 177.641 61.7317C177.705 61.5293 177.962 61.4281 178.219 61.4787C178.476 61.5293 178.604 61.7317 178.54 61.9341C178.091 63.3003 177.449 64.6665 176.614 65.9315C174.752 69.1699 176.036 70.7891 177.449 72.7119C178.54 74.1793 179.824 75.8491 179.824 78.4297C179.888 78.7333 179.696 78.8851 179.439 78.8851Z" fill="#241F20"/>
<path d="M202.294 93.5089C200.432 93.5089 199.341 93.4583 199.277 93.4583C199.084 93.4583 198.892 93.3065 198.827 93.1547L195.553 82.4275C195.489 82.3263 195.553 82.1745 195.617 82.1239C195.682 82.0227 195.874 81.9721 196.003 81.9721C196.131 81.9721 207.687 81.8203 217.124 80.3023C215.776 78.8855 211.732 74.5845 207.944 69.9293C207.815 69.7269 207.88 69.5245 208.072 69.4233C208.329 69.3221 208.586 69.3727 208.714 69.5245C213.272 75.1411 218.28 80.3023 218.344 80.3529C218.473 80.4541 218.473 80.6059 218.408 80.7071C218.344 80.8083 218.216 80.9095 218.087 80.9601C209.677 82.4275 199.213 82.6805 196.645 82.7817L199.726 92.8005C202.037 92.8511 215.07 93.0535 224.251 90.7765C224.507 90.7259 224.764 90.8271 224.828 91.0295C224.893 91.2319 224.764 91.4343 224.507 91.4849C217.124 93.2559 207.238 93.5089 202.294 93.5089Z" fill="#241F20"/>
<path d="M185.024 41.9473C185.024 41.9473 183.612 45.2363 184.126 45.8435C184.639 46.4507 186.18 46.3495 186.18 46.3495" fill="white"/>
<path d="M185.795 46.7542C185.217 46.7542 184.126 46.653 183.676 46.0458C183.163 45.3374 184.126 42.858 184.575 41.846C184.639 41.6436 184.96 41.5424 185.217 41.593C185.474 41.6436 185.602 41.8966 185.538 42.0484C184.832 43.7182 184.382 45.3374 184.575 45.641C184.768 45.9446 185.731 45.9952 186.18 45.9446C186.437 45.894 186.694 46.0458 186.758 46.2482C186.822 46.4506 186.629 46.653 186.373 46.7036H186.308C186.052 46.7542 185.923 46.7542 185.795 46.7542Z" fill="#241F20"/>
<path d="M189.133 42.1496C189.523 42.1496 189.839 41.7645 189.839 41.2894C189.839 40.8143 189.523 40.4292 189.133 40.4292C188.743 40.4292 188.427 40.8143 188.427 41.2894C188.427 41.7645 188.743 42.1496 189.133 42.1496Z" fill="#241F20"/>
<path d="M182.585 42.5041C182.975 42.5041 183.291 42.119 183.291 41.6439C183.291 41.1688 182.975 40.7837 182.585 40.7837C182.195 40.7837 181.879 41.1688 181.879 41.6439C181.879 42.119 182.195 42.5041 182.585 42.5041Z" fill="#241F20"/>
<path d="M184.318 48.5759C184.318 48.5759 187.978 49.0819 190.417 47.2603L184.318 48.5759Z" fill="white"/>
<path d="M185.538 49.0313C185.089 49.0313 184.703 49.0313 184.254 48.9301C183.997 48.8795 183.805 48.6771 183.869 48.4747C183.933 48.2723 184.19 48.1205 184.447 48.1711C184.447 48.1711 187.913 48.6265 190.16 46.9567C190.353 46.8049 190.61 46.7543 190.867 46.9061C191.059 47.0579 191.123 47.2603 190.931 47.4627C190.867 47.5133 190.867 47.5133 190.802 47.5639C189.326 48.5253 187.464 49.0819 185.538 49.0313Z" fill="#241F20"/>
<path d="M176.293 87.4872C176.036 87.4872 175.844 87.3354 175.844 87.0824C175.844 86.9306 175.972 86.7788 176.165 86.7282L183.997 84.1476C184.254 84.0464 184.511 84.1476 184.639 84.35C184.768 84.5524 184.639 84.7548 184.382 84.856L176.55 87.386C176.422 87.4872 176.357 87.4872 176.293 87.4872Z" fill="#241F20"/>
<path d="M177.577 89.157C177.32 89.157 177.128 89.0051 177.128 88.7521C177.128 88.6003 177.256 88.4486 177.449 88.398L185.281 85.7668C185.538 85.6656 185.795 85.7667 185.923 85.9691C186.051 86.1715 185.923 86.3739 185.666 86.4751L177.834 89.1064C177.705 89.1064 177.641 89.157 177.577 89.157Z" fill="#241F20"/>
<path d="M179.503 90.5231C179.246 90.5231 179.054 90.3713 179.054 90.1183C179.054 89.9665 179.182 89.8147 179.375 89.7641L185.987 87.7907C186.244 87.6895 186.501 87.7907 186.629 87.9931C186.758 88.1955 186.629 88.3979 186.373 88.4991H186.308L179.696 90.4725C179.632 90.5231 179.567 90.5231 179.503 90.5231Z" fill="#241F20"/>
<path d="M199.213 160.25C199.084 160.25 198.956 160.25 198.827 160.2C198.057 159.997 197.672 159.289 197.287 158.58C196.58 157.315 196.003 156.506 194.654 156.607C193.242 156.658 191.958 157.417 191.637 158.53C191.573 158.732 191.316 158.884 191.059 158.833C190.802 158.783 190.61 158.58 190.674 158.378C191.123 156.961 192.664 155.949 194.526 155.848C196.709 155.646 197.543 157.164 198.185 158.277C198.506 158.833 198.827 159.39 199.148 159.491C199.341 159.542 199.534 159.339 199.983 158.783C200.561 157.973 201.395 156.911 203.257 156.911C203.514 156.911 203.771 157.062 203.771 157.315C203.771 157.568 203.578 157.72 203.257 157.72C201.973 157.72 201.395 158.479 200.818 159.238C200.368 159.643 199.919 160.25 199.213 160.25Z" fill="white"/>
</svg>
