<svg width="384" height="446" viewBox="0 0 384 446" fill="none" xmlns="http://www.w3.org/2000/svg">
<path d="M339.841 303.547C339.841 307.65 338.382 311.397 336.078 314.073C333.774 316.749 330.625 318.444 327.092 318.444H241.46L253.134 288.829H327.169C334.234 288.829 339.918 295.43 339.918 303.636L339.841 303.547Z" fill="#1976D2"/>
<path d="M327.092 318.622H241.46C241.383 318.622 241.306 318.622 241.229 318.533C241.229 318.533 241.229 318.355 241.229 318.265L252.903 288.651C252.903 288.562 253.057 288.473 253.133 288.473H327.169C334.311 288.473 340.148 295.252 340.148 303.547C340.148 311.843 338.765 311.397 336.308 314.251C333.85 317.106 330.625 318.711 327.092 318.711V318.622ZM241.767 318.087H327.092C330.471 318.087 333.62 316.571 335.924 313.805C338.305 311.04 339.61 307.383 339.61 303.547C339.61 295.519 334.004 289.008 327.092 289.008H253.21L241.767 318.087Z" fill="#101720"/>
<path d="M271.181 288.74L259.508 318.355H53.0691C46.0035 318.355 40.3203 311.754 40.3203 303.547C40.3203 295.341 41.7795 295.787 44.0835 293.111C46.3875 290.435 49.5363 288.74 53.0691 288.74H271.181Z" fill="#FBBF24"/>
<path d="M259.507 318.623H53.069C45.9266 318.623 40.0898 311.843 40.0898 303.548C40.0898 295.252 41.4722 295.698 43.9298 292.844C46.3874 289.989 49.613 288.384 53.1458 288.384H271.258C271.335 288.384 271.411 288.384 271.488 288.473C271.488 288.473 271.488 288.651 271.488 288.741L259.815 318.355C259.815 318.444 259.661 318.533 259.584 318.533L259.507 318.623ZM53.069 289.008C49.6898 289.008 46.541 290.525 44.237 293.29C41.8562 296.055 40.5506 299.712 40.5506 303.548C40.5506 311.576 46.157 318.087 53.069 318.087H259.431L270.874 289.008H53.069Z" fill="#101720"/>
<path d="M91.2392 318.355H59.3672L71.0408 288.74H102.836L91.2392 318.355Z" fill="#FFFFFE"/>
<path d="M91.2391 318.622H59.3671C59.2903 318.622 59.2135 318.622 59.1367 318.533C59.0599 318.444 59.1367 318.355 59.1367 318.265L70.7335 288.651C70.7335 288.562 70.8871 288.473 70.9639 288.473H102.836C102.913 288.473 102.989 288.473 103.066 288.562C103.143 288.651 103.066 288.74 103.066 288.829L91.4695 318.444C91.4695 318.533 91.3159 318.622 91.2391 318.622ZM59.7511 318.087H91.0855L102.529 288.919H71.1943L59.7511 318.087Z" fill="#101720"/>
<path d="M141.312 318.355H109.44L121.037 288.74H152.909L141.312 318.355Z" fill="#FFFFFE"/>
<path d="M141.312 318.622H109.44C109.364 318.622 109.287 318.622 109.21 318.533C109.133 318.444 109.21 318.355 109.21 318.265L120.807 288.651C120.807 288.562 120.96 288.473 121.037 288.473H152.909C152.986 288.473 153.063 288.473 153.14 288.562C153.216 288.651 153.14 288.74 153.14 288.829L141.543 318.444C141.543 318.533 141.389 318.622 141.312 318.622ZM109.824 318.087H141.159L152.602 288.919H121.268L109.824 318.087Z" fill="#101720"/>
<path d="M191.386 318.355H159.514L171.11 288.74H202.982L191.386 318.355Z" fill="#FFFFFE"/>
<path d="M191.386 318.622H159.514C159.437 318.622 159.36 318.622 159.283 318.533C159.206 318.444 159.283 318.355 159.283 318.265L170.88 288.651C170.88 288.562 171.034 288.473 171.11 288.473H202.982C203.059 288.473 203.136 288.473 203.213 288.562C203.213 288.562 203.213 288.74 203.213 288.829L191.616 318.444C191.616 318.533 191.462 318.622 191.386 318.622ZM159.821 318.087H191.155L202.598 288.919H171.264L159.821 318.087Z" fill="#101720"/>
<path d="M253.057 288.74L241.383 318.355H209.588L221.185 288.74H253.057Z" fill="#FFFFFE"/>
<path d="M241.383 318.622H209.511C209.434 318.622 209.357 318.622 209.28 318.533C209.28 318.533 209.28 318.355 209.28 318.265L220.954 288.651C220.954 288.562 221.107 288.473 221.184 288.473H253.056C253.133 288.473 253.21 288.473 253.287 288.562C253.287 288.562 253.287 288.74 253.287 288.829L241.613 318.444C241.613 318.533 241.459 318.622 241.383 318.622ZM209.895 318.087H241.229L252.672 289.008H221.338L209.895 318.087Z" fill="#101720"/>
<path d="M82.8292 304.655C83.3467 286.536 71.1197 271.36 55.5194 270.759C39.9191 270.158 26.853 284.359 26.3355 302.479C25.818 320.598 38.045 335.773 53.6453 336.374C69.2456 336.976 82.3117 322.774 82.8292 304.655Z" fill="#FFFFFE"/>
<path d="M54.6051 336.64C38.9379 336.64 26.1123 321.833 26.1123 303.547C26.1123 285.261 38.8611 270.454 54.6051 270.454C70.3491 270.454 83.0979 285.261 83.0979 303.547C83.0979 321.833 70.3491 336.64 54.6051 336.64ZM54.6051 271.078C39.1683 271.078 26.5731 285.707 26.5731 303.636C26.5731 321.566 39.1683 336.194 54.6051 336.194C70.0419 336.194 82.6371 321.566 82.6371 303.636C82.6371 285.707 70.0419 271.078 54.6051 271.078Z" fill="#101720"/>
<path d="M54.6055 320.674C54.6055 320.674 54.5287 320.674 54.4519 320.674L43.2391 310.505C43.1623 310.416 43.0855 310.237 43.2391 310.148C43.3159 310.059 43.4695 309.97 43.5463 310.148L54.6055 320.138L65.6647 310.148C65.7415 310.059 65.8951 310.148 65.9719 310.148C66.0487 310.148 65.9719 310.416 65.9719 310.505L54.7591 320.674C54.7591 320.674 54.6823 320.674 54.6055 320.674Z" fill="#101720"/>
<path d="M54.6054 320.674C54.4518 320.674 54.375 320.585 54.375 320.406V286.688C54.375 286.51 54.4518 286.421 54.6054 286.421C54.759 286.421 54.8358 286.51 54.8358 286.688V320.406C54.8358 320.585 54.759 320.674 54.6054 320.674Z" fill="#101720"/>
<path d="M145.444 176.874L105.425 195.653L113.135 217.818L153.154 199.039L145.444 176.874Z" fill="#1976D2"/>
<path d="M113.126 218.094C113.049 218.094 112.973 218.094 112.896 217.916L105.216 195.794V195.616C105.216 195.616 105.216 195.527 105.369 195.437L145.382 176.616C145.536 176.616 145.613 176.616 145.689 176.795L153.369 198.916V199.095C153.369 199.095 153.369 199.184 153.216 199.273L113.203 218.094C113.203 218.094 113.203 218.094 113.126 218.094ZM105.753 195.794L113.28 217.381L152.909 198.827L145.382 177.241L105.753 195.794Z" fill="#101720"/>
<path d="M115.124 196.954L110.439 183.485L140.699 169.302C143.387 170.64 144.846 171.353 147.534 172.691L157.441 201.235L122.343 217.648L115.124 196.954Z" fill="#FFFFFE"/>
<path d="M122.266 217.916C122.266 217.916 122.266 217.916 122.189 217.916C122.189 217.916 122.113 217.916 122.036 217.737L114.817 197.043L110.132 183.574V183.395C110.132 183.395 110.132 183.306 110.285 183.217L140.545 169.034H140.698L147.533 172.424C147.533 172.424 147.61 172.424 147.687 172.602L157.594 201.146C157.594 201.325 157.594 201.414 157.441 201.503L122.343 217.916C122.343 217.916 122.343 217.916 122.266 217.916ZM115.354 196.865L122.42 217.291L157.057 201.057L147.226 172.87L140.621 169.569L110.669 183.574L115.277 196.775L115.354 196.865Z" fill="#101720"/>
<path d="M90.7783 199.094L108.135 190.888L117.966 199.362L151.297 183.752L164.89 222.732L108.98 248.957L90.7783 199.094Z" fill="#FBBF24"/>
<path d="M108.979 249.225C108.903 249.225 108.826 249.225 108.749 249.046L90.4707 199.184V199.005C90.4707 199.005 90.4707 198.916 90.6243 198.827L107.981 190.71C107.981 190.71 108.135 190.71 108.211 190.71L117.965 199.094L151.219 183.484H151.373C151.373 183.484 151.45 183.484 151.527 183.663L165.043 222.643C165.043 222.822 165.043 222.911 164.89 223L109.056 249.225C109.056 249.225 109.056 249.225 108.979 249.225ZM91.0851 199.184L109.133 248.511L164.583 222.465L151.219 184.02L118.042 199.54C118.042 199.54 117.888 199.54 117.811 199.54L108.058 191.156L91.0083 199.184H91.0851Z" fill="#101720"/>
<path d="M140.621 169.302L142.541 174.743L147.379 172.513L140.621 169.302Z" fill="#1976D2"/>
<path d="M142.541 175.01C142.541 175.01 142.541 175.01 142.464 175.01C142.464 175.01 142.387 175.01 142.311 174.832L140.391 169.301C140.391 169.212 140.391 169.123 140.391 169.034C140.391 169.034 140.544 168.945 140.621 169.034L147.379 172.245C147.456 172.245 147.533 172.423 147.533 172.513C147.533 172.602 147.533 172.691 147.379 172.78L142.541 175.01C142.541 175.01 142.541 175.01 142.464 175.01H142.541ZM141.082 169.747L142.695 174.386L146.765 172.423L141.005 169.658L141.082 169.747Z" fill="#101720"/>
<path d="M117.734 189.639C117.658 189.639 117.581 189.639 117.504 189.461C117.504 189.283 117.504 189.193 117.658 189.104L133.018 181.879C133.171 181.879 133.248 181.879 133.325 182.057C133.325 182.236 133.325 182.325 133.171 182.414L117.811 189.639C117.811 189.639 117.811 189.639 117.734 189.639Z" fill="#101720"/>
<path d="M119.27 194.277C119.194 194.277 119.117 194.277 119.04 194.099C119.04 193.921 119.04 193.831 119.194 193.742L144.922 181.7C145.075 181.7 145.152 181.7 145.229 181.879C145.229 182.057 145.229 182.146 145.075 182.235L119.347 194.277C119.347 194.277 119.347 194.277 119.27 194.277Z" fill="#101720"/>
<path d="M297.831 236.826L261.812 247.441L201.063 212.831C201.063 212.831 191.003 218.718 178.1 220.413C175.489 220.77 173.262 220.324 171.419 219.254C164.123 215.15 162.894 202.038 169.038 192.583C174.26 184.466 184.014 170.372 189.62 162.255C192.231 158.508 193.921 156.1 193.921 156.1L215.271 170.283C215.271 170.283 220.187 166.893 227.943 162.433C227.943 162.433 227.943 162.433 228.02 162.433C231.783 160.292 236.161 157.884 240.923 155.386C255.668 147.983 281.473 159.49 287.003 173.494C289.46 179.827 291.918 193.207 293.838 206.141C293.838 206.23 293.838 206.32 293.838 206.32C296.142 222.019 297.755 236.826 297.755 236.826H297.831Z" fill="#FFFFFE"/>
<path d="M261.812 247.798C261.812 247.798 261.812 247.798 261.735 247.798L201.14 213.277C200.065 213.902 190.234 219.254 178.254 220.859C175.719 221.216 173.415 220.859 171.418 219.7C168.423 218.005 166.273 214.794 165.428 210.512C164.199 204.625 165.428 197.935 168.961 192.583C174.26 184.377 184.09 170.105 189.543 162.255C192.154 158.509 193.844 156.1 193.844 156.1C193.844 156.011 194.074 156.011 194.151 156.1L215.425 170.194C216.193 169.659 220.954 166.447 227.943 162.344C227.943 162.344 227.943 162.344 228.02 162.344C232.244 159.847 236.622 157.527 240.922 155.387C247.758 151.997 257.742 152.354 267.572 156.368C277.095 160.293 284.622 166.893 287.31 173.583C289.383 178.935 291.687 189.907 294.145 206.231C294.145 206.32 294.145 206.409 294.145 206.409C296.372 221.216 297.908 235.399 298.062 236.826C298.062 237.005 298.062 237.094 297.908 237.183L261.889 247.798H261.812ZM201.063 212.653C201.063 212.653 201.063 212.653 201.14 212.653L261.812 247.173L297.524 236.648C297.294 234.685 295.758 220.859 293.607 206.409C293.607 206.409 293.607 206.409 293.607 206.231C291.15 189.907 288.846 178.935 286.772 173.673C281.473 160.203 255.975 148.161 240.999 155.743C236.698 157.884 232.321 160.293 228.097 162.701H228.02C220.417 167.161 215.425 170.551 215.425 170.551C215.425 170.551 215.271 170.551 215.194 170.551L193.998 156.457C193.537 157.081 192.001 159.311 189.85 162.433C184.398 170.283 174.567 184.555 169.268 192.761C165.889 197.935 164.66 204.447 165.812 210.245C166.657 214.348 168.73 217.47 171.572 219.075C173.492 220.146 175.642 220.503 178.1 220.235C190.772 218.629 200.833 212.742 200.986 212.653C200.986 212.653 200.986 212.653 201.063 212.653Z" fill="#101720"/>
<path d="M292.302 197.222C291.534 193.922 290.612 189.818 289.23 184.912C285.313 170.284 274.1 158.866 260.66 155.922C258.74 155.476 256.666 155.298 254.516 155.298C245.991 155.298 237.082 158.331 232.014 160.472C235.009 158.777 238.004 157.171 240.999 155.744C244.071 154.228 247.604 153.425 251.751 153.425C265.959 153.425 282.702 163.058 286.849 173.673C288.538 177.955 290.382 185.804 292.225 197.222H292.302Z" fill="#FBBF24"/>
<path d="M195.611 194.725C195.611 194.725 189.697 201.236 187.7 218.452L192.001 217.025L195.611 194.725Z" fill="#101720"/>
<path d="M187.7 218.719C187.7 218.719 187.623 218.719 187.547 218.719C187.547 218.719 187.47 218.541 187.47 218.452C188.468 209.532 190.619 203.555 192.231 200.076C193.921 196.33 195.38 194.724 195.457 194.635C195.457 194.546 195.611 194.546 195.764 194.635C195.841 194.635 195.918 194.814 195.918 194.903L192.308 217.203C192.308 217.292 192.231 217.381 192.155 217.381L187.854 218.808L187.7 218.719ZM195.303 195.616C193.844 197.668 189.697 204.536 188.007 218.095L191.847 216.846L195.227 195.616H195.303Z" fill="#101720"/>
<path d="M222.413 172.78L208.512 139.865L188.928 144.414L188.237 146.198L189.85 146.644L202.906 177.329L222.413 172.78Z" fill="#1976D2"/>
<path d="M202.906 177.597C202.83 177.597 202.753 177.597 202.676 177.419L189.774 146.823L188.238 146.466C188.238 146.466 188.084 146.466 188.084 146.288C188.084 146.288 188.084 146.11 188.084 146.02L188.775 144.236C188.775 144.236 188.852 144.147 188.929 144.058L208.436 139.509C208.513 139.509 208.666 139.509 208.666 139.687L222.567 172.602C222.567 172.602 222.567 172.78 222.567 172.87C222.567 172.959 222.49 172.959 222.414 173.048L202.906 177.597ZM188.545 146.02L189.927 146.377C189.927 146.377 190.081 146.377 190.081 146.556L202.983 177.062L222.03 172.602L208.359 140.133L189.082 144.682L188.545 146.02Z" fill="#101720"/>
<path d="M221.722 174.564L207.745 141.649L188.237 146.199L202.138 179.113L221.722 174.564Z" fill="#FFFFFE"/>
<path d="M202.138 179.381C202.061 179.381 201.984 179.381 201.908 179.203L188.007 146.288C188.007 146.288 188.007 146.11 188.007 146.021C188.007 145.931 188.084 145.931 188.16 145.842L207.668 141.293C207.744 141.293 207.898 141.293 207.898 141.471L221.799 174.386C221.799 174.386 221.799 174.565 221.799 174.654C221.799 174.654 221.722 174.743 221.645 174.832L202.138 179.381ZM188.621 146.377L202.368 178.846L221.415 174.386L207.744 141.917L188.698 146.377H188.621Z" fill="#101720"/>
<path d="M197.224 152.264L195.918 149.232C195.688 148.607 195.073 148.34 194.536 148.429L193.691 148.607C192.846 148.786 192.462 149.856 192.769 150.748L194.075 153.781C194.305 154.405 194.92 154.673 195.457 154.584L196.302 154.405C197.147 154.227 197.531 153.156 197.224 152.264Z" fill="#FFFFFE"/>
<path d="M195.303 154.851C194.766 154.851 194.228 154.495 193.921 153.87L192.615 150.837C192.385 150.302 192.385 149.767 192.615 149.321C192.846 148.875 193.23 148.518 193.69 148.34L194.535 148.161C195.226 147.983 195.918 148.429 196.148 149.143L197.454 152.175C197.684 152.711 197.684 153.246 197.454 153.692C197.223 154.138 196.839 154.495 196.378 154.673L195.534 154.851C195.457 154.851 195.303 154.851 195.226 154.851H195.303ZM194.842 148.697C194.842 148.697 194.689 148.697 194.612 148.697L193.767 148.875C193.46 148.875 193.153 149.232 192.999 149.499C192.846 149.856 192.846 150.213 192.999 150.57L194.305 153.603C194.535 154.138 194.996 154.405 195.457 154.227L196.302 154.049C196.609 154.049 196.916 153.692 197.07 153.424C197.223 153.067 197.223 152.711 197.07 152.354L195.764 149.321C195.61 148.875 195.226 148.607 194.842 148.607V148.697Z" fill="#101720"/>
<path d="M229.248 173.583C224.948 168.142 220.109 155.387 217.421 153.157C214.733 150.927 211.431 154.049 214.733 161.809C214.733 161.809 200.986 160.739 195.226 158.776C189.466 156.814 188.928 161.006 193.383 164.396C193.383 164.396 192.999 167.964 196.685 170.372C196.685 170.372 196.224 174.297 199.45 176.438C199.45 176.438 198.298 180.541 202.599 183.485C206.9 186.339 213.888 189.639 213.888 189.639L229.172 173.494L229.248 173.583Z" fill="#FF7E6D"/>
<mask id="mask0_173_160" style="mask-type:luminance" maskUnits="userSpaceOnUse" x="190" y="152" width="40" height="38">
<path d="M229.248 173.584C224.948 168.142 220.109 155.387 217.421 153.157C214.733 150.838 211.431 154.049 214.733 161.809C214.733 161.809 200.986 160.739 195.226 158.776C189.466 156.814 188.928 161.006 193.383 164.396C193.383 164.396 192.999 167.964 196.685 170.372C196.685 170.372 196.224 174.297 199.45 176.438C199.45 176.438 198.298 180.541 202.599 183.485C206.9 186.339 213.888 189.729 213.888 189.729L229.172 173.584H229.248Z" fill="white"/>
</mask>
<g mask="url(#mask0_173_160)">
<path d="M212.89 160.738C212.89 160.738 214.273 161.809 215.348 161.809C216.423 161.809 218.19 161.809 217.652 161.006C217.114 160.203 215.271 159.49 214.734 157.17C214.196 154.851 215.194 152.086 215.194 152.086L211.969 153.781L212.89 160.649V160.738Z" fill="#1976D2"/>
<path d="M190.081 157.973C190.081 158.062 190.081 158.24 190.081 158.329C190.388 160.292 193.076 162.343 195.38 163.325C197.838 164.306 202.599 165.465 203.598 166.447C204.519 167.428 204.596 169.033 202.369 168.32C200.142 167.606 196.762 166.268 195.15 165.555C193.537 164.841 192.385 164.038 192.385 164.038C192.385 164.038 194.382 167.695 197.07 169.123C199.758 170.461 203.29 171.799 204.673 172.334C206.055 172.869 206.439 174.564 204.903 174.029C203.367 173.493 198.452 171.442 198.452 171.442L195.841 170.193C195.841 170.193 196.762 173.761 200.218 175.723C203.674 177.686 205.441 178.043 206.362 178.756C207.284 179.47 206.746 180.719 205.748 180.183C204.75 179.559 200.91 177.507 200.91 177.507L198.913 176.169C198.913 176.169 199.22 180.094 202.446 182.057C205.594 184.019 211.892 185.535 216.039 184.733C220.186 183.93 221.799 182.859 221.799 182.859L215.962 189.906L204.442 189.103L199.45 185L186.778 161.987L190.004 158.151L190.081 157.973Z" fill="#1976D2"/>
</g>
<path d="M213.965 189.997C213.965 189.997 213.965 189.997 213.888 189.997C213.888 189.997 206.823 186.696 202.522 183.753C198.682 181.166 199.066 177.509 199.219 176.617C196.455 174.654 196.455 171.354 196.455 170.551C193.152 168.41 193.075 165.288 193.152 164.575C190.925 162.791 189.773 160.65 190.311 159.312C190.848 157.974 192.615 157.706 195.226 158.598C200.371 160.382 211.968 161.364 214.272 161.542C212.352 156.814 212.967 153.96 214.119 152.8C215.04 151.908 216.269 151.998 217.421 152.979C218.803 154.138 220.647 157.796 222.797 162.077C224.871 166.091 227.175 170.73 229.248 173.406C229.325 173.495 229.325 173.673 229.248 173.762L213.965 189.908C213.965 189.908 213.888 189.908 213.811 189.908L213.965 189.997ZM192.691 158.598C191.616 158.598 191.002 159.044 190.771 159.49C190.387 160.472 191.079 162.345 193.536 164.218C193.536 164.218 193.613 164.396 193.613 164.486C193.613 164.664 193.306 167.964 196.839 170.194C196.915 170.194 196.992 170.373 196.992 170.462C196.992 170.64 196.608 174.208 199.603 176.26C199.68 176.26 199.757 176.438 199.68 176.617C199.68 176.795 198.605 180.631 202.675 183.307C206.592 185.983 212.813 188.926 213.811 189.462L228.864 173.584C226.791 170.819 224.487 166.359 222.49 162.345C220.416 158.331 218.496 154.495 217.191 153.425C216.192 152.622 215.194 152.533 214.426 153.246C213.351 154.228 212.89 157.082 214.887 161.81C214.887 161.81 214.887 161.988 214.887 162.077C214.887 162.077 214.733 162.166 214.656 162.166C214.503 162.166 200.832 161.096 195.072 159.134C194.074 158.777 193.229 158.598 192.538 158.598H192.691Z" fill="#101720"/>
<path d="M203.137 168.767C203.137 168.767 197.146 167.161 193.383 164.664C193.306 164.664 193.229 164.396 193.306 164.307C193.383 164.218 193.537 164.128 193.613 164.218C197.377 166.626 203.213 168.232 203.29 168.232C203.444 168.232 203.521 168.41 203.444 168.588C203.444 168.678 203.29 168.767 203.213 168.767H203.137Z" fill="#101720"/>
<path d="M205.44 174.298C205.44 174.298 201.139 172.96 196.685 170.64C196.531 170.64 196.531 170.462 196.608 170.284C196.608 170.105 196.762 170.105 196.915 170.194C201.37 172.514 205.517 173.852 205.594 173.852C205.747 173.852 205.824 174.03 205.747 174.208C205.747 174.298 205.594 174.387 205.517 174.387L205.44 174.298Z" fill="#101720"/>
<path d="M206.515 180.363C206.439 180.363 204.135 179.56 199.527 176.706C199.45 176.706 199.373 176.438 199.45 176.349C199.45 176.26 199.68 176.17 199.757 176.26C204.288 179.114 206.669 179.828 206.669 179.828C206.823 179.828 206.899 180.006 206.823 180.184C206.823 180.274 206.669 180.363 206.592 180.363H206.515Z" fill="#101720"/>
<path d="M217.191 162.077H214.733C214.58 162.077 214.503 161.988 214.503 161.81C214.503 161.631 214.58 161.542 214.733 161.542H217.191C217.345 161.542 217.421 161.631 217.421 161.81C217.421 161.988 217.345 162.077 217.191 162.077Z" fill="#101720"/>
<path d="M194.612 151.462C194.994 151.462 195.303 151.103 195.303 150.659C195.303 150.216 194.994 149.856 194.612 149.856C194.23 149.856 193.921 150.216 193.921 150.659C193.921 151.103 194.23 151.462 194.612 151.462Z" fill="#101720"/>
<path d="M195.303 151.818C195.687 151.818 195.994 152.175 195.994 152.621C195.994 153.067 195.687 153.424 195.303 153.424C194.919 153.424 194.611 153.067 194.611 152.621C194.611 152.175 194.919 151.818 195.303 151.818Z" fill="#101720"/>
<path d="M231.937 300.426L231.322 291.952C231.322 291.952 224.103 294.896 214.964 294.896L215.809 308.187L224.871 307.473L231.86 300.426H231.937Z" fill="#FF7E6E"/>
<path d="M215.808 308.454C215.655 308.454 215.578 308.365 215.578 308.186L214.656 294.895V294.717C214.656 294.717 214.733 294.717 214.81 294.717C223.795 294.717 230.938 291.863 231.015 291.773C231.015 291.773 231.168 291.773 231.245 291.773C231.245 291.773 231.322 291.863 231.322 291.952L231.936 300.426C231.936 300.426 231.936 300.604 231.859 300.693L224.871 307.74C224.871 307.74 224.794 307.74 224.717 307.74L215.655 308.454H215.808ZM215.194 295.163L216.039 307.919L224.794 307.205L231.629 300.337L231.015 292.309C229.632 292.844 223.104 295.074 215.117 295.163H215.194Z" fill="#101720"/>
<path d="M189.85 325.045C191.079 328.613 192.922 330.932 210.432 327.007C227.866 322.993 234.778 322.012 235.93 318.623C236.314 317.641 236.314 315.233 236.083 312.468C235.853 308.721 235.315 304.261 234.931 301.229C234.624 299.088 234.394 297.571 234.394 297.571C230.477 292.665 227.943 302.477 225.024 303.548C223.411 304.083 221.107 302.299 218.957 300.604C217.114 299.177 215.424 297.839 214.349 298.196C212.659 298.731 204.595 305.064 198.605 309.881C198.221 310.238 197.76 310.595 197.376 310.862C196.301 311.754 195.226 312.557 194.458 313.271C189.082 317.641 188.544 321.477 189.773 325.134L189.85 325.045Z" fill="#FFFFFE"/>
<path d="M189.85 325.045C191.079 328.613 192.922 330.932 210.433 327.007C227.866 322.993 234.778 322.012 235.93 318.623C236.314 317.641 236.314 315.233 236.084 312.468C226.023 317.82 194.842 325.669 189.773 325.045H189.85Z" fill="#1976D2"/>
<path d="M198.682 309.881C198.682 309.881 201.293 312.735 208.282 308.454C215.271 304.172 218.957 300.693 218.957 300.693C217.114 299.266 215.425 297.928 214.349 298.285C212.66 298.82 204.596 305.153 198.605 309.97L198.682 309.881Z" fill="#1976D2"/>
<path d="M216.269 314.965C213.505 314.965 210.817 312.825 208.052 308.543C208.052 308.454 208.052 308.275 208.052 308.186C208.129 308.186 208.282 308.186 208.359 308.186C211.277 312.825 214.196 314.876 217.114 314.341C220.724 313.717 235.239 307.829 235.393 307.74C235.546 307.74 235.623 307.74 235.7 307.919C235.7 308.097 235.7 308.186 235.546 308.275C234.932 308.543 220.801 314.252 217.191 314.876C216.884 314.876 216.5 314.876 216.193 314.876L216.269 314.965Z" fill="#101720"/>
<path d="M196.685 329.327C191.616 329.327 190.464 327.543 189.619 325.135C188.16 320.764 189.619 316.928 194.381 313.093C195.226 312.379 196.224 311.576 197.299 310.684C197.683 310.327 198.067 310.06 198.528 309.703C203.597 305.6 212.429 298.553 214.272 297.929C215.347 297.572 217.037 298.91 219.034 300.337C221.107 301.943 223.411 303.727 224.947 303.191C225.946 302.835 226.944 301.407 227.943 299.891C229.248 298.018 230.554 295.966 232.09 295.877C232.935 295.877 233.703 296.323 234.547 297.304C234.547 297.304 234.547 297.304 234.547 297.483C234.547 297.483 234.778 298.91 235.085 301.14C235.469 304.262 236.007 308.722 236.237 312.468C236.467 315.679 236.391 317.731 236.007 318.712C234.931 321.745 229.632 322.994 216.883 325.848C214.887 326.294 212.659 326.74 210.279 327.365C203.827 328.792 199.527 329.416 196.531 329.416L196.685 329.327ZM190.08 325.045C191.309 328.613 193.459 330.665 210.355 326.74C212.736 326.205 214.963 325.67 216.96 325.224C229.555 322.369 234.778 321.21 235.776 318.445C236.007 317.82 236.16 316.304 235.93 312.379C235.699 308.633 235.162 304.173 234.778 301.14C234.547 299.267 234.317 297.929 234.317 297.572C233.626 296.68 232.935 296.323 232.243 296.412C230.861 296.412 229.632 298.375 228.403 300.159C227.328 301.764 226.33 303.281 225.178 303.637C223.488 304.173 221.031 302.389 218.957 300.694C217.191 299.267 215.501 298.018 214.579 298.285C213.274 298.731 207.591 302.924 198.912 309.971C198.528 310.327 198.067 310.595 197.683 310.952C196.608 311.844 195.61 312.647 194.765 313.36C190.157 317.107 188.775 320.675 190.157 324.867L190.08 325.045Z" fill="#101720"/>
<path d="M131.482 313.717L136.167 307.295C136.167 307.295 129.408 303.548 123.034 296.145L115.661 306.135L122.42 313.003L131.559 313.806L131.482 313.717Z" fill="#FF7E6E"/>
<path d="M131.482 313.985L122.343 313.182C122.343 313.182 122.266 313.182 122.189 313.182L115.431 306.313C115.354 306.224 115.354 306.046 115.431 305.957L122.803 295.966C122.803 295.966 122.88 295.877 122.957 295.877H123.111C129.408 303.191 136.09 306.938 136.167 307.027C136.167 307.027 136.243 307.116 136.32 307.205C136.32 307.205 136.32 307.384 136.32 307.473L131.635 313.895C131.635 313.895 131.559 313.985 131.482 313.985ZM122.419 312.647L131.328 313.449L135.706 307.384C134.4 306.581 128.487 302.924 122.957 296.501L115.891 306.046L122.419 312.647Z" fill="#101720"/>
<path d="M87.3989 296.858C86.0933 300.337 86.0165 303.548 100.532 314.877C115.047 326.205 120.5 331.022 123.341 329.684C124.186 329.238 125.645 327.632 127.181 325.581C129.255 322.815 131.559 319.247 133.095 316.75C134.17 314.966 134.938 313.806 134.938 313.806C135.092 307.205 127.489 312.022 124.877 310.327C123.418 309.435 122.881 306.313 122.42 303.37C121.959 300.872 121.575 298.553 120.653 297.929C119.117 296.947 109.748 294.807 102.682 293.379C102.221 293.29 101.684 293.201 101.223 293.112C99.9173 292.844 98.7653 292.577 97.7669 292.398C91.3925 291.149 88.7045 293.379 87.3989 296.858Z" fill="#FFFFFE"/>
<path d="M87.3989 296.858C86.0933 300.337 86.0165 303.548 100.532 314.877C115.047 326.205 120.5 331.022 123.341 329.684C124.186 329.238 125.645 327.632 127.181 325.581C116.967 321.21 90.5477 301.408 87.3989 296.948V296.858Z" fill="#1976D2"/>
<path d="M102.682 293.379C102.682 293.379 102.835 297.482 110.285 300.158C117.734 302.834 122.419 303.369 122.419 303.369C121.958 300.872 121.574 298.553 120.653 297.928C119.117 296.947 109.747 294.806 102.682 293.379Z" fill="#1976D2"/>
<path d="M129.485 322.28C129.485 322.28 129.485 322.28 129.408 322.28C128.871 321.923 115.584 314.519 112.666 312.022C110.131 309.881 109.287 306.045 110.055 300.158C110.055 299.98 110.208 299.891 110.285 299.891C110.439 299.891 110.515 300.069 110.515 300.158C109.747 305.778 110.515 309.524 112.896 311.487C115.815 313.984 129.485 321.655 129.562 321.655C129.639 321.655 129.715 321.923 129.639 322.012C129.639 322.101 129.485 322.191 129.408 322.191L129.485 322.28Z" fill="#101720"/>
<path d="M122.266 330.13C119.578 330.13 115.047 326.562 105.831 319.337C104.141 317.999 102.375 316.571 100.378 315.055C85.9397 303.816 85.7093 300.515 87.1685 296.769C88.7813 292.487 92.1605 291.06 97.7669 292.131C98.7653 292.309 99.9173 292.577 101.223 292.844C101.684 292.933 102.144 293.023 102.682 293.112C108.672 294.361 119.04 296.591 120.73 297.661C121.728 298.285 122.112 300.515 122.573 303.102C122.573 303.281 122.573 303.281 122.573 303.281C123.034 305.957 123.572 309.168 124.954 309.971C125.876 310.506 127.412 310.327 129.024 310.06C131.021 309.792 133.172 309.435 134.324 310.684C134.938 311.309 135.245 312.29 135.168 313.628C135.168 313.628 135.168 313.717 135.168 313.806C135.168 313.806 134.477 315.055 133.325 316.75C131.789 319.247 129.485 322.815 127.335 325.581C125.568 327.989 124.263 329.416 123.418 329.773C123.111 329.951 122.727 330.041 122.266 330.041V330.13ZM87.6293 296.947C86.3237 300.426 86.5541 303.548 100.685 314.609C102.682 316.125 104.448 317.553 106.138 318.891C116.583 327.097 120.96 330.576 123.264 329.416C123.802 329.149 124.877 328.257 127.028 325.402C129.101 322.637 131.405 319.069 132.941 316.571C133.863 315.055 134.554 313.985 134.708 313.717C134.708 312.557 134.477 311.755 134.016 311.219C133.018 310.149 131.021 310.417 129.101 310.773C127.412 311.041 125.799 311.309 124.724 310.595C123.188 309.614 122.65 306.492 122.112 303.459C121.728 301.051 121.344 298.821 120.5 298.285C119.348 297.483 112.82 295.877 102.605 293.736C102.144 293.647 101.607 293.558 101.146 293.469C99.8405 293.201 98.6117 292.933 97.6901 292.755C90.6245 291.328 88.5509 294.539 87.6293 297.037V296.947Z" fill="#101720"/>
<path d="M297.831 236.826L262.195 238.789C262.195 238.789 227.712 187.41 212.89 186.161C198.068 184.912 189.082 195.884 191.386 228.62C191.386 228.62 177.255 222.465 168.883 227.996C160.512 233.526 107.904 288.384 107.904 288.384L139.93 316.482L184.551 269.563L195.379 273.577L197.683 300.604L238.234 297.482L236.698 282.497C236.698 282.497 251.981 293.379 278.17 290.792C298.906 288.741 300.903 267.154 297.831 236.826Z" fill="#FBBF24"/>
<mask id="mask1_173_160" style="mask-type:luminance" maskUnits="userSpaceOnUse" x="107" y="186" width="192" height="131">
<path d="M297.831 236.826L262.195 238.789C262.195 238.789 227.712 187.41 212.89 186.161C198.068 184.912 189.082 195.884 191.386 228.62C191.386 228.62 177.255 222.376 168.883 227.996C160.512 233.526 107.904 288.384 107.904 288.384L139.93 316.482L184.551 269.563L195.379 273.577L197.683 300.604L238.234 297.482L236.698 282.497C236.698 282.497 251.981 293.379 278.17 290.792C298.906 288.741 300.903 267.154 297.831 236.826Z" fill="white"/>
</mask>
<g mask="url(#mask1_173_160)">
<path d="M239.463 287.938L236.851 284.281C236.851 284.281 233.165 246.103 233.088 245.746C233.011 245.389 232.09 241.911 233.626 241.108C235.162 240.305 242.151 256.985 252.135 271.793C262.119 286.6 293.837 284.905 298.983 272.417C304.128 259.929 293.53 240.216 277.479 235.488C261.351 230.761 302.899 229.512 302.899 229.512L311.808 263.765L303.437 289.543L288.154 299.088L272.64 304.172L239.539 287.938H239.463Z" fill="#1976D2"/>
<path d="M262.195 238.878C269.261 248.601 267.955 241.197 268.877 235.667C269.799 230.136 262.195 238.878 262.195 238.878Z" fill="#1976D2"/>
<path d="M192.538 242.803L190.925 224.963L189.773 227.371C189.85 239.859 189.619 250.563 188.467 258.234C187.699 261.178 186.624 264.032 184.551 266.084C184.243 266.352 184.704 266.887 185.011 266.619C186.163 265.549 187.008 264.122 187.699 262.694C186.931 265.906 185.933 268.225 184.627 269.652C180.173 274.38 195.456 275.45 195.456 275.45L192.615 242.803H192.538Z" fill="#1976D2"/>
<path d="M295.45 251.812C294.144 248.065 292.608 244.408 290.765 240.929C290.534 240.483 289.997 240.929 290.227 241.286C291.993 244.765 293.529 248.333 294.835 251.99C294.989 252.436 295.603 252.258 295.45 251.812Z" fill="#1976D2"/>
</g>
<path d="M139.93 316.838C139.93 316.838 139.853 316.838 139.776 316.838L107.751 288.74C107.751 288.74 107.674 288.651 107.674 288.562C107.674 288.473 107.674 288.384 107.674 288.384C108.211 287.848 160.359 233.436 168.653 227.906C173.031 224.962 178.944 225.319 183.168 226.122C186.931 226.836 190.003 227.995 191.002 228.441C189.773 210.423 192 198.024 197.53 191.602C201.139 187.409 206.285 185.536 212.736 186.16C218.957 186.696 229.171 195.794 243.149 213.099C252.979 225.319 261.351 237.54 262.195 238.878L297.677 236.915C297.754 236.915 297.831 236.915 297.907 237.094C297.907 237.094 297.907 237.094 297.907 237.183C299.597 254.131 300.365 272.863 293.146 283.121C289.69 288.027 284.775 290.703 278.016 291.416C275.251 291.684 272.64 291.773 270.106 291.773C251.059 291.773 239.079 284.816 236.775 283.299L238.234 297.75V297.928C238.234 297.928 238.157 298.017 238.08 298.017L197.53 301.139C197.376 301.139 197.299 301.05 197.299 300.872L194.995 274.022L184.397 270.098L139.93 316.928C139.93 316.928 139.853 316.928 139.776 316.928L139.93 316.838ZM108.288 288.384L139.93 316.125L184.397 269.384C184.397 269.384 184.551 269.384 184.627 269.384L195.456 273.398C195.533 273.398 195.61 273.487 195.61 273.666L197.914 300.426L238.003 297.393L236.467 282.675C236.467 282.586 236.467 282.496 236.544 282.407C236.544 282.407 236.698 282.407 236.775 282.407C236.928 282.496 252.288 293.2 278.093 290.614C284.698 289.989 289.613 287.313 292.915 282.496C299.981 272.417 299.29 253.952 297.6 237.183L262.195 239.145C262.195 239.145 262.042 239.145 261.965 239.056C261.658 238.521 227.405 187.766 212.813 186.517C206.439 185.982 201.447 187.766 197.914 191.869C192.384 198.292 190.234 210.69 191.539 228.709C191.539 228.798 191.539 228.887 191.463 228.976C191.463 228.976 191.309 228.976 191.232 228.976C191.079 228.976 177.101 222.911 168.96 228.263C160.973 233.526 111.898 284.637 108.211 288.384H108.288Z" fill="#101720"/>
<path d="M195.379 273.845C195.226 273.845 195.149 273.755 195.149 273.577C192.922 250.207 191.155 228.888 191.155 228.62C191.155 228.442 191.232 228.353 191.386 228.353C191.539 228.353 191.616 228.442 191.616 228.62C191.616 228.799 193.382 250.117 195.61 273.577C195.61 273.755 195.61 273.845 195.379 273.845Z" fill="#101720"/>
<path d="M236.698 282.765C236.545 282.765 236.468 282.675 236.468 282.497C233.473 252.08 232.705 243.338 232.628 243.249C232.628 243.071 232.705 242.981 232.858 242.981C233.012 242.981 233.089 243.071 233.089 243.249C233.089 243.249 233.857 252.08 236.852 282.497C236.852 282.675 236.852 282.765 236.622 282.765H236.698Z" fill="#101720"/>
<path d="M260.659 202.484C260.659 202.484 260.583 202.484 260.506 202.484L229.095 173.762C229.018 173.672 228.941 173.494 229.095 173.405C229.171 173.316 229.325 173.226 229.402 173.405L260.813 202.127C260.89 202.216 260.967 202.395 260.813 202.484C260.813 202.484 260.736 202.573 260.659 202.573V202.484Z" fill="#101720"/>
<path d="M258.816 207.747C258.816 207.747 258.816 207.747 258.74 207.747C258.586 207.747 258.586 207.569 258.586 207.39L270.951 173.94C270.951 173.762 271.104 173.762 271.258 173.762C271.412 173.762 271.412 173.94 271.412 174.119L259.047 207.569C259.047 207.658 258.893 207.747 258.816 207.747Z" fill="#101720"/>
<path d="M262.656 130.679C262.349 135.406 258.97 135.139 258.97 135.139C258.97 135.139 260.813 138.974 259.891 141.115C259.047 143.256 257.818 142.632 257.818 142.632C257.818 142.632 256.896 144.683 254.746 145.397C253.517 145.754 251.827 145.308 250.522 144.772C249.6 144.416 248.909 143.97 248.909 143.97L234.24 139.42L232.32 138.796C232.32 138.796 232.32 138.796 232.243 138.618C231.859 137.726 230.554 134.158 231.783 131.214C231.783 131.214 231.168 129.876 231.015 128.003C230.707 125.684 231.015 122.651 233.319 119.975C237.543 115.158 243.149 114.444 245.223 118.548C245.223 118.548 248.986 115.604 253.44 117.299C257.895 118.904 258.202 125.059 258.202 125.059C258.202 125.059 258.893 124.792 259.815 124.97C261.043 125.148 262.579 126.13 262.733 129.608C262.733 130.054 262.733 130.411 262.733 130.768L262.656 130.679Z" fill="#FBBF24"/>
<path d="M253.901 145.842C252.826 145.842 251.597 145.396 250.599 145.04C249.677 144.683 248.986 144.237 248.986 144.237L232.397 139.152C232.397 139.152 232.244 139.152 232.244 138.974V138.796C231.706 137.814 230.401 134.246 231.629 131.214C231.476 130.857 231.015 129.608 230.861 128.002C230.554 125.772 230.785 122.472 233.165 119.796C235.777 116.852 239.079 115.247 241.767 115.693C243.303 115.96 244.532 116.763 245.3 118.19C246.145 117.566 249.524 115.604 253.517 117.031C257.511 118.458 258.279 123.453 258.433 124.702C258.74 124.702 259.277 124.613 259.815 124.702C261.121 124.88 262.733 125.951 262.887 129.608C262.887 129.965 262.887 130.322 262.887 130.768C262.81 132.373 262.349 133.622 261.505 134.425C260.737 135.228 259.892 135.406 259.354 135.406C259.815 136.476 260.89 139.42 260.122 141.204C259.354 142.988 258.433 142.988 257.972 142.899C257.665 143.434 256.743 145.04 254.823 145.575C254.516 145.664 254.132 145.753 253.748 145.753L253.901 145.842ZM232.551 138.617L249.063 143.702C249.063 143.702 249.754 144.148 250.676 144.504C251.905 145.04 253.517 145.575 254.746 145.129C256.82 144.504 257.665 142.542 257.665 142.542C257.665 142.453 257.818 142.364 257.972 142.453C257.972 142.453 258.97 142.899 259.738 141.026C260.583 139.063 258.817 135.317 258.817 135.317C258.817 135.317 258.817 135.138 258.817 135.049C258.817 135.049 258.97 134.96 259.047 134.96C259.047 134.96 260.276 135.049 261.274 134.068C261.965 133.354 262.349 132.284 262.503 130.857C262.503 130.411 262.503 130.054 262.503 129.697C262.426 127.021 261.505 125.594 259.815 125.326C259.047 125.237 258.356 125.416 258.356 125.416C258.356 125.416 258.202 125.416 258.125 125.416C258.125 125.416 258.049 125.326 258.049 125.237C258.049 125.237 257.665 119.261 253.441 117.744C249.14 116.228 245.453 118.993 245.377 118.993H245.223C245.223 118.993 245.146 118.993 245.069 118.904C244.378 117.477 243.226 116.674 241.69 116.406C239.156 116.05 236.007 117.566 233.473 120.331C231.169 122.918 231.015 125.951 231.245 128.092C231.476 129.876 232.013 131.214 232.013 131.214C232.013 131.214 232.013 131.392 232.013 131.481C230.785 134.425 232.167 137.993 232.474 138.706L232.551 138.617Z" fill="#101720"/>
<path d="M259.047 135.138C259.047 135.138 260.89 138.974 259.968 141.114C259.123 143.255 257.895 142.631 257.895 142.631C257.895 142.631 256.973 144.682 254.823 145.396C253.594 145.753 251.904 145.307 250.599 144.772C249.677 144.415 248.986 143.969 248.986 143.969L234.317 139.42C233.549 139.152 232.858 138.884 232.243 138.617C231.859 137.725 230.554 134.157 231.783 131.213C231.783 131.213 231.168 129.875 231.015 128.002C231.015 128.002 232.627 129.697 235.008 128.805L246.067 134.96L250.445 133.622C253.824 133.8 260.659 133.443 262.579 130.767C262.272 135.495 258.893 135.227 258.893 135.227L259.047 135.138Z" fill="#101720"/>
<path d="M253.901 145.842C252.826 145.842 251.597 145.396 250.599 145.04C249.677 144.683 248.986 144.237 248.986 144.237L234.317 139.688L232.243 138.885C232.243 138.885 232.167 138.885 232.09 138.706C231.629 137.725 230.4 134.157 231.552 131.124C231.399 130.768 230.938 129.519 230.784 127.913C230.784 127.824 230.784 127.735 230.938 127.646C231.015 127.646 231.091 127.646 231.168 127.646C231.168 127.646 232.704 129.251 234.931 128.359H235.085L246.067 134.514L250.368 133.176C254.208 133.444 260.583 132.908 262.349 130.411C262.349 130.321 262.503 130.321 262.579 130.411C262.656 130.411 262.733 130.589 262.733 130.678C262.656 132.284 262.195 133.533 261.351 134.336C260.583 135.138 259.738 135.317 259.2 135.317C259.661 136.387 260.736 139.331 259.968 141.115C259.2 142.899 258.279 142.899 257.818 142.81C257.511 143.345 256.589 144.95 254.669 145.486C254.362 145.575 253.978 145.664 253.594 145.664L253.901 145.842ZM232.474 138.439L234.394 139.242L249.063 143.791C249.063 143.791 249.754 144.237 250.675 144.594C251.904 145.129 253.517 145.664 254.746 145.218C256.819 144.594 257.664 142.631 257.664 142.631C257.664 142.542 257.818 142.453 257.971 142.542C257.971 142.542 258.97 142.988 259.738 141.115C260.583 139.152 258.816 135.406 258.816 135.406C258.816 135.406 258.816 135.228 258.816 135.138C258.816 135.138 258.97 135.049 259.047 135.049C259.047 135.049 260.275 135.138 261.274 134.157C261.888 133.533 262.272 132.73 262.426 131.57C259.968 133.89 253.747 134.157 250.599 133.979L246.221 135.317C246.221 135.317 246.144 135.317 246.067 135.317L235.085 129.251C233.395 129.875 232.09 129.251 231.399 128.716C231.629 130.232 232.09 131.214 232.09 131.214C232.09 131.214 232.09 131.392 232.09 131.481C230.938 134.246 232.09 137.725 232.551 138.617L232.474 138.439Z" fill="#101720"/>
<path d="M252.672 141.472C252.365 141.204 252.135 141.026 252.135 141.026L252.288 140.848C252.288 140.848 252.519 141.026 252.826 141.294L252.672 141.561V141.472Z" fill="#5C2F00"/>
<path d="M249.984 167.072C248.448 167.875 246.912 168.143 245.837 167.429C242.458 165.288 243.456 160.65 243.456 160.65V151.284L250.598 144.326L251.674 143.256L255.437 156.547C256.128 161.007 253.056 165.377 249.984 167.072Z" fill="#FF7E6D"/>
<path d="M249.984 167.072C248.448 167.875 246.912 168.143 245.837 167.429C242.458 165.288 243.456 160.65 243.456 160.65V151.284L250.598 144.326L251.52 145.04C251.52 145.04 249.754 151.195 247.526 155.209C245.76 158.331 248.141 164.039 249.984 167.072Z" fill="#1976D2"/>
<path d="M252.904 147.448C252.904 147.448 248.68 153.692 243.534 154.316V151.283L251.982 144.147L252.904 147.448Z" fill="#101720"/>
<path d="M243.227 154.584V151.105L252.059 143.612L253.211 147.626H252.98C252.366 148.429 248.449 153.87 243.534 154.495H243.303L243.227 154.584ZM243.687 151.462V154.049C248.219 153.246 252.059 148.162 252.596 147.448L251.828 144.683L243.687 151.551V151.462Z" fill="#101720"/>
<path d="M247.45 168.142C246.835 168.142 246.298 167.964 245.76 167.696C242.304 165.466 243.226 160.739 243.226 160.65V151.284V151.105L251.443 143.077C251.443 143.077 251.597 143.077 251.674 143.077C251.674 143.077 251.827 143.077 251.827 143.256L255.591 156.546C256.282 161.006 253.287 165.556 250.061 167.34C249.139 167.875 248.218 168.142 247.373 168.142H247.45ZM243.687 151.462V160.739C243.687 161.006 242.842 165.199 245.991 167.25C246.912 167.875 248.371 167.786 249.831 166.894C252.979 165.11 255.821 160.828 255.13 156.636L251.443 143.791L243.61 151.462H243.687Z" fill="#101720"/>
<path d="M232.704 147.983C233.011 149.054 233.395 149.946 233.856 150.659C236.928 156.279 242.227 155.476 247.296 151.105C250.138 148.697 251.904 145.129 252.672 141.293C253.747 142.185 256.282 143.612 256.973 139.42C257.741 134.871 255.053 131.303 253.056 133.89C253.056 133.89 252.903 134.068 252.826 134.157C252.442 135.138 252.135 136.12 251.904 137.19C251.904 137.458 251.827 137.814 251.674 137.993C251.443 138.439 250.983 138.706 250.522 138.617C250.522 137.904 250.522 137.19 250.522 136.476C250.522 135.495 250.522 134.425 250.522 133.444C248.986 133.265 247.45 132.73 245.991 131.838C244.147 130.678 242.611 129.162 241.152 127.378C241.152 127.378 241.075 127.378 240.999 127.378C236.083 128.894 234.778 125.505 234.778 125.505L234.01 127.467C232.627 131.035 231.783 134.871 231.629 138.796C231.552 141.561 231.783 144.772 232.704 147.805V147.983Z" fill="#FF7E6D"/>
<path d="M241.229 138.171C241.229 138.171 242.228 136.119 244.532 136.476C246.836 136.833 247.143 138.617 247.143 138.617C247.143 138.617 246.144 140.758 243.994 140.49C241.844 140.223 241.152 138.26 241.152 138.26L241.229 138.171Z" fill="#FFFFFE"/>
<mask id="mask2_173_160" style="mask-type:luminance" maskUnits="userSpaceOnUse" x="241" y="136" width="7" height="5">
<path d="M241.229 138.171C241.229 138.171 242.228 136.119 244.532 136.476C246.836 136.833 247.143 138.617 247.143 138.617C247.143 138.617 246.144 140.758 243.994 140.49C241.844 140.223 241.152 138.26 241.152 138.26L241.229 138.171Z" fill="white"/>
</mask>
<g mask="url(#mask2_173_160)">
<path d="M243.303 140.49C244.109 140.49 244.762 139.731 244.762 138.795C244.762 137.859 244.109 137.101 243.303 137.101C242.497 137.101 241.844 137.859 241.844 138.795C241.844 139.731 242.497 140.49 243.303 140.49Z" fill="#101720"/>
</g>
<path d="M237.62 144.504C237.005 144.326 236.545 143.88 236.314 143.255C236.084 142.631 236.238 141.828 236.622 141.382C237.082 140.758 238.081 138.974 238.081 136.833C238.081 136.655 238.157 136.565 238.311 136.565C238.465 136.565 238.542 136.655 238.542 136.833C238.542 139.152 237.543 141.025 236.929 141.739C236.698 142.096 236.622 142.631 236.698 143.077C236.775 143.345 237.005 143.88 237.62 143.969C237.773 143.969 237.85 144.147 237.774 144.326C237.774 144.415 237.62 144.504 237.543 144.504H237.62Z" fill="#101720"/>
<path d="M241.921 146.467C241.614 146.467 241.306 146.377 240.999 146.199C240.922 146.199 240.846 145.931 240.922 145.842C240.922 145.753 241.153 145.664 241.23 145.753C241.69 146.021 242.151 146.021 242.458 145.753C242.842 145.485 243.073 144.861 243.073 144.147C243.073 143.969 243.15 143.88 243.303 143.88C243.457 143.88 243.534 143.969 243.534 144.147C243.534 145.039 243.303 145.842 242.766 146.288C242.535 146.467 242.228 146.556 241.921 146.556V146.467Z" fill="#101720"/>
<path d="M246.99 136.12C246.99 136.12 246.836 136.12 246.836 136.03C246.452 135.317 245.607 134.871 244.532 134.692C243.457 134.603 242.382 134.871 241.767 135.584C241.69 135.674 241.537 135.674 241.46 135.584C241.383 135.495 241.383 135.317 241.46 135.228C242.151 134.425 243.38 133.979 244.609 134.157C245.761 134.246 246.759 134.871 247.22 135.674C247.22 135.763 247.22 135.941 247.22 136.03C247.22 136.03 247.143 136.03 247.066 136.03L246.99 136.12Z" fill="#101720"/>
<path d="M238.004 134.96H237.851C237.851 134.96 236.238 133.087 234.702 134.336C234.625 134.336 234.471 134.336 234.395 134.336C234.395 134.246 234.395 134.068 234.395 133.979C236.315 132.552 238.158 134.692 238.158 134.692C238.235 134.782 238.235 134.96 238.158 135.049C238.158 135.049 238.081 135.049 238.004 135.049V134.96Z" fill="#101720"/>
<path d="M244.532 136.477C244.532 136.477 245.607 136.566 246.375 137.369C247.143 138.171 247.45 138.796 247.681 138.974L247.297 139.42C247.297 139.42 246.068 137.012 244.455 136.566L244.532 136.477Z" fill="#101720"/>
<path d="M238.004 137.726C238.004 137.726 237.466 135.763 235.469 135.674C233.473 135.585 233.012 137.012 233.012 137.012C233.012 137.012 233.549 138.974 235.393 139.064C237.236 139.153 238.081 137.636 238.081 137.636L238.004 137.726Z" fill="#FFFFFE"/>
<mask id="mask3_173_160" style="mask-type:luminance" maskUnits="userSpaceOnUse" x="233" y="135" width="6" height="5">
<path d="M238.004 137.726C238.004 137.726 237.466 135.763 235.469 135.674C233.473 135.585 233.012 137.012 233.012 137.012C233.012 137.012 233.549 138.974 235.393 139.153C237.236 139.242 238.081 137.726 238.081 137.726H238.004Z" fill="white"/>
</mask>
<g mask="url(#mask3_173_160)">
<path d="M235.469 139.063C236.148 139.063 236.698 138.424 236.698 137.636C236.698 136.848 236.148 136.209 235.469 136.209C234.79 136.209 234.24 136.848 234.24 137.636C234.24 138.424 234.79 139.063 235.469 139.063Z" fill="#101720"/>
</g>
<path d="M235.393 135.673C235.393 135.673 234.471 135.584 233.703 136.03C232.935 136.476 232.628 137.1 232.397 137.1L232.628 137.546C232.628 137.546 234.01 135.762 235.393 135.673Z" fill="#101720"/>
<path d="M253.133 138.884C253.133 138.884 253.133 138.884 253.056 138.884C252.903 138.884 252.749 138.617 252.826 138.349C253.364 136.565 253.824 135.673 254.439 135.316C254.746 135.138 255.13 135.138 255.514 135.316C255.668 135.316 255.821 135.673 255.744 135.852C255.744 136.03 255.437 136.208 255.284 136.119C254.976 136.03 254.823 136.119 254.746 136.119C254.362 136.298 253.978 137.1 253.517 138.617C253.517 138.795 253.364 138.884 253.21 138.884H253.133Z" fill="#101720"/>
<path d="M233.856 150.659C236.928 156.279 242.227 155.476 247.296 151.105C250.138 148.697 251.904 145.129 252.672 141.293C253.747 142.185 256.282 143.612 256.973 139.42C257.741 134.871 255.053 131.303 253.056 133.89C253.056 133.89 252.903 134.068 252.826 134.157C252.442 135.138 252.135 136.12 251.904 137.19C251.904 137.458 251.827 137.814 251.674 137.993C251.443 138.439 250.983 138.706 250.522 138.617C250.522 137.904 250.522 137.19 250.522 136.476C250.522 135.495 250.522 134.425 250.522 133.444C248.986 133.265 247.45 132.73 245.99 131.838C244.147 130.678 242.611 129.162 241.152 127.378C241.152 127.378 241.075 127.378 240.998 127.378C243.302 132.016 249.83 134.425 247.526 142.542C244.454 153.781 237.389 151.016 233.779 150.392L233.856 150.659Z" fill="#1976D2"/>
<path d="M253.133 138.082C252.98 138.082 252.979 137.904 252.979 137.726C252.979 137.636 253.824 134.604 255.437 134.871C255.591 134.871 255.667 135.05 255.591 135.139C255.591 135.317 255.437 135.406 255.36 135.317C254.362 135.139 253.594 137.012 253.44 137.815C253.44 137.904 253.287 137.993 253.21 137.993L253.133 138.082Z" fill="#101720"/>
<path d="M254.822 140.045C254.822 140.045 254.669 140.045 254.669 139.955C254.592 139.866 254.669 139.688 254.669 139.599C255.283 138.974 255.36 137.725 255.13 136.744C254.976 136.12 254.669 135.763 254.438 135.674C254.285 135.674 254.208 135.495 254.208 135.406C254.208 135.228 254.362 135.139 254.438 135.139C254.899 135.139 255.283 135.763 255.514 136.566C255.821 137.636 255.744 139.242 254.899 140.045C254.899 140.045 254.822 140.045 254.746 140.045H254.822Z" fill="#101720"/>
<path d="M234.778 126.04C234.778 126.04 234.624 126.04 234.624 125.951C233.549 124.345 233.626 122.918 233.703 122.918C233.703 122.74 233.856 122.65 233.933 122.65C234.087 122.65 234.164 122.829 234.164 122.918C234.164 122.918 234.01 124.167 235.008 125.594C235.085 125.683 235.008 125.862 235.008 125.951C235.008 125.951 234.932 125.951 234.855 125.951L234.778 126.04Z" fill="#101720"/>
<path d="M239.693 154.941C239.232 154.941 238.772 154.941 238.388 154.762C236.468 154.316 234.855 152.978 233.703 150.837C233.242 150.035 232.858 149.143 232.551 148.161C231.706 145.485 231.322 142.453 231.476 139.063C231.629 135.138 232.397 131.303 233.856 127.645L234.624 125.772C234.624 125.683 234.778 125.594 234.855 125.594C234.932 125.594 235.008 125.594 235.085 125.772C235.085 125.861 236.391 128.983 241.076 127.556H241.229C241.306 127.556 241.383 127.556 241.46 127.556C243.072 129.519 244.685 130.946 246.221 131.927C247.68 132.819 249.216 133.354 250.676 133.443C250.752 133.443 250.906 133.533 250.906 133.711C251.06 134.692 250.983 135.763 250.906 136.744C250.906 137.101 250.906 137.457 250.906 137.814C250.906 138.082 250.906 138.349 250.906 138.617C251.213 138.617 251.52 138.349 251.674 138.082C251.751 137.903 251.828 137.636 251.904 137.368C252.135 136.298 252.442 135.227 252.826 134.246C252.903 134.068 252.98 133.979 253.056 133.889C253.824 132.908 254.746 132.73 255.591 133.176C256.896 133.979 257.972 136.476 257.434 139.687C257.204 141.204 256.666 142.185 255.821 142.542C254.823 142.988 253.748 142.453 252.98 141.917C252.058 145.931 250.215 149.232 247.604 151.462C244.916 153.781 242.228 155.03 239.847 155.03L239.693 154.941ZM232.935 147.805C233.242 148.786 233.626 149.678 234.01 150.481C235.162 152.532 236.621 153.781 238.388 154.227C240.922 154.762 243.994 153.603 247.143 150.927C249.754 148.697 251.597 145.307 252.442 141.293C252.442 141.293 252.442 141.115 252.596 141.115C252.596 141.115 252.749 141.115 252.826 141.115C253.44 141.561 254.592 142.363 255.514 141.917C256.128 141.65 256.589 140.758 256.82 139.42C257.28 136.565 256.436 134.246 255.207 133.533C254.516 133.176 253.824 133.354 253.21 134.068C253.21 134.068 253.056 134.246 253.056 134.335C252.672 135.227 252.365 136.298 252.135 137.279C252.135 137.636 251.981 137.903 251.904 138.171C251.597 138.706 251.06 139.063 250.445 138.974C250.368 138.974 250.215 138.795 250.292 138.706C250.292 138.349 250.292 137.993 250.292 137.636C250.292 137.279 250.292 136.922 250.292 136.565C250.292 135.673 250.292 134.692 250.292 133.8C248.832 133.622 247.296 133.087 245.914 132.195C244.301 131.213 242.765 129.786 241.076 127.824C237.159 129.073 235.392 127.199 234.778 126.218L234.164 127.735C232.704 131.303 231.936 135.138 231.783 138.974C231.629 142.185 232.013 145.218 232.858 147.805H232.935Z" fill="#101720"/>
<path d="M283.392 227.371C281.933 230.493 278.477 236.47 273.716 238.254L264.423 238.789C267.418 238.521 276.557 236.915 283.469 227.371H283.392Z" fill="#101720"/>
<path d="M264.346 239.056C264.192 239.056 264.115 238.967 264.115 238.789C264.115 238.61 264.192 238.521 264.346 238.521C267.034 238.254 276.326 236.737 283.238 227.193C283.315 227.104 283.469 227.104 283.546 227.193C283.622 227.193 283.699 227.46 283.546 227.55C281.933 230.85 278.554 236.737 273.715 238.521L264.422 239.056H264.346ZM282.01 229.512C277.402 234.864 272.179 237.183 268.416 238.254L273.638 237.986C277.325 236.648 280.166 232.723 282.01 229.512Z" fill="#101720"/>
<path d="M283.393 227.639C283.393 227.639 283.316 227.639 283.239 227.639C283.162 227.55 283.162 227.371 283.239 227.282C286.849 222.376 289.306 216.043 290.535 208.372C290.535 208.193 290.689 208.104 290.842 208.193C290.996 208.193 291.073 208.372 290.996 208.55C289.69 216.31 287.233 222.733 283.546 227.728C283.546 227.728 283.47 227.817 283.393 227.817V227.639Z" fill="#101720"/>
<path d="M263.348 239.057C263.194 239.057 263.117 238.968 263.117 238.789C263.117 238.611 263.194 238.521 263.348 238.521H264.346C264.5 238.521 264.576 238.521 264.576 238.7C264.576 238.878 264.5 238.967 264.346 238.967C263.808 238.967 263.424 238.967 263.348 238.967V239.057Z" fill="#101720"/>
<path d="M170.804 218.719C168.346 217.024 166.58 214.08 165.812 210.334C164.583 204.536 165.889 198.024 169.268 192.851C173.262 186.607 180.02 176.795 185.012 169.48C180.558 176.706 173.953 187.856 170.113 196.24C164.967 207.39 169.191 216.043 170.804 218.719Z" fill="#FBBF24"/>
</svg>
